<?xml version="1.0" encoding="utf-8"?>
<!-- Generator: Adobe Illustrator 18.1.1, SVG Export Plug-In . SVG Version: 6.00 Build 0)  -->
<svg version="1.1" id="Layer_1" xmlns="http://www.w3.org/2000/svg" xmlns:xlink="http://www.w3.org/1999/xlink" x="0px" y="0px"
	 viewBox="0 0 50 50" enable-background="new 0 0 50 50" xml:space="preserve">
<g id="Layer_2">
	<path fill="#FFFFFF" d="M24.7,49.4C10.9,49.3-0.1,38.3,0,24.8C0.1,11.1,11.3,0.5,25.5,0.6c13.8,0.1,24.6,11,24.5,24.7
		C49.9,38.8,38.7,49.4,24.7,49.4z M19.7,25.7c0.1,0.5,0.1,1.9,0.5,3.2c0.6,2.2,2.3,3.3,4.6,3.4c2.3,0,4-1,4.7-3.2
		c0.9-2.7,0.9-5.5,0-8.2c-0.7-2.2-2.4-3.2-4.7-3.2C21.4,17.7,19.8,20,19.7,25.7z M41.6,25.3C41.5,25.2,41.6,25.3,41.6,25.3
		c0-0.9,0.1-1.7,0-2.6c-0.4-3.3-1.9-4.9-4.8-5c-3.1-0.1-4.8,1.4-5.2,4.9c-0.3,2.2-0.3,4.5,0.5,6.7c0.8,2.1,2.4,3,4.5,3
		c2.2,0,4-0.9,4.6-3.2C41.5,27.8,41.4,26.5,41.6,25.3z M14.6,20.9c-1.8,3.2-3.5,5.7-4.1,8.8c-0.2,1-0.4,2,1,2.2c1,0.1,2,0.1,2.2-1.2
		c0.7-3.7,2.5-6.8,4.7-9.8c0.8-1.2,1-2.7-1.1-2.8c-2.5-0.2-4.9-0.1-7.4-0.1c-1,0-1.6,0.5-1.6,1.6c0.1,1.2,0.9,1.3,1.8,1.3
		C11.5,20.9,12.8,20.9,14.6,20.9z"/>
	<path fill="#FFFFFF" d="M26.6,25.1c0,0,0,4.1-1.9,4.1c-1.8,0-1.9-4.2-1.9-4.2c0,0,0,0,0,0c0,0,0.1-4.2,2.1-4.2
		C27,20.9,26.6,25.1,26.6,25.1z"/>
	<path fill="#FFFFFF" d="M38.2,25.1c0,0,0,4.1-1.9,4.1c-1.8,0-1.9-4.2-1.9-4.2c0,0,0,0,0,0c0,0,0.1-4.2,2.1-4.2
		C38.5,20.9,38.2,25.1,38.2,25.1z"/>
</g>
</svg>
