<?xml version="1.0" encoding="utf-8"?>
<!-- Generator: Adobe Illustrator 18.1.1, SVG Export Plug-In . SVG Version: 6.00 Build 0)  -->
<svg version="1.1" id="Layer_1" xmlns="http://www.w3.org/2000/svg" xmlns:xlink="http://www.w3.org/1999/xlink" x="0px" y="0px"
	 viewBox="0 0 50 50" enable-background="new 0 0 50 50" xml:space="preserve">
<path fill="#FFFFFF" d="M30.3,35c0.5,1.3,1.6,1,2.5,1c4.9,0,9.8,0,14.6,0c0.7,0,1.3,0,1.9-0.3c0.5-0.2,0.6,0,0.6,0.4
	c0,0.9,0,1.7,0,2.6c0,3.4,0,6.8,0,10.2c0,0.8-0.3,1-1,1C33,50,17,50,1,50c-0.8,0-1-0.2-1-1c0-7.9,0-15.8,0-23.7c0-1,0-1,1.1-1
	c0.3,0,0.5,0,0.8,0c0.5,0,0.9-0.1,1-0.7c0.1-0.3,0.2-0.5,0.6-0.5c0.3,0,0.6,0.2,0.6,0.5c0.1,0.6,0.5,0.7,1.1,0.7c6,0,11.9,0,17.9,0
	c0.6,0,0.9-0.2,1-0.9c0.7,1.2,1.8,0.9,2.7,0.9c0.9,0,1.8,0,2.7,0c0.3,0,0.6,0.1,0.8-0.3c0.1-0.2,0.3-0.1,0.5,0
	c1.5,0.6,3.1,0.2,4.7,0.3c0.4,0,0.5-0.2,0.6-0.5c0.1-0.3,0.2-0.6,0.7-0.6c0.4,0,0.5,0.3,0.6,0.6c0.1,0.5,0.4,0.6,0.9,0.6
	c1.3,0,2.6,0,3.9,0c0.6,0,1.1,0,1.1-0.9c0.4,1,1.2,0.9,1.9,0.9c0.6,0,1.3,0,1.9,0c0.5,0,0.7-0.2,0.7-0.6c0-2.5,0-5,0-7.5
	c0-0.4-0.2-0.6-0.6-0.6c-0.8,0-1.6,0-2.4,0c-0.7,0-1.1,0.1-1,1.2c-1.1-1.9-2.6-1-3.9-1.2c-0.3,0-0.5,0.2-0.5,0.5c0,0.2,0,0.5,0,0.7
	c-0.1,0-0.2,0-0.2-0.1c-0.3-1-0.9-1.2-1.9-1.2c-1.3,0.1-2.6,0-3.9,0c-1.4,0-2.8,0.1-4.3,0.1c-5.4-0.2-10.8-0.1-16.2-0.1
	c-0.9,0-1.6,0-1.7,1.1c-0.1,0-0.2,0-0.2,0c-0.2-1-0.9-1.1-1.8-1c-0.6,0.1-1.2,0-1.7,0c-1.3,0-1.3,0-1.4,1.2c0,0-0.1,0-0.1-0.1
	c-0.3-1-0.9-1.2-1.9-1.1c-2.3,0.1-2.3,0-3.2,2.1c-0.2,0.4-0.3,0.8-0.5,1.2C-0.1,18.6,0,18.3,0,18.1c0-5.7,0-11.3,0-17C0,0,0,0,1.1,0
	C17,0,33,0,48.9,0C50,0,50,0,50,1.1c0,8.3,0,16.7,0,25c0,1.1,0,1.1-1.1,1.1c-9.6,0-19.2,0-28.8,0c-0.6,0-1.3,0-1.6,0.7
	c-0.2,0.4-0.4,0.2-0.6-0.1c-0.3-0.6-0.8-0.6-1.3-0.6c-2.4,0-4.8,0-7.2,0c-0.7,0-0.9,0.2-0.9,0.9c0,2.4,0,4.7,0,7.1
	c0,0.7,0.2,0.9,0.9,0.8c2.4,0,4.9,0,7.3,0c0.5,0,0.9-0.1,1.2-0.6c0.2-0.3,0.4-0.5,0.6-0.1c0.3,0.6,0.8,0.7,1.4,0.7
	c1.3,0,2.5,0,3.8,0c0.7,0,1-0.2,0.9-0.9c0-0.4-0.2-0.8,0.4-1c1.3-0.3,1.3-0.3,1.3,1c0,0.7,0.2,1,0.9,0.9c0.7-0.1,1.4,0,2,0
	C29.9,36.1,30.3,35.9,30.3,35z"/>
<path fill="#FFFFFF" d="M11,20.7c0.3-1,0.6-2,0.8-3c0.1-0.5,0.4-0.7,0.9-0.7c2.1,0.1,1.7-0.2,1.8,1.8c0,1.1,0,2.2,0,3.3
	c0,0.5-0.1,0.8-0.7,0.8c-0.6,0-0.7-0.3-0.7-0.8c0-1.3,0-2.7,0.1-4c-0.3,0-0.3,0.2-0.3,0.4c-0.4,1.2-0.7,2.4-1.1,3.6
	c-0.1,0.5-0.3,0.8-0.9,0.8c-0.6,0-0.8-0.3-0.9-0.8c-0.4-1.4-0.8-2.8-1.4-4.1c0,0.6,0,1.2,0,1.9c0,0.8,0,1.6,0,2.4
	c0,0.5-0.3,0.6-0.7,0.6c-0.4,0-0.7-0.1-0.7-0.6c0-1.5,0-3.1,0-4.6c0-0.4,0.2-0.6,0.6-0.6c1.9-0.1,1.9-0.1,2.4,1.7
	c0.2,0.7,0.4,1.4,0.6,2C10.8,20.7,10.9,20.7,11,20.7z"/>
<path fill="#FFFFFF" d="M44.7,20.6c0-1.1,0-2,0-2.9c0-0.5,0.1-0.7,0.7-0.7c0.5,0,0.8,0.2,0.7,0.7c0,1.4,0,2.8,0,4.2
	c0,0.3,0.2,0.9-0.3,0.9c-0.6,0.1-1.2,0.3-1.6-0.4c-0.7-1.1-1.4-2.1-2.2-3.1c0,0.9,0,1.8,0,2.7c0,0.3,0.1,0.6-0.2,0.8
	c-0.6,0.3-1.2,0-1.2-0.7c0-1.4,0-2.7,0-4.1c0-0.3-0.2-0.9,0.4-1c0.6-0.1,1.3-0.3,1.7,0.4c0.6,0.9,1.2,1.8,1.7,2.7
	C44.3,20.2,44.4,20.3,44.7,20.6z"/>
<path fill="#FFFFFF" d="M9.9,31.6c0-0.8,0-1.6,0-2.4c0-0.4,0.2-0.6,0.6-0.6c1.2,0,2.4,0,3.5,0c0.4,0,0.6,0.2,0.6,0.6
	c0,0.4-0.1,0.6-0.6,0.6c-0.7,0-1.4,0-2.1,0c-0.4,0-0.6,0.1-0.6,0.5c0,0.5,0.2,0.6,0.6,0.6c0.7,0,1.3,0,2,0c0.4,0,0.6,0.2,0.6,0.6
	c0,0.4-0.2,0.6-0.6,0.6c-0.7,0-1.3,0-2,0c-0.4,0-0.6,0.2-0.6,0.6c0,0.4,0.2,0.5,0.6,0.5c0.7,0,1.4,0,2.1,0c0.4,0,0.6,0.2,0.6,0.6
	c0,0.4-0.2,0.6-0.6,0.6c-1.2,0-2.4,0-3.5,0c-0.5,0-0.6-0.2-0.6-0.7C9.9,33.1,9.9,32.4,9.9,31.6z"/>
<path fill="#FFFFFF" d="M33.8,31.6c0-0.7,0-1.5,0-2.2c0-0.5,0.1-0.7,0.7-0.7c1.2,0,2.3,0,3.5,0c0.5,0,0.6,0.2,0.6,0.7
	c0,0.5-0.2,0.6-0.6,0.6c-0.7,0-1.3,0-2,0c-0.4,0-0.7,0-0.7,0.6c0,0.6,0.4,0.5,0.7,0.5c0.6,0,1.2,0,1.8,0c0.4,0,0.6,0.1,0.6,0.6
	c0,0.5-0.2,0.7-0.7,0.7c-0.7,0-1.3,0-2,0c-0.4,0-0.6,0.2-0.6,0.6c0,0.4,0.2,0.6,0.6,0.6c0.7,0,1.4,0,2.1,0c0.4,0,0.6,0.1,0.6,0.6
	c0,0.5-0.2,0.7-0.6,0.7c-1.2,0-2.3,0-3.5,0c-0.5,0-0.7-0.2-0.7-0.7C33.8,33.1,33.8,32.3,33.8,31.6z"/>
<path fill="#FFFFFF" d="M46.8,34.6c-0.4,0-0.8,0-1.2,0c-0.5,0-0.6-0.2-0.6-0.7c0-0.5,0.2-0.6,0.6-0.6c0.7,0,1.5,0,2.2,0
	c0.4,0,0.7-0.1,0.7-0.6c0-0.4-0.3-0.5-0.7-0.5c-0.4,0-0.9,0-1.3,0c-1-0.1-1.6-0.6-1.7-1.5c-0.1-1.1,0.4-1.8,1.5-2c1-0.2,2,0,3.1-0.1
	c0.2,0,0.4,0,0.4,0.3c-0.1,0.4-0.2,0.9-0.8,0.9c-0.6,0-1.3,0-1.9,0c-0.4,0-0.8,0.1-0.8,0.5c0,0.5,0.4,0.5,0.8,0.6c0.5,0,0.9,0,1.4,0
	c0.9,0.1,1.5,0.7,1.5,1.5c0.1,0.9-0.5,1.7-1.3,1.9C48,34.6,47.4,34.6,46.8,34.6z"/>
<path fill="#FFFFFF" d="M42.3,28.6c0.3,0,0.7,0,1,0c0.3,0,0.8-0.2,0.7,0.3c0,0.4-0.2,0.9-0.8,0.9c-0.6,0-1.2,0-1.8,0
	c-0.4,0-0.9,0-0.8,0.6c0,0.5,0.4,0.5,0.8,0.5c0.5,0,1,0,1.5,0.1c0.8,0.1,1.3,0.6,1.4,1.4c0.1,0.9-0.3,1.6-1,1.9
	c-1.2,0.4-2.4,0.2-3.6,0.2c-0.4,0-0.4-0.4-0.4-0.7c0-0.4,0.2-0.5,0.5-0.5c0.7,0,1.5,0,2.2,0c0.4,0,0.8-0.1,0.8-0.6
	c0-0.5-0.4-0.5-0.8-0.5c-0.4,0-0.8,0-1.2,0c-1.1-0.1-1.7-0.6-1.7-1.6c-0.1-0.9,0.5-1.7,1.5-1.9C41.2,28.6,41.8,28.6,42.3,28.6
	C42.3,28.6,42.3,28.6,42.3,28.6z"/>
<path fill="#FFFFFF" d="M15.8,28.7c0.9-0.2,1.2,0.5,1.7,1.1c0.6,0.8,0.6,0.8,1.2,0c0.5-0.6,0.9-1.2,1.8-1.1c0.2,0,0.4-0.1,0.5,0.1
	c0.1,0.2-0.1,0.3-0.2,0.5c-0.4,0.6-0.8,1.1-1.3,1.6c-0.5,0.5-0.4,1,0,1.5c0.5,0.5,0.9,1.1,1.3,1.7c0.1,0.1,0.3,0.3,0.2,0.5
	c-0.1,0.2-0.3,0.1-0.5,0.1c-1,0.2-1.4-0.5-1.9-1.2c-0.6-0.7-0.6-0.7-1.1,0c-0.5,0.7-1,1.4-2,1.2c-0.4-0.1-0.5-0.2-0.2-0.5
	c0.5-0.6,1-1.3,1.5-1.9c0.4-0.4,0.3-0.7,0-1.1c-0.5-0.5-0.9-1.1-1.3-1.6c-0.2-0.2-0.5-0.4-0.4-0.6C15.2,28.5,15.6,28.7,15.8,28.7z"
	/>
<path fill="#FFFFFF" d="M18,17c0.6,0,1.1,0,1.7,0c0.4,0,0.7,0.1,0.7,0.6c0,0.5-0.2,0.6-0.6,0.6c-0.7,0-1.3,0-2,0
	c-0.4,0-0.6,0.2-0.6,0.6c0,0.4,0.2,0.6,0.6,0.6c0.7,0,1.3,0,2,0c0.4,0,0.6,0.1,0.6,0.6c0,0.5-0.3,0.6-0.7,0.6c-0.6,0-1.2,0-1.7,0
	c-0.4,0-0.8,0-0.8,0.6c0,0.6,0.3,0.6,0.8,0.6c0.6,0,1.2,0,1.8,0c0.4,0,0.6,0.1,0.6,0.6c0,0.5-0.3,0.6-0.7,0.6c-1.1,0-2.2,0-3.3,0
	c-0.5,0-0.7-0.2-0.7-0.6c0-1.5,0-3,0-4.6c0-0.5,0.2-0.7,0.7-0.6C16.9,17,17.4,17,18,17z"/>
<path fill="#FFFFFF" d="M32.8,17c0.2,0,0.5,0,0.7,0c0.4,0,0.6,0.2,0.6,0.6c0,0.4-0.1,0.7-0.6,0.6c-0.3,0-0.6,0-0.9,0
	c-0.6,0-1.2,0.2-1.4,0.8C31,19.7,31,20.4,31.4,21c0.2,0.3,0.5,0.4,0.8,0.5c0.2,0.1,0.7-0.1,0.6,0.3c-0.1,0.4-0.2,0.9-0.9,0.9
	c-1.1,0-2.1-1-2.3-2.2C29.4,18.3,30.5,17,32.8,17z"/>
<path fill="#FFFFFF" d="M27.4,19.9c0-0.7,0-1.5,0-2.2c0-0.5,0.2-0.7,0.7-0.7c0.5,0,0.7,0.2,0.7,0.7c0,1.5,0,3,0,4.5
	c0,0.5-0.2,0.7-0.7,0.7c-0.6,0-0.7-0.2-0.7-0.7C27.4,21.3,27.4,20.6,27.4,19.9z"/>
<path fill="#FFFFFF" d="M31.7,32.8c-0.3-0.3-0.3-0.5,0.1-0.7c0.9-0.5,1.2-1.2,0.9-2.2c-0.2-0.8-0.8-1.3-1.8-1.3c-0.9,0-1.8,0-2.7,0
	c-0.5,0-0.7,0.2-0.7,0.7c0,1.5,0,3,0,4.5c0,0.5,0.2,0.8,0.7,0.8c0.6,0,0.7-0.3,0.7-0.8c0-0.3,0-0.5,0-0.8c0-0.2,0-0.5,0.3-0.6
	c0.3-0.1,0.4,0.1,0.6,0.3c0.3,0.3,0.6,0.7,0.8,1c0.6,0.9,1.4,0.9,2.4,0.7C32.6,33.9,32.1,33.3,31.7,32.8z M30.5,31.3
	c-0.2,0-0.3,0-0.5,0c-0.3-0.1-1,0.3-1-0.6c0-0.6,0.1-0.9,0.8-0.8c0.3,0,0.5,0,0.8,0c0.5,0,0.8,0.2,0.9,0.7
	C31.4,31.1,31,31.3,30.5,31.3z"/>
<path fill="#FFFFFF" d="M25.5,21.2c-0.3-0.3-0.3-0.5,0.1-0.7c0.9-0.5,1.2-1.3,0.9-2.2c-0.2-0.8-0.9-1.3-1.9-1.3c-0.9,0-1.7,0-2.6,0
	c-0.5,0-0.7,0.2-0.7,0.7c0,1.4,0,2.9,0,4.3c0,0.5,0.1,0.8,0.7,0.8c0.6,0,0.7-0.3,0.7-0.8c0-0.2,0-0.5,0-0.7c0-0.2,0-0.4,0.3-0.5
	c0.2,0,0.4,0,0.6,0.2c0.3,0.3,0.6,0.6,0.9,1c0.5,0.9,1.3,0.9,2.4,0.7C26.3,22.1,25.9,21.7,25.5,21.2z M24.7,19.5
	c-0.5,0.1-1,0.1-1.5,0c-0.5-0.1-0.3-0.5-0.3-0.7c0-0.3,0-0.6,0.4-0.6c0.2,0,0.5,0,0.7,0c0,0,0,0,0,0c0.2,0,0.5,0,0.7,0
	c0.4,0.1,0.5,0.3,0.5,0.7C25.2,19.2,25,19.4,24.7,19.5z"/>
<path fill="#FFFFFF" d="M39.8,21.9c-0.6-1.4-1.2-2.7-1.7-4.1c-0.2-0.6-0.5-1-1.3-0.8c-0.8-0.2-1.1,0.2-1.4,0.9
	c-0.5,1.3-1.1,2.6-1.7,4c-0.1,0.3-0.4,0.6-0.2,0.9c0.3,0.3,0.7,0.1,1.1,0.1c0.3,0,0.4-0.3,0.5-0.6c0.1-0.2,0.1-0.6,0.4-0.6
	c0.8,0,1.6-0.1,2.3,0c0.5,0,0.4,0.6,0.6,0.9c0.2,0.3,1.2,0.5,1.4,0.2C40.2,22.5,39.9,22.2,39.8,21.9z M36.6,20.4
	c-0.9,0-0.9,0-0.6-0.9c0.2-0.4,0.3-0.8,0.6-1.4c0.3,0.6,0.4,1,0.6,1.4C37.6,20.4,37.6,20.4,36.6,20.4z"/>
<path fill="#FFFFFF" d="M6.6,22c-0.6-1.4-1.2-2.8-1.8-4.2c-0.2-0.6-0.6-1-1.3-0.8c-0.4,0-0.9-0.2-1.1,0.4C1.7,19,1,20.6,0.3,22.3
	c-0.1,0.2-0.2,0.4,0.1,0.5c0.6,0.2,1.2,0,1.4-0.6C2,21.9,2,21.6,2.3,21.6c0.8,0,1.5-0.1,2.3,0c0.4,0.1,0.4,0.6,0.6,0.9
	c0.4,0.5,0.9,0.3,1.4,0.2C7.1,22.6,6.7,22.2,6.6,22z M3.8,20.4c-0.2,0-0.5,0-0.7,0c-0.4,0-0.5-0.1-0.4-0.5c0.2-0.5,0.4-1,0.6-1.5
	c0.1,0,0.1,0,0.2,0c0.2,0.5,0.4,1.1,0.6,1.6C4.3,20.3,4.2,20.4,3.8,20.4z"/>
<path fill="#FFFFFF" d="M24.9,28.7c-0.9,0-1.8,0-2.7,0c-0.5,0-0.7,0.2-0.7,0.7c0,0.7,0,1.5,0,2.2c0,0.8,0,1.6,0,2.4
	c0,0.5,0.2,0.7,0.7,0.7c0.5,0,0.7-0.1,0.7-0.7c-0.1-1.4,0-1.3,1.4-1.3c0.2,0,0.3,0,0.5,0c1.2-0.1,1.9-0.8,2-1.9
	C26.8,29.5,26.1,28.7,24.9,28.7z M24.5,31.3c-0.2,0-0.3,0-0.5,0c-0.3-0.1-0.8,0.2-1-0.3c-0.2-0.7,0-1.1,0.8-1.1c0.3,0,0.5,0,0.8,0
	c0.4,0,0.8,0.2,0.8,0.7C25.3,31.1,25,31.3,24.5,31.3z"/>
</svg>
