<?xml version="1.0" encoding="utf-8"?>
<!-- Generator: Adobe Illustrator 18.1.1, SVG Export Plug-In . SVG Version: 6.00 Build 0)  -->
<svg version="1.1" id="Layer_1" xmlns="http://www.w3.org/2000/svg" xmlns:xlink="http://www.w3.org/1999/xlink" x="0px" y="0px"
	 viewBox="0 0 50 50" enable-background="new 0 0 50 50" xml:space="preserve">
<g>
	<path fill="#FFFFFF" d="M25.7,3.5c0.4,0.1,0.8,0.2,1.2,0.3c2.5,0.9,4.1,3.4,3.7,5.9c-0.5,2.8-2.6,4.8-5.4,4.8
		c-2.6,0.1-5-1.8-5.5-4.4c-0.6-3,1.5-6,4.5-6.5c0.1,0,0.2-0.1,0.2-0.1C24.8,3.5,25.2,3.5,25.7,3.5z"/>
	<path fill="#FFFFFF" d="M25,30.6c4.4,0,8.8,0,13.2,0c0.2,0,0.4,0,0.6,0c0.8,0.1,1.3,0.7,1.1,1.4c-0.4,1.4-0.8,2.7-1.6,3.9
		c-0.3,0.4-0.6,0.6-1.1,0.8c-0.7,0.2-1,0.8-1.1,1.4c-0.3,1.4-0.6,2.7-0.8,4.1c-0.2,0.8-0.3,1.5-0.4,2.3c-0.2,1.2-1.2,2-2.4,2
		c-4.9,0-9.8,0-14.8,0c-1.3,0-2.2-0.8-2.5-2.1c-0.4-1.9-0.7-3.8-1.1-5.7c-0.1-0.5-0.3-0.9-0.5-1.4c-0.1-0.2-0.4-0.5-0.7-0.6
		c-0.7-0.1-1.2-0.6-1.5-1.2c-0.5-1.1-0.9-2.2-1.3-3.4c-0.3-0.8,0.3-1.5,1.1-1.5c0.2,0,0.4,0,0.6,0C16.2,30.6,20.6,30.6,25,30.6z"/>
	<path fill="#FFFFFF" d="M30.3,23.2c0,0.1,0,0.3,0,0.4c0,1.4,0,2.7,0,4.1c0,0.7-0.1,0.8-0.8,0.8c-1.5,0-3.1,0-4.6,0
		c-1.3,0-2.6,0-3.9,0c-0.8,0-0.9-0.1-0.9-0.8c0-1.3,0-2.7,0-4c0-0.1,0-0.3-0.1-0.5c-0.1,0.1-0.2,0.3-0.2,0.4c-0.5,1.4-1,2.8-1.6,4.2
		c-0.2,0.6-0.4,0.7-1.1,0.7c-0.8,0-1.5,0-2.3,0c-0.7,0-0.8-0.2-0.6-0.8c1.2-3.1,2.3-6.2,3.5-9.3c0.3-0.9,0.8-1.7,1.7-2
		c0.3-0.1,0.7-0.2,1.1-0.2c2.8,0,5.5,0,8.3,0c1.6,0,2.5,0.8,2.9,1.9c1.3,3.2,2.4,6.4,3.7,9.7c0.2,0.4,0.1,0.6-0.4,0.6
		c-0.8,0-1.6,0-2.4,0c-0.4,0-0.6-0.3-0.7-0.7c-0.5-1.4-1-2.8-1.5-4.2c-0.1-0.2-0.1-0.3-0.2-0.5C30.4,23.2,30.4,23.2,30.3,23.2z
		 M26.3,19c0,0,0.1,0,0.1,0c0-0.1,0-0.1,0-0.2c0-0.7,0-0.8-0.7-0.8c-0.5,0-1,0-1.5,0c-0.6,0-0.7,0.1-0.6,0.7c0,0.4,0,0.9-0.1,1.3
		c-0.3,1.4-0.6,2.9-0.9,4.3c-0.1,0.4,0,0.6,0.3,0.9c0.6,0.5,1.2,1.1,1.7,1.6c0.3,0.2,0.5,0.2,0.8,0c0.6-0.5,1.2-1.1,1.7-1.6
		c0.3-0.2,0.3-0.5,0.3-0.9c-0.2-0.8-0.3-1.6-0.5-2.4C26.7,21,26.5,20,26.3,19z"/>
</g>
</svg>
