<?xml version="1.0" encoding="utf-8"?>
<!-- Generator: Adobe Illustrator 18.1.1, SVG Export Plug-In . SVG Version: 6.00 Build 0)  -->
<svg version="1.1" id="Layer_1" xmlns="http://www.w3.org/2000/svg" xmlns:xlink="http://www.w3.org/1999/xlink" x="0px" y="0px"
	 viewBox="0 0 50 50" enable-background="new 0 0 50 50" xml:space="preserve">
<g>
	<path fill="#FFFFFF" d="M47.3,1c1.2,0.6,1.3,1.2,0.7,2.3c-0.1,0.2-0.1,0.6,0,0.9c0.1,0.6,0.2,1.2,0.2,1.8c0.1,1.4-0.7,2.2-2.1,2.1
		c-0.6,0-1.2-0.2-1.9-0.2c-0.8-0.1-0.9,0-0.8,0.8c0.1,0.6,0.2,1.1,0.2,1.6c0.2,1.4-0.6,2.3-2.1,2.3c-0.7,0-1.3-0.2-2-0.2
		c-0.7-0.1-0.8,0-0.7,0.7c0.1,0.5,0.2,1.1,0.2,1.5c0.2,1.8-0.8,2.8-2.5,2.5c-0.6-0.1-1.2-0.2-1.8-0.4c-0.5-0.1-0.6,0-0.6,0.5
		c0,0.5,0.1,0.9,0.2,1.4c0,0.2,0.1,0.5,0.1,0.8c0,1.4-0.8,2.2-2.2,2.1c-0.6,0-1.1-0.1-1.6-0.2c-0.5-0.1-0.8-0.1-1.2,0.2
		c-0.6,0.4-1.4,0.2-1.8-0.4c-0.5-0.6-0.4-1.4,0.1-1.9c0.7-0.7,1.5-0.9,2.5-0.8c0.4,0,0.8,0.1,1.3,0.1c-0.1-1.3-0.4-2.7,0.7-3.8
		s2.3-0.9,3.8-0.7c-0.2-1.4-0.4-2.7,0.7-3.8c1.1-1.1,2.3-0.9,3.8-0.7c0-1.5-0.2-2.8,0.9-3.9c1.1-1.1,2.3-0.9,3.8-0.7
		c0-0.2-0.1-0.6-0.1-0.8c-0.1-0.8-0.1-1.5,0.4-2.2c0.2-0.5,0.6-0.8,1.2-1.1C46.8,1,47.1,1,47.3,1z"/>
	<path fill="#FFFFFF" d="M2.4,49c-1.1-0.6-1.3-1.1-0.8-2.2c1.1-2.8,2.1-5.6,3.2-8.6c0-0.1,0.1-0.2,0.2-0.5c1.4,3.2,3.3,6,5.6,8.3
		c-0.2,0.1-0.4,0.1-0.5,0.2c-2.3,0.8-4.6,1.8-6.9,2.6C3.1,48.9,3.1,49,3,49C2.9,49,2.7,49,2.4,49z"/>
	<path fill="#FFFFFF" d="M15.8,14.8c1.8,1.8,3.4,3.4,5,5C21,20,21,20.2,21,20.5c-0.4,6.1,1.3,11.5,4.8,16.4c0.7,0.9,1.4,1.8,2.1,2.7
		c-0.1,0-0.2,0.1-0.2,0.1c-1.6,0.6-3.3,1.2-4.8,1.9c-0.2,0.1-0.5,0.1-0.7-0.1c-4.6-3.8-7.3-8.6-8.1-14.4c-0.6-4.1,0-8.1,1.6-11.9
		C15.7,15.1,15.7,15,15.8,14.8z"/>
	<path fill="#FFFFFF" d="M11.1,21.5C10.5,30,13.4,37,19.5,42.8c-0.1,0.1-0.2,0.1-0.4,0.1c-1.6,0.6-3.4,1.3-5,1.9
		c-0.2,0.1-0.5,0.1-0.7-0.1c-3.3-2.9-5.5-6.6-6.7-10.9c0-0.2-0.1-0.5,0-0.6c1.4-3.8,2.8-7.6,4.2-11.4C11,21.8,11,21.7,11.1,21.5z"/>
	<path fill="#FFFFFF" d="M23.8,22.8c0.2,0.2,0.4,0.2,0.5,0.4c3.8,3.8,7.5,7.5,11.2,11.2c0.4,0.4,0.7,0.8,0.6,1.3
		c0,0.6-0.4,0.9-0.9,1.2c-1.3,0.5-2.6,0.9-3.9,1.4c-0.1,0-0.4,0-0.5-0.1c-2.7-2.6-4.7-5.6-5.9-9.3C24.3,27.1,23.8,25.1,23.8,22.8z"
		/>
	<path fill="#FFFFFF" d="M47.1,23.6c-0.7-0.1-1.3-0.2-1.9-0.2c-3.4-0.2-6.2,1.2-8.7,3.5c-0.1,0.1-0.4,0.4-0.5,0.5
		c-0.6,0.5-1.4,0.4-1.9-0.1c-0.5-0.5-0.6-1.4,0-1.9c3.5-3.5,7.6-5.4,12.7-4.6c0.2,0,0.5,0.1,0.8,0.2c0.7,0.2,1.1,0.9,0.9,1.5
		C48.2,23.3,47.6,23.8,47.1,23.6z"/>
	<path fill="#FFFFFF" d="M29.9,5.9c-0.1,3.9-1.8,7-4.3,9.9c-0.1,0.1-0.4,0.4-0.5,0.5c-0.6,0.6-1.4,0.6-2,0c-0.6-0.6-0.6-1.4,0-2
		c0.9-1.1,1.9-2.1,2.5-3.3c1.2-2.3,1.8-4.7,1.1-7.3C26.4,3,26.9,2.3,27.6,2c0.7-0.2,1.5,0.1,1.8,0.9C29.6,3.9,29.7,5,29.9,5.9z"/>
	<path fill="#FFFFFF" d="M44.4,30.2c0,0.8-0.6,1.4-1.4,1.4s-1.4-0.6-1.4-1.4c0-0.7,0.6-1.4,1.4-1.4S44.4,29.4,44.4,30.2z"/>
	<path fill="#FFFFFF" d="M22.5,8.4c0,0.8-0.7,1.4-1.4,1.4c-0.8,0-1.4-0.7-1.4-1.4c0-0.8,0.6-1.4,1.4-1.4C21.9,7,22.5,7.7,22.5,8.4z"
		/>
	<path fill="#FFFFFF" d="M35.1,7.8c-0.8,0-1.4-0.6-1.4-1.4S34.3,5,35.1,5s1.4,0.6,1.4,1.4C36.4,7.2,35.8,7.8,35.1,7.8z"/>
	<circle fill="#FFFFFF" cx="44.9" cy="16.4" r="1.4"/>
</g>
</svg>
