<?xml version="1.0" encoding="utf-8"?>
<!-- Generator: Adobe Illustrator 18.1.1, SVG Export Plug-In . SVG Version: 6.00 Build 0)  -->
<svg version="1.1" id="Layer_1" xmlns="http://www.w3.org/2000/svg" xmlns:xlink="http://www.w3.org/1999/xlink" x="0px" y="0px"
	 viewBox="0 0 50 50" enable-background="new 0 0 50 50" xml:space="preserve">
<g>
	<path fill="#FFFFFF" d="M31.5,0C31.8,0.2,32,0.4,32,0.8c0,0.4-0.2,0.8-0.5,0.9c-0.4,0.1-0.8,0-1-0.3c-0.2-0.3-0.2-0.8,0-1.1
		c0.1-0.1,0.2-0.2,0.3-0.3C31,0,31.3,0,31.5,0z"/>
	<path fill="#FFFFFF" d="M16.7,30.6c-5.3,0.1-9.8-3.8-10.6-9.1c-0.3-2.3,0.1-4.4,1.1-6.5c0.2-0.3,0.3-0.7,0.5-1
		c0.3-0.7,0.3-0.7,1.1-0.5c6.3,1.2,12.4,2.5,18.7,3.7c0.3,0.1,0.5,0.2,0.4,0.5c-0.3,1.8-0.5,3.4-1.1,5.1c-1.2,4.1-4,6.5-8,7.6
		c-0.3,0.1-0.7,0.1-1.1,0.2C17.5,30.6,17.2,30.6,16.7,30.6z M25.9,20.3c0-0.4-0.2-0.8-0.7-0.9c-0.4-0.1-0.8,0-1,0.4
		c-0.1,0.2-0.1,0.3-0.2,0.5c-1.2,3.1-3.1,5.4-6.3,6.5c-0.3,0.1-0.5,0.1-0.9,0.2c-0.4,0.2-0.7,0.7-0.4,1.1c0.1,0.4,0.5,0.7,1,0.5
		c0.5-0.1,1.1-0.2,1.5-0.4c3.5-1.5,5.6-4.2,6.9-7.7C25.9,20.6,25.9,20.4,25.9,20.3z"/>
	<path fill="#FFFFFF" d="M42,21c0,5.2-3.6,9.5-8.8,10.3c-3,0.5-5.6-0.1-8-1.9c-0.2-0.1-0.3-0.2-0.1-0.4c2.1-1.9,3.3-4.3,3.8-7
		c0.1-0.4,0.3-0.4,0.5-0.4c1.6-0.2,3.3-0.4,4.8-0.7c2.3-0.3,4.7-0.5,7-1c0.4-0.1,0.5,0,0.5,0.4C42,20.6,42,20.8,42,21z M39.7,22.6
		c0-0.8-0.2-1.1-0.8-1.2c-0.4-0.1-0.9,0.2-1,0.7c-0.2,1.6-0.9,2.9-2.2,4c-0.3,0.3-0.4,0.9-0.1,1.2c0.3,0.3,0.8,0.4,1.2,0.1
		C38.5,26.3,39.5,24.5,39.7,22.6z"/>
	<path fill="#FFFFFF" d="M28.3,9.8c2.4-0.8,4.7-1.6,7-2.4c0.4-0.2,0.9,0,1.1,0.4c1.8,3.1,3.6,6.2,4.9,9.5c0.4,1,0.4,1-0.7,1.1
		c-2.2,0.2-4.4,0.5-6.6,0.9c-1.4,0.2-3,0.3-4.4,0.5c-0.2,0-0.2,0-0.2-0.2c0.3-2.3,0.8-4.6,1.1-6.9c0.2-1.2-0.2-1.9-1.3-2.3
		C29,10.1,28.6,10,28.3,9.8z"/>
	<path fill="#FFFFFF" d="M9,11.6c0.9-1.6,1.9-3.3,2.7-4.8C12,6.4,12.5,6.3,13,6.5c3.4,1.2,6.8,2.3,10.2,3.5c1.8,0.5,3.5,1.2,5.3,1.8
		c0.3,0.1,0.3,0.2,0.3,0.5c-0.1,1-0.3,2-0.4,3c0,0.3-0.2,0.2-0.4,0.2c-2.1-0.4-4.1-0.8-6.2-1.2C17.6,13.4,13.4,12.5,9,11.6z"/>
	<path fill="#FFFFFF" d="M46.1,46.3c0,0.3-0.3,0.5-0.8,0.7c-2.5,0.9-5.2,1.8-7.7,2.6c-0.4,0.1-0.8,0.2-1.2,0.4
		c-0.4,0.2-0.8,0-1.1-0.3c-0.2-0.3-0.2-0.8,0.1-1.2c0.4-0.5,1-1,1.4-1.4c1.4-1.2,1.8-2.5,1.1-4.3c-1.1-3.2-2.2-6.4-3.3-9.7
		c-0.1-0.3-0.1-0.4,0.3-0.5c0.3-0.1,0.5-0.2,0.9-0.3c0.3-0.1,0.4-0.1,0.5,0.2c0.8,2.3,1.5,4.6,2.3,6.9c0.3,1,0.7,2,1,3
		c0.5,1.4,1.5,2.3,3.1,2.5c0.8,0.1,1.6,0.1,2.4,0.2C45.9,45.3,46.1,45.6,46.1,46.3z"/>
	<path fill="#FFFFFF" d="M12.1,49.2c-0.1,0-0.3-0.1-0.4-0.1c-3-1-5.8-2-8.8-3c-0.3-0.1-0.7-0.2-0.8-0.7c-0.1-0.5,0.2-1,0.9-1.1
		c0.8-0.1,1.5-0.2,2.2-0.2c1.4,0,2.6-1,3.2-2.5c1.1-3.2,2.2-6.5,3.3-9.7c0.1-0.4,0.2-0.4,0.7-0.3c0.2,0.1,0.5,0.2,0.9,0.3
		c0.3,0.1,0.3,0.2,0.2,0.5c-1.1,3.2-2.2,6.5-3.3,9.7c-0.5,1.8-0.2,3.1,1.2,4.3c0.5,0.4,1,0.9,1.5,1.4c0.2,0.2,0.3,0.5,0.1,1
		C12.8,49,12.6,49.2,12.1,49.2z"/>
	<path fill="#FFFFFF" d="M18,2.6c0,0.5-0.4,0.9-0.9,0.9s-0.9-0.4-0.9-0.9s0.4-0.9,0.9-0.9S18,2.1,18,2.6z"/>
	<path fill="#FFFFFF" d="M29.4,4.4c0-0.5,0.3-0.9,0.9-0.9c0.4,0,0.9,0.4,0.9,0.9s-0.4,0.9-0.9,0.9C29.8,5.3,29.4,4.9,29.4,4.4z"/>
	<path fill="#FFFFFF" d="M23.2,4.4c0.5,0,0.9,0.4,0.9,0.9c0,0.5-0.4,0.9-0.9,0.9s-0.9-0.4-0.9-0.9C22.4,4.8,22.7,4.4,23.2,4.4z"/>
	<path fill="#FFFFFF" d="M26.8,4.4c-0.5,0-0.9-0.4-0.9-0.9c0-0.5,0.4-0.9,0.9-0.9c0.4,0,0.9,0.4,0.9,0.9C27.6,4.1,27.3,4.4,26.8,4.4
		z"/>
	<path fill="#FFFFFF" d="M22.4,1.7c0,0.5-0.4,0.9-0.9,0.9c-0.5,0-0.9-0.4-0.9-0.9s0.4-0.9,0.9-0.9S22.4,1.2,22.4,1.7z"/>
</g>
</svg>
