<?xml version="1.0" encoding="utf-8"?>
<!-- Generator: Adobe Illustrator 18.1.1, SVG Export Plug-In . SVG Version: 6.00 Build 0)  -->
<svg version="1.1" id="Layer_1" xmlns="http://www.w3.org/2000/svg" xmlns:xlink="http://www.w3.org/1999/xlink" x="0px" y="0px"
	 viewBox="0 0 50 50" enable-background="new 0 0 50 50" xml:space="preserve">
<g id="Layer_2">
	<path fill="#FFFFFF" d="M4.5,15.9c4,3.1,7.9,6.2,11.9,9.3c2.3-3.6,4.6-7.3,6.8-10.9c-1.3-1.5-1.4-2.9-0.2-4c1-0.9,2.6-0.9,3.6,0
		c1.1,1.1,1.1,2.5-0.2,4c2.2,3.5,4.4,7,6.7,10.6c4.1-3,8.1-6,12.1-9.1c-0.7-1.2-0.7-2.6,0.4-3.6c0.9-0.8,2.2-0.8,3.1-0.2
		c0.9,0.6,1.4,1.8,1,2.9c-0.4,1.3-1.3,1.8-3.1,1.8c-0.4,1.5-0.8,3.1-1.2,4.7c-1.1,4.3-2.2,8.7-3.3,13C42.2,34.8,42,35,41.6,35
		c-11.1,0-22.3,0-33.4,0c-0.4,0-0.6-0.2-0.7-0.5C6.1,28.7,4.6,23,3.2,17.3c-0.1-0.5-0.3-0.7-0.8-0.7C1,16.6,0,15.4,0,14
		c0-1.4,1.2-2.5,2.6-2.5c1.4,0,2.5,1.1,2.6,2.4C5.2,14.7,5.2,14.8,4.5,15.9z M24.9,31c1.9,0,3.4-1.5,3.4-3.4c0-1.8-1.5-3.4-3.4-3.4
		c-1.9,0-3.4,1.5-3.4,3.4C21.5,29.5,23,31,24.9,31z"/>
	<path fill="#FFFFFF" d="M7.7,36.5c11.5,0,22.9,0,34.4,0c0,1.4,0.1,2.7,0,4c0,0.8-0.8,1.4-1.6,1.4c-0.1,0-0.3,0-0.4,0
		c-10.1,0-20.2,0-30.3,0c-0.5,0-1-0.2-1.4-0.4c-0.3-0.2-0.6-0.7-0.6-1C7.7,39.2,7.7,37.9,7.7,36.5z"/>
	<path fill="#FFFFFF" d="M15.1,12.4c0.8,1.1,1.7,2.3,2.5,3.4c0.5,0.6,0.9,1.3,1.4,1.9c0.1,0.1,0.1,0.4,0.1,0.5
		c-1,1.6-1.9,3.1-2.9,4.7c-1.6-1.2-3.2-2.4-4.7-3.7c-0.1-0.1-0.2-0.4-0.1-0.6c0.3-1.8,0.5-3.5,0.8-5.3c0-0.2-0.1-0.4-0.2-0.5
		c-1.3-0.9-1.7-2.5-0.8-3.7c0.8-1.2,2.5-1.5,3.6-0.6c1.2,0.9,1.4,2.5,0.5,3.8C15.1,12.3,15.1,12.3,15.1,12.4z"/>
	<path fill="#FFFFFF" d="M33.6,22.6c-1-1.5-1.9-3-2.8-4.4c-0.1-0.1,0-0.4,0.1-0.5c1.2-1.7,2.4-3.3,3.6-5c0.1-0.1,0.2-0.3,0.3-0.4
		c-0.8-1.4-0.8-2.6,0.1-3.5c0.8-0.8,1.7-1,2.7-0.6c1,0.3,1.6,1,1.7,2.1c0.2,1.1-0.3,2-1.2,2.5c-0.4,0.2-0.4,0.5-0.4,0.9
		c0.3,1.6,0.5,3.3,0.8,4.9c0,0.2,0,0.4-0.2,0.5C36.8,20.2,35.2,21.4,33.6,22.6z"/>
</g>
</svg>
