<?xml version="1.0" encoding="utf-8"?>
<!-- Generator: Adobe Illustrator 18.1.1, SVG Export Plug-In . SVG Version: 6.00 Build 0)  -->
<svg version="1.1" id="Layer_1" xmlns="http://www.w3.org/2000/svg" xmlns:xlink="http://www.w3.org/1999/xlink" x="0px" y="0px"
	 viewBox="0 0 50 50" enable-background="new 0 0 50 50" xml:space="preserve">
<g id="Layer_2">
	<path fill="#FFFFFF" d="M2.5,27.3c0.1-0.4,0.2-0.8,0.3-1.1c0.4-1.6,1.2-3,2.3-4.1c1.2-1.3,3.1-1.3,4.4-0.1c1.2,1.2,2.5,2.4,3.7,3.7
		c1.2,1.2,1.2,2.9,0.1,4.2c-0.6,0.7-0.6,1.2,0.1,1.9c1.7,1.7,3.4,3.4,5.1,5.1c0.6,0.6,1.1,0.6,1.8,0.1c1.4-1.2,3.1-1.1,4.4,0.2
		c1.1,1.1,2.3,2.3,3.4,3.4c1.4,1.4,1.3,3.3-0.1,4.7c-1.4,1.3-3,2.1-4.9,2.4c-0.1,0-0.2,0.1-0.2,0.1c-0.6,0-1.3,0-1.9,0
		c-0.1,0-0.2-0.1-0.2-0.1c-1.5-0.2-2.9-0.8-4.1-1.6c-4.4-3.2-8.3-7-11.6-11.4c-0.8-1.1-1.6-2.3-1.9-3.7c-0.1-0.5-0.2-0.9-0.3-1.4
		C2.5,28.7,2.5,28,2.5,27.3z"/>
	<path fill="#FFFFFF" d="M47.5,26.5c-0.1,0.4-0.2,0.9-0.4,1.3c-0.9,2.5-3.3,4.2-5.9,4.2c-1.6,0-3.3,0-5,0c-0.3,2.1-1.4,3.8-3.3,4.9
		c-1.4,0.8-2.9,0.8-4.4,0.7c0-0.5,0-0.9,0-1.4c0.1,0,0.2,0,0.2-0.1c0.9-0.3,1.2-1.1,0.8-1.9c-0.4-0.7-0.9-1.4-1.3-2.1
		c-0.1-0.1-0.3-0.2-0.5-0.2c-3.8,0-7.5,0-11.3,0c-0.2,0-0.3,0-0.6,0c0-0.5,0-0.9,0-1.4c0.1,0,0.3,0,0.4,0c4.1,0,8.1,0,12.2,0
		c0.3,0,0.5,0.1,0.6,0.3c0.4,0.7,0.9,1.5,1.4,2.2c0.6,0.9,0.9,1.8,0.4,3c1.3-0.3,2.3-1,3-2c0.7-1,0.9-2.2,0.9-3.5c0.2,0,0.3,0,0.5,0
		c1.9,0,3.8,0,5.7,0c1.3,0,2.5-0.4,3.5-1.4c-2.3,0-4.6,0-6.9,0c0-0.5,0-0.9,0-1.4c0.2,0,0.3,0,0.5,0c2.3,0,4.7,0,7,0
		c0.3,0,0.5-0.1,0.6-0.4c0.1-0.3,0.2-0.6,0.3-1c-0.9,0-1.8,0-2.7,0c0-0.5,0-0.9,0-1.4c0.9,0,1.8,0,2.8,0c0-0.2,0-0.3,0-0.4
		c0-5.2,0-10.4,0-15.6c0-2.5-1.5-4.4-3.8-5c-0.4-0.1-0.9-0.1-1.3-0.1c-8.3,0-16.6,0-24.9,0c-2.5,0-4.4,1.5-5,3.8
		c-0.1,0.4-0.1,0.9-0.1,1.3c0,3.5,0,7,0,10.5c0,0.2,0,0.3,0,0.5c-0.5,0-0.9,0-1.4,0c0-0.2,0-0.3,0-0.5c0-3.5,0-7.1,0-10.6
		c0-3.3,2.1-5.8,5.3-6.4c0.1,0,0.1-0.1,0.2-0.1c9,0,17.9,0,26.9,0c0.1,0,0.2,0.1,0.2,0.1c2.6,0.5,4.3,2.1,5.1,4.6
		c0.1,0.3,0.1,0.6,0.2,0.8C47.5,14.2,47.5,20.3,47.5,26.5z"/>
	<path fill="#FFFFFF" d="M32.7,6.8c0,2.1,0,4.2,0,6.3c2.1,0,4.2,0,6.3,0c0,2.8,0,5.6,0,8.4c-2.1,0-4.2,0-6.3,0c0,2.1,0,4.2,0,6.3
		c-2.8,0-5.6,0-8.4,0c0-2.1,0-4.2,0-6.3c-2.1,0-4.2,0-6.3,0c0-2.8,0-5.6,0-8.4c2.1,0,4.2,0,6.3,0c0-2.1,0-4.2,0-6.3
		C27.1,6.8,29.9,6.8,32.7,6.8z"/>
	<path fill="#FFFFFF" d="M41.8,26.4c-0.5,0-0.9,0-1.3,0c0-0.5,0-0.9,0-1.4c0.4,0,0.9,0,1.3,0C41.8,25.5,41.8,25.9,41.8,26.4z"/>
</g>
</svg>
