<?xml version="1.0" encoding="utf-8"?>
<!-- Generator: Adobe Illustrator 18.1.1, SVG Export Plug-In . SVG Version: 6.00 Build 0)  -->
<svg version="1.1" id="Layer_1" xmlns="http://www.w3.org/2000/svg" xmlns:xlink="http://www.w3.org/1999/xlink" x="0px" y="0px"
	 viewBox="0 0 50 50" enable-background="new 0 0 50 50" xml:space="preserve">
<g id="Layer_2">
	<path fill="#FFFFFF" d="M14.5,30.3c-0.6,0-1.2-0.1-1.9-0.1c-0.5,0-0.8-0.3-0.9-0.7c-0.1-1.2-0.9-1.8-2-2.3
		c-1.1-0.5-1.9-0.5-2.9,0.2c-0.4,0.3-0.8,0.3-1.2-0.1c-0.9-0.9-1.8-1.8-2.7-2.7c-0.4-0.4-0.4-0.8-0.1-1.2c0.7-0.9,0.8-1.8,0.1-2.8
		c-0.2-0.2-0.3-0.5-0.3-0.8c-0.1-0.6-0.5-0.9-1.1-1C0,18.3,0.2,18.3,0,16.6c-0.1-0.9,0-1.9,0.1-2.8c0-0.5,0.3-0.8,0.7-0.9
		c1.2-0.2,2-0.7,2.1-1.9c0-0.2,0.1-0.3,0.2-0.5c0.6-0.7,0.4-1.4-0.1-2.1c-0.6-1-0.6-1.1,0.2-1.9C4,5.6,4.9,4.9,5.7,4.1
		C6,3.8,6.5,3.7,6.9,4c0.9,0.7,1.9,0.9,2.9,0.1C9.9,4.1,10.1,4,10.2,4c0.9-0.1,1.2-0.7,1.3-1.5c0-0.2,0.1-0.4,0.2-0.6
		c0.1-0.4,0.4-0.7,0.8-0.7c1.3,0,2.7,0,4,0c0.4,0,0.7,0.3,0.8,0.7c0.2,0.5,0.2,1.2,0.5,1.6c0.3,0.4,1,0.4,1.5,0.6c0,0,0,0,0,0
		c0.9,0.7,1.8,0.5,2.7-0.1c0.4-0.3,0.9-0.3,1.3,0.1c0.9,0.9,1.8,1.7,2.6,2.6c0.4,0.4,0.4,0.8,0.1,1.2C25.5,9,25.3,9.9,26,10.8
		c0.2,0.2,0.3,0.5,0.3,0.8c0.1,0.6,0.5,0.9,1.1,1c1.7,0.4,1.5,0.4,1.7,2.1c0.1,0.9,0,1.9-0.1,2.8c0,0.5-0.3,0.8-0.7,0.9
		c-0.5,0.2-1.2,0.2-1.6,0.5c-0.4,0.3-0.4,1-0.6,1.5c0,0.1-0.1,0.3-0.2,0.4c-0.6,0.8-0.4,1.4,0.1,2.2c0.6,0.9,0.6,1-0.2,1.9
		c-0.7,0.8-1.6,1.6-2.4,2.3c-0.4,0.4-0.8,0.4-1.3,0.1c-0.9-0.7-1.8-0.8-2.8-0.1c-0.1,0.1-0.3,0.2-0.5,0.2c-0.9,0.1-1.3,0.6-1.4,1.5
		c-0.1,0.9-0.6,1.3-1.5,1.3C15.5,30.2,15,30.2,14.5,30.3z M11,15.7c0,2,1.6,3.6,3.5,3.6c2,0,3.6-1.6,3.6-3.5c0-2-1.6-3.6-3.5-3.6
		C12.6,12.1,11,13.7,11,15.7z"/>
	<path fill="#FFFFFF" d="M32.5,12.8c0.4,0.2,0.7,0.4,1.1,0.6c0.3,0.2,0.5,0.2,0.8,0c0.4-0.2,0.9-0.4,1.3-0.5
		c0.3-0.1,0.4-0.3,0.5-0.5c0.4-1.4,0.3-1.4,2-1.5c0.7,0,1.3,0.1,2,0.1c0.4,0,0.8,0.2,0.8,0.7c0.1,0.9,0.6,1.4,1.5,1.6c0,0,0,0,0,0
		c0.7,0.5,1.3,0.4,1.9-0.1c0.4-0.3,0.8-0.2,1.2,0.1c0.7,0.7,1.4,1.3,2,2c0.4,0.4,0.4,0.8,0.1,1.2c-0.5,0.7-0.4,1.2-0.1,2
		c0.3,0.8,0.7,1.3,1.6,1.4c0.4,0.1,0.7,0.4,0.7,0.8c0,1,0,2,0,3c0,0.5-0.3,0.8-0.7,0.8c-0.8,0.1-1.2,0.6-1.5,1.4
		c-0.3,0.8-0.4,1.4,0.1,2.1c0.3,0.4,0.2,0.8-0.1,1.1c-0.7,0.7-1.4,1.4-2.1,2.1c-0.3,0.3-0.8,0.4-1.2,0.1c-0.7-0.5-1.2-0.4-2-0.1
		c-0.8,0.3-1.3,0.7-1.4,1.6c-0.1,0.4-0.4,0.7-0.8,0.7c-1,0-2,0-3,0c-0.5,0-0.8-0.2-0.9-0.7c-0.1-0.9-0.6-1.4-1.4-1.5c0,0,0,0,0,0
		c-0.7-0.5-1.3-0.4-1.9,0.1c-0.4,0.3-0.9,0.3-1.2-0.1c-0.7-0.7-1.3-1.3-2-2c-0.3-0.4-0.4-0.8-0.1-1.2c0.5-0.7,0.4-1.3,0.1-2
		c-0.3-0.8-0.7-1.3-1.6-1.4c-0.4-0.1-0.7-0.4-0.7-0.8c0-1,0-2,0-3c0-0.4,0.2-0.8,0.7-0.8c0.9-0.1,1.2-0.6,1.6-1.4
		c0.3-0.8,0.4-1.4-0.1-2.1c-0.3-0.3-0.2-0.7,0.1-1.1c0.7-0.7,1.4-1.5,2.2-2.2C32.1,13,32.3,13,32.5,12.8z M38.8,19.2
		c-1.6,0-2.9,1.3-2.9,2.9c0,1.6,1.3,2.9,2.9,2.9c1.6,0,2.9-1.3,2.9-2.9C41.7,20.6,40.4,19.2,38.8,19.2z"/>
	<path fill="#FFFFFF" d="M23.1,47.2c-0.2-0.1-0.4-0.2-0.6-0.3c-0.5-0.5-1.1-1.1-1.6-1.6c-0.3-0.4-0.4-0.8-0.1-1.2
		c0.3-0.4,0.3-0.8,0.1-1.3c-0.2-0.6-0.5-1-1.2-1.1c-0.4,0-0.6-0.3-0.6-0.7c0-0.8,0-1.6,0-2.4c0-0.6,0.3-0.9,0.8-1
		c0.2-0.1,0.6-0.1,0.7-0.3c0.2-0.4,0.4-0.9,0.5-1.4c0-0.1-0.1-0.3-0.2-0.5c-0.4-0.7-0.4-0.9,0.1-1.5c0.5-0.5,1-1,1.5-1.5
		c0.4-0.3,0.8-0.4,1.2-0.1c0.4,0.3,0.8,0.3,1.3,0.1c0.6-0.2,1-0.5,1.1-1.2c0-0.4,0.3-0.6,0.7-0.6c0.8,0,1.6,0,2.5,0
		c0.4,0,0.7,0.3,0.8,0.7c0.1,0.3,0.1,0.7,0.3,0.8c0.4,0.3,0.9,0.4,1.4,0.6c0.2,0,0.4-0.1,0.6-0.3c0.5-0.3,0.9-0.3,1.3,0.1
		c0.5,0.5,1,1,1.5,1.5c0.4,0.4,0.4,0.8,0.1,1.2c-0.3,0.4-0.3,0.8-0.1,1.3c0.2,0.6,0.5,1,1.2,1.1c0.2,0,0.5,0.4,0.6,0.7
		c0.1,0.8,0,1.6,0,2.4c0,0.5-0.3,0.8-0.8,0.9c-0.3,0.1-0.6,0.1-0.7,0.3c-0.3,0.4-0.4,0.9-0.6,1.4c0,0.1,0.1,0.3,0.2,0.5
		c0.4,0.8,0.5,0.9-0.2,1.6c-0.4,0.5-0.9,0.9-1.4,1.3c-0.4,0.4-0.8,0.4-1.2,0.1c-0.4-0.3-0.8-0.3-1.2-0.1c-0.6,0.3-1.1,0.5-1.2,1.2
		c0,0.2-0.4,0.5-0.7,0.6c-0.8,0.1-1.6,0.1-2.4,0.1c-0.5,0-0.9-0.3-1-0.8c-0.1-0.2-0.1-0.6-0.3-0.7c-0.4-0.2-0.9-0.4-1.4-0.6
		c-0.2,0-0.4,0.2-0.6,0.3C23.5,47,23.3,47.1,23.1,47.2z M30.5,39.8c0-1.4-1-2.5-2.4-2.5c-1.4,0-2.5,1-2.5,2.4c0,1.4,1,2.5,2.4,2.5
		C29.4,42.2,30.5,41.1,30.5,39.8z"/>
</g>
</svg>
