<?xml version="1.0" encoding="utf-8"?>
<!-- Generator: Adobe Illustrator 18.1.1, SVG Export Plug-In . SVG Version: 6.00 Build 0)  -->
<svg version="1.1" id="Layer_1" xmlns="http://www.w3.org/2000/svg" xmlns:xlink="http://www.w3.org/1999/xlink" x="0px" y="0px"
	 viewBox="0 0 50 50" enable-background="new 0 0 50 50" xml:space="preserve">
<g id="Layer_2">
	<path fill="#FFFFFF" d="M25.1,4.2c1,0,2,0.1,3.1,0c1-0.1,1.7,0.3,2.5,0.9c1.8,1.5,3.7,2.8,5.8,3.6c2,0.8,4,1.2,6.1,1.2
		c1.5,0,2,0.4,2.1,1.9c0.9,7.3-0.2,14.2-3.8,20.6c-2.7,4.9-6.6,8.6-11.4,11.3c-1.2,0.7-2.4,1.3-3.6,1.9c-0.5,0.3-1.1,0.3-1.7,0
		c-3.9-1.7-7.4-4-10.4-7.1c-4-4-6.6-8.9-7.9-14.4c-0.8-3.4-1.1-6.9-0.8-10.4c0-0.8,0.1-1.6,0.3-2.3c0.2-0.9,0.8-1.6,1.9-1.5
		c2.6,0,5.1-0.6,7.5-1.8c1.6-0.8,3-1.8,4.4-2.8c0.4-0.3,0.7-0.6,1.1-0.8c0.4-0.2,0.8-0.3,1.2-0.4C22.7,4.1,23.9,4.2,25.1,4.2z
		 M26.8,7.7c0,11.2,0,22.4,0,33.7c5.3-2.9,9.4-6.9,11.9-12.3c2.3-4.9,3.1-10.2,2.6-15.6c-0.1,0-0.2,0-0.3,0
		c-1.4-0.3-2.9-0.4-4.3-0.8c-3-0.8-5.6-2.5-8-4.4C28.1,7.6,27.5,7.6,26.8,7.7z"/>
</g>
</svg>
