<?xml version="1.0" encoding="utf-8"?>
<!-- Generator: Adobe Illustrator 18.1.1, SVG Export Plug-In . SVG Version: 6.00 Build 0)  -->
<svg version="1.1" id="Layer_1" xmlns="http://www.w3.org/2000/svg" xmlns:xlink="http://www.w3.org/1999/xlink" x="0px" y="0px"
	 viewBox="0 0 50 50" enable-background="new 0 0 50 50" xml:space="preserve">
<g>
	<path fill="#FFFFFF" d="M47,37.8c-4.3,0-8.5,0-12.9,0c0.3-0.5,0.7-1,0.8-1.4c0.4-1,1.1-1.4,2.2-1.3c1.1,0.1,2.2,0,3.3,0
		s1.4-0.7,0.9-1.5c-3.2-5.5-6.3-10.9-9.5-16.4c-0.1-0.1-0.2-0.3-0.3-0.5c1,0,2,0,3,0c0.3,0,0.3,0.2,0.4,0.4
		c3.1,5.4,6.2,10.7,9.2,16.1C45.2,34.6,46.1,36.2,47,37.8z"/>
	<path fill="#FFFFFF" d="M18.5,33.3c-1,0-2,0-3,0c-0.3,0-0.3-0.2-0.4-0.4c-2.2-3.7-4.4-7.6-6.6-11.3c-1.8-3-3.4-5.9-5.2-8.9
		c-0.1-0.1-0.2-0.3-0.3-0.5c4.3,0,8.5,0,12.8,0c-0.5,0.9-1,1.8-1.5,2.6c-0.1,0.2-0.3,0.1-0.5,0.1c-1.4,0-2.9,0-4.3,0
		c-1.1,0-1.4,0.7-0.9,1.5c3.2,5.5,6.3,10.9,9.5,16.4C18.2,33,18.3,33.1,18.5,33.3z"/>
	<path fill="#FFFFFF" d="M21.4,14.8c0.5-0.9,1-1.8,1.4-2.5c0.1-0.2,0.2-0.1,0.4-0.1c1,0,2,0,3,0c6.7,0,13.4,0,20,0
		c0.2,0,0.4,0,0.7,0c-2.1,3.7-4.3,7.4-6.4,11.1c-0.3-0.7-0.7-1.3-1.1-1.9c-0.4-0.7-0.4-1.2,0-1.9c0.7-1,1.2-2,1.8-3
		c0.2-0.4,0.5-0.8,0.2-1.3c-0.3-0.4-0.8-0.4-1.2-0.4c-6,0-12.1,0-18.3,0C21.9,14.8,21.8,14.8,21.4,14.8z"/>
	<path fill="#FFFFFF" d="M28.7,35.1c-0.5,0.9-1,1.8-1.4,2.5c-0.1,0.2-0.3,0.2-0.5,0.2c-2.2,0-4.4,0-6.6,0c-5.5,0-10.9,0-16.4,0
		c-0.2,0-0.4,0-0.7,0c2.2-3.7,4.3-7.4,6.4-11.1c0.5,0.9,1,1.8,1.5,2.6c0.1,0.2,0,0.3-0.1,0.4c-0.7,1.2-1.4,2.4-2.1,3.7
		c-0.5,1-0.2,1.5,0.9,1.5c6.2,0,12.4,0,18.6,0C28.4,35.1,28.5,35.1,28.7,35.1z"/>
	<path fill="#FFFFFF" d="M25.1-0.2c2.1,3.6,4.1,7.1,6.2,10.7c-1.1,0-2,0-3,0c-0.2,0-0.3-0.2-0.3-0.3c-0.7-1.1-1.3-2.2-2-3.4
		c-0.5-0.9-1.2-0.9-1.8,0C21.1,12,18,17.4,14.9,22.6c-0.1,0.1-0.2,0.3-0.3,0.5c-0.5-0.9-1-1.8-1.5-2.6c-0.1-0.2,0.1-0.3,0.2-0.5
		c3-5.1,5.8-10.1,8.8-15.3C23,3.2,23.8,1.6,24.8,0C24.8,0.1,24.9-0.1,25.1-0.2z"/>
	<path fill="#FFFFFF" d="M25.1,50.2c-2.1-3.6-4.1-7.1-6.2-10.7c1.1,0,2,0,3,0c0.2,0,0.3,0.2,0.3,0.3c0.7,1.1,1.3,2.2,2,3.3
		c0.5,0.9,1.2,1,1.8,0c3.1-5.4,6.3-10.8,9.3-16.2c0-0.1,0.1-0.2,0.2-0.3c0.4,0.7,0.7,1.3,1.1,2c0.4,0.5,0.3,1,0,1.6
		c-3.7,6.5-7.5,12.9-11.2,19.4C25.3,49.8,25.2,50,25.1,50.2z"/>
	<path fill="#FFFFFF" d="M12.1,18.8c-0.4-0.8-0.8-1.4-1.2-2.2c0.9,0,1.6,0,2.5,0C12.8,17.4,12.5,18,12.1,18.8z"/>
	<path fill="#FFFFFF" d="M36.8,16.6c0.9,0,1.6,0,2.5,0c-0.4,0.8-0.8,1.4-1.2,2.2C37.6,18,37.3,17.4,36.8,16.6z"/>
	<path fill="#FFFFFF" d="M10.8,33.3c0.4-0.8,0.9-1.4,1.2-2.2c0.4,0.8,0.9,1.4,1.2,2.2C12.4,33.3,11.6,33.3,10.8,33.3z"/>
	<path fill="#FFFFFF" d="M39.4,33.3c-0.9,0-1.6,0-2.5,0c0.4-0.8,0.8-1.4,1.2-2.2C38.5,31.9,38.9,32.5,39.4,33.3z"/>
	<path fill="#FFFFFF" d="M26,10.4c-0.7,0-1.3,0-2,0c0.3-0.5,0.7-1.1,1-1.8C25.4,9.2,25.7,9.8,26,10.4z"/>
	<path fill="#FFFFFF" d="M26,39.6c-0.3,0.5-0.7,1.1-1,1.8c-0.3-0.7-0.7-1.1-1-1.8C24.7,39.6,25.4,39.6,26,39.6z"/>
</g>
</svg>
