<?xml version="1.0" encoding="utf-8"?>
<!-- Generator: Adobe Illustrator 18.1.1, SVG Export Plug-In . SVG Version: 6.00 Build 0)  -->
<svg version="1.1" id="Layer_1" xmlns="http://www.w3.org/2000/svg" xmlns:xlink="http://www.w3.org/1999/xlink" x="0px" y="0px"
	 viewBox="0 0 50 20.7" enable-background="new 0 0 50 20.7" xml:space="preserve">
<g>
	<path fill="none" d="M29,11.7c-0.1,0-0.3,0-0.4,0c-0.1,0,0,0.1,0,0.2c0,1.7,0,3.4,0,5.1c0,0.5,0,1-0.1,1.6
		c-0.2,0.7-0.5,1.3-1.2,1.5c-0.9,0.4-1.9,0.4-2.8,0.1c-0.7-0.3-1.1-0.8-1.3-1.5C23,18.2,23,17.8,23,17.3c0-1.7,0-3.4,0-5
		c0-0.2,0.1-0.4,0-0.6c-0.1-0.1-0.4,0-0.6,0c-0.4,0-0.4,0-0.3,0.3c0,0.1,0,0.1,0,0.2c0,1,0,2,0,3c0,0,0,0,0,0c0,1,0,2,0,3
		c0,1.1,0.8,2.2,1.9,2.5c1,0.3,1.9,0.3,2.9,0c1.2-0.3,2-1.2,2-2.4c0-1,0-1.9,0.1-2.9c0-1.2,0-2.4,0.1-3.6C29,11.8,29,11.7,29,11.7z"
		/>
	<path fill="none" d="M3.9,20.2c-0.9,0-1.8,0-2.7,0c-0.2,0-0.3-0.1-0.3-0.3c0-1.3,0-2.7,0-3.8c0-1.6,0-2.9,0-4.3
		c0-0.2,0-0.2-0.2-0.2c-0.2,0-0.4,0-0.6,0C0,11.6,0,11.7,0,11.8c0,0.2,0,0.4,0,0.7c0,2.2,0,4.4,0,6.7c0,0.4,0,0.7,0,1.1
		c0,0.5,0,0.5,0.4,0.5c1.2,0,2.3,0.1,3.5,0.1c0.3,0,0.2-0.1,0.2-0.3C4.1,20.3,4.1,20.2,3.9,20.2z"/>
	<path fill="none" d="M21.7,13c-0.3,0.4-0.7,0.8-1.1,1.2c-0.1,0.1-0.2,0.2-0.3,0.4c-0.1,0-0.1,0.1-0.2,0.1c-0.1,0,0-0.1,0-0.2
		c0-0.1,0-0.3,0-0.4c0-0.7-0.1-1.5,0.1-2.2c0-0.1,0-0.1-0.1-0.1c-0.2,0-0.5,0-0.7,0c-0.1,0-0.2,0.1-0.1,0.2c0,0.2,0,0.4,0.1,0.5
		c0,1,0,2,0,3c0,0.1,0,0.2-0.1,0.3c0,0-0.1,0-0.1,0c0,0-0.1-0.1-0.1,0c0,0-0.1,0-0.1,0.1c-0.1-0.2-0.2-0.3-0.4-0.2
		c-0.3,0.2-0.5,0.3-0.8,0.5c-0.2,0.1-0.3,0.3-0.5,0.3c-0.1,0-0.3,0-0.4,0.1c-0.2,0.2-0.5,0.3-0.7,0.2c-0.1,0-0.2,0-0.3,0
		c-0.5,0.1-0.9,0.1-1.3,0.6c0,0-0.1,0-0.2,0c0-0.1,0-0.2,0-0.2c0-1.6,0-3.3,0-4.9c0-0.2,0.2-0.4,0-0.5c-0.1-0.1-0.4,0-0.6,0
		c-0.4,0-0.4,0-0.4,0.3c0,0.1,0,0.2,0,0.3c0,1.4,0,2.7,0,4.1c-0.2,0.2-0.5,0.2-0.8,0.1c-0.1,0-0.2,0-0.3-0.1c-0.1,0-0.3-0.1-0.4-0.1
		c-0.5-0.3-1-0.6-1.6-0.4c-0.2-0.4-0.3-0.9-0.5-1.3c-0.3-0.9-0.7-1.8-0.9-2.7c0-0.1,0-0.1-0.1-0.1c-0.3,0-0.5-0.1-0.8,0
		C8,11.7,8,11.9,8,12.1c0,0,0,0,0,0c-0.5,1.4-1,2.8-1.5,4.2c-0.1,0.2-0.1,0.5-0.3,0.6c-0.7,0.4-1.2,0.9-1.7,1.5
		c-0.1,0.1-0.2,0.2-0.3,0.4c-0.1,0.2-0.3,0.3-0.3,0.6c0.1-0.2,0.3-0.3,0.4-0.5c0.1-0.2,0.3-0.3,0.4-0.5c0.1-0.1,0.1-0.1,0.2-0.2
		c0.3-0.3,0.7-0.6,1-0.8c0,0,0.1-0.2,0.2,0c-0.2,0.5-0.4,1-0.5,1.5c-0.2,0.4-0.3,0.9-0.5,1.3c0,0.1-0.1,0.2,0,0.3
		c0.2,0.1,0.5,0,0.6-0.2c0-0.2,0.1-0.4,0.2-0.6c0.2-0.4,0.3-0.9,0.5-1.3c0.2-0.5,0.4-1.1,0.6-1.6c0.4-0.2,0.9-0.3,1.4-0.4
		c0.6-0.1,1.1-0.1,1.7,0.1c0.5,1.3,0.9,2.6,1.4,3.9c0,0.1,0.1,0.2,0.2,0.2c0.2,0,0.5,0,0.7,0c0.2,0,0.2,0,0.1-0.2
		c-0.4-0.9-0.7-1.8-1-2.7c0-0.1,0-0.1,0.1,0c0.1,0.1,0.2,0.2,0.3,0.3c0.2,0.1,0.4,0.1,0.6,0.1c0.3,0.1,0.5,0.1,0.8,0
		c0.2-0.1,0.2,0,0.2,0.2c0,0.1,0,0.2,0.1,0.3c0.1,0.1,0.1,0.2,0.1,0.3c0,0.5,0,0.9,0,1.4c0,0.1,0,0.2,0,0.3c0,0.1,0,0.1,0.1,0.1
		c0.2,0,0.5,0,0.7,0c0.1,0,0.2,0,0.1-0.2c-0.1-0.8-0.1-1.5,0-2.3c0.1,0,0.2,0,0.3,0.1c0.1,0.1,0.2,0.1,0.3,0.1
		c0.2,0,0.4-0.2,0.7-0.2c0.6,0,1.1-0.3,1.6-0.6c0.2-0.1,0.4-0.3,0.6-0.5c0.2-0.2,0.5-0.3,0.7-0.5c0-0.1,0.1-0.1,0.2-0.1
		c0.1,0,0.1,0.1,0.1,0.2c0,0.1,0,0.2,0.2,0.2c0,0.1,0,0.2,0,0.3c0,0,0,0.1,0,0.1c0,0,0,0,0,0.1c0,1,0,2.1,0,3.1c0,0.1,0,0.2,0.2,0.2
		c0.2,0,0.4,0,0.7,0c0.1,0,0.2,0,0.2-0.2c0-0.2,0-0.3,0-0.5c0-1.6,0-3.2,0-4.8c0-0.1,0-0.2,0.1-0.3c0.1-0.1,0.2-0.1,0.2-0.2
		c0,0,0,0,0,0l0,0c0,0,0,0,0,0c0.1,0,0.1-0.1,0.2-0.1c0.5-0.5,1-1,1.4-1.7C21.8,12.9,21.7,12.9,21.7,13z"/>
	<path fill="none" d="M41.1,11.8c-0.6,0-1.3,0-1.9,0c0,0,0,0,0,0c-0.6,0-1.3,0-1.9,0c-0.2,0-0.2,0.1-0.2,0.2c0,0.3,0,0.7,0,1.1
		c0,2.5,0,5.1,0,7.6c0,0.1,0,0.2,0.2,0.2c1.2,0,2.5,0,3.7,0c0.4,0,0.4,0,0.4-0.4c0-0.2,0-0.3-0.2-0.2c-0.3,0.1-0.6,0.1-0.9,0.1
		c-0.3,0-0.5,0-0.8-0.1c-0.4,0-0.8,0-1.3,0c-0.2,0-0.2-0.1-0.2-0.2c0-1.2,0-2.3,0-3.5c0-0.2,0.1-0.2,0.3-0.2c1,0,1.9,0,2.9,0
		c0.1,0,0.3,0,0.2-0.2c0-0.2,0-0.3-0.2-0.3c-0.9,0-1.9,0-2.8,0C38,16,38,16,38,15.6c0-1,0-2.1,0-3.1c0-0.2,0.1-0.3,0.3-0.3
		c1,0,2-0.1,2.9,0c0.1,0,0.1,0,0.2-0.1C41.5,12,41.4,11.8,41.1,11.8z"/>
	<path fill="none" d="M49.7,11.8c-0.3,0-0.2,0.1-0.2,0.3c0,0.1,0,0.1,0,0.2c0,0.7,0,1.5,0,2.2c0,1.6,0,3.2,0,4.8c0,0.1,0,0.2,0,0.2
		c-0.1,0-0.1-0.1-0.1-0.1c-0.4-0.6-0.8-1.2-1.3-1.8c-0.9-1.2-1.7-2.5-2.6-3.7c-0.5-0.7-1-1.3-1.4-2c-0.1-0.1-0.1-0.1-0.2-0.1
		c-0.2,0-0.4,0-0.6,0c-0.1,0-0.2,0-0.2,0.2c0.1,1.2,0,2.3,0,3.5c0,1.7,0,3.5,0,5.2c0,0.1-0.1,0.3,0.1,0.2c0.2,0,0.4,0.1,0.4-0.3
		c-0.1-0.4,0-0.9,0-1.3c0-2,0-4,0-5.9c0-0.2,0-0.3,0-0.5c0.1,0.1,0.2,0.2,0.3,0.3c0.7,1,1.4,2,2.1,3c1.1,1.6,2.2,3.1,3.3,4.7
		c0.1,0.1,0.1,0.1,0.2,0.2c0.5,0.1,0.6,0,0.6-0.5c0-2.8,0-5.6,0-8.3C50,11.8,50,11.8,49.7,11.8z"/>
	<path fill="none" d="M33.3,15.7c-0.6-0.3-1.2-0.6-1.7-1.1c-0.2-0.3-0.4-0.6-0.3-0.9c0-0.6,0.3-1.2,0.9-1.4c0.9-0.3,1.7-0.1,2.4,0.3
		c0.1,0.1,0.2,0.2,0.3,0c0.2-0.2,0.2-0.6,0.1-0.7c0,0,0,0,0,0c-0.6-0.2-1.2-0.4-1.8-0.4c-0.8,0-1.6,0.2-2.2,0.8
		c-0.8,0.8-0.8,2.2,0.1,3c0.4,0.4,0.9,0.6,1.3,0.9c0.5,0.3,1,0.5,1.4,0.8c1.1,0.8,1,2.4-0.1,3c-0.9,0.5-2.1,0.3-2.8-0.3
		c-0.4-0.4-0.4-0.4-0.6,0.1c-0.1,0.2-0.1,0.4,0.2,0.5c0.7,0.3,1.3,0.6,2.1,0.5c0.2,0,0.5,0,0.7,0c1.1-0.2,1.8-0.8,2.1-1.9
		c0.2-0.8,0.1-1.4-0.4-2.1C34.7,16.4,34,16.1,33.3,15.7z"/>
	<polygon fill="#FDFDFD" points="20.3,14.7 20.3,14.7 20.3,14.7 	"/>
	<polygon fill="#D12129" points="45.4,0.2 45.4,0.2 45.4,0.2 	"/>
	<path fill="#FFFFFF" d="M43.6,12.8c-0.1,0.2,0,0.4,0,0.5c0,2,0,4,0,5.9c0,0.4-0.1,0.9,0,1.3c0.1,0.3-0.2,0.2-0.4,0.3
		c-0.2,0-0.2-0.1-0.1-0.2c0-1.7,0-3.5,0-5.2c0-1.2,0-2.3,0-3.5c0-0.2,0-0.2,0.2-0.2c0.2,0,0.4,0,0.6,0c0.1,0,0.2,0,0.2,0.1
		c0.4,0.7,0.9,1.4,1.4,2c0.9,1.2,1.7,2.5,2.6,3.7c0.4,0.6,0.8,1.2,1.3,1.8c0,0,0.1,0.1,0.1,0.1c0.1,0,0-0.1,0-0.2c0-1.6,0-3.2,0-4.8
		c0-0.7,0-1.5,0-2.2c0-0.1,0-0.1,0-0.2c0-0.2-0.1-0.3,0.2-0.3c0.3,0,0.3,0,0.3,0.3c0,2.8,0,5.6,0,8.3c0,0.5-0.1,0.6-0.6,0.5
		c-0.1,0-0.2-0.1-0.2-0.2c-1.1-1.6-2.2-3.1-3.3-4.7c-0.7-1-1.4-2-2.1-3C43.8,13,43.7,12.9,43.6,12.8z"/>
	<path fill="#FFFFFF" d="M22.1,15.2c0-1,0-2,0-3c0-0.1,0-0.1,0-0.2c0-0.4,0-0.4,0.3-0.3c0.2,0,0.4-0.1,0.6,0c0.2,0.1,0,0.4,0,0.6
		c0,1.7,0,3.4,0,5c0,0.5,0,0.9,0.1,1.4c0.1,0.7,0.6,1.2,1.3,1.5c0.9,0.4,1.9,0.3,2.8-0.1c0.7-0.3,1.1-0.8,1.2-1.5
		c0.1-0.5,0.1-1,0.1-1.6c0-1.7,0-3.4,0-5.1c0-0.1,0-0.2,0-0.2c0.1,0,0.3,0,0.4,0c0,0,0,0.1,0,0.1c-0.1,1.2,0,2.4-0.1,3.6
		c0,1,0,1.9-0.1,2.9c-0.1,1.2-0.9,2.2-2,2.4c-1,0.2-1.9,0.2-2.9,0c-1.1-0.3-1.9-1.4-1.9-2.5C22.1,17.2,22.1,16.2,22.1,15.2
		C22.1,15.2,22.1,15.2,22.1,15.2z"/>
	<path fill="#FFFFFF" d="M32.7,21c-0.7,0-1.4-0.2-2.1-0.5c-0.2-0.1-0.2-0.3-0.2-0.5c0.2-0.5,0.2-0.5,0.6-0.1
		c0.7,0.6,1.8,0.9,2.8,0.3c1-0.6,1.2-2.2,0.1-3c-0.4-0.3-0.9-0.6-1.4-0.8c-0.5-0.2-0.9-0.5-1.3-0.9c-0.9-0.8-0.9-2.2-0.1-3
		c0.6-0.6,1.4-0.8,2.2-0.8c0.6,0,1.2,0.2,1.8,0.4c0,0,0,0,0,0c0.1,0.1,0.1,0.4-0.1,0.7c-0.1,0.1-0.2,0-0.3,0
		c-0.8-0.5-1.6-0.7-2.4-0.3c-0.6,0.2-0.9,0.8-0.9,1.4c0,0.3,0.1,0.6,0.3,0.9c0.5,0.5,1.1,0.8,1.7,1.1c0.6,0.3,1.3,0.6,1.8,1.3
		c0.4,0.6,0.6,1.3,0.4,2.1c-0.3,1.1-1.1,1.7-2.1,1.9C33.2,21,32.9,20.9,32.7,21z"/>
	<path fill="#FFFFFF" d="M39.2,11.8c0.6,0,1.3,0,1.9,0c0.2,0,0.4,0.2,0.3,0.4c0,0.1-0.1,0.1-0.2,0.1c-1-0.1-2,0-2.9,0
		c-0.2,0-0.3,0.1-0.3,0.3c0,1,0,2.1,0,3.1c0,0.3,0,0.3,0.3,0.3c0.9,0,1.9,0,2.8,0c0.3,0,0.2,0.1,0.2,0.3c0,0.2-0.1,0.2-0.2,0.2
		c-1,0-1.9,0-2.9,0c-0.1,0-0.3,0-0.3,0.2c0,1.2,0,2.3,0,3.5c0,0.2,0.1,0.2,0.2,0.2c0.4,0,0.8,0,1.3,0c0.3,0,0.5,0,0.8,0.1
		c0.3,0,0.6,0,0.9-0.1c0.2-0.1,0.3,0,0.2,0.2c0,0.4,0,0.4-0.4,0.4c-1.2,0-2.5,0-3.7,0c-0.2,0-0.2-0.1-0.2-0.2c0.1-2.5,0-5.1,0-7.6
		c0-0.4,0-0.7,0-1.1c0-0.2,0-0.2,0.2-0.2C38,11.8,38.6,11.8,39.2,11.8C39.2,11.8,39.2,11.8,39.2,11.8z"/>
	<path fill="#FFFFFF" d="M0.9,16.1c0,1.1,0,2.5,0,3.8c0,0.2,0,0.3,0.3,0.3c0.9,0,1.8,0,2.7,0c0.2,0,0.2,0.1,0.2,0.3
		c0,0.2,0,0.3-0.2,0.3c-1.2,0-2.3,0-3.5-0.1c-0.5,0-0.5,0-0.4-0.5c0-0.4,0-0.7,0-1.1c0-2.2,0-4.4,0-6.7c0-0.2,0-0.4,0-0.7
		c0-0.1,0-0.2,0.2-0.2c0.2,0,0.4,0,0.6,0c0.2,0,0.2,0.1,0.2,0.2C0.9,13.2,0.9,14.5,0.9,16.1z"/>
	<path fill="#FFFFFF" d="M6.7,17c-0.2,0.5-0.4,1.1-0.6,1.6c-0.2,0.4-0.3,0.9-0.5,1.3c-0.1,0.2-0.1,0.4-0.2,0.6
		c-0.1,0.2-0.4,0.3-0.6,0.2c-0.1-0.1,0-0.2,0-0.3c0.2-0.4,0.3-0.9,0.5-1.3c0.2-0.5,0.4-1,0.5-1.5c0-0.2,0.2-0.4,0.1-0.6
		c0.2-0.2,0.2-0.4,0.3-0.6c0.5-1.4,1-2.8,1.5-4.2c0,0,0,0,0,0c0.1-0.2,0-0.4,0.1-0.4c0.2-0.1,0.5,0,0.8,0c0.1,0,0.1,0,0.1,0.1
		c0.2,0.9,0.6,1.8,0.9,2.7c0.1,0.4,0.3,0.9,0.5,1.3c0,0.1,0.1,0.3,0.1,0.4c0,0,0,0.1,0,0.1l0,0c0,0,0,0,0,0c-0.4,0-0.7-0.1-1.1-0.2
		c0,0,0-0.1,0-0.1c0,0,0-0.1,0-0.1c0-0.1-0.1-0.2-0.2-0.3c0-0.1,0-0.1,0-0.2C9,14.6,8.7,13.8,8.4,13c0-0.1,0-0.2-0.1-0.3
		c-0.1,0.1-0.1,0.2-0.2,0.3c-0.1,0.3-0.2,0.7-0.4,1.1c-0.3,0.8-0.5,1.5-0.8,2.3C6.9,16.6,6.7,16.8,6.7,17z"/>
	<path fill="#D12129" d="M37.5,8.9c-0.1-0.8,0-1.5,0-2.3c0-2.1,0-4.3,0-6.4c0-0.1,0-0.2-0.2-0.2c-0.2,0-0.3,0-0.5,0
		c-0.3,0-0.3,0-0.3,0.3c0,0.1,0,0.1,0,0.2c0,1.4,0,2.8,0,4.6c0,1,0.1,2.4,0,3.9c0,0.1,0,0.2,0.1,0.2c0.2,0,0.5,0,0.7,0
		C37.4,9.1,37.5,9,37.5,8.9z"/>
	<path fill="#D12129" d="M26.7,8.6c0-1.4,0-2.7,0-4.1c0,0,0,0,0,0c0-1.4,0-2.7,0-4.1c0-0.4,0-0.4-0.4-0.4c-0.2,0-0.4-0.1-0.5,0
		c-0.1,0.1,0,0.3,0,0.5c0,2.2,0,4.5,0,6.7c0,0.5,0,0.9,0,1.4c0,0.5,0,0.5,0.4,0.5c0.2,0,0.4,0.1,0.5,0C26.8,8.9,26.7,8.7,26.7,8.6z"
		/>
	<path fill="#FFFFFF" d="M19,15.7c0.1-0.1,0.1-0.2,0.1-0.3c0-1,0-2,0-3c0-0.2,0-0.4-0.1-0.5c0-0.1,0-0.2,0.1-0.2c0.2,0,0.5,0,0.7,0
		c0.1,0,0.2,0,0.1,0.1C19.9,12.6,20,13.3,20,14c0,0.3-0.1,0.5,0,0.8c0,0,0,0.1,0,0.1C20,15.1,20,15.2,20,15.3c0,1.6,0,3.2,0,4.8
		c0,0.2,0,0.3,0,0.5c0,0.1,0,0.2-0.2,0.2c-0.2,0-0.4,0-0.7,0c-0.1,0-0.2,0-0.2-0.2c0-1,0-2.1,0-3.1c0,0,0,0,0-0.1c0,0,0-0.1,0-0.1
		c0-0.1,0-0.2,0-0.3c0-0.2,0-0.4,0-0.5c0,0,0-0.1,0-0.1c0-0.1,0-0.3,0-0.4C19.1,15.9,19.1,15.8,19,15.7z"/>
	<path fill="#FFFFFF" d="M14.3,17.5c-0.3,0.1-0.6,0.1-0.9-0.1c0-0.3,0-0.6,0-0.9c0,0,0-0.1,0-0.1c0,0,0,0,0,0c0,0,0-0.1,0-0.1
		c0-1.4,0-2.8,0-4.2c0-0.1,0-0.1,0-0.2c0-0.4,0-0.4,0.4-0.3c0.2,0,0.4-0.1,0.6,0c0.2,0.1,0,0.4,0,0.5c0,1.6,0,3.3,0,4.9
		c0,0.1,0,0.2,0,0.2C14.3,17.4,14.3,17.4,14.3,17.5z"/>
	<path fill="#FFFFFF" d="M9.8,16.7c0.3-0.1,0.6,0.1,0.8,0.2c0.1,0.1,0.3,0.2,0.4,0.2c0,0,0,0,0,0c0,0,0,0,0,0s0,0,0,0
		c0,0,0,0.1,0,0.1c0,0,0,0,0,0c0,0.2,0.1,0.4,0.2,0.6c0.4,0.9,0.6,1.8,1,2.7c0.1,0.2,0,0.2-0.1,0.2c-0.2,0-0.5,0-0.7,0
		c-0.1,0-0.2,0-0.2-0.2C10.7,19.3,10.2,18,9.8,16.7z"/>
	<path fill="#FFFFFF" d="M13.4,18.2c0.3-0.1,0.6,0,1,0c0,0,0,0.1,0,0.1c-0.1,0.8-0.1,1.5,0,2.3c0,0.2,0,0.2-0.1,0.2
		c-0.2,0-0.5,0-0.7,0c-0.1,0-0.1,0-0.1-0.1c0-0.1,0-0.2,0-0.3C13.4,19.6,13.4,18.9,13.4,18.2z"/>
	<path fill="#E7757D" d="M20,14.9c-0.1-0.3,0-0.5,0-0.8c0,0.1,0,0.3,0,0.4c0,0.1,0,0.2,0,0.2c0.1,0,0.1-0.1,0.2-0.1c0,0,0,0,0,0
		c0,0,0,0.1,0,0.1c0,0,0,0,0,0C20.2,14.8,20.1,14.8,20,14.9z"/>
	<g>
		<path fill="#D12129" d="M21.7,13c-0.3,0.4-0.7,0.8-1.1,1.2c-0.1,0.1-0.2,0.2-0.3,0.4c0,0,0,0,0,0h0c0,0,0,0.1,0,0.1
			c-0.1,0-0.2,0.1-0.3,0.1c0,0,0,0.1,0,0.1c0.1-0.1,0.2-0.1,0.2-0.2c0.1,0,0.1-0.1,0.2-0.1c0.5-0.5,1-1,1.4-1.7
			C21.8,12.9,21.7,12.9,21.7,13z"/>
		<path fill="#D12129" d="M19,15.7c0,0-0.1,0-0.1,0c0,0-0.1,0-0.1,0.1c-0.5,0.5-1.2,0.8-1.8,1.1c-0.6,0.3-1.2,0.4-1.8,0.5
			c-0.1,0-0.1,0-0.2,0c-0.1,0.1-0.1,0-0.2,0l0,0l0,0c0,0-0.1,0-0.1,0c0,0,0,0-0.1,0c-0.1,0-0.2,0.1-0.2,0c-0.3,0.1-0.6,0.1-0.9-0.1
			c-0.2,0-0.3-0.1-0.5-0.1l0,0c-0.3-0.1-0.6-0.2-0.9-0.3c0,0-0.1,0-0.1,0c-0.2-0.1-0.4-0.2-0.6-0.3c-0.2-0.1-0.4-0.1-0.5-0.2
			c-0.1,0-0.1-0.1-0.2-0.1l0,0c0,0-0.1,0-0.1,0c-0.4,0-0.7-0.1-1.1-0.2c-0.1,0-0.2,0-0.2,0c-0.3,0-0.6,0-0.9,0c0,0,0,0,0,0
			c-0.2,0-0.4,0.1-0.6,0.1c-0.2,0.1-0.5,0.1-0.7,0.3c0,0-0.1,0.1-0.2,0c0,0.2-0.2,0.4-0.2,0.6c0.4-0.2,0.9-0.3,1.4-0.4
			c0.6-0.1,1.1-0.1,1.7,0.1c0.3-0.1,0.6,0.1,0.8,0.2c0.2-0.1,0.3,0.1,0.4,0.2l0,0c0,0,0.1,0,0.1,0c0.4,0.3,0.9,0.6,1.4,0.7
			c0.3,0.1,0.6,0.1,0.9,0.2c0.3-0.1,0.6,0,1,0c0.8-0.1,1.5-0.3,2.2-0.6c0.7-0.3,1.3-0.8,2-1.2c0.1-0.1,0.2-0.2,0.3-0.3
			c0.1-0.1,0.2-0.1,0.3-0.1C19.1,15.9,19.1,15.8,19,15.7C19,15.7,19,15.7,19,15.7z"/>
		<path fill="#D12129" d="M4.3,18.6c-0.1,0.1-0.2,0.2-0.3,0.4c-0.1,0.2-0.3,0.3-0.3,0.6c0.1-0.2,0.3-0.3,0.4-0.5
			c0.1-0.2,0.3-0.3,0.4-0.5c0.1-0.1,0.1-0.1,0.2-0.2c0.3-0.3,0.7-0.6,1-0.8c0,0,0.1-0.2,0.2,0c0-0.2,0.2-0.4,0.1-0.6
			C5.4,17.4,4.8,18,4.3,18.6z"/>
	</g>
	<path fill="#D12129" d="M46.1,8.5C46.1,8.4,46.1,8.4,46.1,8.5C46.2,8.4,46.1,8.5,46.1,8.5z"/>
	<path fill="#D12129" d="M35,7.7c-0.1,0-0.1,0-0.2,0.1c0,0-0.1,0.1-0.1,0.1c0,0,0,0-0.1,0c0,0,0,0-0.1,0.1c-0.6,0.5-1.3,0.7-2,0.6
		c-0.8-0.1-1.4-0.4-2-0.9c-0.5-0.6-0.9-1.3-1-2.1c-0.2-1.1-0.1-2.2,0.3-3.3c0.4-1,1.1-1.7,2.2-1.9c0.9-0.1,1.7-0.1,2.5,0.5
		c0.1,0.1,0.2,0.2,0.3,0.3C34.9,1.3,35,1.2,35,1.1c0-0.3,0-0.5,0-0.8c0,0,0-0.1-0.1-0.1c0,0,0,0-0.1,0c0,0,0,0,0,0c0,0,0,0,0,0l0,0
		c0,0,0,0-0.1,0c0,0,0,0,0,0c0,0,0,0,0,0c0,0,0,0-0.1,0c0,0,0,0,0,0c0,0-0.1,0-0.1,0c-0.1-0.1-0.2,0-0.2,0c0,0,0,0,0,0
		c0,0,0,0-0.1,0c-0.1,0-0.2-0.1-0.4-0.1c-0.8,0-1.6-0.1-2.3,0.1c-1,0.3-1.8,0.9-2.4,1.7c-0.5,0.8-0.7,1.8-0.7,2.7
		c0,0.7,0.1,1.4,0.3,2.1c0.3,0.9,0.8,1.6,1.6,2c1.4,0.8,2.8,0.9,4.3,0.2C34.8,8.7,35,8.7,35,8.4c0-0.2,0-0.4,0-0.6
		C35,7.8,35,7.7,35,7.7z"/>
	<path fill="#D12129" d="M45.4,0.2C45.4,0.2,45.3,0.1,45.4,0.2C45.3,0.1,45.4,0.2,45.4,0.2z"/>
	<path fill="#D12129" d="M15,3.2c-0.2-0.7-0.4-1.3-0.9-1.8c-0.9-1-2-1.4-3.3-1.4C10,0,9.1,0,8.3,0C8.2,0,8.1,0.1,8.2,0.2
		c0,0.2,0,0.5,0,0.7c0,2.1,0,4.3,0,6.4c0,0.5,0,1,0,1.5c0,0.2,0,0.3,0.3,0.3c0.5,0,0.9,0,1.4,0c0.8,0,1.6,0,2.3-0.2
		c1.6-0.5,2.5-1.6,2.9-3.2C15.2,4.9,15.2,4,15,3.2z M11.9,8.4c0,0,0.1,0,0.1,0C12,8.4,12,8.4,11.9,8.4z M14,5.5
		c-0.1,0.5-0.2,0.9-0.4,1.3c-0.3,0.6-0.8,1.1-1.4,1.4c0,0.1,0,0.1-0.1,0.1c0,0,0.1-0.1,0.1-0.1c-0.6,0.2-1.2,0.3-1.9,0.3
		c-0.4,0-0.7,0-1.1,0c0,0-0.1,0-0.1,0c0,0-0.1,0-0.1,0c0-2.4,0-4.8,0-7.3C9,1,9,0.7,9.1,0.5c0,0,0-0.1,0.1-0.1c0.7,0.1,1.3,0,2,0.1
		c0.4,0.1,0.8,0.2,1.1,0.3c0.1,0,0.1,0,0.1,0.1l0,0c0.1,0,0.2,0,0.2,0.1l0,0c0.1,0,0.2,0,0.2,0.2l0,0c0.2,0,0.2,0.2,0.4,0.2
		c0.2,0,0.2,0.1,0.2,0.3c0.1,0,0.1,0.1,0.1,0.1C14.2,3,14.2,4.2,14,5.5z"/>
	<path fill="#D12129" d="M12.3,1c-0.9-0.5-1.9-0.5-2.9-0.4c-0.1,0-0.3,0-0.4,0c0,0,0-0.1,0.1-0.1c0.7,0.1,1.3,0,2,0.1
		c0.4,0.1,0.8,0.2,1.1,0.3C12.3,0.9,12.3,0.9,12.3,1z"/>
	<path fill="#D12129" d="M13.4,1.8c-0.2-0.2-0.4-0.4-0.5-0.5c0.2,0,0.2,0.2,0.4,0.2C13.4,1.6,13.4,1.7,13.4,1.8z"/>
	<path fill="#D12129" d="M12.6,1.1c-0.1,0-0.2-0.1-0.2-0.1C12.5,0.9,12.5,1,12.6,1.1z"/>
	<path fill="#D12129" d="M12.8,1.3c-0.1,0-0.2-0.1-0.2-0.2C12.7,1.1,12.8,1.1,12.8,1.3z"/>
	<path fill="#D12129" d="M13.5,1.9c-0.1,0-0.1-0.1-0.1-0.1C13.4,1.8,13.5,1.9,13.5,1.9z"/>
	<path fill="#D12129" d="M9,8.5C9.1,8.5,9.1,8.5,9,8.5C9.1,8.5,9,8.5,9,8.5z"/>
	<path fill="#D12129" d="M46,1.5C46,1.4,46,1.4,46,1.3C46,1.4,46.1,1.4,46,1.5z"/>
	<g>
		<path fill="#D12129" d="M47.5,2.3C47.5,2.3,47.5,2.3,47.5,2.3c0-0.1-0.1-0.2-0.1-0.3c-0.3-0.7-0.8-1.2-1.4-1.6
			c-0.2-0.1-0.4-0.2-0.6-0.3c0,0,0,0-0.1,0c0,0,0,0,0,0c-1.1-0.4-2.2-0.4-3.3,0c0,0-0.1,0-0.1,0c-1,0.3-1.8,1-2.2,2
			C38.9,4,39,5.8,40.1,7.6c0.3,0.6,0.9,1,1.5,1.2C41.8,8.9,42,9,42.2,9c0,0,0,0,0,0c0.1,0,0.1,0,0.2,0c0,0,0,0,0.1,0
			c0.1,0,0.1,0,0.2,0c0.1,0,0.1,0,0.2,0c0.1,0.1,0.2,0,0.3,0.1c0.4,0.1,0.9,0,1.3,0c0.4,0,0.7-0.1,1.1-0.3c0,0,0.1,0,0.1-0.1
			c0.2-0.1,0.3-0.1,0.4-0.3c0,0,0,0,0,0c0-0.1,0-0.1,0.1-0.1c0,0,0.1,0,0.1-0.1c0.3-0.2,0.5-0.4,0.7-0.7c0.5-0.7,0.7-1.5,0.8-2.3
			C48,4.3,47.9,3.3,47.5,2.3z M46.5,2.3C46.5,2.3,46.5,2.3,46.5,2.3C46.5,2.3,46.5,2.3,46.5,2.3L46.5,2.3z M42.5,0.4
			C42.4,0.4,42.4,0.4,42.5,0.4C42.4,0.4,42.4,0.4,42.5,0.4z M42.9,8.7C42.9,8.7,42.9,8.7,42.9,8.7C42.9,8.7,42.9,8.7,42.9,8.7
			C42.9,8.7,42.9,8.7,42.9,8.7C42.9,8.7,42.9,8.7,42.9,8.7z M45.7,8.1C45.7,8.1,45.7,8.1,45.7,8.1C45.7,8.1,45.7,8.1,45.7,8.1
			C45.7,8.1,45.7,8.1,45.7,8.1C45.7,8.1,45.7,8.1,45.7,8.1z M46.9,5.2c0,0.1,0,0.1,0,0.2c-0.1,0.6-0.2,1.1-0.5,1.6
			c0,0.1,0,0.2-0.1,0.2c0,0,0,0.1,0,0.1c0,0.1-0.1,0.1-0.1,0.2c0,0.1-0.1,0.1-0.1,0.2v0c-0.1,0.1-0.2,0.2-0.2,0.2c0,0,0,0,0,0
			c0,0,0,0-0.1,0l0,0c0,0,0,0-0.1,0c0,0-0.1,0-0.1,0.1c0,0,0,0,0,0c0,0,0,0,0,0c-0.2,0.1-0.4,0.3-0.6,0.3c-0.1,0-0.1,0-0.1,0
			c-0.5,0.1-1,0.2-1.6,0.1c0,0-0.1,0-0.1,0c-0.1,0-0.1,0-0.2,0l0,0c0,0-0.1,0-0.1,0l0,0l0,0c0,0,0,0-0.1,0c0,0,0,0-0.1,0
			c0,0,0,0,0.1,0c-0.1,0-0.1-0.1-0.2-0.1c0,0,0,0,0,0c0,0,0,0,0,0c0,0,0,0-0.1,0c0,0-0.1,0-0.1,0c0,0,0,0,0,0
			c-0.1-0.1-0.1-0.1-0.2-0.1c-1-0.5-1.4-1.3-1.7-2.3c-0.3-1.2-0.3-2.3,0.1-3.5c0.3-1,0.9-1.7,1.9-2v0c0.5-0.1,1.1-0.2,1.6-0.2
			c0,0,0,0,0,0l0,0c0.3,0.1,0.6,0.1,0.9,0.2c0.4,0.2,0.7,0.4,1,0.7c0.1,0,0.1,0,0.1,0.1c0,0,0,0,0,0l0,0c0,0,0,0,0,0l0,0
			c0,0,0,0,0,0c0.1,0.1,0.2,0.3,0.3,0.4c0,0,0,0,0,0c0,0,0,0,0.1,0c0,0,0,0-0.1,0c0,0.1,0.1,0.2,0.2,0.4C46.9,3.2,46.9,4.2,46.9,5.2
			C46.9,5.2,46.9,5.2,46.9,5.2C46.9,5.3,46.9,5.3,46.9,5.2C46.9,5.3,46.9,5.3,46.9,5.2z"/>
		<polygon fill="#D12129" points="46.2,7.3 46.2,7.3 46.2,7.3 		"/>
		<polygon fill="#D12129" points="46.3,7.1 46.3,7.1 46.3,7.1 		"/>
	</g>
	<path fill="#D12129" d="M45.7,8.1C45.7,8.1,45.7,8.1,45.7,8.1C45.7,8.1,45.7,8.1,45.7,8.1C45.7,8.1,45.7,8.1,45.7,8.1
		C45.7,8.1,45.7,8.1,45.7,8.1z"/>
	<path fill="#D12129" d="M45.6,8C45.6,8,45.6,8,45.6,8C45.6,8,45.6,8,45.6,8z"/>
	<polygon fill="#D12129" points="44,0.4 44,0.4 44,0.4 	"/>
	<path fill="#D12129" d="M45.5,8.1C45.6,8.1,45.6,8,45.5,8.1C45.6,8.1,45.6,8.1,45.5,8.1z"/>
	<path fill="#D12129" d="M24.3,0.2C24.3,0,24.2,0,24.1,0c-0.2,0-0.3,0-0.5,0c-0.5,0-0.9,0-1.4,0c-0.5,0-0.9,0-1.4,0
		c-0.1,0-0.2,0-0.2,0c0,0,0,0,0,0c-0.1,0-0.2,0-0.2,0c-0.1,0-0.1,0-0.1,0c0,0,0,0.1,0,0.3c0,0.3,0,0.7,0,1c0,2.5,0,5,0,7.5
		c0,0.2,0,0.2,0.2,0.2c0.2,0,0.3,0,0.5,0c0.3,0,0.3,0,0.2-0.3c0-0.1,0-0.1,0-0.2c0-1.2,0-2.4,0-3.6c0-0.2,0.1-0.3,0.3-0.3
		c0.8,0,1.6,0,2.3,0c0.2,0,0.3-0.1,0.3-0.3c0-0.2-0.1-0.2-0.3-0.2c-0.1,0-0.3,0-0.4,0c-0.4,0-0.9,0-1.3,0c-0.2,0-0.5,0-0.7,0
		c-0.1,0-0.1,0-0.2,0c0-1.2,0-2.3,0-3.5c0-0.1,0-0.3,0.2-0.3c0.9,0,1.8,0,2.6,0c0.1,0,0.2,0,0.3,0c0.1,0,0.1,0,0.1,0
		C24.3,0.4,24.3,0.3,24.3,0.2z"/>
	<path fill="#D12129" d="M4.4,4.6c0.6,0,1.1,0,1.7,0c0.1,0,0.3,0,0.3-0.2c0-0.2-0.1-0.2-0.3-0.2c-1,0-2,0-3,0c0,0,0-0.1,0-0.1
		c0-0.5,0-0.9,0-1.4c0-0.7,0-1.5,0-2.2c0,0,0,0,0,0c0,0,0,0,0.1,0c0,0,0.1,0,0.1,0c0.5,0,1,0,1.6,0c0.3,0,0.7,0,1,0c0,0,0.1,0,0.1,0
		c0.1,0,0.2,0,0.3,0c0.3,0,0.3-0.1,0.2-0.3C6.3,0,6.2,0,6.1,0C5.5,0,4.9,0,4.2,0C3.7,0,3.2,0,2.6,0c0,0,0,0,0,0c0,0,0,0,0,0
		c0,0,0,0,0,0c0,0,0,0,0,0c0,0,0,0-0.1,0c0,0-0.1,0-0.2,0C2.2-0.1,2.1,0.1,2.1,0.2c0,0.3,0,0.7,0,1c0,2.6,0,5.2,0,7.7
		c0,0.2,0.1,0.2,0.2,0.2c0.3,0,0.6,0,1,0c1,0,1.9,0,2.9,0c0.2,0,0.3-0.1,0.2-0.3c0-0.2,0-0.3-0.3-0.3c-0.9,0.1-1.8,0-2.7,0
		C3,8.6,3,8.6,3,8.1C3,8,3,8,3,7.9c0-1.1,0-2.2,0-3.3C3.5,4.6,4,4.6,4.4,4.6z"/>
	<path fill="#E4564F" d="M11,17.2c-0.1-0.1-0.3-0.2-0.4-0.2C10.8,16.9,10.9,17,11,17.2z"/>
	<path fill="#E4564F" d="M11.1,17.2c0,0-0.1,0-0.1,0c0,0,0,0,0,0s0,0,0,0C11,17.2,11.1,17.2,11.1,17.2z"/>
	<path fill="#E6EAE9" d="M13.5,16.4C13.5,16.4,13.4,16.4,13.5,16.4C13.4,16.4,13.5,16.4,13.5,16.4C13.5,16.4,13.5,16.4,13.5,16.4z"
		/>
	<path fill="#E4564F" d="M11,17.3C11,17.3,11,17.3,11,17.3C11,17.3,11,17.3,11,17.3z"/>
	<path fill="#D12129" d="M17.8,8.8c0-0.1,0-0.3,0-0.4c0-1,0-2,0-3c0-1.7,0-3.3,0-5c0-0.5,0-0.5-0.4-0.5c-0.2,0-0.4-0.1-0.5,0
		c-0.2,0.1,0,0.4,0,0.5c0,1.3,0,2.6,0,4.3c0,1.1,0.1,2.6,0,4c0,0.1,0,0.2,0.2,0.2c0.2,0,0.4,0,0.6,0C17.8,9.1,17.9,9,17.8,8.8z"/>
	<path fill="#D12129" d="M42.9,8.7C42.9,8.7,42.9,8.7,42.9,8.7C42.9,8.7,42.9,8.7,42.9,8.7C42.9,8.7,42.9,8.7,42.9,8.7
		C42.9,8.7,42.9,8.7,42.9,8.7z"/>
</g>
</svg>
