<?xml version="1.0" encoding="utf-8"?>
<!-- Generator: Adobe Illustrator 18.1.1, SVG Export Plug-In . SVG Version: 6.00 Build 0)  -->
<svg version="1.1" id="Layer_1" xmlns="http://www.w3.org/2000/svg" xmlns:xlink="http://www.w3.org/1999/xlink" x="0px" y="0px"
	 viewBox="-212 -75 473.9 207.1" enable-background="new -212 -75 473.9 207.1" xml:space="preserve">
<path fill="#EE0B14" d="M242.1-30.3c0,7-1.1,13.8-3.7,20.4c-4.1,10.6-11.5,17.7-22.4,21.3c-4.7,1.5-9.4,2-14.2,2.5
	c-2.3,0.2-4.6-0.4-6.9-0.6c-4.3-0.5-8.7-1.1-12.7-3c-7-3.2-12.7-7.8-16.4-14.7c-2-3.8-3.5-7.9-4.6-12c-0.8-2.9-0.8-6-1.2-9
	c-1.1-6.6-0.2-13.1,1.1-19.4c1.2-5.9,3.7-11.3,7.6-16.2c4-4.9,8.8-8.5,14.6-10.9c6.7-2.8,13.8-3,20.9-2.8c4.5,0.1,8.8,0.9,13,2.3
	c1.8,0.6,3.7,1.3,5.3,2.5c2.9,2,6,3.7,8.4,6.3c3.8,4,6.4,8.7,8.2,13.8C241.3-43.6,242.1-37.1,242.1-30.3z M232.5-31.9
	c0.2-2.7-0.3-6.2-0.9-9.7c-0.5-2.7-0.7-5.5-1.8-8.1c-0.9-2.1-1.9-4.2-2.9-6.3c-1.3-2.8-3.2-5.1-5.4-7c-4.1-3.6-8.7-6.2-14.4-6.6
	c-3.6-0.2-7.1-0.9-10.8-0.3c-4.3,0.6-8.4,1.6-12.2,3.9c-4.9,3.1-8.3,7.5-10.8,12.6c-2.7,5.5-3.8,11.6-4.2,17.7
	c-0.6,11.2,0.8,22.1,6.7,31.9c2.1,3.5,5,6.3,8.5,8.3c6,3.4,12.6,4.5,19.5,4c4.1-0.2,8-1.3,11.5-3.1c3.2-1.7,6.3-3.9,8.7-7
	c1.8-2.4,3.5-5,4.6-7.7C231.4-16.1,232.6-23.5,232.5-31.9z"/>
<path fill="#EE0B14" d="M-118.9,12.3c-4.5,0.1-8.9-0.1-13.4,0.2c-2.2,0.2-2.5-0.3-2.2-2.6c0.3-2.2,0.2-4.5,0.2-6.8
	c0-23.7-0.1-47.3-0.1-71c0-1.7-0.6-3.4-0.2-5.2c0.2-0.9,0.4-1.4,1.6-1c1.6,0.7,3.4,0.4,5,0.4c6.2,0,12.4-0.3,18.7-0.1
	c6.4,0.2,12.5,1.3,18.4,4.2c5.2,2.5,9.5,6,13.4,10.1c1,1.1,1.8,2.2,2.5,3.5c2.3,4.5,4.4,9,5.3,14.1c0.6,3.5,1.2,7.1,1.1,10.5
	c-0.2,5-0.6,10-2.1,14.9c-1.9,6.2-4.8,11.8-9.3,16.5c-4.8,4.8-10.3,8.6-16.9,10.5c-4.5,1.3-9.2,1.8-13.9,1.7
	C-113.5,12.3-116.2,12.3-118.9,12.3z M-126.2-31c0,0-0.1,0-0.1,0c0,4.7,0,9.4,0,14c0,7.6,0,15.1-0.1,22.7c0,1,0.3,1.3,1.3,1.3
	c4.9-0.1,9.8,0,14.7-0.2c5.3-0.2,10.4-0.9,15.2-3.5c5.9-3.1,10-7.8,12.8-13.7c3-6.3,4.3-13.1,4.4-20c0.1-9.5-1.1-18.7-7.6-26.3
	c-4.2-5-9.5-8.5-15.7-10.4c-7.8-2.3-15.9-1.6-23.9-1.7c-0.7,0-1,0.2-1.1,1.1c-0.1,1.6,0.1,3.2,0.1,4.8
	C-126.2-52.3-126.2-41.7-126.2-31z"/>
<path fill="#FFFFFF" d="M259.5,38.2c-0.5,0-0.9,0.1-1.4,0.1c-1.1,0-1.3,0.7-1.1,1.5c0.2,0.9,0.4,1.8,0.4,2.7c0,10.1-0.1,20.2,0,30.2
	c0,12.2-0.1,24.4-0.3,36.5c0,0.6-0.1,1.1-0.1,1.7c0,0.3-0.1,0.7-0.4,0.8c-0.3,0.1-0.5-0.2-0.7-0.4c-1.4-2.1-2.9-4.2-4.4-6.3
	c-3.4-5-6.8-10-10.3-15c-5-7.1-10-14.2-14.9-21.3c-3.4-4.8-6.7-9.6-10-14.4c-3.5-5.1-7.4-10-10.3-15.5c-0.4-0.8-1.1-1.1-1.9-1
	c-2.3,0.3-4.5-0.1-6.8,0c-1,0.1-1.2,0.4-1.1,1.4c0.2,1.5,0.4,3.1,0.4,4.6c-0.1,17.5-0.2,35.1-0.4,52.6c-0.1,8.5,0.2,17-0.1,25.4
	c-0.1,2.5,0,2.5,2.4,2.2c0.3,0,0.5,0,0.8,0c1.3,0,2.1-0.5,1.8-1.9l-0.1-13.6c-0.1-20,0.3-40-0.1-60c0-0.3-0.2-0.6,0.2-0.8
	c0.3-0.1,0.5,0.2,0.6,0.4c0.3,0.3,0.5,0.6,0.8,0.9c2.3,2.9,4.2,6.1,6.3,9.1C215.1,67,221.3,76,227.5,85c6.3,9.1,12.6,18.1,18.9,27.2
	c2.6,3.8,5.5,7.4,7.8,11.4c0.4,0.7,1,1.1,1.9,1.1c1.4-0.1,2.9,0,4.3,0c1,0,1.4-0.4,1.4-1.4c-0.1-1.8,0-3.6,0-5.4c0-12,0-24.1,0-36.1
	c0,0,0.1,0,0.1,0c0-5.7-0.1-11.4,0-17.1c0.1-8-0.3-16,0.1-24.1C262,38.7,261.5,38.1,259.5,38.2z"/>
<path fill="#FFFFFF" d="M6.7,102.7c1.7,7.9,6.5,13.1,14.3,15.7c6.2,2,12.5,2,18.9,0.8c7.4-1.4,12.9-5.4,16.1-12.3
	c1.4-3,2-6.2,2.2-9.4c0.7-18.2,0.2-36.4,0.3-54.6c0-1.5-0.1-3-0.2-4.5c-0.1-0.9,0.4-1.3,1.3-1.3c3.7,0,3.5,0,3.3,3.8
	c-0.2,5.1-0.2,10.3-0.1,15.4c0.1,10.3-0.4,20.7-0.5,31c-0.1,4.8,0.4,9.7-0.3,14.5c-1.2,8.4-5.5,15-12.9,19
	c-4.7,2.6-10.1,3.5-15.4,3.8c-3,0.2-6,0.2-8.9-0.1c-7.3-0.7-14.2-2.5-19.5-7.9c-3.4-3.5-5.9-7.6-7-12.4c-0.6-2.6-0.6-5.3-0.6-8
	c0-8.5,0-17.1,0-25.6c0,0,0,0,0,0c0-9.7,0-19.4,0-29.2c0-1-0.2-2-0.3-3.1C-2.9,37.5-2.6,37-1.7,37c2.4,0,4.7,0,7.1,0
	c1,0,1.5,0.4,1.4,1.5C6,44.7,6.5,50.9,6.4,57.1c-0.1,11.2,0.1,22.4,0,33.6"/>
<path fill="#EE0B14" d="M100.4-74.9c2.6-0.1,5.8-0.4,8.7,0.4c3.3,1,7,0.9,10,3c0.4,0.3,0.8,0.5,0.7,1c-0.5,2,0.2,4,0.1,6
	c0,0.3,0,0.6-0.1,0.9c-0.2,0.5,0,1.2-0.7,1.3c-0.5,0.1-0.8-0.4-1.1-0.7c-3-2.5-6-5.1-9.9-6.1c-3.8-1-7.7-1.7-11.7-1
	c-2.6,0.5-5.3,0.4-7.9,1.3c-6.4,2.3-11.2,6.4-14.8,12.3C69.9-50,68.5-43,67.5-35.7c-0.9,6.3,0.3,12.3,1.6,18.3
	c1.7,7.5,5.5,14,11.4,19.1c3,2.6,6.3,4.4,10.2,5.3c3.8,0.9,7.6,1.8,11.5,1.2c5.3-0.8,10.3-2.3,13.8-6.6c0.6-0.7,1.6-1.1,2.1-2
	c0.3-0.5,0.8-0.2,1.3-0.2c0.6,0.1,0.5,0.6,0.5,1c0,2.2-0.3,4.3-0.1,6.5c0.1,1.2-1,1.7-1.9,2.2c-4.5,2.2-9.2,3.8-14.3,4.3
	C96.4,14,89.4,13.1,82.7,11C77,9.1,72.1,5.7,68.1,1.1C64-3.6,61.5-9.1,59.7-15.1c-1.4-4.5-1.5-9.2-1.8-13.8
	c-0.5-7.6,0.5-15.2,3.3-22.3c1.9-4.8,4.7-9.2,8.6-12.8c2.7-2.5,5.5-4.9,8.9-6.4c2.5-1.1,5-2.3,7.7-3C90.9-74.7,95.4-75,100.4-74.9z"
	/>
<path fill="#FFFFFF" d="M98.6,124.9c-7.4,0.6-14-2.2-20.4-5.3c-1.9-0.9-2.1-1.7-1.4-3.8c0.4-1.2,0.9-2.4,1.3-3.6
	c0.4-1.2,1.1-1.3,2-0.6c0.8,0.7,1.6,1.4,2.4,2.1c6.5,5.2,13.8,7.1,22,4.9c4.8-1.2,8.2-3.9,10.6-8.2c3.3-6,2-14.6-2.8-19.5
	c-3.6-3.6-8.1-5.7-12.5-8.1c-4.4-2.4-8.9-4.6-13-7.5c-2.5-1.8-4.8-3.8-6.5-6.3c-4-5.7-4.6-11.9-2-18.2c3.7-8.9,10.8-13.3,20.2-14.4
	c7.6-0.9,14.8,0.8,21.8,3.6c0.9,0.4,1.5,1,0.9,1.9c-0.7,1.1-0.9,2.4-1.3,3.6c-0.5,1.7-1.3,1.8-2.8,0.8c-3.3-2.4-6.9-3.9-10.9-4.6
	c-2.7-0.5-5.4-0.6-8.1-0.1c-4.5,0.7-8.2,2.9-10.5,6.7c-2.1,3.5-3.3,7.3-1.7,11.6c1.8,5.2,5.7,8.1,10,10.8
	c5.9,3.7,12.5,6.2,18.3,10.1c8,5.4,12.5,12.9,11,22.8c-1.4,9.2-6.6,15.9-15.5,19.3c-1.8,0.7-3.6,1.2-5.5,1.5
	C102.3,124.9,100.4,124.8,98.6,124.9z"/>
<path fill="#EE0B14" d="M-191.5-30.2c0-13.4,0.1-26.8-0.1-40.3c0-0.2,0-0.4,0-0.6c0-2.6,0.1-2.7,2.6-2.6c9.2,0.3,18.4,0,27.6,0.1
	c2.7,0,5.4,0.2,8-0.1c1-0.1,1.5,0.4,2,1.2c0.5,0.9,0.5,1.9,0.1,2.8c-0.2,0.6-0.8,0.3-1.2,0.4c-2.8,0.1-5.6-0.3-8.5-0.3
	c-6.3,0.1-12.5,0-18.8,0c-0.7,0-1.4,0.1-2.2,0.1c-0.9,0-1.1,0.5-1.1,1.3c0,9.3,0,18.5,0,27.8c0,1.6,0.1,3.3,0,4.9
	c0,1.2,0.5,1.5,1.7,1.5c6.9-0.1,13.9,0,20.8-0.1c2.5,0,4.9,0,7.4-0.1c1.6-0.1,1.6,1,1.9,2.1c0.3,1.2-0.4,1.6-1.2,1.9
	c-0.6,0.2-1.3,0.3-2,0.3c-9-0.1-18-0.1-27-0.1c-1,0-1.4,0.3-1.4,1.4c-0.4,10.1-0.2,20.2-0.2,30.2c0,1.4,0,2.8-0.1,4.2
	c-0.1,1.1,0.3,1.4,1.4,1.5c5.7,0.4,11.3,0.1,17,0.1c3.8,0,7.7,0.4,11.5-0.4c0.8-0.2,1.4,0.1,1.6,1c0,0.2,0.2,0.5,0.3,0.7
	c0.8,2.6,0.2,3.6-2.5,3.6c-9.3,0-18.5,0-27.8,0c-2.7,0-5.4-0.1-8.2,0.3c-1.2,0.2-1.8-0.2-1.7-1.6C-191.3-2.8-191.6-16.5-191.5-30.2z
	"/>
<path fill="#FFFFFF" d="M150,42.1c-1.3,0-1.9,0.6-1.9,1.9c0,1.2,0.2,2.4,0.2,3.5c0,8.1,0,16.3,0,24.4c0,1.4,0,2.9-0.2,4.3
	c-0.1,1,0.2,1.3,1.1,1.3c1.6,0,3.3,0,4.9,0c8.1,0,16.1,0,24.2,0c1.1,0,1.5,0.3,1.5,1.5c0,3.2,0,3.1-3.2,3.1
	c-8.8-0.1-17.7,0-26.5-0.1c-1.4,0-1.9,0.5-1.9,1.9c-0.2,11.3-0.4,22.5-0.3,33.8c0,1,0.3,1.3,1.2,1.3c2,0.1,4.1,0,6.1-0.1
	c4.9-0.2,9.8,0.3,14.7,0.5c2.7,0.1,5.4-0.2,8.1-0.7c1.3-0.3,1.7,0.3,1.8,1.5c0.1,3.6-0.1,3.9-3.6,3.9c-10.9,0.1-21.7,0.2-32.6-0.1
	c-0.6,0-1.2,0-1.8,0c-2.2,0.1-2.6-0.2-2.4-2.4c0.8-8.3,0.3-16.5,0.3-24.8c0.1-18.9,0-37.7,0-56.6c0-0.4,0-0.8,0-1.2
	c0-1.1,0.4-1.4,1.6-1.3c6.1,0.1,12.1,0.1,18.2,0.1c0,0,0,0.1,0,0.1c6,0,11.9,0,17.9,0c2.9,0,3.6,1.1,2.9,4c-0.2,0.8-0.7,0.8-1.3,0.7
	"/>
<path fill="#EE0B14" d="M-13-10c0,5.7,0,11.4,0,17.1c0,1.1,0.2,2.1,0.4,3.2c0.4,1.6,0.1,2-1.6,2.2c-1,0.1-1.9-0.1-2.9-0.1
	c-0.4,0-0.8,0-1.2,0c-3.1,0.1-3.1,0.1-3.1-3.1c0.1-9.2,0.2-18.4,0.2-27.6c0-15-0.1-30-0.1-45c0-3.1,0.1-6.2-0.2-9.2
	c-0.1-1.3,0.9-1.1,1.6-1c3.6,0.2,7.2,0,10.8,0c7.7,0,15.3,0,23,0c0.9,0,1.8-0.2,2.8-0.2c1,0,1.7,0.4,1.6,1.5c0,0.6,0,1.1,0,1.7
	c0,1.2-0.9,1.7-1.9,1.5c-4.4-1.1-8.8-0.4-13.2-0.5c-4.8-0.1-9.6,0-14.3,0c-1.2,0-1.6,0.4-1.6,1.6c0,10.6,0,21.2,0,31.8
	c0,0.4,0.2,0.8,0.1,1.2c-0.1,1.1,0.3,1.3,1.3,1.3c7.4,0,14.8,0,22.2-0.1c0.9,0,1.7-0.2,2.6-0.4c0.8-0.2,1.1,0.2,1.2,0.9
	c0.7,3.7,0.5,4-3.2,4c-7.5-0.2-15-0.1-22.5-0.1c-1.2,0-1.6,0.4-1.6,1.6c0.1,5.9,0,11.8,0,17.7C-12.8-10-12.9-10-13-10z"/>
<path fill="#FFFFFF" d="M-190.1,123c-8.3-0.3-14.4-0.7-20.5-0.4c-1.6,0.1-1.3-1.1-1.3-2c0.5-11.1,0.1-22.2,0.2-33.3
	c0.1-14.6,0.1-29.2,0.3-43.8c0-1.7-0.2-3.5-0.3-5.2c-0.1-1.8,0-2,1.7-2c2,0,4,0.1,6,0c1.1-0.1,1.2,0.4,1.2,1.2
	c-0.1,3.2-0.3,6.4-0.3,9.6c0,21.2,0,42.4,0,63.6c0,2.1,0,4.1-0.1,6.2c0,0.9,0.3,1.1,1.2,1.1c9-0.1,18.1-0.1,27.1-0.2
	c2.2,0,2.2-0.1,2.2,1.9c0.1,3.2,0.1,3.3-3.2,3.4C-181.4,123-186.9,123-190.1,123z"/>
<path fill="#EE0B14" d="M134.1-4.2c0-20.4,0-42.9,0-65.4c0-0.9-0.2-1.6-0.5-2.4c-0.5-1.2,0.2-1.8,1.2-1.8c2.5,0,5,0.5,7.5-0.1
	c0.8-0.2,0.8,1,0.7,1.6c-0.2,2.4-0.2,4.7-0.2,7.1c0.1,12.8,0.1,25.6,0.1,38.4c0,10.4,0.2,20.9-0.1,31.3c-0.1,2.2,0.1,4.4,0.3,6.6
	c0.1,1-0.4,1.5-1.3,1.4c-2.3-0.3-4.5-0.1-6.8,0c-0.7,0-1.5,0-1.4-1.1C134.2,6.9,133.8,2.3,134.1-4.2z"/>
<path fill="#EE0B14" d="M39.7,12.5c-2-0.3-4-0.2-6,0.1c-1.1,0.1-1.5-0.4-1.5-1.4c0.7-14.7,0.1-29.4,0.3-44.1c0.1-11.8,0-23.6,0-35.5
	c0-1.5-0.1-3-0.1-4.5c0-0.7,0.3-1.2,1.1-1c2.1,0.3,4.2,0.3,6.3,0.1c1.4-0.1,1.8,0.5,1.6,1.6c-0.3,2.5-0.2,4.9-0.2,7.4
	c0,17.1,0,34.1-0.1,51.2c0,7.6,0,15.2,0.1,22.8c0,0.5,0.1,0.9,0.1,1.4C41.5,12.3,41.3,12.5,39.7,12.5z"/>
<path fill="#EE0B14" d="M-47.3-73.7c1,0,2.1,0.1,3.1,0c1-0.1,1.2,0.4,1.2,1.3c-0.7,14.3-0.2,28.7-0.3,43c-0.1,12.3,0,24.7,0,37
	c0,1,0.2,2,0.5,3c0.3,1.1-0.1,1.7-1.2,1.8c-2.3,0.1-4.5,0.2-6.8,0.3c-0.7,0-1-0.4-1.1-1c-0.2-0.9,0.1-1.7,0.2-2.6
	c0.4-4.4,0.2-8.8,0.1-13.3c-0.1-19.6-0.1-39.3,0-58.9c0-3,0.4-6.1-0.4-9.1c-0.2-0.9,0.2-1.5,1.2-1.5C-49.6-73.7-48.4-73.7-47.3-73.7
	C-47.3-73.7-47.3-73.7-47.3-73.7z"/>
<path fill="#EE0B14" d="M-147.9,85.5"/>
<path fill="#EE0B14" d="M-146.8,83.1c2.9-1.7,7.8-3.5,11.1-4c4.7-0.6,9.4-1.1,14.1-0.4c3,0.8,6,1.5,9.1,2.3c0.3,0.1,0.8,0.1,0.8,0.1
	c5.4,2,10.6,4.4,15.8,6.9c3.2,1.5,6.6,2.4,10.1,3.2c0.5,0.1,1,0.3,1.5,0c1.6,1.3,3.6,1,5.4,1.1c0.9,0.1,1.9,0.2,2.7-0.6
	c0.3,0.4,0.7,0.5,1.2,0.4c7.1-1,14.2-2.1,20.7-4.9c6.9-3,13.7-6.4,19.6-11.1c1-0.8,3.3-2.3,4.5-2.7c0.1,1.1-0.1,2.5-0.3,3.6
	c-0.9-0.3-2.3,1-3,1.6c-6.8,5.8-14.4,10.5-22.4,14.3c-5,2.4-10.3,4.1-15.8,4.9c-1.5,0.2-2.9,0.5-4.4,0.7c-3,0.2-5.9-0.6-8.9,0.1
	c-4.1-0.9-8.3-1.5-12.1-3.3c-2.9-1.4-5.8-2.9-8.3-4.9c-1-0.8-2.3-1.3-3.4-1.9c0,0,0-0.1-0.1-0.1c0,0,0,0,0,0
	c-1.2-0.6-2.3-1.3-3.5-1.8c-2.3-0.9-4.5-2.1-7-1.9c-1.2-0.7-2.5-0.7-3.9-0.8c-5.5-0.6-10.9-0.2-16.3,0.9c-2.3,0.5-6.7,2.1-8.9,3"/>
<path fill="#FFFFFF" d="M-76.1,91.7c-0.8,0.8-1.8,0.6-2.7,0.6c-1.9-0.1-3.8,0.2-5.4-1.1c0-13,0-25.9,0-38.9c0-4.7,0.3-9.4-0.4-14
	c-0.2-1.2,0.3-1.7,1.5-1.7c2.3,0.1,4.6,0.1,6.9,0.1c0.8,0,1.1,0.3,1,1c-1.4,6-0.4,12-0.6,18c-0.4,9.7-0.3,19.4-0.3,29.1
	C-76.2,87.1-76.2,89.4-76.1,91.7z"/>
<path fill="#FFFFFF" d="M-84.9,98.7c2.9-0.7,5.9,0.1,8.9-0.1c-0.4,7-0.3,14-0.1,21c0,0.7,0,1.5,0.3,2.1c0.5,1.2-0.1,1.5-1.1,1.5
	c-2.5,0.2-5,0.1-7.5,0c-0.9,0-0.9-0.5-0.8-1.1c0.9-7.6,0.1-15.3,0.5-22.9C-84.7,99-84.8,98.8-84.9,98.7z"/>
<path fill="#FFFFFF" d="M-106.2,95.6c2.7,6.7,5.1,13.5,7.4,20.4c0.6,1.9,1.7,3.6,2.6,5.4c0.5,1.1,0.4,1.7-0.9,1.6
	c-2.5-0.1-4.9-0.1-7.4,0c-0.9,0.1-1.2-0.4-1.4-1.1c-1.8-4.9-3.6-9.8-5.3-14.8c-2.3-6.8-5-13.5-7.5-20.2c-0.3-0.7-0.4-1.5-0.7-2.2
	c2.6-0.3,4.8,0.9,7,1.9c1.2,0.5,2.4,1.2,3.5,1.8"/>
<path fill="#EE0B14" d="M-153,86.6c0.2,2.3-1,4-2.1,5.8c-0.4-0.3-1.8,0.4-2.2,0.8c-4.3,3.4-8.5,6.8-12.2,10.8
	c-2.2,2.3-4.5,4.5-6.3,7.2c-0.2,0.2-0.3,0.5-0.9,0.4c0.8-3.2,2.8-5.8,4.7-8.2c2.4-3,5.1-5.7,7.9-8.3C-160.8,92-157.1,88.6-153,86.6z
	"/>
<path fill="#EE0B14" d="M-22.7,66.8c1.7-1.4,3.8-3.3,5.3-5c1.7-1.9,3.6-3.5,5.5-5.1c0.6-0.5,1.2-1,1.5-1.7c0.4-0.8,1.2-1.2,1.6-1.3
	l0.3,0.1c-1.5,2.3-3.1,4.5-5,6.4c-2.8,2.9-6,6.5-9.2,9"/>
<path fill="#FFFFFF" d="M-156,94.8c-1.4,3.2-2.4,6.5-3.6,9.7c-2,5.2-3.7,10.5-6,15.7c-1.2,2.6-0.7,3.1,2.1,3.1c2.7,0,3-0.2,3.5-2.8
	c0.3-1.3,0.6-2.6,1.1-3.9c1.7-4.6,3.3-9.1,5-13.7c1.7-4.6,3.3-9.1,5-13.7l2.4-7.2c1.4-3.8,2.9-7.7,4.3-11.5
	c1.6-4.3,2.9-8.6,4.6-12.9c1.2-3,2-6.1,3.3-9.1c0.2-0.4,0.3-1,0.8-1.1c0.6,0,0.6,0.6,0.8,1c2,5.5,3.9,11,6,16.5
	c1.7,4.6,3.5,9.2,5.3,13.8c3,0.8,6.1,1.7,9.1,2.5c0.3,0.1,0.6,0.2,0.8,0c-0.2-0.7-0.4-2-0.6-2.7c-3.4-9.3-6.8-18.5-10.1-27.8
	c-1.6-4.4-3.7-8.7-4.4-13.4c-0.1-0.7-0.6-0.8-1.2-0.9c-2.1-0.2-4.2-0.1-6.3-0.1c-0.8,0-1.2,0.3-1.4,1.1c-0.3,1.3-0.5,2.5-0.9,3.7
	c-2.1,5.8-4.1,11.6-6.3,17.4c-2.8,7.5-5.5,15.1-8.2,22.7"/>
<g>
	<path fill="#FFFFFF" d="M-22.6,119.2c0-16.1,0-32.3,0-48.4l-8.4,7.1c0,0.1,0,0.2,0,0.3c-0.5,14.6,0.2,29.2-0.6,43.7
		c0,0.9,0.1,1.3,1.1,1.3c2.4,0,4.7,0,7.1,0c1.2,0,1.4-0.5,1.1-1.5C-22.5,120.9-22.6,120.1-22.6,119.2z"/>
	<path fill="#FFFFFF" d="M-22.6,37.2c-2.6,0-5.1,0-7.7-0.1c-0.9,0-1.2,0.4-1,1.3c0.4,1.6,0.5,3.2,0.5,4.9c0,9.7-0.4,25-0.3,34.6
		l8.4-7.1c0-0.3,0.1-7.8,0.1-8c0-0.1-0.1-0.2-0.1-0.2c0,0,0-0.1,0.1-0.1c0.3-8.1-0.8-16.3,0.8-24.4C-21.7,37.4-22,37.2-22.6,37.2z"
		/>
</g>
</svg>
