<?xml version="1.0" encoding="utf-8"?>
<!-- Generator: Adobe Illustrator 18.1.1, SVG Export Plug-In . SVG Version: 6.00 Build 0)  -->
<svg version="1.1" id="Layer_1" xmlns="http://www.w3.org/2000/svg" xmlns:xlink="http://www.w3.org/1999/xlink" x="0px" y="0px"
	 viewBox="-0.4 14.4 50.8 21.1" enable-background="new -0.4 14.4 50.8 21.1" xml:space="preserve">
<path fill="#EE0B14" d="M47.9,19.2c0,0.7-0.1,1.5-0.4,2.1c-0.4,1.1-1.2,1.9-2.4,2.2c-0.5,0.2-1,0.2-1.5,0.3c-0.2,0-0.5,0-0.7-0.1
	c-0.5-0.1-0.9-0.1-1.3-0.3c-0.7-0.3-1.3-0.8-1.7-1.6c-0.2-0.4-0.4-0.8-0.5-1.3c-0.1-0.3-0.1-0.6-0.1-0.9c-0.1-0.7,0-1.4,0.1-2.1
	c0.1-0.6,0.4-1.2,0.8-1.7c0.4-0.5,0.9-0.9,1.5-1.2c0.7-0.3,1.5-0.3,2.2-0.3c0.5,0,0.9,0.1,1.4,0.2c0.2,0.1,0.4,0.1,0.6,0.3
	c0.3,0.2,0.6,0.4,0.9,0.7c0.4,0.4,0.7,0.9,0.9,1.5C47.8,17.8,47.9,18.5,47.9,19.2z M46.9,19c0-0.3,0-0.7-0.1-1
	c-0.1-0.3-0.1-0.6-0.2-0.9c-0.1-0.2-0.2-0.4-0.3-0.7c-0.1-0.3-0.3-0.5-0.6-0.7c-0.4-0.4-0.9-0.7-1.5-0.7c-0.4,0-0.8-0.1-1.1,0
	c-0.5,0.1-0.9,0.2-1.3,0.4c-0.5,0.3-0.9,0.8-1.1,1.3c-0.3,0.6-0.4,1.2-0.4,1.9c-0.1,1.2,0.1,2.3,0.7,3.4c0.2,0.4,0.5,0.7,0.9,0.9
	c0.6,0.4,1.3,0.5,2.1,0.4c0.4,0,0.8-0.1,1.2-0.3c0.3-0.2,0.7-0.4,0.9-0.7c0.2-0.3,0.4-0.5,0.5-0.8C46.8,20.7,46.9,19.9,46.9,19z"/>
<path fill="#EE0B14" d="M9.8,23.7c-0.5,0-0.9,0-1.4,0c-0.2,0-0.3,0-0.2-0.3c0-0.2,0-0.5,0-0.7c0-2.5,0-5,0-7.5c0-0.2-0.1-0.4,0-0.5
	c0-0.1,0-0.2,0.2-0.1c0.2,0.1,0.4,0,0.5,0c0.7,0,1.3,0,2,0c0.7,0,1.3,0.1,1.9,0.4c0.6,0.3,1,0.6,1.4,1.1c0.1,0.1,0.2,0.2,0.3,0.4
	c0.2,0.5,0.5,0.9,0.6,1.5c0.1,0.4,0.1,0.7,0.1,1.1c0,0.5-0.1,1.1-0.2,1.6c-0.2,0.7-0.5,1.2-1,1.7c-0.5,0.5-1.1,0.9-1.8,1.1
	c-0.5,0.1-1,0.2-1.5,0.2C10.4,23.7,10.1,23.7,9.8,23.7z M9,19.1C9,19.1,9,19.1,9,19.1c0,0.5,0,1,0,1.5c0,0.8,0,1.6,0,2.4
	c0,0.1,0,0.1,0.1,0.1c0.5,0,1,0,1.5,0c0.6,0,1.1-0.1,1.6-0.4c0.6-0.3,1.1-0.8,1.3-1.4c0.3-0.7,0.5-1.4,0.5-2.1c0-1-0.1-2-0.8-2.8
	c-0.4-0.5-1-0.9-1.7-1.1c-0.8-0.2-1.7-0.2-2.5-0.2c-0.1,0-0.1,0-0.1,0.1c0,0.2,0,0.3,0,0.5C9,16.8,9,18,9,19.1z"/>
<path fill="#FFFFFF" d="M43.6,35.2c0,0.2,0,0.2-0.2,0.2c0,0-0.1,0-0.1,0c-0.3,0-0.3,0-0.3-0.2c0-0.9,0-1.8,0-2.7c0-1.9,0-3.7,0-5.6
	c0-0.2,0-0.3,0-0.5c0-0.1,0-0.1,0.1-0.1c0.2,0,0.5,0,0.7,0c0.1,0,0.2,0,0.2,0.1c0.3,0.6,0.7,1.1,1.1,1.6c0.3,0.5,0.7,1,1.1,1.5
	c0.5,0.7,1.1,1.5,1.6,2.2c0.4,0.5,0.7,1.1,1.1,1.6c0.2,0.2,0.3,0.4,0.5,0.7c0,0,0,0.1,0.1,0c0,0,0,0,0-0.1c0-0.1,0-0.1,0-0.2
	c0-1.3,0-2.6,0-3.9c0-1.1,0-2.1,0-3.2c0-0.1,0-0.2,0-0.3c0-0.1,0-0.2,0.1-0.2c0,0,0.1,0,0.1,0c0.2,0,0.3,0.1,0.3,0.3
	c0,0.8,0,1.7,0,2.5c0,0.6,0,1.2,0,1.8c0,0,0,0,0,0c0,1.3,0,2.5,0,3.8c0,0.2,0,0.4,0,0.6c0,0.1,0,0.1-0.1,0.1c-0.2,0-0.3,0-0.5,0
	c-0.1,0-0.2,0-0.2-0.1c-0.2-0.4-0.5-0.8-0.8-1.2c-0.7-1-1.3-1.9-2-2.9c-0.7-0.9-1.3-1.9-2-2.8c-0.2-0.3-0.4-0.7-0.7-1
	c0,0-0.1-0.1-0.1-0.1c0,0,0,0-0.1,0c0,0,0,0.1,0,0.1c0,2.1,0,4.2,0,6.3"/>
<path fill="#FFFFFF" d="M23.1,33.2c0.2,0.8,0.7,1.4,1.5,1.7c0.7,0.2,1.3,0.2,2,0.1c0.8-0.1,1.4-0.6,1.7-1.3c0.1-0.3,0.2-0.7,0.2-1
	c0.1-1.9,0-3.8,0-5.8c0-0.2,0-0.3,0-0.5c0-0.1,0-0.1,0.1-0.1c0.4,0,0.4,0,0.3,0.4c0,0.5,0,1.1,0,1.6c0,1.1,0,2.2-0.1,3.3
	c0,0.5,0,1,0,1.5c-0.1,0.9-0.6,1.6-1.4,2c-0.5,0.3-1.1,0.4-1.6,0.4c-0.3,0-0.6,0-0.9,0c-0.8-0.1-1.5-0.3-2.1-0.8
	c-0.4-0.4-0.6-0.8-0.7-1.3c-0.1-0.3-0.1-0.6-0.1-0.8c0-0.9,0-1.8,0-2.7c0,0,0,0,0,0c0-1,0-2.1,0-3.1c0-0.1,0-0.2,0-0.3
	c0-0.1,0-0.1,0.1-0.1c0.2,0,0.5,0,0.7,0c0.1,0,0.2,0,0.1,0.2c-0.1,0.7,0,1.3,0,2c0,1.2,0,2.4,0,3.5"/>
<path fill="#EE0B14" d="M33,14.5c0.3,0,0.6,0,0.9,0c0.4,0.1,0.7,0.1,1.1,0.3c0,0,0.1,0.1,0.1,0.1c-0.1,0.2,0,0.4,0,0.6
	c0,0,0,0.1,0,0.1c0,0,0,0.1-0.1,0.1c0,0-0.1,0-0.1-0.1c-0.3-0.3-0.6-0.5-1-0.6C33.4,15,33,14.9,32.5,15c-0.3,0-0.6,0-0.8,0.1
	c-0.7,0.2-1.2,0.7-1.6,1.3c-0.4,0.7-0.6,1.4-0.7,2.2c-0.1,0.7,0,1.3,0.2,1.9c0.2,0.8,0.6,1.5,1.2,2c0.3,0.3,0.7,0.5,1.1,0.6
	c0.4,0.1,0.8,0.2,1.2,0.1c0.6-0.1,1.1-0.2,1.5-0.7c0.1-0.1,0.2-0.1,0.2-0.2c0-0.1,0.1,0,0.1,0c0.1,0,0.1,0.1,0.1,0.1
	c0,0.2,0,0.5,0,0.7c0,0.1-0.1,0.2-0.2,0.2c-0.5,0.2-1,0.4-1.5,0.5c-0.8,0.1-1.5,0-2.2-0.2c-0.6-0.2-1.1-0.6-1.5-1
	c-0.4-0.5-0.7-1.1-0.9-1.7c-0.1-0.5-0.2-1-0.2-1.5c-0.1-0.8,0-1.6,0.3-2.4c0.2-0.5,0.5-1,0.9-1.4c0.3-0.3,0.6-0.5,0.9-0.7
	c0.3-0.1,0.5-0.2,0.8-0.3C32,14.5,32.4,14.4,33,14.5z"/>
<path fill="#FFFFFF" d="M32.8,35.5c-0.8,0.1-1.5-0.2-2.2-0.6c-0.2-0.1-0.2-0.2-0.2-0.4c0-0.1,0.1-0.3,0.1-0.4c0-0.1,0.1-0.1,0.2-0.1
	c0.1,0.1,0.2,0.2,0.3,0.2c0.7,0.6,1.5,0.7,2.3,0.5c0.5-0.1,0.9-0.4,1.1-0.9c0.3-0.6,0.2-1.5-0.3-2.1c-0.4-0.4-0.9-0.6-1.3-0.8
	c-0.5-0.3-0.9-0.5-1.4-0.8c-0.3-0.2-0.5-0.4-0.7-0.7c-0.4-0.6-0.5-1.3-0.2-1.9c0.4-0.9,1.1-1.4,2.1-1.5c0.8-0.1,1.6,0.1,2.3,0.4
	c0.1,0,0.2,0.1,0.1,0.2c-0.1,0.1-0.1,0.3-0.1,0.4c-0.1,0.2-0.1,0.2-0.3,0.1c-0.3-0.2-0.7-0.4-1.2-0.5c-0.3-0.1-0.6-0.1-0.9,0
	c-0.5,0.1-0.9,0.3-1.1,0.7c-0.2,0.4-0.3,0.8-0.2,1.2c0.2,0.5,0.6,0.9,1.1,1.1c0.6,0.4,1.3,0.7,1.9,1.1c0.8,0.6,1.3,1.4,1.2,2.4
	c-0.1,1-0.7,1.7-1.6,2c-0.2,0.1-0.4,0.1-0.6,0.2C33.2,35.5,33,35.5,32.8,35.5z"/>
<path fill="#EE0B14" d="M2.2,19.2c0-1.4,0-2.8,0-4.2c0,0,0,0,0-0.1c0-0.3,0-0.3,0.3-0.3c1,0,1.9,0,2.9,0c0.3,0,0.6,0,0.8,0
	c0.1,0,0.2,0,0.2,0.1c0.1,0.1,0,0.2,0,0.3c0,0.1-0.1,0-0.1,0c-0.3,0-0.6,0-0.9,0c-0.7,0-1.3,0-2,0c-0.1,0-0.2,0-0.2,0
	c-0.1,0-0.1,0-0.1,0.1c0,1,0,2,0,2.9c0,0.2,0,0.3,0,0.5c0,0.1,0.1,0.2,0.2,0.2c0.7,0,1.5,0,2.2,0c0.3,0,0.5,0,0.8,0
	c0.2,0,0.2,0.1,0.2,0.2c0,0.1,0,0.2-0.1,0.2c-0.1,0-0.1,0-0.2,0c-0.9,0-1.9,0-2.8,0c-0.1,0-0.1,0-0.2,0.1c0,1.1,0,2.1,0,3.2
	c0,0.1,0,0.3,0,0.4c0,0.1,0,0.1,0.1,0.2c0.6,0,1.2,0,1.8,0c0.4,0,0.8,0,1.2,0c0.1,0,0.1,0,0.2,0.1c0,0,0,0,0,0.1
	c0.1,0.3,0,0.4-0.3,0.4c-1,0-2,0-2.9,0c-0.3,0-0.6,0-0.9,0c-0.1,0-0.2,0-0.2-0.2C2.2,22.1,2.1,20.6,2.2,19.2z"/>
<path fill="#FFFFFF" d="M38.2,26.8C38,26.8,38,26.9,38,27c0,0.1,0,0.2,0,0.4c0,0.9,0,1.7,0,2.6c0,0.2,0,0.3,0,0.5
	c0,0.1,0,0.1,0.1,0.1c0.2,0,0.3,0,0.5,0c0.9,0,1.7,0,2.6,0c0.1,0,0.2,0,0.2,0.2c0,0.3,0,0.3-0.3,0.3c-0.9,0-1.9,0-2.8,0
	c-0.1,0-0.2,0.1-0.2,0.2c0,1.2,0,2.4,0,3.6c0,0.1,0,0.1,0.1,0.1c0.2,0,0.4,0,0.6,0c0.5,0,1,0,1.6,0.1c0.3,0,0.6,0,0.9-0.1
	c0.1,0,0.2,0,0.2,0.2c0,0.4,0,0.4-0.4,0.4c-1.1,0-2.3,0-3.4,0c-0.1,0-0.1,0-0.2,0c-0.2,0-0.3,0-0.3-0.3c0.1-0.9,0-1.7,0-2.6
	c0-2,0-4,0-6c0,0,0-0.1,0-0.1c0-0.1,0-0.1,0.2-0.1c0.6,0,1.3,0,1.9,0c0,0,0,0,0,0c0.6,0,1.3,0,1.9,0c0.3,0,0.4,0.1,0.3,0.4
	c0,0.1-0.1,0.1-0.1,0.1"/>
<path fill="#EE0B14" d="M21,21.3c0,0.6,0,1.2,0,1.8c0,0.1,0,0.2,0,0.3c0,0.2,0,0.2-0.2,0.2c-0.1,0-0.2,0-0.3,0c0,0-0.1,0-0.1,0
	c-0.3,0-0.3,0-0.3-0.3c0-1,0-1.9,0-2.9c0-1.6,0-3.2,0-4.7c0-0.3,0-0.7,0-1c0-0.1,0.1-0.1,0.2-0.1c0.4,0,0.8,0,1.1,0
	c0.8,0,1.6,0,2.4,0c0.1,0,0.2,0,0.3,0c0.1,0,0.2,0,0.2,0.2c0,0.1,0,0.1,0,0.2c0,0.1-0.1,0.2-0.2,0.2c-0.5-0.1-0.9,0-1.4,0
	c-0.5,0-1,0-1.5,0c-0.1,0-0.2,0-0.2,0.2c0,1.1,0,2.2,0,3.4c0,0,0,0.1,0,0.1c0,0.1,0,0.1,0.1,0.1c0.8,0,1.6,0,2.3,0
	c0.1,0,0.2,0,0.3,0c0.1,0,0.1,0,0.1,0.1c0.1,0.4,0,0.4-0.3,0.4c-0.8,0-1.6,0-2.4,0c-0.1,0-0.2,0-0.2,0.2C21,20.1,21,20.7,21,21.3
	C21,21.3,21,21.3,21,21.3z"/>
<path fill="#FFFFFF" d="M2.3,35.3c-0.9,0-1.5-0.1-2.2,0C0,35.3,0,35.2,0,35.1c0.1-1.2,0-2.3,0-3.5c0-1.5,0-3.1,0-4.6
	c0-0.2,0-0.4,0-0.6c0-0.2,0-0.2,0.2-0.2c0.2,0,0.4,0,0.6,0c0.1,0,0.1,0,0.1,0.1c0,0.3,0,0.7,0,1c0,2.2,0,4.5,0,6.7
	c0,0.2,0,0.4,0,0.7c0,0.1,0,0.1,0.1,0.1c1,0,1.9,0,2.9,0c0.2,0,0.2,0,0.2,0.2c0,0.3,0,0.4-0.3,0.4C3.2,35.3,2.6,35.3,2.3,35.3z"/>
<path fill="#EE0B14" d="M36.5,21.9c0-2.2,0-4.5,0-6.9c0-0.1,0-0.2-0.1-0.3c-0.1-0.1,0-0.2,0.1-0.2c0.3,0,0.5,0.1,0.8,0
	c0.1,0,0.1,0.1,0.1,0.2c0,0.2,0,0.5,0,0.7c0,1.4,0,2.7,0,4.1c0,1.1,0,2.2,0,3.3c0,0.2,0,0.5,0,0.7c0,0.1,0,0.2-0.1,0.1
	c-0.2,0-0.5,0-0.7,0c-0.1,0-0.2,0-0.1-0.1C36.5,23.1,36.5,22.6,36.5,21.9z"/>
<path fill="#EE0B14" d="M26.6,23.7c-0.2,0-0.4,0-0.6,0c-0.1,0-0.2,0-0.2-0.2c0.1-1.5,0-3.1,0-4.7c0-1.2,0-2.5,0-3.7
	c0-0.2,0-0.3,0-0.5c0-0.1,0-0.1,0.1-0.1c0.2,0,0.4,0,0.7,0c0.2,0,0.2,0.1,0.2,0.2c0,0.3,0,0.5,0,0.8c0,1.8,0,3.6,0,5.4
	c0,0.8,0,1.6,0,2.4c0,0,0,0.1,0,0.1C26.7,23.7,26.7,23.7,26.6,23.7z"/>
<path fill="#EE0B14" d="M17.4,14.6c0.1,0,0.2,0,0.3,0c0.1,0,0.1,0,0.1,0.1c-0.1,1.5,0,3,0,4.5c0,1.3,0,2.6,0,3.9c0,0.1,0,0.2,0,0.3
	c0,0.1,0,0.2-0.1,0.2c-0.2,0-0.5,0-0.7,0c-0.1,0-0.1,0-0.1-0.1c0-0.1,0-0.2,0-0.3c0-0.5,0-0.9,0-1.4c0-2.1,0-4.1,0-6.2
	c0-0.3,0-0.6,0-1c0-0.1,0-0.2,0.1-0.2C17.1,14.6,17.3,14.6,17.4,14.6C17.4,14.6,17.4,14.6,17.4,14.6z"/>
<path fill="#EE0B14" d="M6.8,31.4"/>
<path fill="#EE0B14" d="M6.9,31.1C7.2,31,7.7,30.8,8,30.7c0.5-0.1,1-0.1,1.5,0c0.3,0.1,0.6,0.2,1,0.2c0,0,0.1,0,0.1,0
	c0.6,0.2,1.1,0.5,1.7,0.7c0.3,0.2,0.7,0.3,1.1,0.3c0.1,0,0.1,0,0.2,0c0.2,0.1,0.4,0.1,0.6,0.1c0.1,0,0.2,0,0.3-0.1
	c0,0,0.1,0.1,0.1,0c0.7-0.1,1.5-0.2,2.2-0.5c0.7-0.3,1.4-0.7,2.1-1.2c0.1-0.1,0.4-0.2,0.5-0.3c0,0.1,0,0.3,0,0.4
	c-0.1,0-0.2,0.1-0.3,0.2c-0.7,0.6-1.5,1.1-2.4,1.5c-0.5,0.3-1.1,0.4-1.7,0.5c-0.2,0-0.3,0-0.5,0.1c-0.3,0-0.6-0.1-0.9,0
	c-0.4-0.1-0.9-0.2-1.3-0.3c-0.3-0.1-0.6-0.3-0.9-0.5c-0.1-0.1-0.2-0.1-0.4-0.2c0,0,0,0,0,0c0,0,0,0,0,0c-0.1-0.1-0.2-0.1-0.4-0.2
	c-0.2-0.1-0.5-0.2-0.7-0.2c-0.1-0.1-0.3-0.1-0.4-0.1c-0.6-0.1-1.1,0-1.7,0.1c-0.2,0.1-0.7,0.2-0.9,0.3"/>
<path fill="#FFFFFF" d="M14.3,32c-0.1,0.1-0.2,0.1-0.3,0.1c-0.2,0-0.4,0-0.6-0.1c0-1.4,0-2.7,0-4.1c0-0.5,0-1,0-1.5
	c0-0.1,0-0.2,0.2-0.2c0.2,0,0.5,0,0.7,0c0.1,0,0.1,0,0.1,0.1c-0.1,0.6,0,1.3-0.1,1.9c0,1,0,2,0,3.1C14.3,31.5,14.3,31.8,14.3,32z"/>
<path fill="#FFFFFF" d="M13.4,32.8c0.3-0.1,0.6,0,0.9,0c0,0.7,0,1.5,0,2.2c0,0.1,0,0.2,0,0.2c0.1,0.1,0,0.2-0.1,0.2
	c-0.3,0-0.5,0-0.8,0c-0.1,0-0.1-0.1-0.1-0.1C13.5,34.4,13.4,33.6,13.4,32.8C13.4,32.8,13.4,32.8,13.4,32.8z"/>
<path fill="#FFFFFF" d="M11.2,32.4c0.3,0.7,0.5,1.4,0.8,2.2c0.1,0.2,0.2,0.4,0.3,0.6c0.1,0.1,0,0.2-0.1,0.2c-0.3,0-0.5,0-0.8,0
	c-0.1,0-0.1,0-0.1-0.1c-0.2-0.5-0.4-1-0.6-1.6c-0.2-0.7-0.5-1.4-0.8-2.1c0-0.1,0-0.2-0.1-0.2c0.3,0,0.5,0.1,0.7,0.2
	c0.1,0.1,0.2,0.1,0.4,0.2"/>
<path fill="#EE0B14" d="M6.2,31.5c0,0.2-0.1,0.4-0.2,0.6c0,0-0.2,0-0.2,0.1c-0.5,0.4-0.9,0.7-1.3,1.1c-0.2,0.2-0.5,0.5-0.7,0.8
	c0,0,0,0.1-0.1,0c0.1-0.3,0.3-0.6,0.5-0.9c0.2-0.3,0.5-0.6,0.8-0.9C5.4,32.1,5.8,31.7,6.2,31.5z"/>
<path fill="#EE0B14" d="M20,29.4c0.2-0.1,0.4-0.4,0.6-0.5c0.2-0.2,0.4-0.4,0.6-0.5c0.1-0.1,0.1-0.1,0.2-0.2c0-0.1,0.1-0.1,0.2-0.1
	l0,0c-0.2,0.2-0.3,0.5-0.5,0.7c-0.3,0.3-0.6,0.7-1,0.9"/>
<path fill="#FFFFFF" d="M5.9,32.4c-0.1,0.3-0.3,0.7-0.4,1c-0.2,0.6-0.4,1.1-0.6,1.7c-0.1,0.3-0.1,0.3,0.2,0.3c0.3,0,0.3,0,0.4-0.3
	c0-0.1,0.1-0.3,0.1-0.4c0.2-0.5,0.4-1,0.5-1.4c0.2-0.5,0.4-1,0.5-1.4L6.9,31c0.1-0.4,0.3-0.8,0.4-1.2c0.2-0.5,0.3-0.9,0.5-1.4
	c0.1-0.3,0.2-0.6,0.3-1c0,0,0-0.1,0.1-0.1c0.1,0,0.1,0.1,0.1,0.1c0.2,0.6,0.4,1.2,0.6,1.7c0.2,0.5,0.4,1,0.6,1.5
	c0.3,0.1,0.6,0.2,1,0.3c0,0,0.1,0,0.1,0c0-0.1,0-0.2-0.1-0.3c-0.4-1-0.7-2-1.1-2.9c-0.2-0.5-0.4-0.9-0.5-1.4c0-0.1-0.1-0.1-0.1-0.1
	c-0.2,0-0.4,0-0.7,0c-0.1,0-0.1,0-0.1,0.1c0,0.1,0,0.3-0.1,0.4c-0.2,0.6-0.4,1.2-0.7,1.8c-0.3,0.8-0.6,1.6-0.9,2.4"/>
<g>
	<path fill="#FFFFFF" d="M20,34.9c0-1.7,0-3.4,0-5.1l-0.9,0.7c0,0,0,0,0,0c-0.1,1.5,0,3.1-0.1,4.6c0,0.1,0,0.1,0.1,0.1
		c0.2,0,0.5,0,0.7,0c0.1,0,0.1-0.1,0.1-0.2C20,35.1,20,35,20,34.9z"/>
	<path fill="#FFFFFF" d="M20,26.3c-0.3,0-0.5,0-0.8,0c-0.1,0-0.1,0-0.1,0.1c0,0.2,0.1,0.3,0.1,0.5c0,1,0,2.6,0,3.7l0.9-0.7
		c0,0,0-0.8,0-0.8c0,0,0,0,0,0c0,0,0,0,0,0C20,28.1,19.9,27.2,20,26.3C20.1,26.3,20,26.3,20,26.3z"/>
</g>
</svg>
