<?xml version="1.0" encoding="utf-8"?>
<!-- Generator: Adobe Illustrator 18.1.1, SVG Export Plug-In . SVG Version: 6.00 Build 0)  -->
<svg version="1.1" id="Layer_1" xmlns="http://www.w3.org/2000/svg" xmlns:xlink="http://www.w3.org/1999/xlink" x="0px" y="0px"
	 viewBox="-101 746.5 202 91" enable-background="new -101 746.5 202 91" xml:space="preserve">
<path fill="#FFFFFF" d="M85.8,825.3c0-1.8,0-3.4,0-5c0-7.5,0-14.9,0-22.4c0-0.2,0-0.2,0-0.5c0-0.5-0.2-0.9,0.5-0.7
	c0.5,0,1.1-0.2,1.1,0.9c0,10.1,0,20.3,0,30.4v0.2c0,1.8,0,1.8-1.8,1.8c-0.5,0-0.9-0.2-1.1-0.7c-5-7.3-10.1-14.6-15.3-21.9
	c-1.6-2.3-3.2-4.6-4.8-6.9c0,0,0-0.2-0.2-0.5c-0.2,0.5-0.2,0.7-0.2,0.9c0,7.5,0,15.1,0,22.4c0,1.8-0.2,3.7,0,5.7
	c0,0.9-0.7,0.5-1.1,0.7c-0.5,0.2-0.7,0-0.7-0.7c0-10.3,0.2-20.6,0.2-30.6c0-0.2,0-0.7,0-0.9c-0.2-0.9,0-0.9,0.9-1.1
	c1.8-0.2,2.7,0.5,3.7,1.8c5,7.3,10.1,14.6,15.3,22.2c0.9,1.1,1.6,2.5,2.5,3.9C85.1,824.6,85.1,824.8,85.8,825.3z"/>
<path fill="#FFFFFF" d="M10.8,808.1c-0.2,4.3-0.2,8.2-0.2,11.9c0,4.6-2.7,7.8-7.1,9.1c-3.4,0.9-6.9,0.9-10.5,0.2
	c-4.3-0.9-7.3-4.8-7.3-9.6c0-5.3,0-10.7,0-16c0-2.5,0-4.8,0-7.3c0-0.5,0.2-0.5,0.5-0.5c0.9,0,1.8,0,2.5,0c0.5,0,0.5,0,0.5,0.5
	c-0.2,6.6,0,13.3-0.2,19.7c0,1.4,0,2.7,0,4.1c0.2,3.4,2.7,6.6,6.6,7.5c2.7,0.5,5.5,0.5,8-0.5c3.7-1.6,5.3-4.6,5.3-8.2
	c0.2-6.6,0-13.3,0.2-20.1c0-0.7,0-1.6,0-2.3c0-0.5,0.2-0.7,0.7-0.5c0.5,0,1.1-0.5,1.1,0.7C10.8,800.8,10.8,804.7,10.8,808.1z"/>
<path fill="#FFFFFF" d="M24.6,830.1c-3,0-5.5-0.7-7.8-2.1c-0.7-0.5-1.1-0.9-0.5-1.6c0.2-0.2,0.2-0.5,0.2-0.7
	c0.5-1.1,0.5-1.1,1.4-0.2c2.5,2.3,5.7,3.2,8.9,2.3c2.5-0.7,4.1-2.5,4.6-5c0.5-2.7-0.5-5-2.7-6.6c-1.6-1.1-3.4-2.1-5.3-3
	c-1.8-0.9-3.4-1.8-4.8-3.2c-4.3-3.9-2.7-10.5,2.3-12.8c3.9-1.8,8-1.4,11.9,0.5c0.5,0.2,0.7,0.5,0.5,0.9c-0.2,0.5-0.2,1.4-0.7,1.6
	c-0.5,0.2-0.9-0.5-1.6-0.7c-2.1-1.1-4.3-1.6-6.9-1.1c-2.5,0.5-3.9,2.1-4.6,4.3c-0.5,2.3,0.5,4.1,2.1,5.5c1.8,1.6,3.9,2.5,5.9,3.7
	c1.4,0.7,2.5,1.4,3.7,2.3c2.7,2.1,3.9,5,3.4,8.5c-0.7,3.7-2.7,6.2-6.4,7.3C27.1,829.8,25.7,830.1,24.6,830.1z"/>
<path fill="#FFFFFF" d="M-95.2,812.5c0-5,0-10.1,0-15.1c0-1.4,0-1.4,1.4-1.6c1.8-0.2,1.8-0.2,1.8,1.6c0,9,0,19.4,0,29
	c0,0.7,0.2,0.9,0.9,0.9c3.4,0,6.9,0,10.3,0c0.5,0,0.5,0,0.5,0.5c0,1.4,0,1.4-1.4,1.4c-4.3,0-8.7,0-13,0c-0.5,0-0.7,0-0.7-0.7
	C-95,823.2-95.2,817.7-95.2,812.5z"/>
<path fill="#FFFFFF" d="M-62.8,797.2c-0.2-0.2-0.2-0.7-0.5-0.7c-0.9,0-1.8-0.2-2.7,0c-0.5,0-0.2,0.9-0.5,1.4c0,0.2-0.2,0.5-0.2,0.7
	c-1.4,3.9-2.7,8-4.3,12.1c-0.5,1.8-1.1,3.7-2.1,5.3c0,0.7-0.2,1.1-0.2,1.6l-0.2,0.2c-0.2,0.5-0.5,1.1-0.7,1.8
	c-1.1,3.2-2.3,6.2-3.4,9.4c0,0-0.2,0.2,0,0.5c0.5,0.5,1.8,0,2.1-0.5c1.1-3.2,2.3-6.4,3.4-9.6c0.5-1.4,0.6-2.4,1.5-3.6l0.3-1.1
	c1.8-4.6,3.5-9.3,5.1-13.9h0.2c1.4,3.9,3,8,4.3,11.9c0,0,0,0,0,0.2c0.5,0,1.1,0.2,1.6,0.5h0.2c0.5,0,1.1,0,1.6,0.2
	c0.2,0,0.2-0.2,0.2-0.2C-58.9,807.9-60.9,802.6-62.8,797.2z"/>
<path fill="#FFFFFF" d="M-25.5,810.6c0.2-0.5,0.2-0.7,0.2-1.1c0-3.9,0-8,0-11.9c0-0.5-0.2-0.9,0-1.1c0.2-0.5,0.9-0.2,1.4-0.2
	c0.2,0,0.7,0,0.9,0c1.1,0,1.1,0,0.9,1.1c0,0.2,0,0.7,0,0.9c0,2.1,0,4.1,0,6.4c0,0.2,0,0.5,0,0.9c0,0.7,0,1.4,0,2.1
	c-0.2,0.5,0,0.7,0,1.1c0,0.2,0,0.7,0,0.9c0,6.2,0,12.3,0,18.7c0,1.4,0,1.4-1.4,1.4c-0.5,0-0.9,0-1.1,0c-0.7,0.2-0.7,0-0.7-0.7
	c0.2-5.7,0.2-11.2,0.2-16.9C-25.5,811.6-25.5,811.1-25.5,810.6z"/>
<path fill="#FFFFFF" d="M-46.1,817c0-6.4,0-13,0-19.4c0-0.5-0.5-1.1,0-1.4c0.5-0.2,1.1,0,1.6,0s1.1-0.2,1.6,0c0.7,0.5,0,0.9,0,1.6
	c0,4.1,0,8.2-0.2,12.3c0,2.3,0,4.6,0,6.9c0,0.2,0.2,0.7-0.2,0.5C-44.3,817.3-45.2,817.7-46.1,817z"/>
<path fill="#FFFFFF" d="M-56.6,815.7c0.5,0.2,0.9,0.5,1.4,1.1c1.8,4.1,3,8.5,4.8,12.6c-1.1,0-2.3,0-3.4,0c-0.5,0-0.5-0.5-0.7-0.7
	c-1.1-3.4-2.5-6.9-3.7-10.3c-0.5-1.1-1.1-2.3-1.4-3.4c0.2-0.2,0.7,0,0.9,0C-57.7,815.2-57.3,815.7-56.6,815.7z"/>
<path fill="#FFFFFF" d="M-44,819.8c0.5,0,0.9,0,1.1,0.2c0,2.7,0,5.7,0,8.5c0,0.7-0.2,0.9-0.7,0.7c-0.9,0-2.1,0.2-2.5-0.2
	c-0.5-0.5,0-1.6,0-2.3c0-2.1,0-3.9,0-5.9c0-0.5,0-0.7-0.2-1.1C-45.6,820-44.7,819.8-44,819.8z"/>
<g>
	<path fill="#FFFFFF" d="M55.4,827.6c-0.2,0.2-0.7,0.2-0.9,0.2c-3.2-0.2-6.4-0.2-9.6-0.2c-0.7,0-0.9-0.2-0.9-0.9
		c0.2-4.3,0.2-8.5,0.2-12.8c0-0.5,0-0.7,0.7-0.7c3.4,0,7.1,0,10.5,0c0.7,0,0.9,0,0.9-0.7s0-0.9-0.7-0.9c-3.7,0-7.5,0-11.2,0
		l-0.2-0.2c0,0,0-0.2,0-0.5c-0.2-0.2-0.2-0.5-0.2-0.7c0-3.9,0-7.5,0-11.4c0-0.2-0.2-0.5,0.2-0.7c0.5,0,0.7,0,1.1,0
		c2.8,0,5.6,0,8.5,0c0.2,0,0.3,0,0.5,0c0,0,0,0,0,0c0.2-0.2,0.2-0.2,0.5,0c0,0,0.2,0,0.5,0c0.3,0,0.5,0,0.6-0.1
		c-0.1,0.1-0.2,0.3-0.5,0.3c0.3,0.1,0.6,0.4,0.8,0c0-0.4,0.1-0.9,0-1.3c0-0.2,0-0.3,0-0.5c-0.2-0.2-0.5-0.2-0.7-0.2
		c-4.8,0-9.4,0-14.2,0c-0.2,0-0.2,0-0.5,0.2c-0.5,0.2-0.2,0.7-0.2,0.9c0,3.9,0,7.8,0,11.7c0,6.2,0,12.6,0,18.7c0,0.2,0,0.5,0,0.7
		c-0.2,0.5-0.5,0.7,0,1.1h0c0.9,0.2,1.8,0.2,2.7,0h0c0.2,0,0.2,0,0.5,0c3.2,0.2,6.4,0.2,9.8,0h0c0.1,0,0.2,0,0.2,0
		c0.1,0,0.1,0,0.2,0c0.1,0,0.2,0,0.2,0c0-0.1,0-0.2-0.1-0.2c0.1,0,0.2,0,0.3,0.2c0.2,0,0.7,0.2,1.1,0c0.2-0.2,0.2-0.4,0.2-0.5
		c0.1-0.1,0.2-0.2,0.5-0.4c0-0.2,0-0.2,0-0.5C56.3,827.3,56.3,827.3,55.4,827.6z"/>
	<path fill="#FFFFFF" d="M55,798.3c0.1,0,0.3,0,0.4,0C55.2,798.2,55.1,798.2,55,798.3z"/>
</g>
<g>
	<path fill="#E22328" d="M-70.6,815.8c0.2,0,0.8-0.1,0.8-0.1c2.5-1.1,5.5-1.6,8.2-1.4c0.7,0.2,1.2,0,2.3,0.6
		c0.3-0.1,0.7,0.1,0.9,0.1c0.7,0.2,1.1,0.7,1.8,0.7c0.5,0.2,0.5,0.2,1.2,0.8c0.6,0.1,0.9,0.3,1.1,0.6c0.5,0.2,0.9,0.7,1.6,0.9
		c1.8,1.4,4.1,1.8,6.4,2.1c0.7,0,1.6,0,2.3,0c0.5,0,0.9-0.1,1.2,0.1c0.5-0.5,0.9-0.1,1.6-0.3c5.3-0.9,9.8-3.7,13.9-6.9
		c0.7-0.5,1.1-1.1,1.8-1.1c0-0.5,0-0.9,0-1.4c-3.9,2.7-8,5.3-12.6,6.4c-1.1,0.2-2.5,0.5-3.7,0.7L-47,817c-2.3-0.5-4.3-1.6-6.4-2.7
		c-0.9-0.5-1.6-0.5-2.8-1.2c0,0-0.2-0.2-0.4-0.2c-0.5-0.2-1.1-0.2-1.6-0.2h-0.2c-0.5-0.2-1.1-0.5-1.6-0.5l0,0l-0.9-0.2
		c-1.1,0-2.3-0.2-3.2,0.2c-1.6,0.2-3.2,0.5-4.6,1.4c-0.9,0.2-1,0.1-1.3,0.1"/>
	<path fill="#E22328" d="M-73.1,815.9c-1.6,1.1-3.4,2.5-4.8,4.1c-0.9,0.9-1.8,1.8-2.5,3c-0.7,0.7-1.1,1.1-1.4,2.3
		c0.9-0.7,1.6-1.4,2.1-2.1c0.2-0.2,0.5-0.5,0.7-0.7s0.2-0.2,0.5-0.5l0,0c0.2-0.2,0.5-0.5,0.5-0.7l0,0c0.9-0.9,1.8-1.6,2.7-2.5
		c0.7-0.5,1.1-1.4,2.1-1.4"/>
	<path fill="#E22328" d="M-15.9,801.3c-0.7,0.7-1.4,1.4-1.8,2.3c0,0,0,0-0.2,0s-0.2,0.2-0.5,0.5l0,0l-0.2,0.2
		c-0.9,0.9-1.8,1.8-2.5,2.5c-0.2,0.2-0.5,0.7-1.1,0.7c-0.2,0.5,0,0.7,0,1.1c1.8-1.1,3.2-3,4.6-4.6c0.9-0.7,1.4-1.6,2.1-2.5
		c0.2-0.2,0.5-0.5,0.5-1.1C-15.7,800.6-15.9,800.8-15.9,801.3z"/>
</g>
<path fill="#E22328" d="M2.4,761.9c0-2.7,0.2-5.5,0-8.2c0-0.5-0.5-0.2-0.7-0.2c-0.5,0-1.1,0.2-1.6,0c-0.9-0.2-1.1,0.2-1.1,1.1
	c0,9.1,0,18.5,0,27.7c0,1.1,0,2.3,0,3.2c-0.5,1.1-0.2,1.4,0.9,1.4c0.5,0,0.9,0,1.4,0c0.7,0.2,0.9-0.2,0.9-0.9
	C2.2,777.9,2.4,769.9,2.4,761.9z"/>
<path fill="#E32930" d="M41.7,762.4c0-2.7,0-5.5,0-8.2c0-0.2,0.2-0.9-0.5-0.9s-1.6,0-2.3,0c-0.5,0-0.7,0.2-0.7,0.7
	c0,5.3,0,10.5,0,16c0,5.3,0.2,10.7,0,16c0,0.5,0.2,0.7,0.7,0.7s0.9,0,1.6,0c1.4,0.2,1.1,0.2,1.1-1.1
	C41.5,777.9,41.5,770.2,41.7,762.4z"/>
<path fill="#E9292E" d="M15,779.8v-0.2c-0.5-0.7-0.7-1.6-1.1-2.3c-2.1-5.5-1.8-10.7,0.5-16l0,0l0,0c0.2-0.2,0.2-0.2,0.2-0.5
	c0.9-1.6,2.1-3,3.7-4.1c0.3-0.3,0,0,0.5-0.5h0c0.1,0,0.4-0.2,0.5-0.2h0l0,0c1.1-0.5,2.3-0.7,3.7-1.1l0,0l0,0l0,0l0,0
	c0.5,0,0.9,0,1.4,0c1.8,0,3.4,0.2,5,0.9c1.1,0.5,2.1,1.4,3.2,2.1c0.2-0.7,0.2-1.4,0.2-2.1c0-1.6,0-1.6-1.6-1.8
	c-2.7-0.7-5.5-0.9-8.5-0.7c-1.4,0.2-3,0.2-4.3,0.9c-0.5,0-0.7,0.2-1.1,0.5c-0.9,0.5-1.8,0.9-2.5,1.6c-1.8,1.4-3.4,3.2-4.3,5.3
	c-0.2,0.5-0.5,0.9-0.7,1.4c-1.4,4.1-1.4,8.5-0.5,12.6c0.5,2.1,1.1,4.1,2.5,5.9c0.7,1.1,1.6,2.1,2.7,2.7l0,0l0.2,0.2
	c3.2,2.3,7.1,3,11,2.5c1.4,0,2.7-0.5,4.1-0.9c2.3-0.5,3.4-1.1,3.2-3.2c0-0.2,0.2-0.7-0.2-0.9c-0.5-0.2-0.5,0.2-0.7,0.5
	c-0.9,0.9-2.1,1.8-3.4,2.3c-2.1,0.7-4.1,0.7-6.4,0.2c-0.5-0.2-0.9-0.2-1.6-0.5c-1.8-0.7-3.2-1.8-4.6-3.2c0,0,0,0,0-0.2
	c-0.2-0.5-0.7-0.9-0.9-1.4 M21.4,754.9c-0.2,0-0.5,0-0.7,0c0,0,0,0,0,0.2c0,0,0,0,0-0.2C20.9,754.9,21.1,754.9,21.4,754.9
	s0.2,0,0.5,0C21.6,754.9,21.6,754.9,21.4,754.9z M24.3,754.4l-0.2,0.2C24.1,754.6,24.1,754.6,24.3,754.4c0.2,0,0.5,0,0.7,0
	C24.6,754.4,24.3,754.4,24.3,754.4z M21.8,785c-0.2,0-0.5,0-0.7,0c0,0.2,0,0.2,0,0.5l0,0c0-0.2,0-0.2,0-0.5
	C21.4,784.8,21.6,785,21.8,785z M16.1,781.8L16.1,781.8L16.1,781.8L16.1,781.8z M13.6,761.7L13.6,761.7L13.6,761.7 M21.8,786.2
	L21.8,786.2L21.8,786.2z M22.3,785.9c0,0,0.2-0.2,0.2-0.5l0,0C22.3,785.7,22.3,785.9,22.3,785.9z M24.1,785.5c0.5,0,1.1,0,1.6,0
	C25,785.5,24.6,785.5,24.1,785.5z"/>
<path fill="#E22328" d="M-44.2,758.1C-44.2,758.1-44.3,758-44.2,758.1l-3.7-2.8c-1.4-1-3.9-1.6-6.2-1.8c-3.7-0.5-7.1-0.2-10.7-0.2
	c-0.7,0-0.7,0.2-0.7,0.7c0,2.1,0,3.9,0,5.7c0,8.7,0.2,17.6,0,26.3c0,0.7,0.5,0.7,0.9,0.7c1.4,0,3,0,4.3,0c2.7,0,5.5,0.2,8-0.2
	c2.7-0.7,5.3-1.8,7.3-3.9c1.1-1.1,2.3-2.5,3-4.1c0.5-0.9,0.9-2.1,1.1-3c0,0,0,0,0-0.2c0.2-0.5,0.2-0.7,0.2-1.1
	c0.5-0.9,0.5-2.1,0.5-3C-39.9,766.1-41,761.5-44.2,758.1z M-50,783.4c0-0.2,0.2-0.2,0.2-0.2S-49.7,783.2-50,783.4z M-44.3,772.2
	c-0.2,2.3-0.7,4.6-1.8,6.6c-0.7,1.6-1.8,3-3.2,3.9c-0.2,0-0.2,0.2-0.2,0.2c-0.2,0-0.5,0-0.5,0.2c-0.2,0-0.2,0-0.5,0.2
	c0,0.2-0.2,0.2-0.2,0.2c-0.2,0-0.2,0-0.5,0.2c-0.2,0-0.2,0-0.5,0.2h-0.2c-0.2,0-0.5,0-0.5,0.2c-0.2,0-0.7,0-1.1,0.2h-0.2
	c-2.5,0.2-5.3,0.2-7.8,0.2c-0.7,0-0.9-0.2-0.9-0.9c0-8.9,0-17.6,0-26.5c0-1.8,0-1.8,1.8-1.8c3.7-0.2,7.5-0.5,10.8,1.9l3,3
	C-44.3,764-43.8,768.1-44.3,772.2z"/>
<path fill="#E22328" d="M-30.1,770.2c0-5.3,0-10.5,0-16c0-0.7-0.2-0.9-0.9-0.9c-0.7,0-1.4,0-2.1,0c-0.5,0-0.7,0.2-0.7,0.7
	c0,6.9,0.2,13.7,0.2,20.3c0,3.9,0.2,7.8-0.2,11.7c0,0.5,0.2,0.7,0.7,0.7c0.7,0,1.1,0,1.8,0c0.7,0,0.9-0.2,0.9-0.9
	C-30.1,780.7-30.1,775.4-30.1,770.2z"/>
<path fill="#E22328" d="M-7.4,753.5c-4.3,0-8.7,0-13,0c-1.1,0-1.1,0-1.1,1.1c0,5.3,0,10.3,0,15.5l0,0c0,1.1,0,2.5,0,3.9
	c0,3.9,0,7.8,0,11.9c0,1.1,0,1.1,1.1,1.1c0.5,0,0.9,0,1.4,0c0.7,0,0.9-0.2,0.7-0.7c-0.2-4.8,0-9.6-0.2-14.2c0-0.9,0.2-1.1,1.1-1.1
	c3,0,5.9,0,8.7,0c0.7-0.5,0.9-0.7,0.9-1.1c0.2-1.1,0-1.1-0.9-1.1c-3,0-5.7,0-8.7,0c-0.5,0-1.1,0-1.1-0.9c0-4.1,0-8.2,0-12.3
	c0-0.5,0.2-0.7,0.7-0.7c3.4,0,6.9,0,10.3,0c0.5,0,0.9,0.2,1.1-0.7C-6.5,753.5-6.8,753.5-7.4,753.5z M-18.9,762.9L-18.9,762.9
	L-18.9,762.9L-18.9,762.9z M-20.5,758.3L-20.5,758.3L-20.5,758.3L-20.5,758.3z M-13.6,754.9c-0.2,0-0.5,0-0.7,0
	C-14.1,754.9-13.8,754.9-13.6,754.9c0.5,0,0.9,0,1.4,0C-12.7,754.9-13.2,754.9-13.6,754.9z"/>
<path fill="#E9292E" d="M-83.1,770.4c0.5,0,0.9,0,1.1,0c3,0,5.9,0,8.9,0c0.5,0,0.9,0,0.9-0.7c0-1.1,0-1.1-0.9-1.1
	c-3.4,0-6.9,0-10.3,0c-0.7,0-1.1-0.2-1.1-1.1c0-3.9,0-7.8,0.2-11.9c0-0.5,0.2-0.5,0.7-0.5c3.4,0,6.9,0,10.3,0c0.2,0,0.6,0,0.8,0
	l0.1-0.2l0,0l0,0l0,0c0.5-1.6,0.5-1.4-0.9-1.4c-0.2,0-0.5,0-0.7,0c-1.8,0-3.7,0-5.5,0c-2.3,0-4.6,0-6.9,0c-0.9,0-1.1,0.2-1.1,0.9
	c0,5.7,0,11.7,0,17.4c0,4.6,0,9.4,0,13.9c0,1.1,0,1.1,1.1,1.1c4.3,0,8.7,0,13,0c1.1,0,1.1,0,1.4-1.1c0-0.7-0.2-0.9-0.7-0.9
	c-3.2,0-6.4,0-9.8,0c-0.5,0-1.1,0-1.6-0.2c0-0.2,0-0.7,0-0.9c0-4.1,0-8.2,0-12.3C-84.3,770.6-84,770.4-83.1,770.4z M-76.9,754.4
	L-76.9,754.4L-76.9,754.4L-76.9,754.4z M-84.5,758.5L-84.5,758.5L-84.5,758.5L-84.5,758.5z M-75.1,754.9c0.2,0,0.2,0,0.5,0
	c0,0,0,0,0.2,0c0,0,0,0-0.2,0C-74.7,754.9-74.9,754.9-75.1,754.9z M-74,785.9L-74,785.9L-74,785.9z"/>
<path fill="#E22328" d="M78.7,762.9c-0.9-2.7-2.3-5.3-4.8-6.9c-0.5-0.5-1.1-0.7-1.6-1.1c-3.7-1.8-7.5-2.1-11.4-1.6
	c-1.4,0.2-2.7,0.5-4.1,1.1c-1.1,0.5-2.3,0.9-3,1.8c-0.7,0.5-1.4,1.1-1.8,1.8c-0.2,0.2-0.5,0.5-0.5,0.7l-1.4,2.3
	c-0.9,1.1-1.4,2.5-1.6,3.9c-0.7,3.2-0.7,6.4,0,9.8c0.5,2.3,1.1,4.3,2.5,6.2c0.9,1.4,2.1,2.7,3.4,3.7c1.4,1.1,3.2,1.8,5,2.1
	c3.7,0.7,7.5,0.7,11.2-0.7c2.5-0.9,4.6-2.5,6.2-4.8c0.5-0.9,0.9-1.6,1.4-2.5C80.3,773.4,80.6,768.1,78.7,762.9z M66.5,754.5
	C66.5,754.5,66.5,754.5,66.5,754.5C66.5,754.5,66.5,754.5,66.5,754.5z M75.1,777.3c-0.9,3-2.7,5.5-5.5,6.9c-2.7,1.4-5.5,1.4-8.5,1.1
	c-1.1-0.2-2.1-0.9-3-1.1c-0.5-0.5-1.1-0.7-1.6-1.1c-2.7-2.3-3.9-5.7-4.6-9.1c-0.7-3.7-0.5-7.1,0.5-10.7c0.7-1.4,1.1-2.7,2.1-3.9
	c0.7-0.9,1.6-1.6,2.3-2.5l0.2-0.2c0.5,0,0.9-0.5,1.1-0.7c1.6-0.7,3-0.9,4.6-1.1c0.9,0,1.6,0,2.5,0c1.1,0.2,2.3,0.5,3.4,0.7
	c0.2,0.2,0.5,0.2,0.7,0.2c1.1,0.9,2.3,1.6,3.2,2.5c0.2,0.5,0.7,0.7,0.9,1.1c0,0,0,0.2,0.2,0.2c0,0.2,0,0.2,0.2,0.2
	c0,0.2,0,0.5,0.2,0.5c0.7,1.6,1.4,3.2,1.6,5C76.5,769.3,76.5,773.4,75.1,777.3z"/>
</svg>
