<?xml version="1.0" encoding="utf-8"?>
<!-- Generator: Adobe Illustrator 18.1.1, SVG Export Plug-In . SVG Version: 6.00 Build 0)  -->
<svg version="1.1" id="Layer_1" xmlns="http://www.w3.org/2000/svg" xmlns:xlink="http://www.w3.org/1999/xlink" x="0px" y="0px"
	 viewBox="0 0 296.7 132.7" enable-background="new 0 0 296.7 132.7" xml:space="preserve">
<g>
	<path fill="#1A1717" d="M288.6,119.2c0-2.8,0-5.2,0-7.7c0-11.4,0.1-22.9,0.1-34.3c0-0.2,0-0.4,0-0.5c0-0.6-0.4-1.4,0.8-1.2
		c0.8,0.1,1.8-0.3,1.8,1.3c-0.1,15.5-0.1,31.1-0.1,46.6c0,0.1,0,0.2,0,0.3c0,2.8,0,2.8-2.8,2.9c-0.9,0-1.3-0.3-1.8-1
		c-7.8-11.2-15.6-22.3-23.3-33.5c-2.5-3.5-4.9-7.1-7.4-10.6c-0.1-0.1-0.2-0.3-0.3-0.6c-0.4,0.7-0.3,1.1-0.3,1.6
		c0,11.5,0,23-0.1,34.5c0,2.9-0.3,5.7-0.1,8.6c0.1,1.5-1.2,0.7-1.8,0.9c-0.7,0.2-0.9-0.1-0.9-0.9c0-15.7,0.5-31.4,0.3-47
		c0-0.5,0.1-0.9,0-1.4c-0.4-1.4,0.1-1.6,1.5-1.8c2.7-0.4,4.1,0.7,5.6,2.9c7.7,11.4,15.6,22.6,23.4,33.8c1.3,1.9,2.6,3.9,3.9,5.8
		C287.4,118.2,287.7,118.7,288.6,119.2z"/>
	<path fill="#1A1717" d="M173.7,93c-0.5,6.8-0.4,12.6-0.5,18.4c-0.2,6.9-4.2,12-10.8,13.9c-5.3,1.5-10.6,1.6-16,0.4
		c-6.7-1.5-11.2-7.4-11.3-14.6c-0.1-8.2,0-16.3,0-24.5c0-3.7,0-7.4-0.1-11.1c0-0.6,0.2-0.7,0.7-0.7c1.3,0,2.6-0.1,4-0.1
		c0.6,0,0.8,0.2,0.8,0.8c-0.4,10.1-0.1,20.1-0.2,30.2c0,2.1-0.1,4.1,0,6.2c0.5,5.4,4.1,10.2,10.3,11.4c4.2,0.8,8.3,0.8,12.2-0.8
		c5.7-2.3,8-6.9,8.2-12.7c0.4-10.2,0.1-20.4,0.2-30.6c0-1.2,0-2.4-0.1-3.6c-0.1-0.9,0.4-1,1-0.8c0.6,0.2,1.7-0.6,1.7,0.9
		C173.7,81.8,173.7,87.9,173.7,93z"/>
	<path fill="#131313" d="M194.8,126.6c-4.5,0.1-8.3-1.2-12-3c-1.1-0.6-1.6-1.3-0.9-2.5c0.2-0.3,0.3-0.7,0.4-1
		c0.7-1.8,0.7-1.8,2.2-0.5c4,3.5,8.6,4.8,13.8,3.4c3.9-1.1,6.3-3.7,7.1-7.7c0.8-4.2-0.7-7.6-4.2-10.1c-2.5-1.8-5.2-3.1-7.9-4.5
		c-2.7-1.4-5.2-2.9-7.5-4.9c-6.7-6-4.3-16.2,3.3-19.7c6.1-2.8,12.2-2,18.1,0.6c0.7,0.3,1.1,0.7,0.5,1.6c-0.5,0.7-0.4,2.1-1.1,2.4
		c-0.8,0.3-1.6-0.7-2.4-1.1c-3.3-1.7-6.7-2.6-10.4-1.8c-3.7,0.8-6.1,3-7,6.7c-0.8,3.4,0.6,6.2,3.2,8.4c2.8,2.3,6.1,3.8,9.2,5.5
		c2,1,4,2,5.7,3.4c4.1,3.3,6.1,7.6,5.2,12.9c-0.9,5.8-4.4,9.6-9.9,11.4C198.4,126.4,196.5,126.7,194.8,126.6z"/>
	<path fill="#131313" d="M242.4,125.9c-0.6,0.3-1.3,0.2-1.9,0.1c-0.3-0.3-0.5-0.3-0.8,0c-0.2,0-0.4,0-0.6,0c-5,0-9.9,0-14.9,0
		c-0.3,0.2-0.5,0.2-0.8,0c-1.4,0-2.8,0-4.2,0c-0.5-0.5-0.2-1.1-0.1-1.7c0-0.3,0.1-0.7,0.1-1c0-9.6,0-19.1,0-28.7c0-6,0-12,0-18
		c0-0.4-0.2-0.9,0.2-1.3c0,0,0,0,0,0c0.2-0.3,0.5-0.2,0.8-0.2c7.2,0,14.5,0,21.7,0c0.3,0,0.6-0.1,0.9,0.2c-0.3,0.9,0.8,2.6-1.4,2.4
		c-0.3,0-0.6,0-0.9-0.1c-0.2-0.2-0.5-0.2-0.8,0c-4.6,0-9.1,0-13.7,0.1c-0.6,0-1.2,0-1.8,0c-0.6,0.2-0.5,0.7-0.5,1.1
		c0,5.9,0,11.7,0,17.6c0,0.4-0.1,0.7,0.2,1c0,0.3,0,0.5,0,0.8c0.1,0.1,0.2,0.2,0.3,0.3c5.7,0,11.5,0.1,17.2,0c1.1,0,1.2,0.4,1.2,1.4
		c0,1-0.3,1.2-1.3,1.2c-5.4,0-10.8,0-16.3,0c-0.9,0-1.2,0.3-1.2,1.2c0,6.5-0.1,13-0.2,19.5c0,1,0.3,1.4,1.3,1.4
		c4.9-0.1,9.7,0.1,14.6,0.3c0.5,0,1,0,1.5-0.2c1.4-0.5,1.5-0.4,1.4,1c0,0.2,0,0.5-0.1,0.7C242.3,125.2,242.4,125.6,242.4,125.9z"/>
	<path fill="#131313" d="M11.5,99.6c0-7.7,0-15.3,0-23c0-2.2,0-2.2,2.2-2.4c2.7-0.2,2.7-0.2,2.7,2.5c0,14.8,0,29.6-0.1,44.4
		c0,1.1,0.3,1.5,1.4,1.4c5.3-0.1,10.6,0,15.9-0.1c0.7,0,0.9,0.1,0.8,0.8c-0.1,2.1-0.1,2.1-2.1,2.1c-6.7,0-13.3-0.1-20-0.1
		c-0.8,0-1.1-0.2-1.1-1.1C11.6,116,11.4,107.8,11.5,99.6z"/>
	<path fill="#1A1717" d="M49.2,104.5c-1.4,1.6-1.7,3.7-2.4,5.5c-1.8,4.8-3.5,9.7-5.2,14.6c-0.3,0.8-2.6,1.3-3.2,0.7
		c-0.3-0.3,0-0.6,0.1-0.9c1.7-4.8,3.5-9.6,5.3-14.4c0.4-1,0.7-2,1.1-2.9c0.1-0.2,0.2-0.3,0.3-0.5c0.5-0.7,1.1-1.4,0.5-2.3
		c1.5-2.5,2.3-5.4,3.3-8.2c2.3-6.2,4.5-12.5,6.8-18.7c0.1-0.3,0.2-0.6,0.3-0.9c0.3-0.7,0-2,0.8-2.1c1.3-0.3,2.7-0.1,4.1-0.1
		c0.4,0,0.5,0.6,0.7,1c2.9,8.3,5.9,16.5,8.8,24.8c-0.1,0.1-0.1,0.4-0.3,0.3c-0.8-0.5-1.7-0.3-2.5-0.4c-0.2,0-0.3,0-0.5,0
		c-0.8-0.4-1.7-0.6-2.6-0.5c0,0,0,0,0,0c0-0.2,0.1-0.4-0.2-0.5c-2.2-6.1-4.4-12.2-6.7-18.2c-0.1,0-0.3,0-0.4,0
		c-2.3,7.1-5.1,14-7.6,21c-0.3,0.6-0.6,1.1-0.9,1.7C48.6,103.9,48.7,104.3,49.2,104.5z"/>
	<path fill="#131313" d="M118,96.8c0.4-0.5,0.4-1.2,0.4-1.8c0-6,0-12.1,0-18.1c0-0.6-0.4-1.5-0.1-1.8c0.5-0.6,1.4-0.2,2.2-0.2
		c0.5,0,0.9,0,1.4,0c1.7,0,1.7,0,1.4,1.6c-0.1,0.4-0.1,0.9,0,1.4c0,3.2,0,6.4-0.1,9.7c0,0.4,0,0.9,0,1.3c0,1.1,0,2.1,0,3.2
		c-0.2,0.6,0.2,1.1,0.1,1.6c-0.1,0.5-0.1,1-0.1,1.5c0,9.5,0,19,0.1,28.5c0,2.2,0,2.2-2.2,2.1c-0.6,0-1.3-0.1-1.9,0.1
		c-1.1,0.2-1.2-0.2-1.1-1.1c0.4-8.6,0.2-17.2,0.2-25.8C118.1,98.1,118,97.4,118,96.8z"/>
	<path fill="#E32930" d="M118,96.8c0,0.7,0.1,1.3,0.1,2c-1.2,0.1-1.9,1.1-2.8,1.7c-6.5,4.9-13.4,8.8-21.5,10.3
		c-0.8,0.1-1.7,0-2.3,0.6c-0.5-0.5-1.2-0.3-1.8-0.4c-0.1-0.9-0.8-0.5-1.3-0.6c-0.9-0.1-1.7,0.1-2.6-0.5c-1.3-1-2.9-1.6-4.2-2.5
		c-0.7-0.4-1.4,0.2-2.1-0.1c-0.7-0.3-1.6-1.1-2.1,0.4c-0.1,0.4-0.7,0-1,0.2c-1-0.2-1.7-0.9-2.6-1.4c-0.4-0.2-0.8-0.6-1.3-0.3
		c-0.4-0.8-1.3-1.2-2-1.7c-2.4-1.6-5-2.3-7.9-2.2c-4.4-0.2-8.6,0.3-12.6,2.2c-0.2,0.1-0.5,0.1-0.8,0.2c-0.6-0.2-0.6-0.6-0.3-1.1
		c0.3-0.6,0.6-1.1,0.9-1.7c0.3-0.1,0.7-0.2,1-0.4c2.2-1.2,4.7-1.7,7.2-1.9c2.2,0,4.4,0,6.6,0c0,0,0,0,0,0c0.6,1.2,1.7,0.3,2.6,0.5
		c0.2,0,0.3,0,0.5,0c1.1,0.8,2.4,0.8,3.6,1.4c1.8,0.9,3.5,2,5.3,2.7c1.5,0.6,3,1.3,4.6,1.8c2.4,0.9,4.8,1.5,7.3,1.7
		c3.7,0.3,7.2-0.3,10.7-1.2c0.4-0.1-0.1-0.2-0.2-0.4C106,104.5,112.1,100.8,118,96.8z"/>
	<path fill="#E7363A" d="M88.4,53.6c-3.1,3.2-6.9,5-11.1,5.9c-4.1,0.9-8.3,0.6-12.4,0.7c-2.2,0-4.5,0-6.7,0c-0.7,0-1.3,0-1.3-1.1
		c0.5-13.4,0-26.8,0.1-40.2c0-2.9,0-5.7-0.1-8.6c0-0.8,0.2-1.2,1-1.1C63.5,9.4,68.9,9,74.4,9.5c3.4,0.3,6.6,1.1,9.6,2.9
		c-0.4,0-0.9,0-1.3,0c-1.3-1.3-3.1-1.3-4.7-2c-0.1,0-0.3,0.2-0.5,0.2c-1,0.2-2,0.3-2.8-0.4c-0.2-0.9-0.9-0.4-1.4-0.5
		c-2.6,0-5.1,0-7.7,0c-0.4,0-0.9-0.1-1.1,0.5c-2,0.2-3.9-0.8-5.9-0.6c-0.9,0.1-1.2,0.3-1.3,1.3c-0.1,2.9,0.1,5.8,0.1,8.7
		c-0.1,11.1,0,22.2-0.1,33.2c0,0.9,0.6,1.5,0.7,2.3c0,0.4,0.5,0.3,0.7-0.1c0.6-1.2,1-0.7,1.4,0.2c0.1,0.3,0.3,0.5,0.6,0.5
		c-0.5,0.7-0.5,1.1,0.6,1.2c0.5,0,1,0.2,1.5,0.2c3.5,0,7,0.1,10.4,0.1c0.6,0,1.5,0.2,2-0.5c0.2,0,0.3-0.1,0.5-0.1
		c0.7,0,1.5,0.8,1.9-0.4c0.1-0.2,0.3-0.3,0.6-0.3c0.1,0,0.3-0.1,0.4-0.1c0.2-0.2,0.5-0.3,0.8-0.3c0.3,0.8,0.9,1.2,1.8,1.3
		c0.7,0.1,1.2-0.2,1.4-1c-1,0.4-1.9,0.4-2.3-0.6c0.1-0.1,0.3-0.1,0.4-0.2c0.3,0,0.7,0.1,0.8-0.4l0-0.1l0.1,0
		c0.6,0.4,0.7,0.1,0.7-0.5c0.1-0.1,0.2-0.2,0.3-0.3c0.7,1.1,1.1-0.2,1.4-0.3c1.5-0.8,3-1.7,3.3-3.7c0.1-0.7,0.6-1.3,1.5-1.4
		c0,0.2,0,0.3,0,0.4c0,0.2-0.2,0.3-0.2,0.5c-0.1,0.3-0.6,1,0.2,0.8c0.5-0.1,1.2-0.9,1-1.3c-0.3-0.9,0.2-1.2,0.6-1.7
		c0.2-0.3,0.3-0.7,0.8-0.5c0.5,0.2,0.5,0.7,0.3,1c-0.4,0.7-0.7,1.4-0.4,2.2c0.1,0.2-0.2,0.4-0.3,0.5c-0.9,0.8-1.2,2.1-2.3,2.8
		C88,53.2,88.2,53.4,88.4,53.6z"/>
	<path fill="#131313" d="M86.7,106.6c0-9.9,0-19.8,0-29.7c0-0.8-0.6-1.8,0.1-2.3c0.6-0.4,1.6-0.1,2.4-0.1c0.9,0,1.9-0.3,2.6,0.1
		c0.9,0.5-0.1,1.5-0.1,2.3c0,6.3-0.1,12.7-0.2,19c0,3.5,0,7-0.1,10.5c0,0.3,0.3,0.9-0.3,0.8C89.6,107,88,107.6,86.7,106.6z"/>
	<path fill="#E7363A" d="M160.7,9.7c0.2,4.2,0,8.5,0,12.7c-0.1,12.2-0.2,24.3,0,36.5c0,1.1-0.3,1.6-1.4,1.4
		c-0.7-0.1-1.4-0.1-2.2-0.1c-1.6,0-1.9-0.2-1.3-2c0-2,0-4.1,0-6.1c0,0,0.2,0,0.4,0c-0.1,1.1,0.1,2.1,0.6,3.5
		c0.3-1.3,0.8-2.1,0.8-3.1c0-11.4,0-22.9,0-34.3c0-0.5,0-1-0.3-1.6c-0.5-0.8-0.1-1.8-0.2-2.7c-0.2-1,0.2-1.7,1.3-1.8
		c-0.4-0.5-0.9-0.3-1.3-0.3c-0.4,0-0.6-0.2-0.6-0.6c0-0.3,0.3-0.5,0.6-0.5c0.4,0,0.8,0,1.2,0C159.3,10.9,160.3,10.9,160.7,9.7z
		 M158.9,56.1c0.5-0.3,0.3-0.7,0.3-1c0-12.6,0-25.2,0-37.7c0-0.4,0-0.8-0.3-1.2c-0.2-0.2-0.4-0.5-0.7-0.2c-0.2,0.2-0.2,0.5-0.1,0.6
		c0.7,0.7,0.4,1.6,0.4,2.5c0,11.9,0,23.7,0,35.6C158.7,55.1,158.5,55.6,158.9,56.1z M159.1,57.1c0-0.1,0-0.2-0.1-0.2
		c0,0-0.1,0-0.2,0c0,0.1,0.1,0.2,0.1,0.3C159,57.2,159.1,57.2,159.1,57.1z"/>
	<path fill="#DD4145" d="M215.6,34.8c0-8.1,0-16.2,0-24.3c0-0.8,0.2-1.1,1-1.1c1.2,0,2.4,0,3.6-0.1c1,0,0.8,0.7,0.8,1.3
		c0,4.2,0,8.4,0,12.6c-0.1,11.8-0.3,23.6,0,35.4c0,2,0.3,1.9-1.9,1.8c-0.8-0.1-1.5,0-2.3,0c-0.8,0.1-1.1-0.2-1.1-1.1
		C215.9,51.1,215.7,43,215.6,34.8z M219.4,12.5c-1,0.4-0.4,1.2-0.5,1.9c-0.1,0.5,0.2,1.1-0.4,1.5c-0.7,0.3-0.5-0.8-1.1-0.7
		c-0.2,0.6-0.3,1,0.5,1.3c0.8,0.2,1.1,0.9,1,1.7c0,0.4-0.1,0.7-0.6,0.7c-0.5-0.1-0.5-0.4-0.3-0.7c0.1-0.4,0.1-0.7-0.3-0.9
		c-0.3,0.3,0.1,1.1-0.6,1c-0.6-0.1-0.3-0.7-0.4-1c0-0.2,0.1-0.6-0.3-0.6c-0.3,0.3-0.2,0.6-0.2,0.9c0.4,12-0.9,24.1,1.1,36
		c0.1,0.4,0.2,0.7,0.7,0.7c0.4-0.1,0.6-0.4,0.4-0.7c-0.6-1.2,0.4-2.1,0.3-3.2c0.2,1.8,0.2,3.7,0.2,5.5c0,0.3-0.2,0.5-0.5,0.6
		c-0.4,0.1-0.7,0.3-0.5,0.8c0.2,0.5,0.7,0.4,1.1,0.3c0.5-0.1,1-0.4,0.9-0.9c-0.6-2,0-4.1-0.3-6.1c-0.3-2,0.5-4.1,0.4-6.1
		c-0.2-8.1,0.7-16.2-0.5-24.2c-0.2-1.2,0.3-2.5,0.2-3.5C219.6,15.2,219.6,13.8,219.4,12.5c1-0.4,0.5-1.4,0.7-2.1
		c0.1-0.2-0.2-0.6-0.6-0.6c-1.1,0-2.1,0-3.2,0c0.3,1,1,1.6,1.1,2.5c0.1-0.2,0.1-0.2,0.2-0.3c0.6-0.5,0.6-1.8,1.5-1.6
		C219.9,10.6,219.2,11.8,219.4,12.5z M216.5,12.6c-0.4,0.2-0.3,0.4-0.3,0.6c0.1,0.6-0.2,1.3,0.2,1.8c0,0,0.3,0,0.3-0.1
		c0.4-0.7,0.3-1.4,0-2.1C216.7,12.8,216.6,12.7,216.5,12.6z"/>
	<path fill="#DB343B" d="M270.3,13c3.8,2.6,6.1,6.3,7.5,10.6c2.7,8.2,2.4,16.3-0.8,24.3c-0.5,1.3-1.4,2.5-2.1,3.7
		c-0.4-0.5-0.2-1.1-0.2-1.6c0-0.9,0.2-1.8,0.5-2.7c0.1-0.3,0.3-0.9-0.3-1c-0.5-0.1-0.8,0.3-0.8,0.9c0,0.4,0,0.7-0.3,1
		c-0.2,0.2-0.4,0.4-0.7,0.2c-1-0.6-1-0.6-1.2,0.6c-0.1,0.5-0.3,0.7-0.6,1c-1.1,1.3-1.8,2.9-3.3,3.9c-1.3,1-2.4,2.5-4.3,2.3
		c4.4-2.3,7-6,8.5-10.5c2-6,1.9-12.2,1-18.5c-0.4-2.7-1.4-5.1-2.5-7.6c0.1,0,0.3-0.1,0.4-0.1c0.3,0.3,0.5,0.6,0.8,0.8
		c0.4,2.2,1.8,4,1.8,6.5c0,2,1,4,0.9,6.1c0,1.5,0.1,2.9,0,4.4c-0.1,1,0.2,1.4,1.4,1.2c-0.5-0.7,0.3-1.3,0.1-1.8
		c-0.4-1.1-0.9-2,0.7-2.5c0.1,0,0.2-0.2,0.2-0.3c0.1-1.5,0.9-3-0.2-4.4c0-1-0.1-2,0-3c0.1-0.6-0.9-1.1-0.5-1.6
		c1-1.4-0.1-2.4-0.4-3.6c-0.3-1-1.5-1.7-1.8-2.5c-0.9-2-2-3.7-3.7-5C270.3,13.6,270.3,13.3,270.3,13L270.3,13z"/>
	<path fill="#1A1717" d="M70.5,104.4c0.7,0.5,1.6,0.8,2,1.7c2.7,6.3,4.4,13,7.4,19.4c-1.9,0-3.6,0-5.3,0c-0.8,0-0.8-0.7-0.9-1.2
		c-1.9-5.2-3.7-10.5-5.6-15.7c-0.6-1.7-1.6-3.4-1.9-5.2c0.5-0.2,0.9,0,1.4,0.1C68.6,103.8,69.5,104.5,70.5,104.4z"/>
	<path fill="#DD292D" d="M88.4,53.6c-0.2-0.2-0.4-0.4-0.1-0.5c1.1-0.7,1.3-2,2.3-2.8c0.2-0.1,0.4-0.3,0.3-0.5
		c-0.3-0.8,0-1.5,0.4-2.2c0.1-0.3,0.2-0.9-0.3-1c-0.5-0.2-0.5,0.2-0.8,0.5c-0.4,0.5-0.9,0.9-0.6,1.7c0.1,0.4-0.5,1.2-1,1.3
		c-0.9,0.1-0.3-0.5-0.2-0.8c0-0.2,0.2-0.3,0.2-0.5c0-0.1,0-0.3,0-0.4c-0.9,0.1-1.4,0.7-1.5,1.4c-0.3,2-1.8,2.9-3.3,3.7
		c-0.3,0.2-0.7,1.4-1.4,0.3c2.2-1.5,3.8-3.5,5-5.8c1.7-3.2,2.6-6.7,2.9-10.3c0.6-6.5,0-12.7-4.1-18.1c-0.1-0.1-0.3-0.1-0.4-0.2
		c0-0.1-0.1-0.2-0.1-0.3c0.8-0.4,1,0.3,1.4,0.7c0.3,0.3,0.6,0.9,1.1,0.8c0.3,0,0.3-0.8,0.8-0.3c0.4,0.4-0.4,0.6-0.3,1
		c0,0.8,0,1.5,1,2.1c0.7,0.4,0.8,1.9,0.8,3.2c-0.1,2.6,0.6,5.2,0.6,7.9c0,0,0.1,0,0.3,0.1c0-0.7,0.6-1.1,0.7-1.6
		c0.3-1.4,1.5-2.8-0.1-4.2c-0.6-0.5-0.3-1.2,0-1.9c0.3,0.6,0,1.3,0.9,1.5c0.3,0,0.7-0.1,0.5-0.3c-0.8-0.9,0.4-1.6,0.2-2.4
		c0.2,0,0.3,0,0.5,0c-0.1,1.2,0.4,2.5,0.1,3.7c-0.2,0.8-1.1,1.8,0.7,1.6c0.4,0,0.3,0.6,0.3,0.9c0.2,3-0.1,6,0,9c0,0,0,0,0,0
		c-0.4,0.5-0.8,1-0.3,1.6c0,0.2,0,0.4-0.2,0.5c-1,1.3-1.8,2.6-1.7,4.4C91.9,49.8,90.4,51.9,88.4,53.6z"/>
	<path fill="#D54653" d="M111,34.9c0,8.1,0,16.1,0,24.2c0,1.1-0.2,1.5-1.4,1.3c-0.9-0.1-1.9-0.1-2.9,0c-0.8,0-1-0.3-1-1
		c0.4-5.9,0.3-11.8,0.2-17.8c0-10.4-0.1-20.9-0.2-31.3c0-0.7,0.2-1,0.9-1c1,0,2,0,3,0c1-0.1,1.3,0.2,1.3,1.3
		C111,18.7,111,26.8,111,34.9z M106.7,59.5c-0.1,0.1-0.3,0.4-0.3,0.4c0.5,0.4,3.1,0,3.5-0.4c0-0.2,0-0.4,0-0.5c0-0.6,0-1.3,0-1.9
		c0-2.5,0-4.9,0-7.4c0-8.8,0-17.5,0-26.3c0-0.7,0-1.5,0-2.2c0-1.5,0-2.9,0-4.4c-0.2-1.6,0.5-3.2-0.5-4.7c-0.1-0.1,0-0.5,0.1-0.6
		c0.7-1,0.2-1.2-0.8-1.3c-0.3,0-0.7,0-0.9-0.1c-0.9-0.5-1.1,0.2-1.3,0.7c-0.1,0.5,0,1.1,0,1.6c-0.6,0.6,0.2,1.1,0,1.7
		c0,0.1,0,0.2,0,0.2c-0.6,1.2,0,2.4,0,3.6c0,12.8,0,25.5,0,38.3c0,0.7-0.7,1.5,0,2.2C106.6,58.8,106.7,59.2,106.7,59.5z"/>
	<path fill="#D54653" d="M123.8,34.7c0-7.9,0-15.8,0-23.7c0-1.8,0-1.8,1.8-1.8c6.7,0,13.4,0,20.1,0c1.2,0,1.6,0.3,1.6,1.6
		c0,1.4-0.7,1.1-1.6,1.1c-5.2,0-10.5,0-15.7,0c-0.7,0-1,0.2-1,1c0,6.2,0,12.5-0.1,18.7c0,1.2,0.8,1.3,1.6,1.3c4.4,0,8.8,0,13.1-0.1
		c1.7,0,1.8,0.2,1.6,1.8c-0.1,0.7-0.4,1-1.2,1c-4.5,0-8.9,0.1-13.4,0c-1.4,0-1.8,0.4-1.8,1.8c0.1,7.3-0.2,14.6,0.2,21.9
		c0.1,1-0.2,1.3-1.2,1.2c-0.7-0.1-1.5-0.1-2.2-0.1c-1.8,0-1.8,0-1.8-1.8c0-6,0-12,0.1-18C123.9,38.6,123.8,36.6,123.8,34.7
		C123.8,34.7,123.8,34.7,123.8,34.7z M134.6,9.7c-1.5,0-2.9,0-4.4,0c-1.4,0-2.8,0-4.2,0c-1.7,0-1.8,0.1-1.8,1.8
		c0,13.7,0,27.5,0,41.2c0,1.9,0.8,3.8,0.5,5.7c0,0.3,0.2,0.5,0.5,0.5c0,0.2,0,0.3,0,0.5c-0.1,0.1-0.3,0.4-0.3,0.4
		c0.4,0.4,2.6,0.1,3-0.4c0.7-0.1,0.3-0.7,0.5-1.1c0-5.8,0-11.7,0-17.5c0-0.8-0.1-1.5-0.5-2.2c0.1-0.1,0.1-0.2,0.2-0.3
		c-0.4-1.3-0.6-2.7,0.7-3.4c1.1-0.6,0.6-1,0.2-1.5c-0.8-0.9-1.3-1.8-1.1-3c0-0.2,0-0.4,0-0.6c0-2.1,0-4.2,0-6.2c0.3,0,0.2,0,0.2,0
		c0,0.5,0.1,1.1,0.1,1.6c0.2-0.5,0.2-1,0.2-1.5c0.3-3.3-0.4-6.6-0.5-10c0-1,0-1.9,1.1-2.4c2.4,0.5,4.8,0.1,7.2,0.2
		c2.9,0.1,5.8-0.2,8.7-0.1c0.5,0.4,0.9,0.3,1.3-0.1c0.4-0.4,0.3-1,0.2-1.4c-0.1-0.4-0.7-0.2-1.1-0.2c-1.4,0-2.8,0-4.2,0
		C139,9.3,136.8,9.3,134.6,9.7z M136.7,33.8c-2,0-3.7,0-5.4,0c-0.4,0-1-0.1-1,0.6c0,0.7,0.6,0.6,1,0.5c1.7-0.2,3.3,0.1,5,0.1
		c2.4,0,4.9-0.4,7.3,0.1c0.5,0.1,1-0.3,0.8-0.8c-0.1-0.3,0.1-1.2-0.6-1C141.3,34.1,138.8,33.6,136.7,33.8z"/>
	<path fill="#E7363A" d="M263.8,56.3c1.9,0.1,3-1.3,4.3-2.3c1.4-1,2.1-2.7,3.3-3.9c0.3-0.3,0.5-0.6,0.6-1c0.2-1.2,0.2-1.2,1.2-0.6
		c0.3,0.2,0.5,0,0.7-0.2c0.3-0.3,0.3-0.7,0.3-1c0-0.5,0.3-1,0.8-0.9c0.5,0.1,0.4,0.7,0.3,1c-0.3,0.9-0.5,1.8-0.5,2.7
		c0,0.5-0.2,1.1,0.2,1.6c-2.3,3.6-5.5,6-9.4,7.4c-5.6,2.1-11.3,2.2-17.1,1c-2.7-0.6-5.5-1.3-7.7-3.2c0.6,0.4,1.5-0.3,2.1,0.3
		c0.7,0.7,1.6,0.9,2.6,0.8c0.3,0,0.6,0.1,0.9,0.3c1.1,1.1,2.5,1.3,4,1.3c1,0,1.9,0.1,2.9,0.4c1.4,0.4,3,0.1,4.4,0.1
		c0-0.1,0-0.3,0.1-0.4c-0.7,0.1-1.1-0.8-1.8-0.6c-1.8,0.3-3.3-0.4-4.9-1.1C255.3,58.3,259.7,58.2,263.8,56.3z"/>
	<path fill="#DB343B" d="M179,21.2c-3.4,8.1-3.8,16.3-0.6,24.5c0.5,1.2,1.1,2.4,1.7,3.5c0,0.1-0.1,0.3-0.1,0.4
		c-1.1,0.2-1.1-0.9-1.5-1.4c-0.7-1-1-1.1-1.7-0.1c-0.3,0.4-0.6,0.5-0.9,0.3c-0.4-0.2-1.1-0.5-1-0.9c0.4-1.6-1.2-2.7-0.9-4.2
		c0-0.2-0.3-0.3-0.6-0.2c-0.3,0-0.4,0.2-0.3,0.5c1.2,1.8,0.3,4.3,2,6c0.6,0.6,0.7,1.5,0.6,2.3c-2.2-2.6-3.2-5.7-4-9
		c-1.5-6.5-1.5-13,0.7-19.3c0.3-0.8,0.5-1.6,1-2.2c0,0.4,0.2,0.9,0,1.2c-0.7,1.1-0.4,2.5-0.9,3.6c-0.4,1-0.5,2.4-0.1,3.3
		c0.8,1.9,0.3,3.9,1,5.7c0.4,1.2-1.1,2.7,0.4,3.8c0,0-0.1,0.3-0.2,0.5c-0.2,0.3-0.1,0.5,0.1,0.7c1.3,1.9,1.3,4.3,1.9,6.4
		c0.1,0.3,0,0.8,0.5,0.8c0.4,0,0.7-0.4,0.6-0.8c-0.6-1.4,0.2-3-0.6-4.3c-0.4-0.7-0.3-1.4-0.5-2.1c-0.3-1.5-0.2-2.9,0-4.4
		c0.2-1.4,0-2.9,0-4.4c0-1-0.2-2,0.1-2.8c0.7-1.7,0.9-3.5,1-5.3c0.8-0.3,1.1-0.8,1.1-1.6c0,0,0,0,0,0
		C178.3,21.8,178.5,21.1,179,21.2z M177.8,46.9c-0.2-0.2-0.2-0.3-0.4-0.4c-0.2-0.1-0.4,0-0.3,0.2c0,0.1,0.2,0.3,0.3,0.4
		C177.5,47.1,177.7,47,177.8,46.9z"/>
	<path fill="#DD292D" d="M160.7,9.7c-0.4,1.2-1.4,1.1-2.4,1.1c-0.4,0-0.8,0-1.2,0c-0.3,0-0.5,0.1-0.6,0.5c0,0.4,0.2,0.6,0.6,0.6
		c0.4,0,0.8-0.2,1.3,0.3c-1.1,0.1-1.5,0.8-1.3,1.8c0.2,0.9-0.3,1.9,0.2,2.7c0.3,0.5,0.3,1,0.3,1.6c0,11.4,0,22.9,0,34.3
		c0,1-0.6,1.8-0.8,3.1c-0.5-1.4-0.6-2.4-0.6-3.5c-0.1,0-0.4,0-0.4,0c0,2,0,4.1,0,6.1c0-1.7,0-3.4,0-5c0-14.1-0.1-28.2-0.1-42.3
		c0-1.2,0.1-1.9,1.6-1.5c0.8,0.2,1.6-0.1,2.4-0.1C160.1,9.3,160.6,9.1,160.7,9.7z"/>
	<path fill="#DD292D" d="M176.8,23.4c-0.1,1.8-0.3,3.6-1,5.3c-0.3,0.8-0.1,1.9-0.1,2.8c0,1.5,0.1,2.9,0,4.4c-0.2,1.5-0.3,2.9,0,4.4
		c0.1,0.7,0,1.4,0.5,2.1c0.8,1.3,0.1,2.9,0.6,4.3c0.1,0.3-0.1,0.7-0.6,0.8c-0.6,0-0.4-0.4-0.5-0.8c-0.6-2.1-0.6-4.5-1.9-6.4
		c-0.2-0.2-0.3-0.5-0.1-0.7c0.1-0.1,0.3-0.4,0.2-0.5c-1.5-1.1,0-2.5-0.4-3.8c-0.7-1.8-0.2-3.9-1-5.7c-0.4-1-0.4-2.3,0.1-3.3
		c0.5-1.2,0.2-2.5,0.9-3.6c0.2-0.3,0-0.8,0-1.2c1.4-3.3,3.6-6,6.5-8.1c0.3-0.1,0.6-0.2,0.9-0.3l0,0c-0.1,0.7-1,0.6-1.2,1.2
		c-0.5,1.3-1.4,2.4-2.3,3.4c-0.3,0.3-0.3,0.8-0.2,1.3c0.1,1,0.9,1.9,0.7,2.9c0,0,0,0,0,0c-0.3-0.2-0.5-0.8-1-0.4
		c-0.5,0.3-0.4,0.7-0.3,1.2C176.6,22.8,176.7,23.1,176.8,23.4z"/>
	<path fill="#DC454A" d="M46.7,11.8c-0.5,0.2-1,0.1-1.5,0.1c-5.3,0-10.6,0-15.9-0.1c-0.8,0-1.1,0.3-1.1,1.1c0,6-0.1,12-0.2,18
		c0,1.2,0.4,1.6,1.6,1.6c5.2,0,10.5,0,15.7,0.1c1.6,0,1.7,0.1,1.5,1.7c-0.1,1-0.7,0.9-1.4,0.9c-4.6,0-9.2,0.1-13.8,0.1
		c-0.6,0-1.3,0.1-1.9,0c-1.2-0.2-1.7,0.2-1.7,1.5c0.1,6.3,0.1,12.6,0.1,18.9c0,0.5,0.1,0.9,0.1,1.4c0.3,0.4,0.8,0.2,1.2,0.4
		c0,0.2-0.1,0.5-0.1,0.7c-2.3-0.7-2.3-0.7-2.2-3.2c0-0.3,0-0.5,0-0.8c0.6-0.1,0.5-0.5,0.5-0.9c0-3,0-6.1,0-9.1
		c0-0.4,0.1-0.8-0.5-0.9c0-0.3,0-0.7,0-1c0.8-0.5,0.8-0.9,0-1.4c0.3-1.5,0-3,0-4.5c0-0.3,0-0.9,0.2-1c1.2-0.7,2-1.4,0-2.1
		c-0.1,0-0.1-0.4-0.1-0.6c0-0.5-0.1-1-0.5-1.3c0.6-1.8,0.6-3.6,0.5-5.4c0.6,0.7-0.1,1.7,0.4,2.5c0-3.7,0-7.3,0-10.9c0,0-0.1,0-0.2,0
		c0,0.6-0.1,1.2-0.1,1.8c-0.1,0,0,0-0.2,0c0-0.7,0-1.4,0-2.2c0-0.2,0-0.4,0-0.5c0-1,0-2.1,0-3.1c0-1.4,0.4-1.8,1.8-1.8
		c3,0,6.1,0,9.2,0c1.5,0.5,3.1,0.1,4.7,0.2c0.7,0,1.5,0,2.2,0c0.4,0.1,0.7-0.1,1.1-0.3C46.5,11.4,46.7,11.5,46.7,11.8z M30.1,33.6
		c0.3,1.1,0.9,1.3,1.9,1.4c4,0.1,7.9-0.6,11.9,0c0.6,0.1,1.2,0,1.8,0c0.3,0,0.7,0,0.8-0.4c0.1-0.4-0.1-0.6-0.3-0.8
		c-0.3-0.4-0.8-0.4-1.2-0.4c-0.9-0.1-1.7,0-2.5,0.1c-2.9,0.2-5.8-0.9-8.6,0.6c-0.1,0-0.3,0-0.4-0.1C32.4,33.2,31.3,33.6,30.1,33.6z"
		/>
	<path fill="#1A1717" d="M89.7,111c0.6,0.1,1.3,0,1.8,0.4c0,4.4,0,8.7,0,13.1c0,1-0.3,1.3-1.2,1.2c-1.3-0.1-3,0.4-3.8-0.3
		c-0.8-0.6,0-2.4-0.1-3.6c0-3,0-6.1,0-9.1c0-0.5,0-1.1-0.2-1.6C87.4,111,88.5,111,89.7,111z"/>
	<path fill="#E9292E" d="M250.9,57.9c1.6,0.7,3.1,1.4,4.9,1.1c0.7-0.1,1.1,0.7,1.8,0.6c0,0.1,0,0.3-0.1,0.4c-1.5,0-3.1,0.3-4.4-0.1
		c-1-0.3-1.9-0.4-2.9-0.4c-1.5,0-2.9-0.3-4-1.3c-0.3-0.2-0.5-0.3-0.9-0.3c-1,0.1-1.9,0-2.6-0.8c-0.6-0.6-1.4,0.1-2.1-0.3
		c-2.3-1.4-4-3.3-5.4-5.5c0.6-0.9-0.3-1.3-0.6-1.9c0,0,0.1,0,0.1-0.1c0-0.1-0.1-0.1-0.1-0.2c0,0,0,0,0,0c-0.2-0.5,0.5-1.4-0.5-1.6
		c0,0,0,0,0,0c0-0.5,0.2-0.9,0.4-1.4c0.5-1.1,1.1-2.1,0.3-3.4c-0.5-0.8-0.3-2.2,0.2-3.2c0.3,1.1,1.4,1.8,1.3,2.9
		c-0.3,2.6,1.1,4.7,2.1,6.7c0.6,1.1,1.1,2.4,2.2,3.4c0.8,0.7,1.5,1.8,2.3,2.4c0.9,0.7,1.8,1.9,3.3,1.4
		C247.9,56.6,249.3,57.6,250.9,57.9z M236.4,46.9c0-0.2-0.1-0.4-0.4-0.5c-0.3,0-0.5,0-0.6,0.4c0,0.4,0.1,0.6,0.5,0.6
		C236.1,47.5,236.3,47.3,236.4,46.9z M235.7,45.5c-0.1,0-0.2-0.1-0.2-0.1c-0.1,0-0.1,0.1-0.1,0.2c0.1,0,0.2,0.1,0.2,0.1
		C235.7,45.7,235.7,45.6,235.7,45.5z"/>
	<path fill="#D54653" d="M29.6,57.4c-0.4-0.1-0.9,0.1-1.2-0.4c0.8,0.2,1.6,0.2,2.4,0.2c5,0,9.9-0.1,14.9-0.1c0.9,0,1.3,0.2,1.2,1.3
		c-0.2,1.9-0.2,1.8-2.1,1.8c-6.6,0-13.2,0.1-19.8,0.2c-1.8,0-1.8,0-1.8-1.8c0-7.2,0-14.3,0-21.5c0-8.8,0-17.7,0-26.5
		c0-1.1,0.3-1.4,1.4-1.4c3.6,0.1,7.1,0,10.7,0.1c1.1,0.4,2.2,0.2,3.3,0.2c1.7,0,3.4,0.3,5.1-0.2c0.4,0,0.7,0,1.1,0
		c2.3,0,2.2-0.4,1.9,2.6c0-0.3-0.3-0.4-0.5-0.4c0-0.1,0-0.2,0.1-0.3c0.8-0.5,0.3-0.8-0.2-1.1c-0.2-0.2-0.4-0.3-0.7-0.3
		c-6.5,0-12.9,0-19.4,0.1c-0.8,0-1.9,0.2-1.9,1.5c0,14.3,0,28.5,0,42.8c0,1.4,0,2.8,0,4.2c0,0.7,0.1,1.2,0.9,1.2
		c1.3,0.1,2.5,0.4,3.7,0.4C34.3,60.1,40,60,45.7,60c0.7,0,0.8-0.3,0.5-0.8C46.1,59,46,58.7,46,58.4c0.5,0,0.4-0.4,0.3-0.7
		c-0.3-0.7-0.9-0.3-1.4-0.3c-2.2,0-4.4,0-6.5,0C35.4,57.4,32.5,57.4,29.6,57.4z"/>
	<path fill="#E22328" d="M175.6,51.9c0.1-0.8,0.1-1.7-0.6-2.3c-1.7-1.7-0.9-4.2-2-6c-0.1-0.2,0-0.4,0.3-0.5c0.2,0,0.6,0,0.6,0.2
		c-0.2,1.5,1.4,2.6,0.9,4.2c-0.1,0.4,0.6,0.7,1,0.9c0.3,0.2,0.6,0.1,0.9-0.3c0.8-1,1-0.9,1.7,0.1c0.4,0.5,0.3,1.7,1.5,1.4
		c0,0.2,0,0.4,0.1,0.5c0,0.4,0.2,0.5,0.5,0.5c0.1,0.2,0.2,0.4,0.3,0.5c0.1,0.1,0.2,0.2,0.3,0.3c0,0.1,0,0.2,0,0.2
		c0,0.4,0.1,0.7,0.5,0.8l0,0c0.1,0.7,0.6,0.7,1.1,0.8l0,0c0,0.4,0.2,0.6,0.6,0.5c1.2,0.9,2.5,1.9,3.9,2.6c0.4,0.2,1,0,1.1,0.7
		c0.3,0.4-0.1,1.6,1.1,0.9c0.2,0.3,0.5,0.3,0.8,0.3c-0.3,0.2-0.5,0.4-0.8,0.5c-1.5-0.2-3.1-0.4-4-1.4c-0.7-0.8-1.7-1-2.4-1.8
		c-0.9-1-1.8,0.5-2.7,0.4c-0.1,0-0.3,0.1-0.4,0.1C178.1,55.1,176.7,53.6,175.6,51.9z M178.1,49.8c-0.3,0.9-0.4,1.8,0.4,2.4
		c0.2,0.2,0.5,0.3,0.8,0.1c0.3-0.2,0.1-0.5,0-0.7C178.8,51,178.4,50.5,178.1,49.8z"/>
	<path fill="#DD4145" d="M185.5,10.3c2-1.1,4.3-1.4,6.6-1.6c4.3-0.4,8.6-0.1,12.9,1.1c2.2,0.6,2.3,0.7,2.3,3c0,1,0.1,2.1-0.2,3.2
		c-1.6-1.1-3.1-2.3-4.8-3.2c-2.4-1.2-5-1.6-7.7-1.5c-0.7,0-1.5,0-2.2,0c0-0.1,0-0.2,0-0.2c0.5,0,0.9,0,1.4,0c0.2,0,0.4,0,0.6-0.2
		c0.7,0,1.8-0.5,2-0.4c1.3,0.9,3-0.2,4.3,0.8c0.4,0.3,1.1,0.3,1.5-0.1c0.2-0.2,0.5-0.7,0.2-1c-0.3-0.5-0.9-0.4-1.4-0.4
		c-1.6,0-3.1,0-4.7,0c0-0.4,0.6-0.1,0.4-0.5c-1.7,0-3.4-0.3-5,0.1c-1.9,0.4-3.7,0.6-5.6,1C185.9,10.3,185.7,10.3,185.5,10.3z"/>
	<path fill="#E7363A" d="M185.5,10.3c0.2,0,0.4,0,0.6,0c0.1,0.7,1,0.9,1.1,1.6c-0.7,0.1-0.5,0.6-0.5,1.1l0,0.1c0,0-0.1,0-0.1,0
		c-0.3,0-0.5,0.2-0.7,0.5c0,0,0,0,0,0c-0.4,0-0.8,0-0.8,0.6c-2.2,1.7-3.9,3.9-5.5,6.2c-0.9-0.1-0.4,0.5-0.4,0.8c0,0,0,0.1,0,0.1
		c-0.5-0.1-0.7,0.6-1.1,0.6c0.2-1.1-0.6-1.9-0.7-2.9c-0.1-0.5-0.1-0.9,0.2-1.3c0.9-1,1.7-2.1,2.3-3.4c0.2-0.5,1.1-0.5,1.2-1.2
		c0.1,0,0.2-0.1,0.4-0.1c0,0-0.1-0.1-0.1-0.1c-0.1,0.1-0.2,0.1-0.3,0.2c-0.3,0.1-0.6,0.2-0.9,0.3c1.1-1.1,2.5-1.9,4-2.4
		C184.4,10.7,185.2,11.2,185.5,10.3L185.5,10.3z"/>
	<path fill="#E7363A" d="M190.1,58.4c-0.3,0-0.6,0.1-0.8-0.3c0-0.3,0-0.5,0-0.8c0.5,0,1.1,0.4,1.6-0.1c3.3,0.6,6.5,0.7,9.7-0.5
		c2-0.7,3.6-2,5.2-3.4c0.3-0.3,0.7-0.9,1.2-0.6c0.4,0.2,0.2,0.8,0.2,1.3c0.6,3.2-1.2,4.4-3.9,5.3c-2.1,0.7-4.1,1.4-6.4,1.3
		c1.3-1.4,3.1-0.8,4.7-1.1c-0.2-1-1.2,0.2-1.4-0.7c-0.3-1.1-1.4-0.9-2-0.7c-0.7,0.3-1.3,0.3-2,0.3c-1.6,0-3.2,0-4.8,0
		c-0.3,0-0.6,0-0.8,0C190.5,58.4,190.3,58.4,190.1,58.4z"/>
	<path fill="#E93434" d="M191.5,58.4c1.6,0,3.2,0,4.8,0c0.7,0,1.3,0,2-0.3c0.6-0.2,1.7-0.4,2,0.7c0.3,0.9,1.2-0.3,1.4,0.7
		c-1.6,0.3-3.4-0.3-4.7,1.1c-6,0.5-11.7-0.4-16.8-4c-0.1-0.1-0.3-0.2-0.4-0.4c0.1,0,0.3-0.1,0.4-0.1c1,0,1.9-1.5,2.7-0.4
		c0.7,0.8,1.7,1,2.4,1.8c0.9,1,2.5,1.3,4,1.4c0,0,0,0,0,0C190.1,59.2,191.1,60,191.5,58.4z"/>
	<path fill="#DD292D" d="M233.9,21c0.2-1.5,1.2-2.5,2-3.6c0.3-0.1,0.7-0.2,1-0.3c-0.6,0.8-0.9,1.8-1.3,2.7c-0.5,1.1-0.1,1.2,0.7,1.4
		c-0.1,1,0.9,1.7,0.6,2.7c0,0.5,0.1,1-0.1,1.5c-0.8,1.8-1.1,3.6-1,5.5c0.2,2.5-0.8,5-0.6,7.5c0,0-0.1,0.1-0.2,0.2
		c-0.9-0.8-0.8-1.9-0.8-3c0-0.4,0.2-1-0.4-1.2c-1.2-0.3-0.9-1.3-0.6-1.9c0.9-2.3,1.1-4.6,1-7c0.7,0.1,0.3-0.9,0.9-0.9
		c0.4,0.1,0,0.8,0.8,0.7c0-0.8,0-1.7,0-2.5c0-0.3-0.1-0.5-0.5-0.5c-0.3,0-0.6,0.1-0.6,0.4c0,1-0.9,1.8-0.6,2.8
		c-1.5,0.2-1-0.9-1.1-1.7c0,0,0,0,0,0c1.2-0.7,1.5-1.7,0.9-2.7C234,21.1,233.9,21,233.9,21z"/>
	<path fill="#DD4145" d="M95.2,40.9c0-3,0.2-6,0-9c0-0.3,0.2-0.9-0.3-0.9c-1.9,0.1-1-0.8-0.7-1.6c0.3-1.2-0.2-2.5-0.1-3.7
		c-0.2,0-0.3,0-0.5,0c-1.1-4.2-2.6-8.2-6.8-10.4c0-1.2-1.4-0.9-1.7-1.8c2,0.5,3.4,1.8,4.7,3.3c4.9,5.7,6.6,12.5,6.1,19.8
		C95.8,38,95.7,39.5,95.2,40.9z"/>
	<path fill="#A93635" d="M86.7,106.6c1.3,1,2.9,0.4,4.4,0.6c0.6,0.1,0.3-0.5,0.3-0.8c0-3.5,0.1-7,0.1-10.5c0,3.3,0,6.5,0,9.8
		c0,1.7,0.1,1.8,1.8,1.5c1.9-0.3,3.8-0.7,5.7-1c0,0.1,0.6,0.3,0.2,0.4c-3.5,0.8-7.1,1.5-10.7,1.2c-2.5-0.2-5-0.8-7.3-1.7
		c-1.5-0.6-3-1.3-4.6-1.8c-1.9-0.7-3.5-1.8-5.3-2.7c-1.2-0.6-2.5-0.6-3.6-1.4c0.8,0.1,1.7-0.2,2.5,0.4c0.2,0.1,0.3-0.2,0.3-0.3
		c1.3,1.2,3,1.5,4.4,2.3c3.2,1.6,6.4,3.3,10,4C85.4,106.6,86,106.7,86.7,106.6z"/>
	<path fill="#E7363A" d="M89.7,111c-1.2,0-2.3,0-3.5,0c-3.5-0.5-6.8-1.3-9.8-3.3c0.3-0.1,0.8,0.3,1-0.2c0.5-1.5,1.3-0.7,2.1-0.4
		c0.7,0.3,1.4-0.3,2.1,0.1c1.4,0.9,2.9,1.5,4.2,2.5c0.9,0.6,1.7,0.5,2.6,0.5C88.9,110.5,89.6,110.1,89.7,111z"/>
	<path fill="#D54653" d="M233.9,21c0,0.1,0.1,0.2,0.1,0.3c-0.1,0.2-0.2,0.4-0.3,0.6c0,0.3,0,0.6,0,0.8c-0.5,0.3-0.6,0.8-0.5,1.3
		c0,0,0,0,0,0c-0.9,0.6-0.9,1.7-1,2.5c-0.3,3-1.2,5.9-0.7,9c0.2,1.1,0.7,2.2,0.6,3.3c-0.3,2.5,0.4,4.8,1.4,6.9
		c0.3,0.6-0.2,1.6,0.8,1.8c0,0,0,0,0,0c0.2,0.5-0.4,1.3,0.5,1.6c0,0,0,0,0,0c0,0.1,0,0.2,0,0.2c0.3,0.6,1.1,1,0.6,1.9
		c-2.1-2.9-3-6.2-3.7-9.6c-1-5-1.1-10,0-14.9C232,24.7,232.4,22.6,233.9,21z"/>
	<path fill="#E7363A" d="M244.1,10.7c2-1,4.1-1.5,6.3-1.8c6-0.7,11.9-0.4,17.4,2.5c0.9,0.5,1.8,0.9,2.5,1.6c0,0,0,0.1,0,0.1
		c-0.8-0.1-1.6-0.2-2.4-0.3c0.1-0.8-0.1-0.9-1.6-1.4c-0.1,0-0.2,0-0.3,0c-0.6-0.1-1-0.8-1.6-0.6c0-0.4-0.2-0.5-0.6-0.5
		c-0.4,0-0.7,0-1.1,0c0-0.2,0.2-0.3,0-0.5c-0.2-0.1-0.4,0-0.6,0.2c-0.9-0.3-1.8-0.3-2.7-0.3c-0.5-1.1-1.5-0.3-2.2-0.5
		c-1.5,0.7-2.9-0.3-4.4,0c-0.3-0.3-0.5-0.3-0.8,0c-0.5,0-1.1,0-1.6,0c-0.3,0.1-0.3,0.3-0.3,0.5c-1.5,0-3,0.1-4.4,0.8
		c-0.5,0.1-0.9,0.2-1.4,0.3C244.3,10.8,244.2,10.7,244.1,10.7z"/>
	<path fill="#DB343B" d="M45.2,106.6c-0.1,0.2-0.2,0.3-0.3,0.5c-1.4,0.3-2.3,1.4-3.3,2.3c-1.5,1.2-2.9,2.5-4.3,3.7
		c-0.1-0.5,0.2-1,0.6-1.2c0.9-0.6,0.1-0.7-0.2-1.1c2.2-2.2,4.5-4.4,7.1-6.1C44.9,105.4,44.7,106.1,45.2,106.6z"/>
	<path fill="#D54653" d="M123.2,93.5c0-0.6-0.3-1.1-0.1-1.6c0.8,0.1,1.2-0.6,1.6-1c1.4-1.3,2.7-2.7,4-4c0.2,0,0.3-0.1,0.3-0.3
		c0-0.1,0-0.1,0.1-0.1c0.4,0,0.5-0.2,0.5-0.6c0-0.1,0.1-0.1,0.2-0.1c0.1,0.2,0.2,0.5,0.3,0.7C128,88.9,126.1,91.6,123.2,93.5z"/>
	<path fill="#1A1717" d="M224,97.6c-0.3-0.3-0.2-0.7-0.2-1c0-5.9,0-11.7,0-17.6c0-0.4-0.2-0.9,0.5-1.1c-0.3,1.1-0.1,2.3-0.1,3.4
		C224.1,86.7,224.1,92.1,224,97.6z"/>
	<path fill="#A93635" d="M190.9,57.3c-0.5,0.5-1.1,0-1.6,0.1c-0.4,0-0.7-0.1-1.1-0.1c-0.1-0.7-0.7-0.5-1.1-0.7
		c-1.4-0.7-2.6-1.6-3.9-2.6c0-0.4-0.2-0.5-0.6-0.5c0,0,0,0,0,0c-0.1-0.7-0.6-0.7-1.1-0.8c0,0,0,0,0,0c0-0.4,0-0.8-0.5-0.8
		c0-0.1,0-0.2,0-0.2c-0.1-0.1-0.2-0.2-0.3-0.3c-0.1-0.2-0.2-0.4-0.3-0.5c0-0.3-0.2-0.5-0.5-0.5c0-0.2,0-0.4-0.1-0.5
		c0-0.1,0.1-0.3,0.1-0.4c0.5,0.7,1,1.4,1.4,2.1c-0.1,0.1,0,0.2,0.1,0.2c2,2.1,4.2,4,7,5C189.4,56.8,190.2,57.1,190.9,57.3z"/>
	<path fill="#DD4145" d="M37.7,110.9c0.2,0.3,1.1,0.5,0.2,1.1c-0.3,0.2-0.7,0.6-0.6,1.2c0,0,0,0,0,0c-1-0.3-0.8,0.4-0.8,0.9
		c0,0,0,0,0,0c-0.5,0-1.1-0.1-0.7,0.7c-0.3,0.4-0.7,0.8-1,1.2c-0.5,0.2-0.8,0.1-1-0.4C34.8,113.8,36.1,112.2,37.7,110.9z"/>
	<path fill="#CF828B" d="M130.2,86.4c-0.1-0.2-0.2-0.5-0.3-0.7c0.7-1.3,1.8-2.2,2.8-3.3c0.2,0.1,0.4,0.2,0.5,0.3
		C132.4,84,131.5,85.4,130.2,86.4z"/>
	<path fill="#A93635" d="M70.5,104.4c-1.1,0.1-1.9-0.6-2.9-0.9c-0.5-0.1-0.9-0.4-1.4-0.1c-0.9-1.2-2.4-0.8-3.5-1.2
		C65.5,102.1,68.2,102.8,70.5,104.4z"/>
	<path fill="#CF828B" d="M33.8,115.6c0.2,0.5,0.5,0.6,1,0.4c-0.8,1.1-1.6,2.2-3.1,3.2C31.9,117.4,32.8,116.5,33.8,115.6z"/>
	<path fill="#1A1717" d="M224.2,126c5,0,9.9,0,14.9,0C234.1,126.1,229.2,126.3,224.2,126z"/>
	<path fill="#DD292D" d="M236.7,16.4c0.8-1.1,1.7-2.1,2.8-2.8c0.1,0.1,0.3,0.2,0.4,0.2c-0.4,1.3-2.2,1.6-2.4,3.2
		c-0.2,0-0.4-0.1-0.6-0.1C236.8,16.7,236.8,16.5,236.7,16.4z"/>
	<path fill="#E7363A" d="M239.9,13.8c-0.1-0.1-0.3-0.2-0.4-0.2c1.3-1.4,2.9-2.2,4.6-2.9c0.1,0.1,0.1,0.1,0.2,0.2
		C242.9,11.8,241.4,12.8,239.9,13.8z"/>
	<path fill="#E22328" d="M85.1,13.4c0.3,0.9,1.7,0.6,1.7,1.8l0,0c-0.5-0.1-0.9-0.7-1.5-0.1c-0.2,0.2-0.7,0.2-1,0
		c-0.4-0.4-0.1-0.7,0.2-1c0.1-0.1,0.1-0.3-0.1-0.4c0-0.3,0.1-0.5,0.3-0.6C84.7,13.1,84.9,13.3,85.1,13.4z"/>
	<path fill="#DD4145" d="M186.6,13c0.1-0.4-0.2-1,0.5-1.1c0.6,0.3,1.2,0,1.7-0.3c0-0.1,0-0.2,0-0.2c0.4,0,0.7,0,1.1,0
		c0.2,0,0.4,0,0.5,0c0.3,0,0.5,0,0.8,0c0.3,0,0.6,0,0.9,0.1C190.2,11.8,188.4,12.3,186.6,13z"/>
	<path fill="#DD4145" d="M93,47.4c-0.1-1.7,0.8-3.1,1.7-4.4C94.4,44.6,93.8,46.1,93,47.4z"/>
	<path fill="#DC454A" d="M43.7,9.3c-1.7,0.5-3.4,0.2-5.1,0.2c-1.1,0-2.3,0.3-3.3-0.2C38.1,9.2,40.9,9.1,43.7,9.3z"/>
	<path fill="#1A1717" d="M241.3,77.8c2.2,0.1,1.1-1.5,1.4-2.4c0.6,0.7,0.4,1.7,0.2,2.4C242.7,78.5,241.9,77.8,241.3,77.8z"/>
	<path fill="#A93635" d="M45.2,106.6c-0.5-0.6-0.3-1.2-0.3-1.9c0.3-0.1,0.5-0.3,0.8-0.4C46.3,105.3,45.7,105.9,45.2,106.6z"/>
	<path fill="#E9292E" d="M84.6,13c-0.3,0.1-0.3,0.3-0.3,0.6c-0.8-0.1-1.8,0.3-1.7-1.1l0,0c0.4,0,0.9,0,1.3,0
		C84.3,12.5,84.5,12.7,84.6,13z"/>
	<path fill="#E7363A" d="M190.4,11.4c-0.2,0-0.4,0-0.5,0c0.7-1,1.6-0.6,2.5-0.3c0,0.1,0,0.2,0,0.2c0,0-0.1,0-0.1,0s-0.1,0-0.1,0
		c-0.3,0-0.6,0-0.9-0.1C190.9,11,190.7,11,190.4,11.4z"/>
	<path fill="#FEFBFA" d="M133.2,82.7c-0.2-0.1-0.4-0.2-0.5-0.3c0.2-0.6,0.6-0.9,1.3-1.3C133.9,81.9,133.4,82.2,133.2,82.7z"/>
	<path fill="#1A1717" d="M219.2,126c1.4,0,2.8,0,4.2,0C222,126.3,220.6,126.2,219.2,126z"/>
	<path fill="#DD4145" d="M185.5,10.3c-0.2,1-1.1,0.4-1.6,0.6C184.3,10.5,184.9,10.2,185.5,10.3z"/>
	<path fill="#DD4145" d="M94.9,42.6c-0.4-0.6-0.1-1.1,0.3-1.6C95.2,41.5,95.2,42,94.9,42.6z"/>
	<path fill="#D54653" d="M123.2,77.7c-0.1-0.5-0.1-0.9,0-1.4C123.4,76.8,123.3,77.3,123.2,77.7z"/>
	<path fill="#D54653" d="M123.1,88.7c0-0.4,0-0.9,0-1.3C123.1,87.8,123.1,88.2,123.1,88.7z"/>
	<path fill="#DB343B" d="M36.5,114.1c0-0.6-0.1-1.2,0.8-0.9C37,113.5,36.7,113.8,36.5,114.1z"/>
	<path fill="#E7363A" d="M236.7,16.4c0.1,0.2,0.2,0.3,0.3,0.5c0,0.1,0,0.2,0,0.2c-0.3,0.1-0.7,0.2-1,0.3
		C236,16.9,236.3,16.7,236.7,16.4z"/>
	<path fill="#DB343B" d="M35.8,114.8c-0.4-0.8,0.1-0.7,0.7-0.7C36.2,114.3,36,114.6,35.8,114.8z"/>
	<path fill="#1A1717" d="M242.4,125.9c0-0.3-0.1-0.7,0.2-1C242.7,125.3,242.8,125.7,242.4,125.9z"/>
	<path fill="#1A1717" d="M239.7,126c0.3-0.3,0.5-0.3,0.8,0C240.2,126,239.9,126,239.7,126z"/>
	<path fill="#DD4145" d="M184.9,14.1c0-0.5,0.4-0.5,0.8-0.6C185.5,13.8,185.3,14.1,184.9,14.1z"/>
	<path fill="#DB343B" d="M179,21.1c0.1-0.3-0.4-0.9,0.4-0.8C179.4,20.7,179.3,21,179,21.1z"/>
	<path fill="#1A1717" d="M219.2,123.3c0,0.3-0.1,0.7-0.1,1C219.1,124,219.1,123.7,219.2,123.3z"/>
	<path fill="#1A1717" d="M239.7,77.7c0.3-0.2,0.5-0.2,0.8,0C240.2,77.7,240,77.7,239.7,77.7z"/>
	<path fill="#CF828B" d="M129.7,85.8c0,0.4-0.2,0.6-0.5,0.6C129.2,86.1,129.4,85.9,129.7,85.8z"/>
	<path fill="#DD4145" d="M185.8,13.5c0.2-0.3,0.4-0.5,0.7-0.5C186.3,13.3,186.1,13.5,185.8,13.5z"/>
	<path fill="#CF828B" d="M129.1,86.5c0,0.2-0.1,0.3-0.3,0.3C128.8,86.7,129,86.6,129.1,86.5z"/>
	<path fill="#DB343B" d="M181.6,51.6c-0.1,0-0.2-0.1-0.1-0.2C181.5,51.4,181.6,51.5,181.6,51.6z"/>
	<path fill="#1A1717" d="M224.4,98.7c-0.1-0.1-0.2-0.2-0.3-0.3C224.2,98.4,224.3,98.6,224.4,98.7z"/>
	<polygon fill="#1A1717" points="219.3,75.4 219.4,75.4 219.3,75.4 	"/>
	<path fill="#D54653" d="M58,99.5c1.7-0.5,3.4-0.4,5.1-0.3c0.5,0,1,0.3,1.4-0.2c0.2,0.1,0.2,0.3,0.2,0.5
		C62.4,99.5,60.2,99.5,58,99.5z"/>
	<path fill="#D54653" d="M67.1,100c-0.8-0.2-1.9,0.6-2.6-0.5C65.4,99.5,66.3,99.6,67.1,100z"/>
	<path fill="#E32930" d="M60.7,55.7c-0.3,0-0.5-0.2-0.6-0.5c-0.3-0.9-0.8-1.3-1.4-0.2c-0.2,0.4-0.6,0.5-0.7,0.1
		c-0.1-0.8-0.7-1.4-0.7-2.3c0-11.1,0-22.2,0.1-33.2c0-2.9-0.2-5.8-0.1-8.7c0-1,0.3-1.2,1.3-1.3c2-0.2,3.9,0.8,5.9,0.6
		c0.2,0,0.4,0,0.6,0c-0.2,0.2-0.4,0.3-0.6,0.5c0.1,0.1,0.2,0.2,0.3,0.3c0,0.1,0,0.2,0,0.2c-0.1,0.1-0.2,0.2-0.3,0.3
		c0,0.1,0,0.2,0,0.3c-1.4-1-3.1-0.1-4.7-0.6c0.8,0.9,0.7,2,0.3,2.8c-0.4,0.8-0.2,1.4,0.1,2c0.3,0.6,0.4,1.2,0.4,1.8c0,5,0,10,0,15
		c-0.9,0.5-0.9,0.9,0,1.4c0,0.7,0,1.5,0,2.2c-0.6,0.1-0.5,0.5-0.6,0.9c0,1.4,0.1,2.8-0.2,4.2c-0.1,0.7-0.2,1.5,0.8,1.8
		C60.7,47.5,60.5,51.6,60.7,55.7z"/>
	<path fill="#DD4145" d="M60.7,55.7c-0.2-4.1,0-8.2,0-12.3c0-2.3,0-4.6,0-6.8c0-0.7,0-1.5,0-2.2c0-0.5,0-0.9,0-1.4c0-5,0-10,0.1-15
		c0-0.6,0-1.2-0.4-1.8c-0.3-0.6-0.5-1.2-0.1-2c0.4-0.8,0.4-1.9-0.3-2.8c1.6,0.4,3.3-0.4,4.7,0.6c0.1,0,0.2,0,0.3,0
		c3.1,0,6.2,0,9.3,0c0.5,0.8,1.3,0.4,1.9,0.5c0.5,0,1.1,0,1.6,0l0,0c0.1,0.7,0.7,0.5,1.1,0.5c0,0.4,0.2,0.5,0.6,0.5
		c0.2,0,0.4,0,0.5,0c0.2,0.7,1.5,0.7,1.3,1.7c-5.1-3.3-10.9-3-16.7-2.9c-2.7,0.1-2.7,0.1-2.7,2.7c0,13.5,0,27-0.1,40.5
		c0,1.2,0.5,1.4,1.4,1.4c4,0,8,0,12-0.3c-0.5,0.7-1.4,0.5-2,0.5c-3.5,0.1-7,0-10.4-0.1c-0.5,0-1-0.2-1.5-0.2
		C60.2,56.8,60.2,56.4,60.7,55.7z"/>
	<path fill="#E9292E" d="M74.1,11.9c-3.1,0-6.2,0-9.3,0c-0.1-0.1-0.2-0.1-0.3-0.2c0.1-0.1,0.2-0.3,0.3-0.3c1.3,0,2.6,0,3.7,0
		c0-0.3,0-0.3,0-0.3c-1.1,0-2.5,0-3.7,0c-0.1,0-0.2-0.2-0.3-0.3c1.4,0,2.8,0.1,4.2-0.2c-1.2-0.4-2.4-0.2-3.6-0.3c-0.2,0-0.4,0-0.6,0
		c0.1-0.7,0.6-0.5,1.1-0.5c2.6,0,5.1,0,7.7,0c0.2,0.8,0.9,0.4,1.4,0.5c0.8,0.7,1.8,0.6,2.8,0.4c0.2,0,0.4-0.3,0.5-0.2
		c1.5,0.7,3.4,0.7,4.7,2c0,0,0,0,0,0c-1.1-0.2-1.8,0.8-2.7,1.1c-0.2,0-0.4,0-0.5,0c-0.1-0.3,0-0.8-0.6-0.5c-0.4-0.1-1,0.2-1.1-0.5
		c0.7-0.1,1.4,0.1,2-0.3c-0.7-0.2-1.5-0.7-2,0.3c-0.5,0-1.1,0-1.6,0C75.6,11.5,74.8,12.1,74.1,11.9z M70.9,10.4
		c-0.1,0-0.3-0.1-0.4-0.1c-0.2,0-0.4,0-0.3,0.3c0,0.1,0.3,0.2,0.4,0.2C70.7,10.8,71,10.8,70.9,10.4z"/>
	<path fill="#DD4145" d="M79.3,55.5c0.2-0.3,0.5-0.4,0.8-0.4c0.5,1.1,1.3,1,2.3,0.6c-0.2,0.9-0.7,1.1-1.4,1
		C80.2,56.7,79.6,56.3,79.3,55.5z"/>
	<path fill="#DD4145" d="M75.6,56.6c0.6-0.4,1.2-0.4,1.9-0.4C77.1,57.4,76.3,56.6,75.6,56.6z"/>
	<path fill="#E32930" d="M74.7,10.3c-0.5-0.1-1.2,0.3-1.4-0.5C73.8,9.8,74.5,9.4,74.7,10.3z"/>
	<path fill="#DD4145" d="M81.4,54.4c0.1-0.3,0.5-0.4,0.7-0.5C82.1,54.4,81.9,54.7,81.4,54.4z"/>
	<path fill="#DD4145" d="M80.5,54.9c0.3-0.1,0.5-0.3,0.8-0.4C81.2,54.9,80.8,54.9,80.5,54.9z"/>
	<path fill="#DD4145" d="M78.1,55.9c0.1,0,0.3-0.1,0.4-0.1C78.4,55.8,78.2,55.9,78.1,55.9z"/>
	<path fill="#E22328" d="M158.9,56.1c-0.3-0.5-0.2-1.1-0.2-1.5c0-11.9,0-23.7,0-35.6c0-0.8,0.3-1.7-0.4-2.5
		c-0.1-0.2-0.1-0.5,0.1-0.6c0.3-0.2,0.5,0.1,0.7,0.2c0.3,0.3,0.3,0.8,0.3,1.2c0,12.6,0,25.2,0,37.7
		C159.2,55.4,159.4,55.8,158.9,56.1z"/>
	<path fill="#E22328" d="M159.1,57.1c-0.1,0-0.1,0.1-0.2,0.1c0-0.1-0.1-0.2-0.1-0.3c0.1,0,0.2-0.1,0.2,0
		C159.1,57,159.1,57.1,159.1,57.1z"/>
	<path fill="#E32930" d="M219.4,12.5c0.2,1.3,0.1,2.7,0.3,4c0.1,1-0.4,2.4-0.2,3.5c1.1,8.1,0.2,16.2,0.5,24.2c0.1,2-0.7,4.1-0.4,6.1
		c0.3,2-0.3,4.1,0.3,6.1c0.1,0.4-0.4,0.8-0.9,0.9c-0.4,0-0.9,0.2-1.1-0.3c-0.2-0.4,0.1-0.7,0.5-0.8c0.3-0.1,0.5-0.3,0.5-0.6
		c0-1.8,0-3.7-0.2-5.5c0.1,1.1-1,2-0.3,3.2c0.2,0.3,0,0.7-0.4,0.7c-0.5,0.1-0.6-0.2-0.7-0.7c-2-12-0.7-24-1.1-36
		c0-0.3-0.1-0.6,0.2-0.9c0.4,0,0.3,0.4,0.3,0.6c0.1,0.4-0.2,1,0.4,1c0.7,0.1,0.2-0.7,0.6-1c0.4,0.2,0.4,0.5,0.3,0.9
		c-0.1,0.3-0.1,0.7,0.3,0.7c0.5,0.1,0.6-0.3,0.6-0.7c0.1-0.8-0.2-1.5-1-1.7c-0.8-0.2-0.7-0.7-0.5-1.3c0.6-0.1,0.4,1.1,1.1,0.7
		c0.7-0.3,0.3-1,0.4-1.5C219,13.7,218.4,12.8,219.4,12.5L219.4,12.5z"/>
	<path fill="#DD292D" d="M219.4,12.5c-0.2-0.7,0.5-1.8-0.4-2.1c-0.9-0.2-0.9,1.1-1.5,1.6c-0.1,0.1-0.1,0.1-0.2,0.3
		c-0.1-0.9-0.8-1.5-1.1-2.5c1.1,0,2.2,0,3.2,0c0.4,0,0.7,0.4,0.6,0.6C219.9,11.1,220.4,12,219.4,12.5
		C219.4,12.5,219.4,12.5,219.4,12.5z"/>
	<path fill="#E32930" d="M216.5,12.6c0.1,0.1,0.2,0.2,0.3,0.3c0.3,0.7,0.4,1.4,0,2.1c0,0.1-0.3,0.1-0.3,0.1
		c-0.4-0.6-0.1-1.2-0.2-1.8C216.1,13,216.1,12.8,216.5,12.6z"/>
	<path fill="#E93434" d="M270,18.5c-0.1-0.1-0.1-0.2-0.2-0.3c0.1-0.1,0.2-0.2,0.3-0.3c0.6,0,1.4,0.2,1.7-0.4
		c-0.8-1.6-2.8-1.8-3.6-3.3c-0.1-0.2-0.3-0.3-0.6-0.2c-0.4,0.1-0.8,0.3-1-0.2c-0.2-0.5,0.3-0.7,0.5-1c0.3,0,0.5,0,0.8,0
		c0.8,0.1,1.6,0.2,2.4,0.3c0.1,0.2,0.1,0.5,0.2,0.6c1.7,1.3,2.8,3,3.7,5c0.3,0.8,1.5,1.5,1.8,2.5c0.3,1.1,1.5,2.2,0.4,3.6
		c-0.4,0.6,0.5,1,0.5,1.6c-0.1,1,0,2,0,3c-0.6,0.1-0.4,0.6-0.6,0.9c-0.6,0.8,0.1,2.5-1.6,2.7c0.1-2.1-0.9-4.1-0.9-6.1
		c0-2.4-1.5-4.3-1.8-6.5c0.3-0.6,0.5-1.1,0-1.6c-0.1-0.1-0.3-0.2-0.4-0.2c-0.5,0.2-0.3,0.7-0.3,1c-0.1,0-0.3,0.1-0.4,0.1
		c0,0,0,0,0,0c0.1-0.4,0-0.6-0.4-0.6c0,0,0,0,0,0C270.3,18.8,270.3,18.6,270,18.5z"/>
	<path fill="#E32930" d="M274.7,33c1.7-0.1,1-1.8,1.6-2.7c0.2-0.3,0-0.8,0.6-0.9c1.1,1.4,0.3,3,0.2,4.4c0,0.1-0.1,0.3-0.2,0.3
		c-1.6,0.5-1.1,1.4-0.7,2.5c0.2,0.5-0.6,1.2-0.1,1.8c-1.2,0.3-1.4-0.2-1.4-1.2C274.7,35.9,274.7,34.4,274.7,33z"/>
	<path fill="#E7363A" d="M271.1,19.6c0.1-0.4-0.2-0.8,0.3-1c0.1,0,0.3,0.1,0.4,0.2c0.5,0.5,0.3,1.1,0,1.6
		C271.7,20.1,271.4,19.8,271.1,19.6z"/>
	<path fill="#E22328" d="M86.7,15.2c4.2,2.2,5.7,6.2,6.8,10.4c0.2,0.8-1,1.5-0.2,2.4c0.2,0.2-0.3,0.3-0.5,0.3
		c-0.9-0.1-0.6-0.9-0.9-1.5c-0.3,0.6-0.5,1.4,0,1.9c1.6,1.4,0.4,2.8,0.1,4.2c-0.1,0.5-0.7,1-0.7,1.6c-0.2-0.1-0.3-0.1-0.3-0.1
		c0-2.6-0.6-5.3-0.6-7.9c0-1.3,0-2.7-0.8-3.2c-1-0.6-1-1.3-1-2.1c0.6,0,1.1,0,1.2,0.8c0,0.3,0.4,0.5,0.7,0.4
		c0.4-0.1,0.3-0.6,0.2-0.8C90,19.8,89,18.2,87.4,17C86.7,16.6,86.3,16,86.7,15.2L86.7,15.2z"/>
	<path fill="#E93434" d="M86.7,15.2c-0.4,0.8,0,1.3,0.7,1.8c1.7,1.2,2.6,2.8,3.4,4.6c0.1,0.3,0.2,0.7-0.2,0.8
		c-0.3,0.1-0.7-0.1-0.7-0.4c-0.1-0.8-0.6-0.8-1.2-0.8c-0.1-0.4,0.7-0.6,0.3-1c-0.5-0.5-0.5,0.3-0.8,0.3c-0.6,0.1-0.8-0.5-1.1-0.8
		c-0.4-0.4-0.6-1.1-1.4-0.7c-1.2-1.1-2.4-2.2-3.5-3.2c0-0.6-0.4-0.6-0.9-0.5c0,0,0,0,0,0c0.1-1-1.1-0.9-1.3-1.7
		c0.9-0.3,1.6-1.3,2.7-1.1c-0.2,1.4,0.9,1,1.7,1.1c0.2,0.1,0.3,0.3,0.1,0.4c-0.3,0.3-0.6,0.7-0.2,1c0.3,0.3,0.8,0.3,1,0
		C85.8,14.5,86.2,15.1,86.7,15.2z"/>
	<path fill="#E93434" d="M86.1,19.5c-0.1,0-0.4,0.1-0.4-0.2C85.9,19.4,86,19.4,86.1,19.5z"/>
	<path fill="#DD292D" d="M106.6,58.5c-0.6-0.7,0.1-1.5,0-2.2c0-12.8,0-25.5,0-38.3c0-1.2-0.6-2.4,0-3.6c0.5,0.4,0.3,1,0.3,1.5
		c0,1.7,0,3.3,0,5c0.5-0.9-0.1-1.9,0.7-2.7c0.1,0.5,0.1,1,0.1,1.5c0,1.5-0.1,3.1,0.3,4.6c0.1,0.3-0.1,0.7,0.4,0.7
		c0.4,0,0.5-0.4,0.5-0.7c0-0.9,0.6-0.8,1.1-0.8c0,8.8,0,17.5,0,26.3c-0.8,0.1-0.5,0.7-0.6,1.2c0,0.4,0.1,0.9-0.5,1
		c-0.7,0.1-0.7,0.6-0.6,1.1c0.1,1.9-1,3.5-1.2,5.3C107.1,58.3,106.8,58.4,106.6,58.5z"/>
	<path fill="#E32930" d="M110,23.4c-0.5,0-1.1-0.1-1.1,0.8c0,0.3-0.1,0.7-0.5,0.7c-0.5,0-0.3-0.5-0.4-0.7c-0.4-1.5-0.2-3.1-0.3-4.6
		c0-0.5,0-1-0.1-1.5c-0.7,0.8-0.2,1.9-0.7,2.7c0-1.7,0-3.3,0-5c0-0.5,0.2-1.1-0.3-1.5c0-0.1,0-0.2,0-0.2c0.4-0.6,0.4-1.1,0-1.7
		c0-0.5-0.1-1.1,0-1.6c0.1-0.6,0.4-1.3,1.3-0.7c0.2,0.1,0.6,0.1,0.9,0.1c0.9,0,1.5,0.2,0.8,1.3c-0.1,0.2-0.2,0.5-0.1,0.6
		c0.9,1.5,0.3,3.2,0.5,4.7c-0.7,0.1-0.5,0.6-0.6,1c0,1.1,0,2.2,0,3.4c-0.3,0-0.5,0.1-0.5,0.5c0,0.1,0.2,0.2,0.2,0.2
		c0.3-0.1,0.2-0.4,0.2-0.7c0.2,0,0.4,0,0.6,0C110,22,110,22.7,110,23.4z M107.5,15.5c-0.3,0.5-0.3,0.9,0.1,1.3
		C107.8,16.3,107.9,16,107.5,15.5z"/>
	<path fill="#E32930" d="M106.6,58.5c0.2-0.1,0.4-0.1,0.5-0.2c0.3-1.8,1.3-3.4,1.2-5.3c0-0.5-0.1-1,0.6-1.1c0.6-0.1,0.4-0.6,0.5-1
		c0-0.5-0.2-1.1,0.6-1.2c0,2.5,0,4.9,0,7.4c-1.6,0.1-1.8,0.3-1.4,1.5c0.3,0.8,0.9,0.2,1.4,0.4c0,0.2,0,0.4,0,0.5c-1.1,0-2.2,0-3.3,0
		C106.7,59.2,106.6,58.8,106.6,58.5z"/>
	<path fill="#E9292E" d="M110,59c-0.4-0.2-1.1,0.4-1.4-0.4c-0.4-1.2-0.3-1.4,1.4-1.5C110,57.7,110,58.3,110,59z"/>
	<path fill="#DD292D" d="M110,21.2c-0.2,0-0.4,0-0.6,0l0,0c0-1.1,0-2.2,0-3.4c0-0.4-0.1-0.9,0.6-1C110,18.3,110,19.8,110,21.2z"/>
	<path fill="#DD292D" d="M106.7,59.5c1.1,0,2.2,0,3.3,0c-0.4,0.5-3.1,0.8-3.5,0.4C106.4,59.9,106.6,59.7,106.7,59.5z"/>
	<path fill="#DD292D" d="M106.7,12.5c0.4,0.6,0.4,1.1,0,1.7C106.8,13.6,106.1,13,106.7,12.5z"/>
	<path fill="#E32930" d="M125.3,59c-0.3-0.1-0.5-0.2-0.5-0.5c0.3-2-0.5-3.8-0.5-5.7c0-13.7,0-27.5,0-41.2c0-1.7,0.1-1.8,1.8-1.8
		c1.4,0,2.8,0,4.2,0c0.2,0.8,0.8,0.5,1.3,0.5c4.1,0,8.2,0,12.3,0c0.9,0,1.3,0.2,1.1,1.2c-2.9-0.1-5.8,0.3-8.7,0.1
		c-2.4-0.1-4.8,0.3-7.2-0.2c-1.5-0.4-3.4,0.6-3.2,1.7c0.2,1.3-0.2,2.5-0.1,3.7c0,0,0,0,0,0c-0.8,0.2-0.5,0.9-0.5,1.3
		c0,12.7,0,25.4,0,38.1C125,57.2,126,58.1,125.3,59z"/>
	<path fill="#E9292E" d="M125.3,59c0.8-0.9-0.3-1.9,0-2.8c0.3,0,0.6-0.2,0.5-0.5c-0.2-1.9,0.5-3.7,0.5-5.6c0.1-2.5-0.1-5.1-0.4-7.6
		c-0.3-2.3-0.1-4.7-0.1-7.1c0.7,0.6,1.7,1.1,1.7,2.3c0,0.5,0.3,0.7,0.8,0.8c-0.1,0.1-0.1,0.2-0.2,0.3c-0.9,0.1-0.6,0.8-0.6,1.3
		c0,3.9,0,7.8,0,11.7c0,0.8,0.1,1.5,0.4,2.2c0.4,0.8,0.4,1.9,0,2.6c-0.7,1.1-0.1,1.4,0.7,1.9c-0.2,0.4,0.2,1-0.5,1.1
		c-0.9-0.1-1.8,0.4-2.8,0C125.3,59.4,125.3,59.2,125.3,59z"/>
	<path fill="#E9292E" d="M128.1,30c0,0.2,0,0.4,0,0.6c-1.1,0.5-0.5,1.5-0.5,2.2c0.1,1.3-0.2,2.1-1.7,1.6c0.1-1.7-0.1-3.3,0.5-5
		c0.6-1.8-0.4-3.7-0.4-5.5c-0.1-2.3,0-4.6,0-6.9c0,0,0,0,0,0c1.8,0.3,0.7-1.5,1.4-2.1c0.3,0.5,0.2,1,0.2,1.4c0,4.2,0,8.3,0,12.5
		C127.5,29.2,127.2,29.8,128.1,30z"/>
	<path fill="#E7363A" d="M127.9,30c-0.8-0.1-0.5-0.8-0.5-1.3c0-4.2,0-8.3,0-12.5c0-0.5,0.1-1-0.2-1.4c-0.8,0.6,0.4,2.3-1.4,2.1
		c-0.2-1.2,0.2-2.5,0.1-3.7c-0.1-1.2,1.8-2.1,3.2-1.7c-1.1,0.5-1.2,1.4-1.1,2.4c0.2,3.3,0.8,6.6,0.5,10c0,0.5,0,1-0.2,1.5
		c0-0.5-0.1-1.1-0.2-1.6c-0.1,0,0,0-0.2,0C127.9,25.8,127.9,27.9,127.9,30z"/>
	<path fill="#E7363A" d="M128.5,58.4c-0.7-0.4-1.4-0.8-0.7-1.9c0.5-0.7,0.4-1.8,0-2.6c-0.3-0.8-0.4-1.5-0.4-2.2c0-3.9,0-7.8,0-11.7
		c0-0.5-0.3-1.2,0.6-1.3c0.4,0.7,0.5,1.4,0.5,2.2C128.5,46.8,128.5,52.6,128.5,58.4z"/>
	<path fill="#E93434" d="M136.7,33.8c2.2-0.2,4.7,0.3,7.2-0.5c0.7-0.2,0.5,0.7,0.6,1c0.2,0.5-0.4,0.9-0.8,0.8
		c-2.4-0.5-4.9,0-7.3-0.1c-1.7,0-3.3-0.3-5-0.1c-0.4,0-1,0.2-1-0.5c0-0.7,0.6-0.6,1-0.6C132.9,33.8,134.6,33.8,136.7,33.8z"/>
	<path fill="#E22328" d="M145,11.4c0.2-0.9-0.3-1.2-1.1-1.2c-4.1,0-8.2,0-12.3,0c-0.5,0-1.2,0.3-1.3-0.5c1.5,0,2.9,0,4.4,0
		c2.2,0,4.4,0,6.6,0c1.4,0,2.8,0,4.2,0c0.4,0,1-0.2,1.1,0.2c0.1,0.4,0.2,1-0.2,1.4C145.9,11.7,145.4,11.8,145,11.4z"/>
	<path fill="#E7363A" d="M125.8,34.4c1.5,0.5,1.7-0.3,1.7-1.6c0-0.7-0.6-1.7,0.5-2.2c-0.2,1.2,0.3,2.2,1.1,3
		c0.4,0.5,0.9,0.8-0.2,1.5c-1.2,0.7-1,2.2-0.7,3.4c-0.5-0.1-0.8-0.3-0.8-0.8c0-1.2-1-1.6-1.7-2.3C125.8,35.1,125.8,34.7,125.8,34.4z
		"/>
	<path fill="#DB343B" d="M141.2,9.7c-2.2,0-4.4,0-6.6,0C136.8,9.3,139,9.3,141.2,9.7z"/>
	<path fill="#DD292D" d="M125.3,59.5c0.9,0.5,1.8-0.1,2.8,0c-0.5,0.5-2.6,0.7-3,0.4C125,59.9,125.2,59.7,125.3,59.5z"/>
	<path fill="#E7363A" d="M176.8,23.4c-0.1-0.3-0.1-0.6-0.2-0.9c-0.1-0.5-0.2-0.9,0.3-1.2c0.5-0.3,0.7,0.3,1,0.4
		C177.9,22.6,177.5,23.2,176.8,23.4z"/>
	<path fill="#E22328" d="M177.8,46.9c-0.2,0.1-0.3,0.2-0.4,0.2c-0.1-0.1-0.3-0.2-0.3-0.4c-0.1-0.2,0.2-0.3,0.3-0.2
		C177.6,46.6,177.7,46.8,177.8,46.9z"/>
	<path fill="#E22328" d="M24,54.1c0-14.3,0-28.5,0-42.8c0-1.4,1.1-1.5,1.9-1.5c6.5-0.1,12.9,0,19.4-0.1c0.3,0,0.5,0.1,0.7,0.3
		c0,0.1-0.1,0.2-0.1,0.3c-6.1,0.4-12.3-0.8-18.4,0.7c-1.7,0.4-2.4,1-2.4,2.8c0,0.7,0,1.5,0,2.2c0,0.4,0,0.8,0.5,0.9
		c0.1,0.5-0.2,1,0.2,1.6c0.3-1,0.3-1-0.3-1.6c0-1.4,0-2.8,0-4.2c0.3,0,0.3,0,0.4,0c0.3,0.5,0.1,1.1,0.2,1.7c0.1,0.8,0.2,1.6,1.1,2
		c0,0.2,0,0.4,0,0.5c-0.8,0.1-0.5,0.7-0.5,1.2c-0.2,2.6,0.9,5,0.6,7.6c0,1.8,0.1,3.7-0.5,5.4c-0.7,0-0.8-1-1.5-0.9
		c-0.5,0.7,0.3,1.3,0.1,1.9c-0.8,2.5,0.3,4.9,0,7.4c-0.1,1.1,0.1,2.2,0.2,3.2c0.4,4.4-0.1,8.8-0.6,13.2c0,0-0.1,0.1-0.2,0.1
		C24.1,55.6,25.2,54.4,24,54.1z"/>
	<path fill="#E9292E" d="M24,54.1c1.2,0.3,0.1,1.5,0.8,2c0.1,0,0.2-0.1,0.2-0.1c0.4-4.4,0.9-8.8,0.6-13.2c-0.1-1.1-0.3-2.2-0.2-3.2
		c0.3-2.5-0.8-4.9,0-7.4c0.2-0.6-0.7-1.2-0.1-1.9c0.7-0.1,0.8,0.9,1.5,0.9c0.4,0.4,0.5,0.8,0.5,1.3c0,0.2,0,0.6,0.1,0.6
		c2,0.7,1.2,1.3,0,2.1c-0.2,0.1-0.2,0.7-0.2,1c0,1.5,0.3,3,0,4.5c0,0.5,0,0.9,0,1.4c0,0.3,0,0.7,0,1c0,1.5,0,3,0,4.4
		c0,1.4,0,2.9,0,4.3c0,0.7,0,1.5,0,2.2c0,0.3,0,0.5,0,0.8c-0.2,2.5-0.2,2.5,2.2,3.2c0,0.1,0,0.2,0,0.3c0.1,0.7,0.6,0.5,1.1,0.5
		c4.2,0,8.4,0,12.7,0c0.4,0,1,0.2,1-0.5c0.6,0.1,1.1-0.3,1.7,0c0.1,0.3,0.1,0.5,0.3,0.8c0.3,0.6,0.2,0.8-0.5,0.8
		C40,60,34.3,60.1,28.6,60c-1.2,0-2.5-0.3-3.7-0.4c-0.8,0-0.9-0.6-0.9-1.2C24,56.9,24,55.5,24,54.1z M26.7,36.7c0,0-0.3,0-0.3,0
		c0,6.1,0,12.1,0,18.2c0,0,0.3,0,0.3,0C26.7,48.9,26.7,42.8,26.7,36.7z"/>
	<path fill="#E9292E" d="M27.3,16.3c-0.9-0.4-1-1.1-1.1-2c0-0.6,0.1-1.2-0.2-1.7c-0.1,0-0.2,0-0.4,0c0,1.4,0,2.8,0,4.2l0,0
		c-0.6-0.1-0.5-0.5-0.5-0.9c0-0.7,0-1.5,0-2.2c0-1.8,0.7-2.3,2.4-2.8c6.1-1.5,12.3-0.3,18.4-0.7c0,0.2,0,0.4,0,0.6
		c-2.2,0-4.3,0-6.5,0c-0.5,0-1-0.2-1.2,0.6c-3,0-6.1,0-9.1,0c-1.4,0-1.8,0.4-1.8,1.8C27.3,14.2,27.3,15.3,27.3,16.3z"/>
	<path fill="#E9292E" d="M30.1,33.6c1.2,0,2.2-0.4,3.2,0.3c0.1,0.1,0.3,0.1,0.4,0.1c2.8-1.4,5.7-0.4,8.6-0.6
		c0.8-0.1,1.7-0.2,2.5-0.1c0.5,0.1,0.9,0,1.2,0.4c0.2,0.3,0.4,0.5,0.3,0.8c-0.1,0.4-0.5,0.4-0.8,0.4c-0.6,0-1.2,0.1-1.8,0
		c-4-0.6-7.9,0.1-11.9,0C31.1,34.9,30.5,34.7,30.1,33.6z"/>
	<path fill="#DD292D" d="M46,58.4c-0.6-0.3-1.1,0.1-1.7,0c-4.9,0-9.8,0-14.8,0c0-0.1,0-0.2,0-0.3c0-0.2,0.1-0.5,0.1-0.7
		c2.9,0,5.8,0,8.7,0c0.5,0.1,1,0.4,1.5,0.4c1.7,0,3.4,0.5,5-0.4c0.5,0.1,1.1-0.4,1.4,0.3C46.4,58.1,46.5,58.4,46,58.4z"/>
	<path fill="#E9292E" d="M27.4,25.6c0.4-2.6-0.8-5-0.6-7.6c0-0.5,0-1.1,0.5-1.2c0,0.7,0,1.4,0,2.2c0.3,0,0.2,0,0.2,0
		c0-0.6,0.1-1.2,0.1-1.8c0,0,0.2,0,0.2,0c0,3.6,0,7.2,0,10.9C27.2,27.3,27.9,26.4,27.4,25.6z"/>
	<path fill="#E22328" d="M38.3,11.4c0.1-0.7,0.7-0.6,1.2-0.6c2.2,0,4.3,0,6.5,0c0.1,0.1,0.2,0.2,0.3,0.3c0,0.1,0,0.2-0.1,0.3
		c-0.3,0.2-0.7,0.3-1.1,0.3c-0.7-0.9-1.5-0.7-2.2,0C41.4,11.5,39.8,11.9,38.3,11.4z"/>
	<path fill="#E93434" d="M27.3,54.1c0-0.7,0-1.5,0-2.2c0.4-1.4,0.4-2.9,0-4.3c0-1.5,0-3,0-4.4c0.6,0.1,0.5,0.5,0.5,0.9
		c0,3,0,6.1,0,9.1C27.9,53.5,27.9,54,27.3,54.1z"/>
	<path fill="#E93434" d="M42.9,11.6c0.7-0.7,1.5-0.9,2.2,0C44.4,11.6,43.7,11.6,42.9,11.6z"/>
	<path fill="#E93434" d="M27.3,42c0-0.5,0-0.9,0-1.4C28.2,41.1,28.2,41.6,27.3,42z"/>
	<path fill="#DB343B" d="M237.7,24.1c-1.3,5.4-1.7,10.9-0.8,16.4c0.9,5.3,2.6,10.3,6.9,14c0.8,0.6,1.6,1.1,2.4,1.7
		c-1.5,0.5-2.4-0.8-3.3-1.4c-0.9-0.6-1.5-1.7-2.3-2.4c-1.1-1-1.7-2.3-2.2-3.4c-1.1-2.1-2.4-4.2-2.1-6.7c0.1-1.1-1-1.8-1.3-2.9
		c-0.5,1.1-0.6,2.4-0.2,3.2c0.7,1.4,0.2,2.4-0.3,3.4c-0.2,0.5-0.3,0.9-0.4,1.4c-1-0.2-0.6-1.2-0.8-1.8c-1-2.2-1.7-4.5-1.4-6.9
		c0.1-1.1-0.4-2.2-0.6-3.3c-0.5-3.1,0.4-6,0.7-9c0.1-0.8,0.1-1.9,1-2.5c0.1,0.7-0.3,1.9,1.1,1.7l0,0c0.1,2.4-0.1,4.7-1,7
		c-0.2,0.6-0.6,1.5,0.6,1.9c0.6,0.2,0.4,0.8,0.4,1.2c0,1.1-0.1,2.1,0.8,3c0.1-0.1,0.2-0.1,0.2-0.2c-0.2-2.5,0.8-4.9,0.6-7.5
		c-0.2-1.9,0.2-3.7,1-5.5c0.2-0.4,0.1-1,0.1-1.5C237.2,24,237.5,24.1,237.7,24.1z"/>
	<path fill="#DB343B" d="M236.4,46.9c0,0.4-0.2,0.6-0.5,0.5c-0.4,0-0.5-0.3-0.5-0.6c0-0.3,0.3-0.4,0.6-0.4
		C236.3,46.5,236.3,46.7,236.4,46.9z"/>
	<path fill="#DB343B" d="M234.7,49.1c-0.9-0.3-0.4-1.1-0.5-1.6C235.2,47.8,234.5,48.6,234.7,49.1z"/>
	<path fill="#DB343B" d="M235.7,45.5c0,0.1,0,0.2-0.1,0.2c-0.1,0-0.1-0.1-0.2-0.1c0-0.1,0-0.2,0.1-0.2
		C235.6,45.4,235.7,45.5,235.7,45.5z"/>
	<path fill="#DB343B" d="M234.7,49.4c0-0.1,0-0.2,0-0.2c0,0.1,0.1,0.1,0.1,0.2C234.8,49.4,234.8,49.4,234.7,49.4z"/>
	<path fill="#E93434" d="M44.8,57.4c-1.6,0.9-3.3,0.4-5,0.4c-0.5,0-1-0.2-1.5-0.4C40.5,57.4,42.6,57.4,44.8,57.4z"/>
	<path fill="#DC454A" d="M46.2,11.1c-0.1-0.1-0.2-0.2-0.3-0.3c0-0.2,0-0.4,0-0.6c0-0.1,0.1-0.2,0.1-0.3
		C46.5,10.3,47.1,10.6,46.2,11.1z"/>
	<path fill="#E9292E" d="M178.1,49.8c0.3,0.6,0.7,1.2,1.1,1.8c0.1,0.2,0.4,0.5,0,0.7c-0.2,0.2-0.5,0.1-0.8-0.1
		C177.6,51.6,177.8,50.7,178.1,49.8z"/>
	<path fill="#E93434" d="M188.3,57.3c0.4,0,0.7,0.1,1.1,0.1c0,0.3,0,0.5,0,0.8C188.2,58.9,188.5,57.7,188.3,57.3z"/>
	<path fill="#DB343B" d="M181.7,52.7c0.5,0.1,1,0.2,1.1,0.8C182.3,53.4,181.7,53.4,181.7,52.7z"/>
	<path fill="#E93434" d="M190.1,58.4c0.2,0,0.4,0,0.5,0c-0.2,0.9-0.9,0.4-1.4,0.5c0,0,0,0,0,0C189.6,58.8,189.9,58.6,190.1,58.4z"/>
	<path fill="#DB343B" d="M181.1,51.8c0.5,0.1,0.6,0.4,0.5,0.8C181.3,52.5,181.1,52.2,181.1,51.8z"/>
	<path fill="#DB343B" d="M182.8,53.5c0.3,0,0.5,0.2,0.6,0.5C182.9,54.1,182.8,53.9,182.8,53.5z"/>
	<path fill="#DB343B" d="M180,50.2c0.4,0,0.5,0.2,0.5,0.5C180.2,50.8,180,50.6,180,50.2z"/>
	<path fill="#DB343B" d="M180.9,51.3c0.1,0.1,0.2,0.2,0.3,0.3C181,51.5,180.9,51.4,180.9,51.3z"/>
	<path fill="#E9292E" d="M192.3,11.1c-0.9-0.3-1.7-0.8-2.5,0.3c-0.4,0-0.7,0-1.1,0c-0.3,0-0.6-0.1-0.9,0.1c0.3,0.2,0.6,0.1,0.9,0.1
		c-0.5,0.3-1,0.6-1.7,0.3c0-0.8-1-0.9-1.1-1.6c1.9-0.4,3.7-0.6,5.6-1c1.6-0.4,3.3-0.1,5-0.1c0.1,0.4-0.5,0.1-0.4,0.5
		c1.6,0,3.1,0,4.7,0c0.5,0,1.1,0,1.4,0.4c0.2,0.3,0,0.8-0.2,1c-0.4,0.4-1.2,0.4-1.5,0.1c-1.3-1-3,0.1-4.3-0.8
		c-0.2-0.1-1.3,0.4-2,0.4c-0.2,0-0.4,0-0.6,0.2C193.2,11.1,192.8,11.1,192.3,11.1z"/>
	<path fill="#E7363A" d="M193.7,11.1c0.1-0.2,0.3-0.2,0.6-0.2C194.1,11,193.9,11.1,193.7,11.1z"/>
	<path fill="#DD292D" d="M180.8,13c0.1-0.1,0.2-0.1,0.3-0.2c0,0,0,0.1,0.1,0.1C181.1,12.9,181,13,180.8,13
		C180.9,13,180.8,13,180.8,13z"/>
	<path fill="#E22328" d="M189.3,59c0.5-0.1,1.2,0.3,1.4-0.5c0.3,0,0.6,0,0.8,0C191.1,60,190.1,59.2,189.3,59z"/>
	<path fill="#E93434" d="M246.2,13C246.2,13,246.1,13.1,246.2,13c-1-0.1-1.9-0.2-1.9,1.1c0,0,0,0,0,0c-0.1,0.1-0.2,0.2-0.3,0.3
		c0,0,0,0,0,0c-1.2,0-2.4,0.1-2.4,1.9c-0.5-0.5-0.9-0.8-1.3-1.1c-0.2-0.2-0.7-0.4-0.7,0.1c-0.1,1.1-1.9,1.4-1.3,2.7
		c-0.1,0-0.2,0.1-0.4,0.1c-1.4-0.7-0.8,0.8-1.3,1.2c-0.3,0.3-0.6,0.7-0.3,1.1c0.4,0.4,0.8,0.1,1.2-0.1c0.7,0.1,0.4,0.5,0.3,0.8
		c-0.3,0.1-0.5,0.3-0.6,0.6c-0.4-0.2-0.7-0.4-1.1-0.6c-0.8-0.2-1.2-0.3-0.7-1.4c0.4-0.9,0.7-1.9,1.3-2.7c0-0.1,0-0.2,0-0.2
		c0.2,0,0.4,0.1,0.6,0.1c0.2-1.5,1.9-1.8,2.4-3.2c1.5-1,2.9-2,4.4-3c0.5-0.1,0.9-0.2,1.4-0.3c0,0.7-0.8,0.6-1.1,1.1
		c0,0.2-0.1,0.7,0.3,0.7c0.4,0,0.2-0.4,0.3-0.6c0.9-0.2,1.8-0.4,2.7-0.3c0,0.4-0.3,0.6-0.6,0.5C246.4,11.8,246.1,12.3,246.2,13z"/>
	<path fill="#E7363A" d="M238,21.2c0.2-0.4,0.4-0.7-0.3-0.8c0.1-0.7,0.2-1.5,0.3-2.2c0.1,0,0.2-0.1,0.4-0.1
		c-0.6-1.4,1.2-1.6,1.3-2.7c0-0.5,0.5-0.3,0.7-0.1c0.4,0.3,0.7,0.6,1.3,1.1c0-1.8,1.2-1.9,2.4-1.9c-1.1,1.3-2.4,2.4-3.4,3.8
		c-1.3,1.8-2,3.9-3,5.9c-0.3-0.1-0.5-0.1-0.8-0.2c0.3-1-0.7-1.8-0.6-2.7c0.4,0.2,0.7,0.4,1.1,0.6c0,0.4,0.3,0.7,0.6,0.6
		C238.6,22.1,237.9,21.6,238,21.2z"/>
	<path fill="#E32930" d="M234.2,25.6c-0.3-1,0.6-1.8,0.6-2.8c0-0.3,0.3-0.4,0.6-0.4c0.3,0,0.5,0.2,0.5,0.5c0,0.8,0,1.7,0,2.5
		c-0.7,0-0.4-0.6-0.8-0.7C234.5,24.7,234.9,25.7,234.2,25.6C234.2,25.6,234.2,25.6,234.2,25.6z"/>
	<path fill="#E32930" d="M233.7,21.8c0.1-0.2,0.2-0.4,0.3-0.6c0.6,1,0.2,2.1-0.9,2.7c-0.1-0.5,0.1-1,0.5-1.3
		C234,22.3,234,22.1,233.7,21.8z"/>
	<path fill="#DD292D" d="M233.7,21.8c0.3,0.3,0.3,0.6,0,0.8C233.6,22.3,233.7,22.1,233.7,21.8z"/>
	<path fill="#E22328" d="M244.6,11.7c0.2-0.5,1.1-0.4,1.1-1.1c1.4-0.7,2.9-0.8,4.4-0.8c0,1-1.3,0.2-1.6,1c1.5,0.1,2.9-0.1,4.5-0.8
		c-1.1-0.4-2-0.2-2.6-0.8c0.5,0,1.1,0,1.6,0c0.3,0,0.5,0,0.8,0c1.5-0.3,2.9,0.7,4.4,0c0.5,1.1,1.5,0.3,2.2,0.5c0.9,0,1.8,0,2.7,0.3
		c0.1,0.2,0.3,0.3,0.6,0.3c0.4,0,0.7,0,1.1,0c0,0.3,0.2,0.5,0.6,0.5c0.7-0.2,1.1,0.4,1.6,0.6c-0.8,0.9-1.7,0.5-2.6,0.3
		c-1.1-0.3-2.2-1-3.4-0.8c-0.5,0-1-0.2-1.4,0.3c-0.4,0-0.9,0-1.3-0.1c-0.3-0.3-0.7-0.2-1.1-0.2c-0.9,0-1.8,0-2.7,0.3
		c-1.8-0.2-3.6,0.5-5.5,0.3c-0.9-0.1-1.8,0.1-2.7,0.3C245,11.7,244.8,11.7,244.6,11.7z"/>
	<path fill="#E93434" d="M259.9,10.8c1.2-0.1,2.3,0.5,3.4,0.8c0.9,0.2,1.8,0.6,2.6-0.3c0.1,0,0.2,0,0.3,0c0,0.4,0,0.7,0,1.1
		c-0.4,0.5-0.9,0.7-1.5,0.3c-0.4-0.3-0.8-0.3-1.3,0c-0.4,0.1-0.7-0.1-1.1-0.3c-0.6-0.8-1.6-0.7-2.5-1.1
		C259.9,11.2,259.9,11,259.9,10.8z"/>
	<path fill="#E93434" d="M250.4,9.2c0.6,0.6,1.5,0.4,2.6,0.8c-1.6,0.6-3,0.8-4.5,0.8c0.3-0.9,1.5-0.1,1.6-1
		C250.1,9.5,250.1,9.3,250.4,9.2z"/>
	<path fill="#E22328" d="M266.2,12.5c0-0.4,0-0.7,0-1.1c1.5,0.4,1.7,0.6,1.6,1.4c-0.3,0-0.5,0-0.8,0
		C266.8,12.4,266.5,12.5,266.2,12.5z"/>
	<path fill="#E93434" d="M259.4,9.7c-0.7-0.2-1.7,0.6-2.2-0.5C257.9,9.4,258.9,8.7,259.4,9.7z"/>
	<path fill="#E93434" d="M262.7,10.3c-0.2,0-0.4,0-0.6-0.3c0.1-0.2,0.3-0.3,0.6-0.2C262.9,9.9,262.7,10.1,262.7,10.3z"/>
	<path fill="#E93434" d="M264.3,10.8c-0.4,0-0.5-0.2-0.6-0.5C264.1,10.3,264.3,10.5,264.3,10.8z"/>
	<path fill="#E93434" d="M252.8,9.2c-0.3,0-0.5,0-0.8,0C252.3,8.8,252.5,8.8,252.8,9.2z"/>
	<path fill="#E7363A" d="M188.8,11.6c-0.3,0-0.6,0.1-0.9-0.1c0.3-0.2,0.6-0.1,0.9-0.1C188.8,11.5,188.8,11.6,188.8,11.6z"/>
	<path fill="#E9292E" d="M190.4,11.4c0.2-0.3,0.5-0.4,0.8,0C190.9,11.3,190.7,11.4,190.4,11.4z"/>
	<path fill="#DD4145" d="M81.2,15.2c0.4-0.1,0.8,0,0.9,0.5C81.7,15.7,81.4,15.5,81.2,15.2z"/>
	<path fill="#E9292E" d="M60.7,36.5c0,2.3,0,4.6,0,6.8c-0.9-0.3-0.9-1.1-0.8-1.8c0.3-1.4,0.2-2.8,0.2-4.2
		C60.2,37,60.1,36.6,60.7,36.5z"/>
	<path fill="#DD4145" d="M65.1,10.3c1.2,0.1,2.4-0.1,3.6,0.3c-1.4,0.4-2.8,0.2-4.2,0.2C64.7,10.6,64.9,10.5,65.1,10.3z"/>
	<path fill="#DD4145" d="M64.8,11.1c1.3,0,2.6,0,3.7,0c0,0,0,0,0,0.3c-1.1,0-2.5,0-3.7,0C64.8,11.1,64.8,11.1,64.8,11.1z"/>
	<path fill="#E9292E" d="M60.6,33c0,0.5,0,0.9,0,1.4C59.8,33.9,59.8,33.4,60.6,33z"/>
	<path fill="#E93434" d="M64.5,11.6c0.1,0.1,0.2,0.2,0.3,0.3c-0.1,0-0.2,0-0.3,0C64.5,11.8,64.5,11.7,64.5,11.6z"/>
	<path fill="#E93434" d="M74.1,11.9c0.7,0.1,1.5-0.5,1.9,0.5C75.4,12.4,74.6,12.7,74.1,11.9z"/>
	<path fill="#E93434" d="M78.8,13c0.6-0.2,0.5,0.2,0.6,0.5C79,13.6,78.8,13.4,78.8,13z"/>
	<path fill="#E93434" d="M77.7,12.5c0.5-1,1.3-0.5,2-0.3C79.1,12.6,78.3,12.4,77.7,12.5C77.7,12.5,77.7,12.5,77.7,12.5z"/>
	<path fill="#DD4145" d="M70.9,10.4c0,0.3-0.2,0.4-0.3,0.3c-0.1,0-0.4-0.1-0.4-0.2c-0.1-0.2,0.2-0.3,0.3-0.3
		C70.7,10.3,70.8,10.4,70.9,10.4z"/>
	<path fill="#E7363A" d="M266.2,12.5c0.3,0,0.6-0.1,0.8,0.3c-0.2,0.3-0.7,0.5-0.5,1c0.2,0.5,0.7,0.3,1,0.2c0.3-0.1,0.4,0,0.6,0.2
		c0.8,1.5,2.8,1.7,3.6,3.3c-0.4,0.6-1.1,0.4-1.7,0.4c-0.3-0.4-0.6-0.7-0.9-1.1c-0.2-0.2-0.3-0.8-0.7-0.2c-1.5-1.5-3.3-2.6-5-3.9
		c0.4-0.3,0.8-0.2,1.3,0C265.3,13.2,265.8,13,266.2,12.5z"/>
	<path fill="#E7363A" d="M247.9,11.4c1.8,0.2,3.6-0.4,5.5-0.3c0,0.1,0,0.2,0,0.2c-2.5,0.2-4.8,0.8-7.1,1.7c-0.1-0.8,0.1-1.2,1-1.1
		C247.6,11.9,247.8,11.8,247.9,11.4z"/>
	<path fill="#CF828B" d="M259.9,11.4c0.8,0.4,1.8,0.3,2.5,1.1c-1.7-0.4-3.4-0.7-5.2-1.1c0.5,0,0.9,0,1.4-0.1
		C259,11.4,259.5,11.4,259.9,11.4z"/>
	<path fill="#D54653" d="M258.5,11.3c-0.5,0-0.9,0-1.4,0.1c-1.3,0-2.6,0-3.8-0.1c0-0.1,0-0.2,0-0.2c0.9-0.3,1.8-0.3,2.7-0.3
		c0.3,0.3,0.7,0.2,1.1,0.2c0.4,0,0.9,0,1.3,0.1C258.5,11.2,258.5,11.2,258.5,11.3z"/>
	<path fill="#E7363A" d="M244.4,14.2c0-1.3,0.9-1.2,1.8-1.1C245.6,13.6,245.1,14,244.4,14.2z"/>
	<path fill="#DB343B" d="M268.4,16.6c0.4-0.6,0.5,0,0.7,0.2c0.3,0.4,0.6,0.7,0.9,1.1c-0.1,0.1-0.2,0.2-0.3,0.3
		C269.3,17.7,268.8,17.2,268.4,16.6z"/>
	<path fill="#DB343B" d="M270.3,19c0.4,0,0.6,0.2,0.4,0.6C270.4,19.6,270.4,19.3,270.3,19z"/>
	<path fill="#DB343B" d="M270,18.5c0.3,0,0.3,0.3,0.3,0.5C270.1,18.9,270,18.7,270,18.5z"/>
	<path fill="#E7363A" d="M244.1,14.4c0.1-0.1,0.2-0.2,0.3-0.3C244.3,14.2,244.2,14.3,244.1,14.4z"/>
	<path fill="#DD292D" d="M107.5,15.5c0.4,0.5,0.4,0.8,0.1,1.3C107.1,16.4,107.2,16,107.5,15.5z"/>
	<path fill="#DD292D" d="M109.4,21.2c0,0.2,0.1,0.5-0.2,0.7c-0.1,0-0.2-0.1-0.2-0.2C108.9,21.3,109.1,21.3,109.4,21.2
		C109.4,21.2,109.4,21.2,109.4,21.2z"/>
	<path fill="#E22328" d="M125.8,34.4c0,0.4,0,0.7,0,1.1c0,2.4-0.2,4.7,0.1,7.1c0.3,2.5,0.5,5.1,0.4,7.6c-0.1,1.9-0.8,3.7-0.5,5.6
		c0,0.3-0.2,0.5-0.5,0.5c0-12.7,0-25.4,0-38.1c0-0.5-0.3-1.2,0.5-1.3c0,2.3-0.1,4.6,0,6.9c0.1,1.9,1.1,3.8,0.4,5.5
		C125.7,31,126,32.7,125.8,34.4z"/>
	<path fill="#E9292E" d="M25.7,16.8c0.6,0.6,0.6,0.6,0.3,1.6C25.5,17.9,25.8,17.3,25.7,16.8C25.7,16.8,25.7,16.8,25.7,16.8z"/>
	<path fill="#E22328" d="M26.7,36.7c0,6.1,0,12.1,0,18.2c0,0-0.3,0-0.3,0c0-6.1,0-12.1,0-18.2C26.4,36.7,26.7,36.7,26.7,36.7z"/>
	<path fill="#E7363A" d="M29.5,58.4c4.9,0,9.8,0,14.8,0c-0.1,0.7-0.6,0.5-1,0.5c-4.2,0-8.4,0-12.7,0C30.1,59,29.6,59.1,29.5,58.4z"
		/>
	<path fill="#DC454A" d="M27.3,47.5c0.4,1.4,0.4,2.9,0,4.3C27.3,50.4,27.3,49,27.3,47.5z"/>
	<path fill="#DD292D" d="M238.1,18.2c-0.1,0.7-0.2,1.5-0.3,2.2c-0.4,0.2-0.9,0.5-1.2,0.1c-0.3-0.4,0-0.8,0.3-1.1
		C237.2,19,236.6,17.6,238.1,18.2z"/>
	<path fill="#DD292D" d="M238,21.2c-0.1,0.4,0.6,0.8,0,1.1c-0.3,0.1-0.5-0.2-0.6-0.6C237.6,21.5,237.8,21.3,238,21.2z"/>
	<path fill="#E7363A" d="M244.6,11.7c0.2,0,0.4,0,0.5,0c0,0.2,0.1,0.7-0.3,0.6C244.5,12.3,244.6,11.9,244.6,11.7z"/>
	<path fill="#E7363A" d="M258.5,11.3c0-0.1,0-0.1,0-0.2c0.4-0.5,0.9-0.2,1.4-0.3c0,0.2,0,0.4,0,0.6C259.5,11.4,259,11.4,258.5,11.3z
		"/>
	<path fill="#E7363A" d="M257.2,11.1c-0.4,0-0.8,0.1-1.1-0.2C256.5,10.8,256.9,10.7,257.2,11.1z"/>
</g>
</svg>
