<?xml version="1.0" encoding="utf-8"?>
<!-- Generator: Adobe Illustrator 18.1.1, SVG Export Plug-In . SVG Version: 6.00 Build 0)  -->
<svg version="1.1" id="Layer_1" xmlns="http://www.w3.org/2000/svg" xmlns:xlink="http://www.w3.org/1999/xlink" x="0px" y="0px"
	 viewBox="0 0 50 50" enable-background="new 0 0 50 50" xml:space="preserve">
<g>
	<path fill="#FFFFFF" d="M25.7,49.9c-0.3-0.2-0.7-0.4-1-0.8c-2.1-2-4.2-4.2-6.3-6.2c-0.1-0.1-0.2-0.2-0.3-0.4
		c2.7-1.2,5.3-2.5,7.9-3.7c0.7-0.3,1.3-0.6,2-0.9c0.2-0.1,0.3-0.1,0.6,0.1c1.3,1.3,2.7,2.7,3.9,3.9c0.7,0.7,0.7,1.5,0,2.1
		c-1.8,1.8-3.5,3.6-5.3,5.3c-0.2,0.2-0.4,0.3-0.8,0.4C26.1,49.9,25.9,49.9,25.7,49.9z"/>
	<path fill="#FFFFFF" d="M29.4,0.1c0.8,0.3,1.1,1,1.1,1.9s0,1.7,0,2.6S29.9,6.2,29,6.2c-0.8,0-1.5-0.7-1.5-1.6c0-0.8,0-1.7,0-2.5
		c0-0.9,0.2-1.6,1-1.9C28.8,0.1,29.1,0.1,29.4,0.1z"/>
	<path fill="#FFFFFF" d="M43,26.3c0,0.9-0.4,1.3-1.1,1.7c-2.4,1.1-4.6,2.1-7,3.3c-6.2,2.9-12.5,5.8-18.7,8.8
		c-0.3,0.1-0.4,0.1-0.8-0.1c-2.6-2.6-5.1-5.1-7.6-7.6c-0.2-0.2-0.3-0.4-0.1-0.8c4-8.5,8.1-17.1,12-25.6c0.6-1.2,1.7-1.3,2.6-0.4
		c6.6,6.6,13.3,13.3,19.9,19.9C42.6,25.7,42.8,26.1,43,26.3z"/>
	<path fill="#FFFFFF" d="M5.4,34c2.8,2.8,5.5,5.5,8.2,8.2c-0.8,0.8-1.6,1.7-2.5,2.5c-0.6,0.6-1.5,0.6-2,0c-2.1-2-4.2-4.2-6.3-6.3
		c-0.6-0.6-0.6-1.3,0-2C3.8,35.7,4.6,34.9,5.4,34z"/>
	<path fill="#FFFFFF" d="M38.5,10.8c-0.8,0-1.2-0.3-1.5-0.9c-0.2-0.6-0.2-1.1,0.2-1.6c1.1-1.1,2.1-2.2,3.3-3.3
		c0.6-0.4,1.5-0.3,1.9,0.1c0.6,0.6,0.7,1.3,0.1,2c-1,1.1-2.1,2.2-3.3,3.3C39,10.7,38.7,10.8,38.5,10.8z"/>
	<path fill="#FFFFFF" d="M44.6,20.3c-0.4,0-1,0-1.5,0c-0.9,0-1.6-0.7-1.5-1.5c0-0.8,0.7-1.5,1.5-1.5c1,0,2,0,3,0
		c0.9,0,1.5,0.6,1.5,1.3c0,0.8-0.6,1.5-1.5,1.5C45.6,20.3,45.1,20.2,44.6,20.3C44.6,20.2,44.6,20.3,44.6,20.3z"/>
</g>
</svg>
