<?xml version="1.0" encoding="utf-8"?>
<!-- Generator: Adobe Illustrator 18.1.1, SVG Export Plug-In . SVG Version: 6.00 Build 0)  -->
<svg version="1.1" id="Layer_1" xmlns="http://www.w3.org/2000/svg" xmlns:xlink="http://www.w3.org/1999/xlink" x="0px" y="0px"
	 viewBox="0 0 50 50" enable-background="new 0 0 50 50" xml:space="preserve">
<g id="Layer_2">
	<path fill="#FFFFFF" d="M0,36.8c0.1-0.2,0.1-0.4,0.2-0.6c0.3-1.2,0.9-2.1,1.9-2.8c3.1-2,6.3-4,9.4-6c3.6-2.3,7.2-4.6,10.8-6.8
		c0.3-0.2,0.5-0.4,0.5-0.9c0-0.5,0-1.1,0-1.7c0-1.2,0.5-2.1,1.4-2.7c0.6-0.4,1.2-0.8,1.9-1.3c0.6-0.4,0.9-0.9,0.8-1.6
		c-0.1-0.6-0.6-1.2-1.4-1.3c-0.6-0.1-1.2,0-1.7,0.1c-0.7,0.2-1.1,0.7-1.3,1.5c-0.1,0.4-0.1,0.9-0.1,1.3c0,0.5-0.2,0.8-0.6,0.9
		c-0.9,0.3-1.9,0.3-2.8,0c-0.4-0.1-0.7-0.4-0.6-0.9c0.1-1.6,0.3-3.2,1.3-4.6c1.2-1.6,2.8-2.4,4.8-2.5c2.7-0.1,4.9,1,6.2,3.5
		c1.3,2.4,0.6,5.2-1.6,6.8c-0.5,0.3-0.9,0.6-1.4,0.9c-0.7,0.5-0.7,1.3-0.6,2.1c0,0.1,0.3,0.3,0.4,0.4c5.3,3.3,10.7,6.7,16,10
		c1.3,0.8,2.7,1.7,4,2.5c1.4,0.8,2.2,2,2.5,3.6c0,0.1,0.1,0.2,0.1,0.3c0,0.5,0,1,0,1.5c-0.3,0.7-0.5,1.5-0.9,2.2
		c-1.1,1.6-2.8,2.2-4.7,2.2c-12.8,0-25.6,0-38.5,0c-0.2,0-0.5,0-0.7,0c-2.2-0.1-3.9-1.1-4.8-3.2c-0.2-0.4-0.3-0.9-0.4-1.4
		C0,37.8,0,37.3,0,36.8z M25.1,38.6c6.4,0,12.7,0,19.1,0c0.2,0,0.4,0,0.6,0c0.6-0.1,1-0.7,0.7-1.2c-0.1-0.3-0.4-0.5-0.7-0.6
		c-6.4-4-12.9-8.1-19.3-12.1c-0.3-0.2-0.5-0.2-0.9,0c-6.2,3.9-12.3,7.7-18.5,11.6c-0.4,0.2-0.8,0.5-1.1,0.7c-0.3,0.2-0.5,0.6-0.4,1
		c0.1,0.4,0.4,0.6,0.8,0.7c0.2,0,0.4,0,0.5,0C12.4,38.6,18.7,38.6,25.1,38.6z"/>
</g>
</svg>
