<?xml version="1.0" encoding="utf-8"?>
<!-- Generator: Adobe Illustrator 18.1.1, SVG Export Plug-In . SVG Version: 6.00 Build 0)  -->
<svg version="1.1" id="Layer_1" xmlns="http://www.w3.org/2000/svg" xmlns:xlink="http://www.w3.org/1999/xlink" x="0px" y="0px"
	 viewBox="0 0 50 50" enable-background="new 0 0 50 50" xml:space="preserve">
<path fill="#FFFFFF" d="M0,6.3C0,6,0,5.7,0,5.4c0.7-1.7,1.3-2,3.1-2c6,0,12,0,18,0c0.2,0,0.4,0,0.6,0c0-0.3,0-0.5,0-0.8
	c0-1,0.4-1.7,1.2-2.2c0.2-0.1,0.5-0.2,0.7-0.4c0.9,0,1.8,0,2.7,0c0.1,0,0.1,0.1,0.2,0.1c1.2,0.4,1.8,1.3,1.8,2.5c0,0.2,0,0.4,0,0.7
	c0.4,0,0.7,0,1,0c6,0,12,0,18,0c1.4,0,2.2,0.6,2.6,1.9L50,5.3c0,0.3,0,0.6,0,0.9c-0.3,1-0.8,1.7-1.9,2c-0.2,0.1-0.4,0.1-0.6,0.1
	c0,0.2,0,0.4,0,0.7c0,9,0,18.1,0,27.1c0,0.2,0,0.5,0,0.7c-0.1,1.4-0.8,2.4-2.1,2.9C44.9,40,44.3,40,43.7,40c-5.7,0-11.5,0-17.2,0
	c-0.2,0-0.4,0-0.7,0c0,1,0,2,0,2.9c0,0.4,0.1,0.5,0.4,0.7c1.3,0.5,2.1,1.8,2,3.2c0,1.3-1,2.5-2.2,3c-0.2,0.1-0.3,0.1-0.5,0.2
	c-0.4,0-0.8,0-1.2,0c-0.2-0.1-0.4-0.1-0.5-0.2c-1.2-0.5-2-1.4-2.2-2.7s0.3-2.6,1.5-3.2c0.9-0.5,1.1-1.1,1-1.9c0-0.5,0-1,0-1.5
	c0-0.2,0-0.3,0-0.5c-0.3,0-0.5,0-0.7,0c-5.7,0-11.4,0-17,0c-0.3,0-0.6,0-0.9,0c-1.3-0.2-2.3-0.9-2.7-2.1c-0.2-0.5-0.2-1-0.2-1.6
	c0-9.1,0-18.2,0-27.3c0-0.2,0-0.4,0-0.6C2.3,8.4,2.1,8.3,2,8.3C0.8,8,0.3,7.2,0,6.3z M4.2,8.3c0,0.2,0,0.4,0,0.6
	c0,9.1,0,18.3,0,27.4c0,1.4,0.6,2,2,2c12.6,0,25.2,0,37.7,0c1.3,0,1.9-0.6,1.9-1.9c0-9.2,0-18.3,0-27.5c0-0.2,0-0.3,0-0.5
	C31.9,8.3,18.1,8.3,4.2,8.3z M25,6.7c7.3,0,14.7,0,22,0c0.2,0,0.4,0,0.6,0c0.4,0,0.7-0.4,0.7-0.8s-0.2-0.7-0.6-0.8
	c-0.2-0.1-0.4,0-0.6,0C32.4,5,17.6,5,2.9,5C2.7,5,2.6,5,2.5,5C2,5,1.7,5.4,1.7,5.8c0,0.5,0.4,0.8,0.9,0.8c0.2,0,0.3,0,0.5,0
	C10.3,6.7,17.7,6.7,25,6.7z M26.7,46.7c0-0.9-0.7-1.7-1.7-1.7c-0.9,0-1.6,0.7-1.7,1.6c0,0.9,0.7,1.7,1.6,1.7
	C25.9,48.3,26.7,47.6,26.7,46.7z M26.7,3.3c0-0.3,0-0.5,0-0.8c0-0.5-0.3-0.8-0.8-0.8c-0.6,0-1.1,0-1.7,0c-0.4,0-0.7,0.3-0.8,0.7
	c0,0.3,0,0.6,0,1C24.5,3.3,25.5,3.3,26.7,3.3z"/>
<path fill="#FFFFFF" d="M26.7,46.7c0,0.9-0.8,1.7-1.7,1.7c-0.9,0-1.7-0.8-1.6-1.7c0-0.9,0.7-1.6,1.7-1.6
	C25.9,45,26.7,45.7,26.7,46.7z"/>
<path fill="#FFFFFF" d="M20.8,27.6c-0.4-0.2-0.8-0.4-1.2-0.6c-0.6-0.3-1.2-0.1-1.4,0.6c-0.5,1.5-0.5,1.5-2.1,1.6c-0.1,0-0.1,0-0.2,0
	c-2.2-0.1-1.8-0.1-2.4-1.7c-0.2-0.6-0.8-0.8-1.3-0.5h-0.1c-1.4,0.7-1.4,0.7-2.6-0.4l-0.1-0.1c-1.2-1.3-1.3-1.3-0.5-2.8
	c0.3-0.5,0-1.2-0.5-1.3H8.3c-1.5-0.5-1.5-0.5-1.6-2c0-0.5,0-1,0.1-1.5c0-0.4,0.3-0.7,0.7-0.8C7.7,18,8,17.9,8.2,17.9
	c0.8-0.3,1-0.8,0.6-1.6C8.1,15,8.1,15,9.2,13.9c0.3-0.4,0.7-0.7,1.1-1c0.3-0.3,0.7-0.3,1-0.1c0.2,0.1,0.5,0.2,0.7,0.4
	c0.8,0.4,1.3,0.2,1.6-0.7c0.4-1.4,0.5-1.5,2-1.5c0.5,0,1,0.1,1.5,0.1c0.4,0,0.7,0.3,0.8,0.7c0.1,0.2,0.2,0.5,0.2,0.7
	c0.3,0.8,0.8,1.1,1.6,0.6c1.3-0.7,1.3-0.7,2.4,0.3c0.4,0.3,0.7,0.7,1,1.1c0.3,0.3,0.3,0.7,0.1,1c-0.1,0.2-0.2,0.5-0.4,0.7
	c-0.4,0.8-0.2,1.3,0.7,1.6c1.4,0.4,1.5,0.5,1.5,2c0,0.5,0,1-0.1,1.5c0,0.4-0.2,0.7-0.6,0.8c-0.3,0.1-0.5,0.2-0.8,0.3
	c-0.8,0.3-1.1,0.8-0.6,1.6c0.7,1.3,0.7,1.4-0.4,2.4c-0.3,0.4-0.7,0.7-1.1,1C21.2,27.4,21,27.5,20.8,27.6z M10.1,15.2
	c0.8,0.9,0.8,1.9,0.2,3c-0.3,0.5-0.5,0.9-1.1,1c-0.2,0-0.3,0.1-0.5,0.1c-0.5,0.1-0.4,0.4-0.4,0.8c0,0.3,0,0.6,0.5,0.7
	c0.9,0.1,1.5,0.6,1.7,1.5c0,0.1,0.1,0.2,0.1,0.3c0.4,0.6,0.3,1.1,0,1.6c-0.1,0.1-0.1,0.3-0.2,0.4c-0.3,0.4,0,0.6,0.2,0.8
	c0.2,0.2,0.4,0.5,0.8,0.2c0.8-0.6,1.6-0.7,2.4-0.1h0.1c0.8,0.1,1.2,0.6,1.3,1.4c0,0.1,0.1,0.3,0.1,0.4s0.1,0.2,0.2,0.2
	c0.5,0.2,1.1,0,1.2-0.5c0.2-0.7,0.5-1.2,1.3-1.5c1-0.4,1.8-0.5,2.6,0.1c0.1,0.1,0.3,0.1,0.3,0c0.6-0.3,0.7-0.7,0.4-1.3
	c0-0.1-0.1-0.2-0.1-0.3c-0.3-0.5-0.4-0.9,0-1.5c0.2-0.2,0.3-0.5,0.3-0.8c0.1-0.5,0.4-0.7,0.9-0.9c0.2,0,0.4-0.2,0.6-0.2
	c0.5-0.1,0.4-0.4,0.5-0.8c0-0.4,0-0.6-0.5-0.7c-0.9-0.1-1.5-0.6-1.7-1.5v-0.1c-0.5-0.7-0.4-1.4,0.1-2c0.3-0.4,0.2-0.7-0.2-1
	c-0.3-0.3-0.5-0.3-0.8-0.1c-0.7,0.5-1.4,0.6-2.2,0.1c-0.1-0.1-0.3-0.1-0.5-0.2c-0.5-0.1-0.8-0.4-0.9-0.9c0-0.2-0.2-0.4-0.2-0.6
	c-0.1-0.5-0.4-0.5-0.7-0.5s-0.6,0-0.7,0.5c-0.1,0.9-0.6,1.5-1.5,1.7c-0.1,0-0.2,0.1-0.3,0.1c-0.5,0.3-1,0.3-1.5,0
	C10.9,14.2,10.9,14.2,10.1,15.2z"/>
<path fill="#FFFFFF" d="M32.6,10.8c1.1,0,2.1,0,3.2,0c1.5,0,2.6,1.1,2.6,2.5s-1.1,2.5-2.6,2.5c-2.2,0-4.4,0-6.5,0
	c-1.5,0-2.6-1.1-2.6-2.5s1.1-2.5,2.6-2.5C30.4,10.8,31.5,10.8,32.6,10.8z M32.5,14.2c1.1,0,2.1,0,3.2,0c0.7,0,1-0.3,1-0.9
	c0-0.5-0.4-0.8-1-0.8c-2.1,0-4.2,0-6.3,0c-0.6,0-1,0.3-1,0.8s0.4,0.9,1,0.9C30.4,14.2,31.4,14.2,32.5,14.2z"/>
<path fill="#FFFFFF" d="M17.5,34.2c3.2,0,6.4,0,9.6,0c0.2,0,0.3,0,0.5,0c0.4,0,0.7,0.3,0.7,0.7c0.1,0.4-0.1,0.7-0.5,0.9
	c-0.2,0.1-0.4,0.1-0.6,0.1c-6.5,0-12.9,0-19.4,0c-0.2,0-0.4,0-0.6-0.1c-0.4-0.1-0.5-0.5-0.5-0.9c0.1-0.4,0.3-0.6,0.7-0.7
	c0.2,0,0.3,0,0.5,0C11.1,34.2,14.3,34.2,17.5,34.2z"/>
<path fill="#FFFFFF" d="M35.4,20c-2.3,0-4.6,0-6.9,0c-0.5,0-0.8-0.1-0.9-0.6s0.2-1,0.7-1c0.2,0,0.3,0,0.5,0c4.5,0,8.9,0,13.4,0
	c0.1,0,0.2,0,0.3,0c0.5,0,0.9,0.4,0.9,0.8c0,0.5-0.4,0.8-0.9,0.8C40.1,20,37.7,20,35.4,20z"/>
<path fill="#FFFFFF" d="M35.5,27.5c2.2,0,4.4,0,6.6,0c0.2,0,0.4,0,0.6,0c0.4,0.1,0.6,0.4,0.6,0.8s-0.2,0.7-0.6,0.8
	c-0.2,0.1-0.4,0.1-0.6,0.1c-4.5,0-9,0-13.5,0c-0.2,0-0.3,0-0.5,0c-0.4-0.1-0.7-0.4-0.7-0.8s0.3-0.7,0.7-0.8c0.2,0,0.4,0,0.5,0
	C31,27.5,33.2,27.5,35.5,27.5z"/>
<path fill="#FFFFFF" d="M38.8,24.2c-1.2,0-2.4,0-3.6,0c-0.6,0-1-0.3-1-0.8s0.4-0.8,1-0.8c2.4,0,4.8,0,7.2,0c0.6,0,1,0.3,1,0.8
	s-0.4,0.8-1,0.8C41.2,24.2,40,24.2,38.8,24.2z"/>
<path fill="#FFFFFF" d="M29.9,24.2c-0.5,0-1.1,0-1.6,0s-0.9-0.3-0.9-0.8s0.3-0.9,0.8-0.9c1.1,0,2.2,0,3.3,0c0.5,0,0.9,0.4,0.9,0.9
	s-0.4,0.8-0.9,0.8C31,24.2,30.4,24.2,29.9,24.2z"/>
<path fill="#FFFFFF" d="M15.9,24.2c-2.3,0-4.2-1.8-4.2-4.1s1.8-4.2,4.1-4.2s4.2,1.9,4.2,4.2C20,22.3,18.2,24.1,15.9,24.2z
	 M15.8,22.5c1.4,0,2.5-1.1,2.5-2.5s-1.1-2.5-2.5-2.5s-2.5,1.1-2.5,2.5C13.4,21.4,14.4,22.5,15.8,22.5z"/>
</svg>
