<?xml version="1.0" encoding="utf-8"?>
<!-- Generator: Adobe Illustrator 18.1.1, SVG Export Plug-In . SVG Version: 6.00 Build 0)  -->
<svg version="1.1" id="Layer_1" xmlns="http://www.w3.org/2000/svg" xmlns:xlink="http://www.w3.org/1999/xlink" x="0px" y="0px"
	 viewBox="0 0 50 50" enable-background="new 0 0 50 50" xml:space="preserve">
<g>
	<path fill="#FFFFFF" d="M0,42.5c0-10.8,0-21.6,0-32.4c0.3,0,0.2,0.2,0.3,0.4c1.6,4.9,3.3,9.8,4.9,14.7c0.7,2.2,2.3,3.3,4.6,3.3
		c2.5,0,5,0,7.6,0c0.3,0,0.4,0,0.4,0.4c0,0.4,0,0.7,0,1.1c0,0.8,0.6,1.4,1.4,1.4c3.9,0,7.8,0,11.8,0c0.8,0,1.4-0.6,1.4-1.5
		c0-0.3,0-0.7,0-1c0-0.4,0.1-0.4,0.5-0.4c2.5,0,4.9,0,7.4,0c2.4,0,3.9-1.1,4.7-3.4c1.4-4.2,2.8-8.4,4.2-12.6
		c0.3-0.9,0.6-1.8,0.9-2.8c0,0.2,0,0.2,0,0.3c0,10.5,0,21,0,31.5c0,2.6-1.9,4.5-4.6,4.5c-13.6,0-27.2,0-40.9,0
		c-2.2,0-3.7-1.2-4.4-3.2C0.1,42.7,0.2,42.6,0,42.5z"/>
	<path fill="#FFFFFF" d="M2.6,7.9c3.8,0,7.6,0,11.3,0c0.8,0,0.8,0,0.8-0.8c0-1.2,0.2-2.3,0.9-3.3c0.9-1.1,2.1-1.7,3.5-1.7
		c3.9,0,7.8,0,11.7,0c2.5,0,4.4,1.9,4.4,4.4c0,0.5-0.2,1.1,0.1,1.3c0.3,0.3,0.9,0.1,1.4,0.1c3.4,0,6.8,0,10.2,0c0.2,0,0.4,0,0.6,0
		c-0.4,1.2-0.8,2.5-1.2,3.7c-1.4,4.2-2.8,8.4-4.2,12.6c-0.4,1.1-0.8,1.4-1.9,1.4c-2.5,0-4.9,0-7.4,0c-0.4,0-0.5-0.1-0.4-0.5
		c0-0.3,0-0.6,0-0.9c0-0.9-0.6-1.5-1.6-1.6c-2.5,0-5,0-7.5,0c-1.3,0-2.6,0-4,0c-1,0-1.6,0.6-1.6,1.6c0,0.4,0.2,1-0.1,1.3
		c-0.2,0.2-0.8,0.1-1.2,0.1c-2.2,0-4.4,0-6.6,0c-1,0-1.4-0.3-1.7-1.2C6.2,18.9,4.4,13.5,2.6,8.1C2.6,8.1,2.6,8,2.6,7.9z M25,7.9
		c2,0,4,0,5.9,0c0.4,0,1.1,0.2,1.3-0.1c0.2-0.3,0.1-0.9,0.1-1.4c0-0.8-0.6-1.5-1.4-1.5C27,5,23,5,19.1,5c-0.8,0-1.4,0.6-1.4,1.5
		c0,0.4,0,0.7,0,1.1c0,0.3,0.1,0.4,0.4,0.4C20.4,7.9,22.7,7.9,25,7.9z"/>
	<path fill="#FFFFFF" d="M25,28.5c-1.3,0-2.7,0-4,0c-0.3,0-0.4-0.1-0.4-0.4c0-0.7,0-1.5,0-2.2c0-0.2,0.1-0.3,0.3-0.3
		c2.7,0,5.4,0,8.2,0c0.2,0,0.3,0.1,0.3,0.3c0,0.7,0,1.5,0,2.2c0,0.3-0.1,0.4-0.4,0.4C27.7,28.4,26.3,28.5,25,28.5z"/>
</g>
</svg>
