<?xml version="1.0" encoding="utf-8"?>
<!-- Generator: Adobe Illustrator 18.1.1, SVG Export Plug-In . SVG Version: 6.00 Build 0)  -->
<svg version="1.1" id="Layer_1" xmlns="http://www.w3.org/2000/svg" xmlns:xlink="http://www.w3.org/1999/xlink" x="0px" y="0px"
	 viewBox="0 0 50 50" enable-background="new 0 0 50 50" xml:space="preserve">
<g id="Layer_2">
	<path fill="#FFFFFF" d="M24.7,4.9c0.7,0.1,1.4,0.2,2.1,0.4c3.9,1.2,6.6,3.6,7.6,7.6c0,0.1,0.1,0.3,0.1,0.4c0,0.4,0.2,0.6,0.4,0.9
		c0.2,0.3,0.4,0.7,0.5,1.1c0.1,1.5,0,2.9,0,4.4c0,0.9-0.8,1.6-1.7,1.7c-0.5,0-0.9,0-1.4,0c-0.3,0-0.4,0.1-0.5,0.3
		c-1.3,2.1-3.2,3.1-5.6,3.4c-0.1,0-0.2,0-0.3-0.1c-0.7-0.6-1.5-0.4-2.3-0.2c-0.5,0.1-0.8,0.7-0.7,1.2c0.1,0.5,0.5,0.9,1,0.9
		c0.5,0,0.9,0,1.4,0c0.1,0,0.2,0,0.3-0.1c0.5-0.5,1.2-0.5,1.8-0.6c1.3-0.3,2.5-0.8,3.6-1.6c0,0,0.1,0,0.1,0.1
		c-0.4,0.6-0.7,1.3-1.1,1.9c-1.7,2.4-4.2,3.3-7,3c-3.2-0.4-5.3-2.4-6.6-5.2c-0.4-0.9-0.7-1.8-0.9-2.8c-0.1-0.3-0.2-0.3-0.4-0.3
		c-0.4,0-0.9,0-1.3,0c-1,0-1.8-0.8-1.8-1.7c0-1.4,0-2.8,0-4.3c0-0.4,0.2-0.8,0.5-1.2c0.2-0.3,0.3-0.5,0.4-0.8
		c0.6-3.3,2.6-5.7,5.5-7.3c1.2-0.7,2.6-1.1,4-1.2c0.1,0,0.2-0.1,0.3-0.1C23.2,4.9,23.9,4.9,24.7,4.9z M32,14.1
		c0.5-0.1,0.5-0.5,0.4-0.9c-0.4-1.2-0.9-2.3-1.9-3.3C27.5,7,24,6.3,20.2,7.6c-2.7,0.9-4.6,2.8-5.4,5.6c-0.2,0.6-0.2,0.6,0.4,0.9
		c0-0.1,0-0.1,0.1-0.2c0.8-2.2,2.3-3.6,4.4-4.5C21.7,8.7,23.8,8.6,26,9c1.9,0.4,3.6,1.3,4.7,2.9C31.2,12.6,31.5,13.3,32,14.1z"/>
	<path fill="#FFFFFF" d="M31.9,47.7c-9,0-17.9,0-26.9,0c0.1-0.8,0.1-1.6,0.2-2.3c0.2-1.9,0.5-3.9,0.8-5.8c0.1-0.9,0.5-1.7,0.8-2.5
		c0.3-0.8,0.9-1.2,1.7-1.5c2.6-1,5.2-2.1,7.8-3.1c0.3-0.1,0.7-0.4,1-0.6c0.5-0.4,1-0.9,1.5-1.3c0.7-0.5,1.4-0.5,2,0.1
		c0.8,0.8,1.7,1.6,2.5,2.5c0.1,0.1,0.2,0.2,0.4,0.3c0.7-0.7,1.4-1.5,2.1-2.2c0.2-0.2,0.5-0.5,0.7-0.7c0.6-0.5,1.2-0.5,1.8-0.1
		c0.2,0.2,0.4,0.3,0.6,0.5c1,1.1,2.4,1.6,3.8,2.1c0.6,0.2,1.2,0.5,1.9,0.8c-2.7,1.3-4.5,3.3-5,6.2C29,43,29.8,45.5,31.9,47.7z"/>
	<path fill="#FFFFFF" d="M45,41.7c0,3.8-3.1,6.9-6.9,6.9c-3.8,0-6.9-3.1-6.9-6.9c0-3.8,3.1-6.9,6.9-6.9C41.9,34.7,45,37.8,45,41.7z
		 M37.2,41.1c-0.4,0.3-0.7,0.6-0.9,0.9c-0.2,0.2-0.4,0.3-0.7,0.3c-1-0.1-1.8,0.5-2,1.5c0,0.1,0,0.3,0,0.4c0,0,0.1,0.1,0.1,0.1
		c0.5-0.8,1.2-0.7,1.7-0.3c0.4,0.4,0.5,1.2-0.2,1.7c0.2,0.1,0.3,0.1,0.4,0.1c0.9-0.1,1.6-1,1.5-1.9c0-0.2,0-0.4,0-0.5
		c0.3-0.4,0.7-0.7,1-1.1c0.2,0.2,0.4,0.3,0.6,0.5c-0.2,0.1-0.3,0.2-0.4,0.4c-0.1,0.1-0.2,0.4-0.2,0.4c0.2,0.2,0.5,0.5,0.7,0.6
		c0.1,0,0.3,0,0.4,0.2c0.6,0.6,1.2,1.2,1.7,1.7c0.2,0.2,0.4,0.2,0.6,0c0.3-0.3,0.5-0.5,0.8-0.8c0.3-0.2,0.2-0.4,0-0.6
		c-0.5-0.4-0.9-0.9-1.4-1.4c-0.2-0.3-0.7-0.4-0.5-0.9c0,0,0-0.1-0.1-0.1c-0.5-0.6-0.6-0.6-1.1-0.1c0,0-0.1,0.1-0.2,0.2
		c-0.2-0.2-0.3-0.3-0.5-0.5c0.4-0.4,0.7-0.7,1-1c0.2-0.1,0.5,0,0.8,0c0,0,0,0,0,0c0.9-0.1,1.7-1,1.4-1.9c-0.3,0.2-0.5,0.4-0.8,0.5
		c-0.3,0-0.7-0.1-0.9-0.3c-0.1-0.1-0.2-0.4-0.2-0.6c0-0.2-0.1-0.4,0-0.6c0.1-0.2,0.3-0.3,0.4-0.5c0,0,0-0.1-0.1-0.1
		c-0.2,0-0.3,0-0.5,0c-0.9,0.2-1.5,1.1-1.4,2.1c0,0.1,0,0.3-0.1,0.4c-0.3,0.3-0.6,0.7-0.9,1c-0.7-0.8-1.4-1.5-1.9-2.2
		c-0.3-0.5-0.7-0.8-1.2-1c-0.2,0.2-0.3,0.3-0.5,0.5c0.4,0.8,0.4,0.8,1,1.3C35.8,39.8,36.5,40.4,37.2,41.1z"/>
</g>
</svg>
