<?xml version="1.0" encoding="utf-8"?>
<!-- Generator: Adobe Illustrator 18.1.1, SVG Export Plug-In . SVG Version: 6.00 Build 0)  -->
<svg version="1.1" id="Layer_1" xmlns="http://www.w3.org/2000/svg" xmlns:xlink="http://www.w3.org/1999/xlink" x="0px" y="0px"
	 viewBox="0 0 50 50" enable-background="new 0 0 50 50" xml:space="preserve">
<g>
	<path fill="#FFFFFF" d="M0,44.3c0.4-0.5,1-0.7,1.7-0.7c15.5,0,31.1,0,46.6,0c0.7,0,1.3,0.2,1.7,0.7c0,1.6,0,3.3,0,4.9
		c-0.2,0.4-0.6,0.6-1,0.8c-16,0-32.1,0-48.1,0c-0.3-0.3-0.7-0.4-0.9-0.8C0,47.6,0,46,0,44.3z"/>
	<path fill="#FFFFFF" d="M25.4,0c0.4,0.2,0.7,0.5,1,0.8c0.7,0.7,1.4,1.4,2.1,2.2c1.6,1.8,1.6,4.4,0,5.9c-0.7,0.7-1.6,1-2.5,1.1
		c-1.1,0.1-2.2,0.1-3.2-0.4c-2.4-1-3.1-3.9-1.6-6.2c0.7-1,1.6-1.8,2.5-2.6c0.3-0.3,0.6-0.6,1-0.8C24.9,0,25.1,0,25.4,0z"/>
	<path fill="#FFFFFF" d="M47.6,31c0,1.7,0,3.3,0,4.9c0,1.4,0,2.9,0,4.3c0,0.3,0,0.4-0.4,0.4c-14.8,0-29.6,0-44.3,0
		c-0.2,0-0.4,0.1-0.4-0.3c0-3.1,0-6.2,0-9.2c0,0,0-0.1,0-0.1c0.5,0.4,1.1,0.8,1.7,1.1c1.4,0.7,2.8,0.7,4.2,0
		c0.6-0.3,1.2-0.7,1.7-1.1c0.2-0.2,0.5-0.4,0.7-0.6c1.3-1.1,2.2-1.1,3.5,0c0.4,0.3,0.7,0.7,1.1,0.9c2.3,1.8,4.4,1.7,6.8,0
		c0.5-0.4,1-0.8,1.5-1.2c1.1-0.8,1.7-0.8,2.7,0c0.5,0.4,1,0.8,1.5,1.2c2.3,1.8,4.4,1.8,6.8,0c0.5-0.4,0.9-0.8,1.4-1.1
		c1.2-0.9,1.8-0.9,3,0c0.5,0.4,0.9,0.8,1.4,1.1c2.4,1.8,4.4,1.8,6.7,0C47.2,31.3,47.4,31.2,47.6,31z"/>
	<path fill="#FFFFFF" d="M25,20.4c6,0,12,0,18,0c2.6,0,4.7,2.1,4.6,4.6c0,0.7,0.1,1.5,0,2.1c-0.2,0.7-1.1,0.8-1.5,1.4
		c-0.4,0.4-0.9,0.8-1.4,1c-0.6,0.3-1.1,0.3-1.7,0c-0.5-0.3-0.9-0.6-1.3-1c-1-0.9-2.1-1.6-3.5-1.9c-0.9-0.1-1.8,0.1-2.6,0.5
		c-0.7,0.3-1.4,0.8-2,1.4c-0.4,0.4-0.8,0.7-1.3,0.9c-0.6,0.3-1.2,0.3-1.8,0c-0.5-0.3-0.9-0.6-1.3-1c-1-0.9-2.1-1.6-3.5-1.8
		c-0.9-0.2-1.8,0.1-2.6,0.5c-0.7,0.3-1.4,0.8-2,1.4c-0.4,0.4-0.8,0.7-1.3,1c-0.6,0.3-1.1,0.3-1.7,0c-0.5-0.3-1-0.6-1.4-1
		c-1-0.9-2.1-1.6-3.5-1.8c-0.9-0.1-1.8,0.1-2.6,0.5c-0.8,0.4-1.4,0.9-2.1,1.4c-1.7,1.5-2.6,1.5-4.2,0c-0.4-0.4-0.9-0.8-1.4-1.1
		c-0.1-0.1-0.3-0.1-0.3-0.3c0-1.1-0.1-2.2,0.1-3.3c0.4-2,2.2-3.5,4.3-3.5C12.9,20.4,18.9,20.4,25,20.4z"/>
	<path fill="#FFFFFF" d="M25,17.5c-1.4,0-2.8,0-4.1,0c-0.3,0-0.4,0-0.4-0.4c0-1.3,0-2.5,0-3.8c0-0.9,0.6-1.5,1.5-1.5
		c2.1,0,4.1,0,6.2,0c0.9,0,1.5,0.6,1.5,1.5c0,1.3,0,2.5,0,3.8c0,0.3-0.1,0.4-0.4,0.4C27.8,17.5,26.4,17.5,25,17.5z"/>
</g>
</svg>
