<?xml version="1.0" encoding="utf-8"?>
<!-- Generator: Adobe Illustrator 18.1.1, SVG Export Plug-In . SVG Version: 6.00 Build 0)  -->
<svg version="1.1" id="Layer_1" xmlns="http://www.w3.org/2000/svg" xmlns:xlink="http://www.w3.org/1999/xlink" x="0px" y="0px"
	 viewBox="0 0 50 50" enable-background="new 0 0 50 50" xml:space="preserve">
<g id="Layer_2">
	<path fill="#FFFFFF" d="M0,46.7c0.4-0.5,0.7-1.1,1.2-1.5c2-2.2,3.9-4.4,6-6.5c2.9-2.9,6.4-4.1,10.4-3.8c1,0.1,1.9,0.5,2.6,1.1
		c0.6,0.5,1.2,0.7,2,0.7c3.2,0,6.4,0,9.7,0c1.1,0,1.9,0.6,2,1.5c0.1,0.9-0.4,1.8-1.3,2c-0.3,0.1-0.5,0.1-0.8,0.1c-3.3,0-6.5,0-9.8,0
		c-0.1,0-0.3,0-0.4,0c-0.6,0-1,0.3-1,0.8c0,0.5,0.4,0.9,1,0.9c3.5,0,7.1,0,10.6,0c2,0,3.4-1.4,3.5-3.4c0-0.2,0.1-0.4,0.3-0.5
		c2.5-2.1,5-4.2,7.5-6.3c0.6-0.5,1.2-0.6,1.9-0.3c0.7,0.3,1,0.8,1.1,1.5c0.1,0.6-0.2,1.1-0.6,1.6c-3.2,3.2-6.4,6.5-9.6,9.7
		c-0.4,0.4-0.9,0.8-1.3,1.3c-0.6,0.7-1.4,1-2.3,1c-5.3,0-10.7,0-16,0c-0.5,0-1.1,0-1.6,0.1c-0.9,0.2-1.7,0.7-2.3,1.4
		c-0.3,0.3-0.5,0.7-0.9,1c-0.4,0.4-0.8,0.7-1.3,1c-3.1,0-6.1,0-9.2,0c-0.7-0.2-1.1-0.7-1.4-1.4C0,48,0,47.3,0,46.7z"/>
	<path fill="#FFFFFF" d="M28.4,0c1.4,0.4,2.9,0.8,4.3,1.2c3.8,1,7.6,2,11.4,3c0.4,0.1,0.5,0.2,0.5,0.6c0,2.5-0.1,5,0,7.5
		c0,1.6-1.1,3-3,2.9c-0.9,0-1.9,0-2.8-0.2c-0.7-0.2-1.4-0.6-2-1c-0.6-0.4-1.2-0.6-1.9-0.6c-3.2,0-6.4,0-9.6,0c-0.5,0-1,0-1.5-0.4
		c-0.6-0.5-0.8-1.1-0.7-1.9c0.1-0.7,0.8-1.2,1.5-1.3c0.2,0,0.5,0,0.7,0c3.3,0,6.6,0,9.9,0c0.8,0,1.3-0.3,1.3-0.9
		c0-0.6-0.4-0.9-1.3-0.9c-1.9,0-3.8,0-5.7,0c-0.3,0-0.5-0.1-0.6-0.4c-0.9-2.4-2.5-4-5.1-4.7c-0.1,0-0.2-0.1-0.4-0.1
		c1.2-1,2.1-2.3,3.6-2.8C27.6,0,28,0,28.4,0z"/>
	<path fill="#FFFFFF" d="M50,14.6c-0.3,0.5-0.8,0.6-1.4,0.6c-0.4,0-0.8,0-1.3,0c-0.6,0-1-0.4-1-1c0-3.5,0-7,0-10.5c0-0.6,0.4-1,1-1
		c0.6,0,1.1-0.1,1.7,0c0.3,0.1,0.6,0.3,1,0.5C50,7,50,10.8,50,14.6z"/>
	<path fill="#FFFFFF" d="M23.8,15c-2.9,0.8-5.9-0.8-6.7-3.7c-0.8-2.8,0.9-5.8,3.8-6.6c2.6-0.7,5.7,0.9,6.4,3.4c-0.7,0-1.5,0-2.2,0
		c-1.5,0-2.7,0.7-3.3,2c-0.8,1.7-0.1,3.7,1.5,4.6C23.4,14.8,23.6,14.8,23.8,15z"/>
	<path fill="#FFFFFF" d="M19.7,16.5c0.6,0.2,1.2,0.3,1.8,0.5c0,0.8,0,1.6,0,2.3c0,1.2,0,2.4,0,3.6c0,0.8,0.3,1.2,0.9,1.2
		c0.6,0,0.9-0.4,0.9-1.2c0-1.8,0-3.6,0-5.4c0-0.2,0-0.4,0-0.6c0.6-0.2,1.2-0.3,1.8-0.5c0,0.2,0,0.3,0,0.5c0,3.1,0,6.2,0,9.4
		c0,0.3-0.1,0.5-0.3,0.8c-0.8,0.8-1.6,1.6-2.4,2.4c-0.9-0.9-1.7-1.7-2.5-2.6c-0.1-0.1-0.1-0.3-0.1-0.4c0-3.3,0-6.6,0-9.9
		C19.6,16.6,19.7,16.5,19.7,16.5z"/>
</g>
</svg>
