<?xml version="1.0" encoding="utf-8"?>
<!-- Generator: Adobe Illustrator 18.1.1, SVG Export Plug-In . SVG Version: 6.00 Build 0)  -->
<svg version="1.1" id="Layer_1" xmlns="http://www.w3.org/2000/svg" xmlns:xlink="http://www.w3.org/1999/xlink" x="0px" y="0px"
	 viewBox="0 0 50 50" enable-background="new 0 0 50 50" xml:space="preserve">
<g>
	<path fill="#FFFFFF" d="M0,24.1c0.2-0.6,0.2-1.3,0.4-2c1.8-7.1,6.2-11.5,13.1-13.5c1.9-0.5,3.8-0.7,5.8-0.4c0.2,0,0.3,0,0.4,0.2
		c0.6,1.5,1.2,3.1,1.8,4.7c-3.7-1-7.2-0.6-10.4,1.3c-3.2,1.9-5.3,4.7-6.2,8.3c-1.6,6.5,1.8,13.1,8,15.6c6.3,2.5,13.4-0.1,16.6-6
		c3.4-6.1,1.5-14.4-5.4-18.2c1.3-0.6,2.5-1.1,3.7-1.7c1.1-0.5,1.1-0.5,1.9,0.3c3.3,3,5.2,6.7,5.7,11.1c1,8.8-4.6,16.9-13,19.2
		c-9.6,2.6-19.7-3.3-22-13c-0.2-0.7-0.3-1.5-0.4-2.2c0-0.1,0-0.2-0.1-0.2C0,26.6,0,25.3,0,24.1z"/>
	<path fill="#FFFFFF" d="M50,33.5c-0.2,0.6-0.2,1.3-0.4,1.9c-1.8,7.2-6.2,11.9-13.4,13.6c-6.2,1.5-11.7-0.2-16.3-4.4
		c-0.1-0.1-0.1-0.1-0.2-0.2c1.1-0.1,2.2-0.3,3.3-0.6c0.6-0.2,1.2-0.4,1.7-0.6c0.2-0.1,0.4-0.1,0.6,0.1c7.8,4.6,17.5,0.6,19.8-8.2
		c1.8-7-2.4-14.5-9.9-16.3c-0.2,0-0.3-0.1-0.4-0.3c-0.3-0.8-0.8-1.6-1.2-2.3c-0.5-0.7-1-1.4-1.6-2.2c1.2-0.1,2.4,0.1,3.6,0.3
		c6,1.3,10.3,4.7,12.9,10.3c0.8,1.7,1.2,3.4,1.4,5.3c0,0.1,0,0.2,0.1,0.2C50,31.2,50,32.4,50,33.5z"/>
	<path fill="#FFFFFF" d="M23.2,13.6c-0.6,0-0.8-0.4-1-0.8c-0.8-1.9-1.5-3.9-2.3-5.8c-0.5-1.2-0.9-2.4-1.4-3.6
		c-0.3-0.8-0.1-1.2,0.6-1.5c1.3-0.5,2.5-1,3.8-1.5c0.4-0.1,0.7-0.1,1,0c2.4,1,4.8,1.9,7.1,2.9c0.4,0.1,0.6,0.4,0.8,0.8
		c0.6,1.2,1.1,2.5,1.7,3.7c0.3,0.7,0.2,1.2-0.6,1.5c-3.1,1.4-6.2,2.8-9.3,4.2C23.5,13.6,23.3,13.6,23.2,13.6z"/>
	<path fill="#FFFFFF" d="M14.4,31.8C14.8,24.5,18,19,24.6,15.7c0.2-0.1,0.3-0.1,0.5,0c1.2,0.8,2.1,1.8,3,3c0.2,0.3,0.1,0.3-0.2,0.4
		c-5,1.8-8,5.4-8.9,10.6c-0.5,2.8,0,5.5,1.3,8c0.2,0.4,0.1,0.4-0.3,0.5c-1.4,0.2-2.7,0.2-4.1,0.1c-0.3,0-0.3-0.2-0.4-0.4
		C14.8,36,14.4,33.9,14.4,31.8z"/>
</g>
</svg>
