<?xml version="1.0" encoding="utf-8"?>
<!-- Generator: Adobe Illustrator 18.1.1, SVG Export Plug-In . SVG Version: 6.00 Build 0)  -->
<svg version="1.1" id="Layer_1" xmlns="http://www.w3.org/2000/svg" xmlns:xlink="http://www.w3.org/1999/xlink" x="0px" y="0px"
	 viewBox="0 0 50 50" enable-background="new 0 0 50 50" xml:space="preserve">
<g id="Layer_2">
	<path fill="#FFFFFF" d="M0,17.7c1.1-1,2.1-2.2,3.2-3.1c4.7-3.8,10-6.3,16-7.2c10.7-1.7,20.2,1,28.5,8c0.4,0.3,0.8,0.7,1.2,1.1
		c0.4,0.4,0.7,0.8,1.1,1.2c0,0.3,0,0.5,0,0.8c-0.2,0.3-0.5,0.7-0.7,1c-1.2,1.3-2.5,2.5-3.7,3.7c-0.9,0.9-1.6,0.9-2.5,0
		c-4-3.9-8.8-6.4-14.4-7.1c-8.3-1.1-15.5,1.3-21.6,7.1c-0.9,0.9-1.6,0.9-2.5,0c-1.1-1.1-2.3-2.3-3.4-3.4C0.7,19.4,0.4,19,0,18.5
		C0,18.3,0,18,0,17.7z"/>
	<path fill="#FFFFFF" d="M24.7,19c6.4,0.1,11.7,2.2,16.1,6.5c0.8,0.8,0.8,1.6,0,2.4c-1.3,1.3-2.6,2.6-3.9,3.9
		c-0.8,0.8-1.6,0.9-2.5,0c-3-2.8-6.6-4.1-10.7-3.8c-3.2,0.3-5.9,1.5-8.3,3.8c-0.5,0.5-1,0.8-1.8,0.5c-0.2-0.1-0.4-0.2-0.6-0.4
		c-1.4-1.4-2.8-2.8-4.1-4.1c-0.7-0.7-0.7-1.6,0-2.2c3.7-3.7,8.2-5.8,13.4-6.4C23.3,19,24.2,19,24.7,19z"/>
	<path fill="#FFFFFF" d="M25,31.1c2.8,0,5.2,1,7.3,2.9c0.8,0.8,0.8,1.6,0,2.4c-2,2.1-4.1,4.1-6.1,6.1c-0.8,0.8-1.6,0.8-2.3,0
		c-2.1-2-4.1-4.1-6.1-6.1c-0.8-0.8-0.8-1.6,0-2.4C19.7,32.1,22.2,31.1,25,31.1z"/>
</g>
</svg>
