<?xml version="1.0" encoding="utf-8"?>
<!-- Generator: Adobe Illustrator 18.1.1, SVG Export Plug-In . SVG Version: 6.00 Build 0)  -->
<svg version="1.1" id="Layer_1" xmlns="http://www.w3.org/2000/svg" xmlns:xlink="http://www.w3.org/1999/xlink" x="0px" y="0px"
	 viewBox="2521.1 661 312.7 82.9" enable-background="new 2521.1 661 312.7 82.9" xml:space="preserve">
<path fill="#FFFFFF" d="M2567.1,723.4c0,4.1-1.7,9.6-6.6,9.6c-2.5,0-3.9-1.3-3.9-3.8C2556.5,724.3,2563.5,723.4,2567.1,723.4
	 M2574.2,737.5v-22.7c0-7.4-4.8-9.9-11.6-9.9c-6.6,0-12.1,2.8-12.1,10.1h7.2c0-3.2,1.7-4.9,4.9-4.9c3.7,0,4.5,2.7,4.5,5.8v3.1
	c-7.2,0.2-17.8,1.2-17.8,10.8c0,5.4,4.3,8.4,9.4,8.4c3.5,0,6.7-1.1,8.3-4.4h0.1v3.7L2574.2,737.5 M2596.2,716.5h7.9
	c0-7.8-4.3-11.6-12.1-11.6c-9.6,0-14.6,6-14.6,15.3c0,11.1,5.7,18.1,17.1,18.1c3.2,0,6.3-0.5,9.3-1.5v-4.6c-1.7,0.6-3.6,0.8-5.3,0.8
	c-8.5,0-13.1-6.2-13.1-14.2c0-3.8,1.4-8.7,6.1-8.7C2595.3,710.1,2596.2,713.2,2596.2,716.5 M2624.7,716.5h7.9
	c0-7.8-4.4-11.6-12.1-11.6c-9.6,0-14.6,6-14.6,15.3c0,11.1,5.7,18.1,17.1,18.1c3.1,0,6.3-0.5,9.3-1.5v-4.6c-1.7,0.6-3.5,0.8-5.4,0.8
	c-8.4,0-13.1-6.2-13.1-14.2c0-3.8,1.4-8.7,6.1-8.7C2623.8,710.1,2624.7,713.2,2624.7,716.5 M2653.9,715.1h-11.6
	c0.3-3.2,2.8-5.5,6-5.5C2651.6,709.6,2653.9,711.7,2653.9,715.1 M2660.9,719.6v-1.8c0-7.8-4-12.9-12.1-12.9c-9.5,0-13.7,6-13.7,15
	c0,10.5,4.8,18.3,16.1,18.3c3,0,6-0.3,8.9-1.3v-5.2c-1.9,0.7-4.1,1.2-6.1,1.2c-7.2,0-12-6.6-12-13.4L2660.9,719.6 M2682.9,737.5h7.4
	v-22.1c0-5.5-2.6-10.5-8.6-10.5c-4.6,0-7.8,2.6-9.4,6.7h-0.1v-6h-7.4v31.9h7.4v-13.8c0-4.3,2.1-11.8,7.5-11.8c0.8,0,1.6,0.1,2.2,0.6
	c1.3,1.2,1.1,5.3,1.1,6.8V737.5 M2705.8,710.7h9.5v-5.2h-9.5V695l-7.4,3v7.6h-6.2v5.2h6.2v18.7c0,6.6,3.2,8.8,9.8,8.8
	c2,0,4.1-0.2,6.1-0.5v-5.2c-1.1,0.3-2.3,0.5-3.4,0.5c-4.6,0-5-3.4-5-7.2L2705.8,710.7 M2736.8,737.5h7.4v-31.9h-7.4v13.8
	c0,4.3-2.1,11.9-7.5,11.9c-0.7,0-1.6-0.1-2.1-0.6c-1.3-1.2-1.1-5.3-1.1-6.8v-18.2h-7.4v22.1c0,5.5,2.5,10.5,8.6,10.5
	c4.5,0,7.8-2.7,9.5-6.7h0.1V737.5 M2756.3,723.5c0-7.5,2.8-10.8,10.4-10.8v-7.8c-5.3,0-7.8,2.2-10.3,6.6h-0.1v-5.9h-7.4v31.9h7.4
	L2756.3,723.5 M2787,715.1h-11.7c0.3-3.2,2.8-5.5,6-5.5C2784.8,709.6,2787,711.7,2787,715.1 M2794,719.6v-1.8
	c0-7.8-4-12.9-12.1-12.9c-9.5,0-13.7,6-13.7,15c0,10.5,4.8,18.3,16.1,18.3c3,0,6-0.3,8.9-1.3v-5.2c-1.9,0.7-4.1,1.2-6.1,1.2
	c-7.2,0-12-6.6-12-13.4L2794,719.6"/>
<path fill="#27AAE1" d="M2692.2,668.2v5.2c0,0,14.8,5.8,17,6.6c-2.1,0.8-17,6.5-17,6.5v5.2l23.1-9.4v-4.8L2692.2,668.2"/>
</svg>
