<?xml version="1.0" encoding="utf-8"?>
<!-- Generator: Adobe Illustrator 18.1.1, SVG Export Plug-In . SVG Version: 6.00 Build 0)  -->
<svg version="1.1" id="Layer_1" xmlns="http://www.w3.org/2000/svg" xmlns:xlink="http://www.w3.org/1999/xlink" x="0px" y="0px"
	 viewBox="1289.6 -731 2382.4 1599" enable-background="new 1289.6 -731 2382.4 1599" xml:space="preserve">
<g>
	<polygon fill="#FFFFFF" points="2991.3,-222.8 2950.1,-124.4 3032.4,-124.4 	"/>
	<path fill="#FFFFFF" d="M2769.4,222.7c-7.1-5.4-17.9-5.4-28.6-5.4h-73.4v57.3l73.4-1.8c10.7,0,19.7,0,28.6-3.6
		c7.2-5.4,12.5-14.3,12.5-25.1C2781.9,233.4,2776.6,226.3,2769.4,222.7z"/>
	<path fill="#FFFFFF" d="M2513.5-210.3c-7.2-3.6-19.7-3.6-30.4-3.6h-73.4v55.5h73.4c12.5,0,21.5,0,30.4-5.4
		c7.1-3.6,10.7-12.5,10.7-23.3C2524.3-197.7,2520.7-204.9,2513.5-210.3z"/>
	<polygon fill="#FFFFFF" points="1525.9,-124.4 1608.2,-124.4 1567.1,-222.8 	"/>
	<polygon fill="#FFFFFF" points="2340,394.5 2340,192.3 2247,290.7 	"/>
	<path fill="#FFFFFF" d="M2477.8,217.3H2399v64.4h78.7c21.5,0,35.8-12.5,35.8-34C2513.6,226.3,2499.3,217.3,2477.8,217.3z"/>
	<polygon fill="#FFFFFF" points="1953.5,217.3 1953.5,263.9 2085.9,263.9 2085.9,314 1953.5,314 1953.5,364.1 2102,364.1 
		2102,364.1 2170,290.7 2103.8,217.3 	"/>
	<path fill="#FFFFFF" d="M1289.6-731V868H3672V-731H1289.6z M3549.5,768.2H1415V34.8h103.8l23.3-57.2h51.9l21.5,57.2h202.2V-8.1
		l17.9,42.9H1941l17.9-44.7v44.7h501v-93h8.9c7.2,0,8.9,1.8,8.9,12.5v80.5h259.4V13.4c21.5,10.7,53.7,21.5,96.6,21.5h109.1
		l23.3-57.2h51.9l23.3,57.2h209.3v-53.7l32.2,53.7h168.2v-350.7h-166.4v41.2l-25.1-41.2h-170v41.2l-21.5-41.2h-230.8
		c-39.4,0-73.4,5.4-100.2,19.7v-19.7H2578v19.7c-17.9-14.3-41.2-19.7-68-19.7h-581.5l-39.4,89.5l-41.2-89.5h-182.5v41.2l-21.5-41.2
		h-155.7L1415-149.4v-456.7h2134.5v721.6h-110.9c-32.2,0-57.2,8.9-75.2,21.5v-21.5h-162.8c-26.8,0-57.2,7.1-73.4,21.5v-21.5h-291.6
		v21.5c-25-17.9-62.6-21.5-82.3-21.5h-193.2v21.5c-17.9-17.9-59.1-21.5-84.1-21.5h-216.5l-50.1,53.7l-46.5-53.7h-322.1V466h316.7
		l51.9-53.7l46.5,53.7h196.8v-82.3h17.9c26.8,0,57.3,0,84.1-12.5V466h161v-91.2h8.9c9,0,10.7,0,10.7,10.7V466h490.2
		c30.4,0,62.6-7.1,80.5-21.5V466h155.7c32.2,0,64.4-5.4,87.7-16.1V768.2z M1914.2-15.3h-51.9l-87.7-196.8v196.8H1653l-23.3-55.5
		h-125.2l-23.3,55.5h-64.4l107.4-250.5h89.5l102,236.2v-236.2h96.6l78.7,170l73.4-170h98.4v250.5h-60.8v-196.8L1914.2-15.3z
		 M2306-169.1v51.9h-137.8v50.1h139.6v0v51.9h-200.4v-250.5h200.4v51.9h-139.6v44.7H2306z M2578-110.1c8.9,12.5,10.7,23.3,10.7,44.7
		v50.1h-60.8v-32.2c0-14.3,1.8-35.8-8.9-48.3c-8.9-8.9-23.3-10.7-44.7-10.7h-64.4v91.3h-59v-250.5h137.8c30.4,0,51.9,0,71.6,10.7
		l0,0c19.7,12.5,32.2,28.6,32.2,57.2c0,39.4-26.9,59-42.9,66.2C2561.8-126.2,2572.6-117.3,2578-110.1z M2626.3-15.3v-250.5h60.8v0
		v250.5H2626.3z M2794.4-81.4c8.9,8.9,25.1,12.5,41.1,12.5h26.8l85.9-196.8h89.5L3138-29.6v-236.2h93l105.6,173.5v-173.5h60.8v250.5
		h0l0,0h0v0h-85.9l-112.7-187.9v187.9h-121.6l-23.3-55.5h-125.2l-23.3,55.5h-69.8c-28.6,0-66.2-7.2-87.6-28.6
		c-19.7-21.5-30.4-50.1-30.4-94.8c0-37.6,5.4-71.6,32.2-98.4c17.9-19.7,50.1-28.6,91.2-28.6h57.2v53.7H2841
		c-21.5,0-34,3.6-46.5,14.3c-10.7,10.7-16.1,30.4-16.1,57.2S2783.7-94,2794.4-81.4z M3257.8,322.9c-3.6-3.6-10.7-5.4-21.5-5.4
		c-55.5-1.8-125.3,1.8-125.3-76.9c0-35.8,21.5-75.2,85.9-75.2h119.9v53.7H3206c-10.7,0-17.9,0-23.3,3.6c-7.2,5.4-8.9,10.7-8.9,19.7
		c0,8.9,5.3,14.3,12.5,17.9c7.1,1.8,14.3,3.6,23.3,3.6h32.2c34,0,55.5,7.1,69.8,19.7h0c10.7,12.5,17.9,28.6,17.9,53.7
		c0,53.7-34,78.7-94.8,78.7h-116.3v-53.7h116.3c10.7,0,17.9-1.8,23.3-5.3c3.6-3.6,7.2-9,7.2-16.1
		C3265,333.6,3261.4,326.5,3257.8,322.9z M3078.9,263.9V314h-137.8v50.1h141.3v0v51.9h-200.4V165.5h200.4v51.9h-141.3v46.5H3078.9z
		 M2835.6,321.1c7.2,12.5,8.9,23.3,8.9,46.5v48.3h-59v-30.4c0-16.1,0-37.6-10.7-50.1c-8.9-8.9-21.5-10.7-42.9-10.7h-64.4v91.2h-60.8
		V165.4h137.8c30.4,0,53.7,1.8,73.4,12.5c19.7,10.7,30.4,26.8,30.4,55.4c0,39.4-26.9,60.9-42.9,66.2
		C2819.5,305,2830.2,313.9,2835.6,321.1z M2578,247.8c0,69.8-51.9,84.1-103.8,84.1h-75.1v84.1h-116.3l-73.4-82.3l-76.9,82.3h-238
		V165.4H2136l73.4,82.3l76.9-82.3h191.4h0C2524.3,165.4,2578,179.8,2578,247.8z M3469,415.9h-116.3v-53.7H3469
		c10.7,0,19.7-1.8,23.3-5.3c3.6-3.6,7.1-9,7.1-16.1c0-7.2-3.6-14.3-7.1-17.9c-3.6-3.6-10.7-5.4-21.5-5.4
		c-55.4-1.8-125.2,1.8-125.2-76.9c0-35.8,23.3-75.2,85.9-75.2h119.9v53.7h-110.9c-10.7,0-17.9,0-23.3,3.6
		c-5.4,5.4-8.9,10.7-8.9,19.7c0,8.9,5.4,14.3,12.5,17.9c7.2,1.8,14.3,3.6,23.3,3.6h32.2c34,0,55.5,7.1,69.8,19.7
		c10.7,12.5,17.9,28.6,17.9,53.7C3563.8,390.9,3529.8,415.9,3469,415.9z"/>
</g>
</svg>
