<?xml version="1.0" encoding="utf-8"?>
<!-- Generator: Adobe Illustrator 18.1.1, SVG Export Plug-In . SVG Version: 6.00 Build 0)  -->
<svg version="1.1" id="Layer_1" xmlns="http://www.w3.org/2000/svg" xmlns:xlink="http://www.w3.org/1999/xlink" x="0px" y="0px"
	 viewBox="2239 -1474.6 4529 2998.6" enable-background="new 2239 -1474.6 4529 2998.6" xml:space="preserve">
<path fill="#FFFFFF" d="M2563,1523.8c-1.9-0.2-8.5-0.9-14.5-1.5c-55.2-5.5-114.2-28.1-160.5-61.5c-69.5-50-118.4-122.9-138.9-206.6
	c-10.9-44.5-13-94.3-6.1-140.2c18.6-122.9,99.9-228.2,212.5-275.5c28.1-11.8,56-19.3,88.9-23.8c18.2-2.5,62.6-2.5,81,0
	c39,5.3,72,15.1,106,31.5c37.4,18.1,63.2,36.7,94.5,68c27.4,27.4,44.3,50.2,63.8,86.2l4.2,7.7l-14.8,10.9
	c-20.3,15-68.1,49.1-83.6,59.7l-12.8,8.7l-5.3-11.5c-6.5-14.2-11.2-22.6-18.7-33.8c-30.1-44.9-78-77-130.3-87.2
	c-27.7-5.4-61.7-4.8-89,1.6c-28.6,6.7-59.7,21.6-83.5,40.2c-9.6,7.5-27.2,24.9-35,34.7c-41.8,52.4-57.3,119.2-42.9,186
	c5,23.1,17.8,53.3,31.2,73.3c35.5,53.1,89.9,87,151.6,94.7c10.9,1.3,37.2,1.3,48.1,0c54.6-6.7,105-35.1,139.5-78.5
	c10.2-12.8,17.2-23.8,25.3-39.5c3.5-6.9,6.7-12.5,7.1-12.5s25.5,17.7,55.9,39.4l55.2,39.4l-5.6,10.6c-11.6,22-31.6,49.6-50.2,69.3
	c-31.7,33.7-62.6,56.6-102.7,76.3c-34.7,16.9-71.4,27.8-110.5,32.5C2614.2,1523.4,2569.2,1524.5,2563,1523.8z M3035,1164.8V819.3
	h134v248h350v-248h134v691h-134v-304h-350v304h-134V1164.8z M3788.3,1449.1c14.9-33.7,83.8-189.2,153.1-345.5l126-284.2l94,0l94,0
	l152.3,341.2c83.8,187.7,153.1,343.2,154.2,345.5l1.9,4.3h-160.5l-31-68.5l-31-68.5l-179.3,0.2l-179.3,0.2l-30.6,68.3l-30.6,68.3
	h-160.4L3788.3,1449.1L3788.3,1449.1z M4284.8,1234c-0.6-2.4-122.3-274.6-122.8-274.5c-0.4,0-116,269.8-117.8,275
	c-0.2,0.6,46,0.9,120.3,0.9C4267.1,1235.3,4285.1,1235.1,4284.8,1234z M4672,1164.8V819.3l94.3,0l94.3,0l147.5,207.2l147.5,207.2
	l0.3-207.2l0.3-207.2h135v691l-54.2-0.3l-54.2-0.3l-187.1-259.7c-102.9-142.8-187.4-259.7-187.8-259.8c-0.4,0-0.8,117-0.8,260v260
	h-135V1164.8z M5535,1164.8V819.3h483v139h-348v138h322v139h-322v138h398v137h-533V1164.8z M6257,1164.8V819.3h135v554h376v137h-511
	V1164.8z M3943.5,643.6c-144.2-6.7-304.9-50.5-434.3-118.4C3409.7,473,3331,414.6,3248.4,332c-64.6-64.7-112.3-124.4-152.7-191
	l-17.7-29.1l25.1-13.3c48.9-25.9,271.6-140,273.3-140c1,0,10.2,12.5,20.4,27.8c116.1,173,297.6,285.5,510.1,316.1
	c37.1,5.4,148.8,4.5,189.3-1.4c45-6.6,99-18.9,133.3-30.3c2.2-0.7-2-7.7-11.8-19.2c-75.9-89.5-145.2-212.4-184.1-326.8
	c-70.5-206.9-75.5-429-14.4-637.7c37.9-129.6,103.2-255.4,185.9-358.2c12.3-15.3,22.4-28.8,22.4-30c0-4.1-64.5-21.3-106.8-28.4
	c-65.3-11.1-167.6-12.5-226.7-3c-99.4,15.8-200.2,53.1-279,102.9c-87.8,55.6-161,127.1-219.5,214.2l-25.8,38.5l-32.8-17.2
	c-18.1-9.5-85.2-44.3-149.1-77.3c-64-33-116.5-60.2-116.7-60.4c-1-0.9,39-64.6,55.5-88.3c50-71.9,138.9-167.2,204.5-219.3
	c171.7-136.3,362.5-213,577.3-232.2c39.9-3.6,138.7-3.6,177.1-0.1c136.4,12.5,253.3,45.6,374.1,105.8l57.7,28.8l19.3-11
	c31.2-17.8,86.7-43.4,128.9-59.5c118.2-45.3,237.3-66.8,368.9-66.8c91.9,0,168.5,9.1,251.7,29.6c188,46.5,348.3,135.6,486.4,270.5
	c74.9,73.1,133.6,147.8,180.9,230.2l7.2,12.5l-116.9,60.3c-64.3,33.2-131.5,68-149.4,77.4l-32.6,17.1l-24.6-37.1
	c-121.4-183.1-320-302.4-537.4-322.6c-64.3-6-159.9-0.5-218,12.6c-29.9,6.7-78.4,20.6-78.4,22.4c0,0.9,7.9,11.5,17.6,23.4
	c124.6,152.8,202.3,339.1,227.5,544.9c6,49.1,6.8,174.5,1.4,223.1c-22.7,205.3-100.3,394.8-224.2,547.3
	c-28.1,34.6-26.9,32.2-17.9,35.7c4.3,1.6,24.2,7.2,44.2,12.2c102,25.9,211.9,29.5,315,10.5c187.6-34.6,356.5-145.6,465.2-305.5
	c10.1-14.9,19.2-28,20.3-29.3c1-1.2,26.1,9.9,55.7,24.7c58.6,29.4,242,124.3,244,126.3c3.3,3.3-55.2,90.1-91.1,135.2
	c-33.9,42.7-122.9,131.6-165.4,165.3c-153.6,121.8-326.1,196.2-516,222.8c-218.1,30.5-449-10.4-636.9-112.7l-26.6-14.5l-32.9,17.4
	C4320.3,611.2,4133.1,652.4,3943.5,643.6L3943.5,643.6z M4552.7,43.8c90.9-112.6,147.7-249.1,161.7-389.1
	c4.7-47,1.9-142.6-5.4-185.4c-20.1-117.7-63.2-218.5-132.6-310.7c-13.1-17.4-32.1-40.6-42.3-51.6l-18.5-20l-17.2,18.7
	c-22.7,24.6-60.5,74.7-79.5,105.5c-96.7,156.4-128.3,348.4-87.3,531.3c25.8,115,85,230.9,164.8,322.5l18.4,21.1l8-7.6
	C4527.2,74.3,4540.7,58.7,4552.7,43.8L4552.7,43.8z"/>
</svg>
