<?xml version="1.0" encoding="utf-8"?>
<!-- Generator: Adobe Illustrator 18.1.1, SVG Export Plug-In . SVG Version: 6.00 Build 0)  -->
<svg version="1.1" id="Layer_1" xmlns="http://www.w3.org/2000/svg" xmlns:xlink="http://www.w3.org/1999/xlink" x="0px" y="0px"
	 viewBox="1225 -373 2500 797" enable-background="new 1225 -373 2500 797" xml:space="preserve">
<path fill="#FFFFFF" d="M1548.1-136.4c-0.3,0,0,152.1,0,152.1c0,19.1-16.5,35.8-38,35.8h-20.6v7.8h174.5v-7.8h-20.6
	c-21.2,0-37.9-17-37.9-35.8v-338.8c0-18.5,16.4-35.8,37.9-35.8h20.6v-7.8h-174.5v7.7h20.6c21.8,0,38,17.3,38,35.8v165.2h-206.8
	v-165.2c0-18.5,16.7-35.8,37.9-35.8h20.6v-7.7h-174.5v7.7h20.6c21.5,0,37.9,17.3,37.9,35.8V15.7c0,18.8-16.4,35.8-37.9,35.8h-20.6
	v7.8h174.5v-7.7h-20.6c-21.2,0-37.9-17-37.9-35.8c0,0,0.3-152.1,0-152.1H1548.1z M1963-52.1c1.5,25-14,63-35.6,82.5
	c-24.4,22.6-56.4,35-89.6,34.9c-44.8,0-83.3-23.9-97.4-29.4c-8.6-3.2-19.7-2.8-26.3,1.3c-7.8,4.7-12.6,12.5-14.4,26.9h-6.5V-83.5
	h6.5c6,45.5,27.2,72.1,40.4,87.3c21.5,24.7,62.1,38.8,101.3,32.5c31.1-5.1,65.1-38.8,61.4-80.6c-1.3-15.1-4.7-37-36-57.5
	c-19.7-12.9-47.6-31.1-74.1-48.6c-33.4-22.2-63.7-46.2-72.3-55.9c-11.1-12.7-25-31.1-25-60.4c0-25,9.5-53.8,29.9-72.9
	c20.3-19.1,47.8-33.4,87.2-33.4s69.3,20.9,79.5,25.7c8.8,4.2,19,4.2,27.8,0c6.3-3.6,10.5-9,12.3-23.3h6.5v139.8h-6.5
	c-6-45.4-25.7-79.5-39.5-92c-13.8-12.6-40.6-29.9-80.7-22.1c-38.3,7.4-57.1,24.8-60.6,55.5c-2.7,23.4,10,37.9,17.3,46.6
	c15,17.9,109.7,71.6,152.6,108.8C1943.3-114.9,1960.6-92.2,1963-52.1z M2239.3-158.2c75.9,26.1,97.6,79.7,83.4,134.9
	c-16.6,65-89.8,78.2-113.5,81.4c-10.7,1.3-38.1,1.2-65.1,1.2c-48.3,0.1-109.3-0.1-158.4-0.1v-7.8h25.1c16,0,34.2-13.4,34.2-33.7
	v-340.1c0-20.3-18.3-34.1-34.1-34.1h-25.1v-7.8h151.5c36.5,0,56.3,3.5,69,6c21.5,4.2,84.2,22.7,99.2,81.2
	C2317.1-231.8,2294.6-174.6,2239.3-158.2L2239.3-158.2z M2101.8-170.2c20.9,5.3,82.5,6.8,106.4-8.4c37.4-23.8,50.4-61.9,43.5-95.7
	c-4-21-15.9-39.6-33.3-51.9c-36.5-25.7-89-21.6-116.5-13.2L2101.8-170.2L2101.8-170.2L2101.8-170.2z M2101.8,35.3
	c29.5,9.2,85.7,16.2,124.9-11.8c47-33.6,56.9-115.8-9.5-158.6c-26.7-17.2-93.3-16-115.4-10.9L2101.8,35.3L2101.8,35.3z
	 M2722.1-359.2l6.1,144.3l-8.6,0.3c-4.2-36.5-17.9-62.2-35.3-78.8c-5-4.8-14.4-14.6-28.1-23.2c-28.6-18.5-63.2-25.6-96.8-19.9
	c-60.4,10.8-91.4,50.6-106.9,89c-19.2,47.2-31.3,127.9,1.1,196c26.4,55.2,77,78.2,115.9,84.1c33.3,5.1,107,3.6,163.2-72.3l8.9,6
	c-43.6,61.5-101.6,101-168,100.4c-84.8-0.8-138.1-47.4-162.5-75.3c-25.7-29.2-45.4-84.8-45.7-133.3c-0.2-43,9.3-91,24.7-118.9
	c26.6-48.1,82.2-95.9,155.3-103c54.8-5.5,90.8,5.3,121.6,22.9c15.4,8.8,24.1,9.8,32.4,6.3c8.3-3.6,15.1-10.8,15.1-24.9h7.3V-359.2
	L2722.1-359.2z"/>
<path fill="#CF4037" d="M2868.8-153.5l212.9,212.9v-425.7L2868.8-153.5L2868.8-153.5z M3081.6,59.4h425.7l-212.9-212.9L3081.6,59.4z
	 M3294.5-153.5l212.9-212.9h-425.7L3294.5-153.5L3294.5-153.5z"/>
<path fill="#CF4037" d="M3507.3-366.3V59.4l212.9-212.9L3507.3-366.3z M1546.3,347.8c0-20,11.4-36.2,30.5-36.2
	c22.3,0,31.6,15.8,31.1,36.2H1546.3z M3005,361.2c0.6,22.5-4.5,46.1-31.7,46.1c-13.6,0-24-7.6-24-22.6c0-17.7,18.6-22.8,32.7-23.5
	H3005z M2680.5,359.4c0-25.9,8.9-47.7,36.3-47.7c27.4,0,36.3,21.8,36.3,47.7c0,26.1-9,47.8-36.3,47.8
	C2689.4,407.3,2680.5,385.4,2680.5,359.4z M2254.9,359.2c0-22.8,6.8-48.2,34.4-48.2c26.2,0,34.5,26.1,34.5,48.2
	c0,22.8-6.6,48.7-34.5,48.7C2263.4,407.9,2254.9,382,2254.9,359.2z M1959.5,359.4c0-25.9,9-47.7,36.3-47.7
	c27.5,0,36.4,21.8,36.4,47.7c0,26.1-8.9,47.8-36.4,47.8C1968.5,407.3,1959.5,385.4,1959.5,359.4z M1284.1,266h-58.8v-20.9H1367V266
	h-58.7v154.3h-24.2V266z M3623,420.3V245.2h23v103.1l45.6-49.7h29.8l-51.4,51.7l54.6,70.1h-29.8l-48.2-65.7h-0.5v65.7L3623,420.3
	L3623,420.3z M3502,316.5h0.5c7.8-15.4,24.7-21.6,36.8-21.6c8.5,0,46.1,2.2,46.1,41.2v84.1h-23v-76.6c0-20.1-8.5-31.1-27.9-31.1
	c0,0-12.6-0.8-22.3,8.9c-3.4,3.4-9.7,8.7-9.7,32.5v66.2h-23V298.5h22.5L3502,316.5L3502,316.5L3502,316.5z M3419.6,361.2
	c0.5,22.5-4.6,46.1-31.8,46.1c-13.6,0-24-7.6-24-22.6c0-17.7,18.7-22.8,32.7-23.5H3419.6z M3398.7,345.1c-28.8,0-59.2,10-59.2,44.2
	c0,23.7,21.3,34.6,42.4,34.6c16.7,0,30.3-6.5,37.8-21.8h0.5c0.2,5.6,0.7,10.9,1.3,16.5c0.2,3,4.4,1.7,6.5,1.7h15.5
	c-1-20.4-1-84-1-84c0-34-24.7-41.5-49.7-41.5c-24,0-44.9,9.4-46.1,36.1h24.3c0.2-12.6,11.1-19.4,22.8-19.4
	c24.5,0,25.7,12.3,25.7,33.4L3398.7,345.1L3398.7,345.1L3398.7,345.1z M3289.7,359.4c0,22.9-8.5,47.8-34.4,47.8
	c-27.9,0-34.4-25-34.4-47.8c0-22,8.2-47.7,34.4-47.7C3283,311.7,3289.7,336.7,3289.7,359.4z M3221.4,402.1l-0.5-1.2h0.5
	c8.2,17,24.3,23,42,23c36.1,0,50.7-33.2,50.7-64.6c0-33-17-64.4-54.8-64.4c-15.5,0-30.8,5.6-37.9,20.1h-0.5v-69.9h-23v155.7
	c0,4.8-0.7,12.1-1.3,19.4h23.8L3221.4,402.1L3221.4,402.1z M3066.9,420.3V245.2h23v175.1L3066.9,420.3L3066.9,420.3z M2984.2,345.1
	c-28.8,0-59.2,10-59.2,44.2c0,23.7,21.4,34.6,42.4,34.6c16.7,0,30.3-6.5,37.8-21.8h0.5c0.3,5.6,0.7,10.9,1.2,16.5
	c0.2,3,4.4,1.7,6.5,1.7h15.5c-1-20.4-1-84-1-84c0-34-24.7-41.5-49.8-41.5c-24,0-44.9,9.4-46.1,36.1h24.3
	c0.2-12.6,11.1-19.4,22.8-19.4c24.5,0,25.7,12.3,25.7,33.4L2984.2,345.1L2984.2,345.1L2984.2,345.1z M2880.9,337.6
	c-1.2-15.3-8.5-25.9-24.9-25.9c-22.1,0-30.6,19.1-30.6,47.7c0,28.7,8.5,47.8,30.6,47.8c15.3,0,24.7-10,25.9-27.4h23
	c-1.9,27.4-22.3,44.1-49.3,44.1c-39.1,0-54.6-27.7-54.6-63.5c0-35.7,18-65.5,56.5-65.5c25.7,0,45.1,16.3,46.3,42.7L2880.9,337.6
	L2880.9,337.6z M2716.9,294.9c-40,0-60.6,26.7-60.6,64.4c0,37.9,20.6,64.6,60.6,64.6c40,0,60.7-26.7,60.7-64.6
	C2777.6,321.6,2756.9,294.9,2716.9,294.9z M2599.9,420.3V245.2h23v175.1H2599.9z M2452.2,294.9c23,0,49,9.7,47.3,37.3h-24.2
	c1-15.5-10.9-20.6-24.3-20.6c-12.4,0-22.4,5.9-22.4,19.4c0,13.6,20.9,14.6,29.6,17.2c20.6,6.8,44.4,9.2,44.4,36.7
	c0,29.8-29.1,39.1-54.1,39.1c-25.5,0-46.8-11.7-46.6-39.8h24.2c0.5,15.1,10.7,23,24.7,23c13.5,0,27.4-5.4,27.4-21.2
	c0-27.2-74-6.8-74-54.3C2404.4,306.3,2430.1,294.9,2452.2,294.9z M2387.6,245.2h28.2l-27.1,59.4h-16.5L2387.6,245.2z M2323.6,315.1
	h-0.5c-7.1-14.6-22.3-20.1-37.8-20.1c-37.8,0-54.6,31.5-54.6,64.4c0,31.3,14.3,64.6,50.5,64.6c17.7,0,33.7-6,41.9-23h0.5v1.2
	l0.7,18.2h23.6c-0.5-7.1-1.2-14.3-1.2-21.6V245.2h-23L2323.6,315.1L2323.6,315.1z M2174.4,420.3V245.2h23v175.1H2174.4z
	 M2108.7,420.3h-23V298.5h23v23.5h0.5c3.4-16.8,18.9-25.2,35.7-25.2c2.9,0,5.3,0.2,8,0.2v21.8c-3.2-1.1-6.8-1.1-10-1.1
	c-29.1,0.9-34.2,16.5-34.2,42.2V420.3L2108.7,420.3z M1995.9,294.9c-40,0-60.6,26.7-60.6,64.4c0,37.9,20.6,64.6,60.6,64.6
	c40.1,0,60.7-26.7,60.7-64.6C2056.6,321.6,2036,294.9,1995.9,294.9z M1921,298.6L1878,420.4h-26.2l-28.4-100.2h-0.5l-31.5,100.2
	h-26.9l-40.3-121.8h25l29.4,98.1h0.5l30.3-98.1h29.8l27.4,96.1h0.5l30.3-96.1H1921L1921,298.6z M1632.1,363.8v-11.4
	c0-33.8-17.2-56.8-53.6-57.5c-38.6,0-56.5,29.8-56.5,65.5c0,35.8,15.5,63.5,54.6,63.5c29.1,0,50.5-13.8,54.1-41.5h-24.2
	c-2.6,17.7-11.6,24.9-29.6,24.9c-23.5,0-32.3-22.1-30.5-43.5H1632.1L1632.1,363.8z M1386.6,420.3V245.2h23v69.6h0.5
	c8.7-13.6,21.8-19.9,39.5-19.9c31.7,0,41.7,21.1,41.7,42.9v82.5h-23v-72c0-21.3-5.6-35.2-27.2-35.6c-9.2-0.3-23.3,6.8-27.6,16.9
	c-5.3,12.7-3.9,21.4-3.9,28.2v62.6L1386.6,420.3L1386.6,420.3z"/>
</svg>
