<?xml version="1.0" encoding="utf-8"?>
<!-- Generator: Adobe Illustrator 18.1.1, SVG Export Plug-In . SVG Version: 6.00 Build 0)  -->
<svg version="1.1" id="Layer_1" xmlns="http://www.w3.org/2000/svg" xmlns:xlink="http://www.w3.org/1999/xlink" x="0px" y="0px"
	 viewBox="1225 -237 2500 525" enable-background="new 1225 -237 2500 525" xml:space="preserve">
<g>
	<path fill="#FFFFFF" d="M2238.6-8.1c-0.9-12.2-8.3-12.3-17.9-4.7c-38.9,30.9-57.9,25.1-76.4,18.7c-18.5-6.4-26.3-46.1,6.6-45.5
		c32.8,0.6,50.7,35,49.5,68.3c-1.2,33.3-20.9,74.7-69.2,75.9c-48.3,1.2-68.6-45.5-69.2-71.2c-0.6-25.7,10.7-39.1,14.3-42.6
		c3.6-3.5,4.8-6.4,0.6-5.8c-34,6.4-89.5,68.9-90.1,88.2c-0.4,14,12.8,17.5,14.3-1.7c1.2-15.2-17.3-51.4-28-59.6
		c-5.4,11.1-29.2,50.8-50.7,77.7c-5.8,7.2-20.3,16.3-31,12.3c-10.8-4.1-17.3-12.3-18.5-24.5V-9.2c-4.8-5.8-44.8,74.7-56.1,94
		s-34,29.2-34.6-4.1c-0.6-34.5,0.6-77.1-1.8-84.7c-5.2-16.4-44.2,66-65.6,92.9c-5.7,7.2-16.1,16.9-26.8,12.8
		c-10.8-4.1-14.9-12.3-16.1-24.5c-1.2-12.3-3-81.8-3-81.8c-7.2-9.3-49.5,82.3-57.3,96.4c-8,14.5-9.5,11.7-17.9,7
		c-8.4-4.7-8.4-5.8-9-18.7c-0.6-12.8-0.9-53.7-0.6-67.7c0.6-31.5,0.6-60.7,0-89.9c-0.6-29.2,8.4-62.5,25.1-84.1
		c16.7-21.6,59.1-23.9,55.5,30.9c-4.1,63.5-64.5,120.3-93.7,134.3c-6,2.9-38.6,17.5-68.6,8.2c-47.1-14.6-20.4-78.4,20.3-41.5
		c16.7,15.2,22.7,36.2,22.1,57.8c-0.6,21.6-14.3,74.1-65.6,76.5c-51.3,2.3-66.2-46.1-66.8-63.1c-0.4-10.5-0.6-24.5,1.8-29.8
		c5.4-12-1.2-7.6-4.8-5.3c-26,17-44.8,39.7-62.7,60.1c-51.5,58.8-60.3,113.3-62.1,133.1c-1.8,19.9,1.8,40.3,16.7,40.9
		c25,1,39.4-47.3,40.6-87c1.5-49.6-20.9-124.9-22.7-183.3c-1.8-58.4,24.5-115.6,29.2-126.1c4.8-10.5,2.4-13.4-10.1-8.2
		c-29.3,12.3-61.5,68.3-60.3,126.7c1.2,58.4,16.1,88.8,43,119.7l-10.1,15.8l-4.8-4.7c-38.2-37.4-62.2-60.7-62.7-130.8
		c-0.6-82.3,70.7-136.6,113.4-145.4c11.3-2.3,11.9,5.8,8.4,18.1c-3.6,12.3-11.3,57.2-7.8,105.7c3.6,48.5,10.9,96.4,13.1,155.9
		c4.1,108.2-51,172.8-79.4,172.8c-25.1,0-29.2-26.9-29.2-52c0-25.1,17.3-98.1,76.4-168.2c59.1-70.1,105-86.4,119.4-89.3
		c14.3-2.9,17.3,0.6,5.9,12.9c-11.3,12.2-18.5,27.4-16.7,51.9c1.8,24.5,15.5,49,40.6,47.9c25.1-1.2,39.1-33.8,39.4-45
		c0.6-25.1-9-31.3-17.9-41.5c-7.2-8.2-17.4,2.2-3.6,6.4c20.9,6.4,45.3,4.7,63.8-6.4s74.6-51.4,74.6-115.6c0-31.5-3.6-30.4-7.7-30.4
		c-4.2,0-17.9,10.5-19.1,78.2c-1.2,67.7,0.6,106.9,0.6,112.7c0,5.8-0.6,18.1,8.4,0c8.9-18.1,36.4-75.9,59.7-75.9
		c15.5,0,22.1,13.4,22.1,22.8c0,11.7-0.6,72.4-0.6,80c0,6.4,3.6,6.4,7.8,1.2c4.2-5.3,48.9-73.6,59.7-92.3
		c4.5-7.8,9.3-12.9,21.5-13.5c23.9-1.2,23.3,35.1,23.3,59c0,12.2,0.6,18.1,0.6,26.3c0,5.8,1.8,7,6.6-2.3
		c5.4-10.5,31.6-62.5,40.6-72.4c9-9.9,12-14,21.6-14s25,0,24.4,46.7c-0.6,46.7,0,68.9,0,68.9c0,3.5,2.4,5.3,6.6-1.2
		c4.2-6.4,56.1-94,60.3-107.4c4.2-13.4,12.5-6.4,13.1,2.9s38.2,61.3,36.4,94c-1.8,32.7-20.3,47.9-36.4,47.3
		c-16.1-0.6-23.3-14-23.3-26.9c0-12.8,14.9-37.4,32.2-53.7c17.3-16.3,59.1-64,118.8-66.6c13.7-0.6,11.3,9.9,1.8,18.7
		c-9.5,8.8-20.3,33.3-19.7,50.2c0.6,16.9,11.3,46.7,38.8,46.7s39.4-21.6,40-45.5c0.6-23.9-11.3-37.4-16.7-41.4
		c-12.9-9.8-24.1,5.3-5.4,9.9c16.7,4.1,42.4-8.2,58.5-21c16.1-12.9,20.3-16.4,35.2-15.8c14.9,0.6,23.3,17,23.3,41.5v32.7
		c0,4.7,4.8,9.3,10.8-3.5c2.9-6.2,20.3-45.5,35.8-61.9c15.5-16.4,20.9-14,26.9-14c6,0,21.5,4.7,21.5,36.2v73.6
		c0,8.8,4.7,9.3,9.5,3.5c4.7-5.8,10.1-11.7,16-18.7c6.1-7,21-5.8,9.7,10.5c-11.5,16.3-25.2,51.4-48.4,50.8
		c-23.3-0.6-27.5-25.7-28-35c-0.6-9.4-2.4-66.6-1.8-73.6c0.6-7-4.2-5.6-7.8,0.6c-5.4,9.3-34.7,68.3-43.6,83.5
		c-7.2,12.3-13.1,22.2-22.1,22.2c-8.9,0-15.5-7.6-15.5-26.3S2239.8,8.3,2238.6-8.1 M3563.4-8.1c-0.9-12.2-8.3-12.3-17.8-4.7
		c-38.8,30.9-57.9,25.1-76.4,18.7c-18.5-6.4-26.3-46.1,6.7-45.5c32.7,0.6,50.7,35,49.4,68.3c-1.3,33.3-20.9,74.7-69.2,75.9
		c-48.4,1.2-68.7-45.5-69.2-71.2c-0.5-25.7,10.8-39.1,14.4-42.6c3.6-3.5,4.7-6.4,0.5-5.8c-34,6.4-89.5,68.9-90.1,88.2
		c-0.5,14,12.8,17.5,14.2-1.7c1.3-15.2-17.3-51.4-28-59.6c-5.4,11.1-29.1,50.8-50.7,77.7c-5.8,7.2-20.3,16.3-30.9,12.3
		c-10.8-4.1-17.4-12.3-18.5-24.5V-9.2c-4.9-5.8-44.8,74.7-56.1,94c-11.3,19.3-34.2,29.2-34.7-4.1c-0.5-34.5,0.7-77.1-1.8-84.7
		c-5-16.4-44.1,66-65.6,92.9c-5.8,7.2-16,16.9-26.8,12.8c-10.8-4.1-14.9-12.3-16.2-24.5c-1.3-12.3-2.9-81.8-2.9-81.8
		c-7.2-9.3-49.6,82.3-57.4,96.4c-8.1,14.5-9.5,11.7-18,7c-8.3-4.7-8.3-5.8-8.8-18.7c-0.7-12.8-0.9-53.7-0.7-67.7
		c0.7-31.5,0.7-60.7,0-89.9c-0.5-29.2,8.5-62.5,25.2-84.1c16.7-21.6,59-23.9,55.4,30.9c-4.1,63.5-64.4,120.3-93.7,134.3
		c-5.9,2.9-38.5,17.5-68.5,8.2c-47.3-14.6-20.5-78.4,20.1-41.5c16.7,15.2,22.7,36.2,22.1,57.8c-0.5,21.6-14.2,74.1-65.6,76.5
		c-51.2,2.3-66.2-46.1-66.9-63.1c-0.4-10.5-0.5-24.5,1.8-29.8c5.6-12-1.1-7.6-4.7-5.3c-26.1,17-44.8,39.7-62.8,60.1
		c-51.4,58.8-60.2,113.3-62,133.1c-1.8,19.9,1.8,40.3,16.7,40.9c25,1,39.4-47.3,40.6-87c1.4-49.6-20.9-124.9-22.7-183.3
		c-1.8-58.4,24.5-115.6,29.1-126.1c4.9-10.5,2.3-13.4-10.1-8.2c-29.3,12.3-61.5,68.3-60.2,126.7c1.1,58.4,16,88.8,43,119.7
		l-10.2,15.8l-4.7-4.7c-38.3-37.4-62.2-60.7-62.8-130.8c-0.5-82.3,70.7-136.6,113.5-145.4c11.3-2.3,11.9,5.8,8.3,18.1
		c-3.6,12.3-11.3,57.2-7.7,105.7c3.6,48.5,11,96.4,13.1,155.9c4.1,108.2-51.1,172.8-79.3,172.8c-25.2,0-29.3-26.9-29.3-52
		c0-25.1,17.3-98.1,76.4-168.2c59-70.1,105-86.4,119.4-89.3c14.2-2.9,17.3,0.6,5.9,12.9c-11.3,12.2-18.5,27.4-16.7,51.9
		c1.8,24.5,15.5,49,40.6,47.9c25-1.2,39-33.8,39.4-45c0.5-25.1-9.2-31.3-18-41.5c-7.2-8.2-17.3,2.2-3.6,6.4
		c20.9,6.4,45.3,4.7,63.8-6.4s74.6-51.4,74.6-115.6c0-31.5-3.6-30.4-7.7-30.4s-18,10.5-19.1,78.2c-1.3,67.7,0.5,106.9,0.5,112.7
		c0,5.8-0.5,18.1,8.5,0c8.8-18.1,36.3-75.9,59.7-75.9c15.5,0,21.9,13.4,21.9,22.8c0,11.7-0.5,72.4-0.5,80c0,6.4,3.6,6.4,7.7,1.2
		c4.1-5.3,48.9-73.6,59.7-92.3c4.5-7.8,9.3-12.2,21.6-12.9c23.7-1.2,23.2,34.5,23.2,58.4c0,12.2,0.5,18.1,0.5,26.3
		c0,5.8,1.8,7,6.7-2.3c5.4-10.5,31.6-62.5,40.6-72.4c8.8-9.9,11.1-13.7,20.7-13.7c7.6,0,25.9-2.4,25.2,46.4c-0.5,46.7,0,68.9,0,68.9
		c0,3.5,2.3,5.3,6.7-1.2c4.1-6.4,56.1-94,60.2-107.4c4.1-13.4,12.6-6.4,13.1,2.9c0.5,9.3,38.1,61.3,36.3,94
		c-1.8,32.7-20.1,47.9-36.3,47.3c-16.2-0.6-23.2-14-23.2-26.9c0-12.8,14.7-37.4,32.2-53.7c17.3-16.3,59-64,118.7-66.6
		c13.8-0.6,11.3,9.9,1.8,18.7c-9.5,8.8-20.3,33.3-19.6,50.2c0.5,16.9,11.3,46.7,38.7,46.7c27.5,0,39.4-21.6,40.1-45.5
		c0.5-23.9-11.3-37.4-16.7-41.4c-12.9-9.8-24.1,5.3-5.4,9.9c16.7,4.1,42.4-8.2,58.4-21c16.2-12.9,20.3-16.4,35.2-15.8
		c14.9,0.6,23.4,17,23.4,41.5v32.7c0,4.7,4.7,9.3,10.6-3.5c2.9-6.2,20.3-45.5,35.8-61.9c15.6-16.4,21-14,27-14s21.4,4.7,21.4,36.2
		v73.6c0,8.8,4.9,9.3,9.5,3.5c4.9-5.8,10.2-11.7,16.2-18.7c5.9-7,20.9-5.8,9.5,10.5c-11.3,16.3-25,51.4-48.4,50.8
		c-23.2-0.6-27.3-25.7-28.1-35c-0.5-9.4-2.3-66.6-1.8-73.6c0.7-7-4.1-5.6-7.7,0.6c-5.4,9.3-34.7,68.3-43.5,83.5
		c-7.2,12.3-13.1,22.2-22.1,22.2c-9,0-15.5-7.6-15.5-26.3S3564.7,8.3,3563.4-8.1"/>
	<path fill="#FFFFFF" d="M2504.7-6.9c5.6-1.8,11.3-4.7,16.2-6.4c4.7-1.7,9-1.7,12.4,8.8c3.6,10.5,11.7,48.8,4.9,81.8
		c-4.9,23.4-18,29.8-20.3-1.8c-1.8-24.5-30.9-45-41.7-45c-10.8,0-16.2,2.9-15.6,8.8c0.7,5.8,12.8,15.9,25.2,17.5
		c22.7,2.9,80-14,107.5-9.9l19.1,20.4c-34.7-21-77.1,7-115.3,7c-33.4,0-70.7-8.8-71.6-36.2c-0.7-16.9,17.3-23.3,35.1-23.9
		c16.9-0.6,35.1,2,50.2,16.9c3.6,3.5,5.4,4.1,4.9-2.3c-0.5-6.4-8.5-21-12.6-26.3C2498.8-2.8,2501.1-5.7,2504.7-6.9"/>
</g>
</svg>
