<?xml version="1.0" encoding="utf-8"?>
<!-- Generator: Adobe Illustrator 18.1.1, SVG Export Plug-In . SVG Version: 6.00 Build 0)  -->
<svg version="1.1" id="Layer_1" xmlns="http://www.w3.org/2000/svg" xmlns:xlink="http://www.w3.org/1999/xlink" x="0px" y="0px"
	 viewBox="1225 -242 2500 534" enable-background="new 1225 -242 2500 534" xml:space="preserve">
<path fill="#FFFFFF" d="M3725-0.4v-44h-54.6v-68.4l-1.8,0.6l-51.3,15.7l-1,0.3v51.8h-80.9v-28.9c0-13.4,3-23.7,8.9-30.6
	c5.9-6.8,14.3-10.2,25-10.2c7.7,0,15.7,1.8,23.7,5.4l2,0.9V-154l-0.9-0.3c-7.5-2.7-17.7-4.1-30.3-4.1c-15.9,0-30.4,3.5-43,10.3
	c-12.6,6.9-22.6,16.7-29.5,29.2c-6.9,12.5-10.5,26.9-10.5,42.8v31.7h-38v44h38v185.2h54.6V-0.4h80.9v117.7c0,48.5,22.9,73,68,73
	c7.4,0,15.2-0.9,23.2-2.6c8.1-1.7,13.6-3.5,16.9-5.4l0.7-0.4v-44.4l-2.2,1.5c-3,2-6.7,3.6-11,4.8c-4.3,1.2-8,1.8-10.8,1.8
	c-10.6,0-18.4-2.8-23.2-8.5c-4.9-5.7-7.4-15.6-7.4-29.4V-0.4H3725L3725-0.4z M3320.9,145.7c-19.8,0-35.4-6.6-46.4-19.5
	c-11.1-13-16.7-31.5-16.7-55.1c0-24.3,5.6-43.3,16.7-56.6c11-13.1,26.5-19.8,46-19.8c18.9,0,34,6.4,44.8,19
	c10.8,12.6,16.3,31.5,16.3,56.1c0,24.9-5.2,44-15.4,56.8C3356,139.3,3340.8,145.7,3320.9,145.7 M3323.3-49.9
	c-37.8,0-67.8,11.1-89.2,32.9c-21.4,21.8-32.2,52.1-32.2,89.9c0,35.9,10.6,64.7,31.5,85.8c20.9,21,49.3,31.7,84.5,31.7
	c36.6,0,66.1-11.2,87.4-33.4c21.4-22.1,32.2-52.1,32.2-89c0-36.4-10.2-65.5-30.2-86.4C3387.1-39.3,3358.9-49.9,3323.3-49.9
	 M3113.8-49.9c-25.7,0-47,6.6-63.2,19.5c-16.3,13-24.6,30.1-24.6,50.8c0,10.8,1.8,20.3,5.3,28.4c3.5,8.1,9,15.3,16.3,21.3
	c7.2,6,18.4,12.2,33.2,18.6c12.4,5.1,21.7,9.4,27.6,12.9c5.8,3.3,9.8,6.7,12.1,10c2.2,3.2,3.4,7.6,3.4,13
	c0,15.4-11.5,22.9-35.3,22.9c-8.8,0-18.8-1.8-29.8-5.5c-10.9-3.6-21.2-8.8-30.6-15.5l-2.3-1.6v52.5l0.8,0.4
	c7.7,3.6,17.5,6.6,28.9,8.9c11.5,2.4,21.9,3.6,30.9,3.6c27.9,0,50.4-6.6,66.8-19.6c16.5-13.1,24.9-30.6,24.9-52.1
	c0-15.4-4.5-28.7-13.4-39.4c-8.8-10.6-24.1-20.3-45.4-28.9c-17-6.8-27.9-12.5-32.4-16.8c-4.3-4.2-6.5-10.1-6.5-17.7
	c0-6.7,2.7-12,8.3-16.3c5.6-4.3,13.4-6.6,23.2-6.6c9.1,0,18.4,1.4,27.6,4.3c9.2,2.8,17.4,6.6,24.1,11.2l2.2,1.5v-49.8l-0.9-0.4
	c-6.3-2.7-14.5-5-24.5-6.8C3130.8-49,3121.7-49.9,3113.8-49.9 M2883.7,145.7c-19.8,0-35.4-6.6-46.4-19.5
	c-11.1-13-16.7-31.5-16.7-55.1c0-24.3,5.6-43.3,16.7-56.6c11-13.1,26.5-19.8,46-19.8c18.9,0,34,6.4,44.8,19
	c10.8,12.6,16.3,31.5,16.3,56.1c0,24.9-5.2,44-15.4,56.8C2918.9,139.3,2903.7,145.7,2883.7,145.7 M2886.2-49.9
	c-37.8,0-67.8,11.1-89.2,32.9c-21.4,21.8-32.2,52.1-32.2,89.9c0,35.9,10.6,64.7,31.5,85.8c20.9,21,49.3,31.7,84.5,31.7
	c36.6,0,66.1-11.2,87.4-33.4c21.4-22.1,32.2-52.1,32.2-89c0-36.4-10.2-65.5-30.2-86.4C2950-39.3,2921.7-49.9,2886.2-49.9
	 M2681.9-4.7v-39.7h-53.9v229.2h53.9V67.6c0-19.9,4.5-36.3,13.4-48.7c8.8-12.2,20.5-18.4,34.9-18.4c4.9,0,10.3,0.8,16.2,2.4
	c5.8,1.6,10.1,3.3,12.6,5.1l2.3,1.6v-54.4l-0.9-0.4c-5-2.1-12.1-3.2-21.1-3.2c-13.5,0-25.7,4.4-36.1,12.9
	c-9.1,7.5-15.7,17.9-20.7,30.7H2681.9z M2531.4-49.9c-24.7,0-46.8,5.3-65.6,15.8c-18.8,10.5-33.3,25.4-43.2,44.5
	c-9.9,19-14.9,41.1-14.9,65.9c0,21.7,4.8,41.5,14.4,59c9.6,17.5,23.2,31.3,40.3,40.8c17.2,9.5,37,14.3,58.9,14.3
	c25.6,0,47.5-5.1,65-15.2l0.7-0.4v-49.4l-2.3,1.7c-7.9,5.8-16.8,10.4-26.4,13.7c-9.5,3.3-18.2,5-25.8,5c-21.2,0-38.1-6.6-50.5-19.7
	c-12.4-13.1-18.6-31.4-18.6-54.5c0-23.2,6.5-42.1,19.4-55.9c12.8-13.8,29.8-20.9,50.6-20.9c17.7,0,35,6,51.3,17.9l2.3,1.6v-52
	l-0.7-0.4c-6.1-3.4-14.5-6.3-24.9-8.4C2551.2-48.8,2541-49.9,2531.4-49.9 M2370.6-44.4h-53.9v229.2h53.9V-44.4L2370.6-44.4z
	 M2344.2-142c-8.9,0-16.6,3-23,9c-6.4,6-9.6,13.6-9.6,22.5c0,8.8,3.2,16.2,9.5,22c6.3,5.8,14,8.8,23.1,8.8c9,0,16.8-3,23.2-8.8
	c6.4-5.9,9.6-13.3,9.6-22.1c0-8.6-3.2-16.1-9.4-22.2C2361.4-138.9,2353.6-142,2344.2-142 M2209.7-61.3v246.1h55V-135h-76.1
	l-96.8,237.5L1997.9-135h-79.2v319.8h51.7V-61.3h1.8l99.2,246.1h39l97.6-246.1L2209.7-61.3L2209.7-61.3z"/>
<path fill="#F1511B" d="M1478.6,11.7H1225v-253.6h253.6V11.7z"/>
<path fill="#80CC28" d="M1758.6,11.7H1505v-253.6h253.6V11.7L1758.6,11.7z"/>
<path fill="#00ADEF" d="M1478.6,291.9H1225V38.3h253.6V291.9z"/>
<path fill="#FBBC09" d="M1758.6,291.9H1505V38.3h253.6V291.9L1758.6,291.9z"/>
</svg>
