<?xml version="1.0" encoding="utf-8"?>
<!-- Generator: Adobe Illustrator 18.1.1, SVG Export Plug-In . SVG Version: 6.00 Build 0)  -->
<svg version="1.1" id="Layer_1" xmlns="http://www.w3.org/2000/svg" xmlns:xlink="http://www.w3.org/1999/xlink" x="0px" y="0px"
	 viewBox="1225 -1225 2500 2500" enable-background="new 1225 -1225 2500 2500" xml:space="preserve">
<path fill="#FFFFFF" d="M1544.1,564.2l45.5-154.8h78.4l19.8,66.1l56.9-66.5h83.2l-43.3,155l-62.9,0.2l23-79.9l-73,79.9h-30.9
	l-22.5-85.5l-25.3,85.5L1544.1,564.2L1544.1,564.2z M2097.8,409l193.1,0.3l-11.6,50H2213l-27.2,104.8l-61.1,0.1l25.4-104.4h-65.3
	L2097.8,409L2097.8,409z M2615.7,409.3v36h0.1l-7.5,29.9h66.2c0,0,16.1-2.8,17-17.5c0.8-13-11.3-12.1-11.3-12.1l-64.4-0.2
	L2615.7,409.3l99.7,0c0,0,42.7,3.2,38.5,40.2c-4.3,36.9-43.5,48.7-43.5,48.7s-2.4,2.4-0.5,3.7c1.9,1.4,16.5,4.1,18.4,17.9
	c1.9,13.8-4.8,23.9-4.8,28.1c0,4.1,0.4,12.4,5.7,16.1h-63c0,0-11.2-1.7-10.3-13.3c0.9-11.5,1.5-21.6,1.5-21.6s-0.9-12-17.8-10.6
	l-46.1-0.5l-13.1,46.1h-57.8l44-154.8L2615.7,409.3L2615.7,409.3L2615.7,409.3z M3053.4,409.3h59.1l-28.7,112.3h97.3l-11.3,42.7
	H3013L3053.4,409.3L3053.4,409.3z M3370.4,409.2l35.5,155.1h-61.5l-6.5-26.9l-0.2-0.5H3263l-0.3,0.2l-18,27.1l-52.1,0.1l105.2-155.1
	l20.4,45.7l-30.5,45.2l0.9,0.3h39.5l0.7-0.1l-10.6-45.4l-20.4-45.7L3370.4,409.2L3370.4,409.2z M1965.7,443.7
	c18.8,0,37.2,9.3,40.2,22.8c8.9,43.1-37.1,61.6-31.7,58.8c-26.4,13.1-66.6,8.9-71.3-18.3c-4.5-26.1,15.7-51.8,32.7-58
	C1947.2,444.8,1956.8,443.1,1965.7,443.7l0.1-0.4l0.2-40.2c-12.2,0.2-25.8,1.8-36.6,3.9c-46.3,8.9-104.7,51-94.5,104.3
	c8.7,45,69.8,69.2,138.3,56c64.2-12.3,106.3-61.8,97.3-105.7c-8.7-42.5-59-58.4-104.4-58.4v34.7L1965.7,443.7L1965.7,443.7z
	 M2414.9,443.7c18.7,0,37.3,9.3,40,22.8c9.1,43.1-36.9,61.6-31.5,58.8c-26.5,13.1-66.7,8.9-71.4-18.3c-4.5-26.1,15.6-51.8,32.7-58
	C2396.3,444.8,2406,443.1,2414.9,443.7l0.1-0.4l0.3-40.2c-12.3,0.3-24.6,1.6-36.7,3.9c-46.3,8.9-104.8,51-94.5,104.3
	c8.7,45,69.9,69.2,138.3,56c64.3-12.3,106.4-61.8,97.4-105.7c-8.7-42.5-59-58.4-104.4-58.4v34.7L2414.9,443.7L2414.9,443.7z
	 M2903.2,443.2c18.7,1,37.1,9.7,40,23.2c9,43.1-37,61.6-31.5,58.8c-26.5,13.1-66.7,8.9-71.4-18.3c-4.5-26.1,15.6-51.8,32.7-58
	C2886.9,443.9,2892.3,442.5,2903.2,443.2l0.3-40.2c-12.3,0.3-24.6,1.6-36.7,3.9c-46.2,8.9-104.7,51-94.4,104.3
	c8.7,45,69.9,69.2,138.3,56c64.2-12.3,106.4-61.8,97.2-105.7c-8.7-42.5-58.9-58.4-104.4-58.4v34.7L2903.2,443.2L2903.2,443.2z
	 M2475.7-680.4c261.3,0,466.9,210.4,466.9,466.7c0,257.8-209.1,466.8-466.9,466.8s-466.8-208.9-466.8-466.8
	S2217.9-680.4,2475.7-680.4L2475.7-680.4z M2474.6-115.8L2344.1-549L2175,5.6h31.7c0,0,21.4-96.5,56-154.1
	c18.9-31.2,48-56.8,86.9-56.1c27.4,0.5,51.1,15.5,80.8,56.9c17.8,24.9,45.3,88.2,45.3,88.2s27.4-63.2,45.3-88.2
	c29.5-41.4,53.3-56.4,80.7-56.9c38.8-0.7,68,24.9,86.9,56.2c34.7,57.6,56,154.1,56,154.1h31.8L2607.2-549l-130.6,433.2l-0.9,0.8
	L2474.6-115.8L2474.6-115.8z"/>
</svg>
