<?xml version="1.0" encoding="utf-8"?>
<!-- Generator: Adobe Illustrator 18.1.1, SVG Export Plug-In . SVG Version: 6.00 Build 0)  -->
<svg version="1.1" id="Layer_1" xmlns="http://www.w3.org/2000/svg" xmlns:xlink="http://www.w3.org/1999/xlink" x="0px" y="0px"
	 viewBox="6.7 0.8 37.2 44.4" enable-background="new 6.7 0.8 37.2 44.4" xml:space="preserve">
<path fill="#FFFFFF" d="M25,1.9c-9.8,0-17.8,8-17.8,17.8c0,1.2,0.1,2.4,0.3,3.6l5.5,4l0.8,6.7h9l0.5,0.4c0.5,0.3,1,0.5,1.6,0.5
	c0.6,0,1.1-0.2,1.6-0.5l0.5-0.4h9.1l0.8-6.7l5.5-4c0.2-1.2,0.4-2.4,0.4-3.6C42.8,9.9,34.8,1.9,25,1.9z M39.5,21.6L34,25.5l-0.7,5.3
	h-6.6l-1,0.7c-0.2,0.2-0.5,0.3-0.8,0.3c-0.3,0-0.6-0.1-0.8-0.3l-1-0.7h-6.6L16,25.5l-5.4-3.9c-0.2-0.6-0.2-1.2-0.2-1.9
	c0-1.1,0.2-2.1,0.7-3.1l9.6,9.7l-9.3-11.5c0.4-1.5,1.2-2.8,2.3-3.8l8.3,14.4L14.5,9.6c1-1.3,2.3-2.2,3.8-2.7l5.1,17.9L19.7,6.2
	c1.1-0.6,2.4-1,3.7-1c0.3,0,0.5,0,0.8,0.1L25,24.6l0.8-19.4c0.3-0.1,0.5-0.1,0.8-0.1c1.3,0,2.6,0.3,3.7,1l-3.7,18.6l5.1-17.9
	c1.5,0.5,2.9,1.4,3.8,2.7l-7.4,15.8L36.4,11c1.2,1,2,2.4,2.3,3.8l-9.3,11.5l9.6-9.7c0.4,1,0.7,2,0.7,3.1
	C39.7,20.4,39.6,21,39.5,21.6z"/>
<path fill="none" d="M23.2,30.9h-6.6L16,25.5l-5.4-3.9c-0.2-0.6-0.2-1.2-0.2-1.9c0-1.1,0.2-2.1,0.7-3.1l9.6,9.7l-9.3-11.5
	c0.4-1.5,1.2-2.8,2.3-3.8l8.3,14.4L14.5,9.6c1-1.3,2.3-2.2,3.8-2.7l5.1,17.9L19.7,6.2c1.1-0.6,2.4-1,3.7-1c0.3,0,0.5,0,0.8,0.1
	L25,24.6l0.8-19.4c0.3-0.1,0.5-0.1,0.8-0.1c1.3,0,2.6,0.3,3.7,1l-3.7,18.6l5.1-17.9c1.5,0.5,2.9,1.4,3.8,2.7l-7.4,15.8L36.4,11
	c1.2,1,2,2.4,2.3,3.8l-9.3,11.5l9.6-9.7c0.4,1,0.7,2,0.7,3.1c0,0.6-0.1,1.3-0.2,1.9L34,25.5l-0.7,5.3h-6.6l-1,0.7
	c-0.2,0.2-0.5,0.3-0.8,0.3c-0.3,0-0.6-0.1-0.8-0.3L23.2,30.9L23.2,30.9z"/>
<path fill="#FFFFFF" d="M24.8,40.8c0-0.1-0.1-0.3-0.2-0.4c-0.1-0.1-0.2-0.3-0.3-0.4c-0.1-0.1-0.3-0.3-0.4-0.4
	c-0.1-0.1-0.3-0.2-0.5-0.2c-0.2-0.1-0.3-0.1-0.5-0.1c-0.2,0-0.3-0.1-0.5-0.1H22c-0.2,0-0.3,0.1-0.4,0.1c-0.2,0-0.3,0.1-0.5,0.1
	c-0.2,0.1-0.3,0.1-0.5,0.2c-0.1,0.1-0.3,0.1-0.4,0.2c-0.1,0.1-0.2,0.1-0.3,0.2c0,0,0,0-0.1,0l-0.1,0.1v-2.5h-2.4v7.6h2.4v-2.9
	c0-0.1,0-0.2,0-0.3c0-0.1,0-0.1,0-0.2c0-0.1,0.1-0.2,0.1-0.3l0.2-0.3c0.1-0.1,0.2-0.2,0.3-0.2c0.1-0.1,0.2-0.1,0.3-0.1
	c0.1,0,0.2-0.1,0.2-0.1c0.1,0,0.2,0,0.3,0h0.1c0.1,0,0.2,0,0.3,0c0.1,0,0.2,0,0.3,0.1c0.1,0,0.2,0.1,0.3,0.1
	c0.1,0.1,0.2,0.1,0.2,0.2l0.2,0.2c0.1,0.1,0.1,0.2,0.1,0.3v0.2c0,0.1,0,0.2,0,0.3v3.1h2.4v-3.4c0-0.2,0-0.3,0-0.5
	C24.9,41,24.8,40.9,24.8,40.8z"/>
<path fill="#FFFFFF" d="M15.6,41.7c-0.1-0.2-0.2-0.4-0.4-0.5c-0.2-0.2-0.4-0.3-0.6-0.4c-0.2-0.1-0.4-0.1-0.6-0.2
	c-0.2-0.1-0.5-0.1-0.7-0.1c-0.1,0-0.2,0-0.3,0c-0.3,0-0.5,0-0.8-0.1c-0.2,0-0.3,0-0.5,0c-0.2,0-0.3,0-0.5-0.1c-0.1,0-0.2,0-0.4-0.1
	c-0.1,0-0.2,0-0.2-0.1c-0.1,0-0.2-0.1-0.2-0.1L10.1,40c0-0.1-0.1-0.1-0.1-0.2c0-0.1-0.1-0.2-0.1-0.2c0-0.1,0-0.2,0.1-0.2
	c0-0.1,0.1-0.1,0.1-0.2c0-0.1,0.1-0.1,0.2-0.2c0.1-0.1,0.1-0.1,0.2-0.2c0.1,0,0.2-0.1,0.3-0.1c0.1-0.1,0.2-0.1,0.3-0.1
	c0.1,0,0.2-0.1,0.3-0.1h0.3c0.1,0,0.2,0,0.3,0l0.3,0.1c0.1,0,0.2,0.1,0.2,0.1c0.1,0,0.1,0.1,0.2,0.1c0.1,0.1,0.1,0.1,0.2,0.2
	c0,0.1,0.1,0.1,0.1,0.2c0,0.1,0.1,0.1,0.1,0.2c0,0.1,0,0.1,0,0.2v0.1v0.1h2.5l0-0.1v-0.1c0-0.1,0-0.1-0.1-0.2c0-0.1,0-0.1,0-0.2
	c-0.1-0.1-0.1-0.2-0.1-0.3c0-0.1-0.1-0.2-0.2-0.3c-0.1-0.1-0.2-0.3-0.3-0.4c-0.1-0.1-0.2-0.2-0.4-0.3c-0.2-0.1-0.4-0.2-0.6-0.3
	c-0.2-0.1-0.5-0.2-0.7-0.2c-0.2,0-0.5-0.1-0.7-0.1c-0.3,0-0.5,0-0.8,0h-0.1c-0.2,0-0.4,0-0.7,0c-0.2,0-0.5,0-0.7,0.1
	c-0.3,0-0.5,0.1-0.8,0.2c-0.2,0.1-0.4,0.2-0.7,0.3c-0.2,0.1-0.4,0.2-0.6,0.4c-0.2,0.2-0.3,0.4-0.4,0.6c-0.1,0.1-0.2,0.3-0.2,0.5
	c-0.1,0.2-0.1,0.4-0.1,0.6c0,0.2,0,0.3,0.1,0.5c0.1,0.2,0.1,0.3,0.2,0.5c0.1,0.1,0.2,0.3,0.3,0.4c0.1,0.1,0.2,0.2,0.4,0.3
	c0.2,0.1,0.3,0.1,0.5,0.2c0.2,0.1,0.5,0.1,0.7,0.2C9.8,42,10,42,10.2,42c0.2,0,0.5,0,0.7,0.1l1.2,0.1c0.1,0,0.2,0,0.4,0
	c0.1,0,0.2,0.1,0.3,0.1c0.1,0,0.2,0.1,0.3,0.1c0.1,0.1,0.1,0.1,0.2,0.2c0.1,0.1,0.1,0.1,0.1,0.2c0,0.1,0,0.2,0,0.2
	c0,0.1,0,0.2,0,0.2c0,0.1-0.1,0.1-0.1,0.2c-0.1,0.1-0.1,0.1-0.2,0.2c-0.1,0.1-0.1,0.1-0.2,0.1c-0.1,0.1-0.2,0.1-0.2,0.1
	c-0.1,0.1-0.2,0.1-0.3,0.1c-0.1,0-0.2,0.1-0.4,0.1c-0.1,0-0.2,0-0.3,0s-0.3,0-0.4,0c-0.1,0-0.3-0.1-0.4-0.1s-0.2-0.1-0.3-0.1
	c-0.1-0.1-0.2-0.1-0.3-0.2c-0.1-0.1-0.1-0.1-0.2-0.2c-0.1-0.1-0.1-0.1-0.2-0.2l-0.1-0.2c0-0.1,0-0.2,0-0.2v-0.2H7.2v0.1v0
	c0,0.1,0,0.2,0,0.3c0,0.1,0,0.2,0.1,0.2c0,0.1,0.1,0.2,0.1,0.4c0.1,0.1,0.1,0.2,0.2,0.3c0.1,0.1,0.2,0.3,0.3,0.4
	c0.1,0.1,0.3,0.2,0.4,0.3c0.2,0.1,0.4,0.2,0.7,0.3C9.2,45,9.5,45,9.7,45.1c0.3,0.1,0.6,0.1,0.9,0.1c0.3,0,0.5,0,0.8,0h0.1
	c0.3,0,0.6,0,0.9-0.1c0.3-0.1,0.6-0.1,0.9-0.1c0.3-0.1,0.6-0.2,0.8-0.3c0.3-0.1,0.5-0.2,0.7-0.4c0.2-0.1,0.3-0.2,0.4-0.4
	c0.1-0.1,0.2-0.3,0.3-0.5c0.1-0.1,0.1-0.3,0.2-0.4c0-0.2,0.1-0.3,0.1-0.5c0-0.2,0-0.3-0.1-0.5C15.7,42,15.7,41.8,15.6,41.7z"/>
<rect x="40.4" y="37.5" fill="#FFFFFF" width="2.4" height="7.6"/>
<rect x="35.8" y="37.5" fill="#FFFFFF" width="2.4" height="7.6"/>
<path fill="#FFFFFF" stroke="#FFFFFF" stroke-width="0" stroke-linecap="round" stroke-linejoin="round" d="M31.4,43.3L31.4,43.3
	c0,0.1-0.1,0.2-0.1,0.2c-0.1,0.1-0.1,0.1-0.1,0.2c-0.1,0.1-0.2,0.1-0.2,0.1c-0.1,0.1-0.2,0.1-0.3,0.1c-0.1,0-0.2,0.1-0.3,0.1
	c-0.1,0-0.2,0-0.3,0h0c-0.1,0-0.2,0-0.3,0c-0.1,0-0.2,0-0.3-0.1c-0.1-0.1-0.2-0.1-0.3-0.2s-0.2-0.1-0.3-0.2
	c-0.1-0.1-0.1-0.2-0.2-0.2c-0.1-0.1-0.1-0.2-0.2-0.3c0-0.1-0.1-0.2-0.1-0.2c0-0.1,0-0.2,0-0.2v-0.1H34l0-0.1v-0.1
	c0-0.2,0-0.4-0.1-0.6c0-0.2-0.1-0.3-0.1-0.5c-0.1-0.3-0.2-0.5-0.3-0.7c-0.2-0.2-0.3-0.4-0.5-0.6c-0.2-0.2-0.4-0.3-0.7-0.4
	c-0.2-0.1-0.5-0.2-0.8-0.3c-0.2-0.1-0.5-0.1-0.8-0.2C30.5,39,30.2,39,30,39h-0.1c-0.2,0-0.5,0-0.8,0.1c-0.2,0-0.5,0.1-0.7,0.1
	c-0.2,0.1-0.5,0.2-0.7,0.3c-0.2,0.1-0.4,0.2-0.6,0.4c-0.2,0.2-0.4,0.3-0.6,0.5c-0.2,0.2-0.3,0.4-0.4,0.6c-0.1,0.2-0.1,0.4-0.2,0.6
	c0,0.2-0.1,0.4-0.1,0.6c0,0.2,0,0.4,0.1,0.6c0.1,0.2,0.1,0.4,0.2,0.5c0.1,0.2,0.2,0.4,0.3,0.6c0.2,0.2,0.3,0.3,0.5,0.5
	c0.2,0.2,0.5,0.3,0.8,0.4c0.3,0.1,0.5,0.2,0.9,0.3c0.2,0,0.4,0.1,0.7,0.1c0.2,0,0.5,0,0.7,0H30c0.2,0,0.4,0,0.6,0
	c0.2,0,0.4-0.1,0.7-0.1c0.2-0.1,0.5-0.1,0.7-0.2c0.2-0.1,0.4-0.2,0.6-0.3c0.1-0.1,0.3-0.2,0.4-0.3s0.3-0.2,0.4-0.3
	c0.1-0.1,0.2-0.2,0.2-0.3c0.1-0.1,0.1-0.2,0.1-0.3c0,0,0-0.1,0-0.1c0,0,0-0.1,0.1-0.1L31.4,43.3C31.4,43.2,31.4,43.2,31.4,43.3z
	 M30,40.3c1,0.1,1.6,0.4,1.6,1.4c-1,0-2.3,0-3.3,0C28.3,40.9,28.9,40.4,30,40.3 M30,40.3"/>
</svg>
