<?xml version="1.0" encoding="utf-8"?>
<!-- Generator: Adobe Illustrator 18.1.1, SVG Export Plug-In . SVG Version: 6.00 Build 0)  -->
<svg version="1.1" id="Layer_1" xmlns="http://www.w3.org/2000/svg" xmlns:xlink="http://www.w3.org/1999/xlink" x="0px" y="0px"
	 viewBox="1225 -1225 2500 2500" enable-background="new 1225 -1225 2500 2500" xml:space="preserve">
<path fill="#FFFFFF" d="M2491.7-858.9c-242,0-438.2,196.2-438.2,438.2c0,99.9,33.5,192,89.8,265.7l364.3-478.8l-39.2,0.1h-39
	c-41.6,0-80.6,2.9-108.7,8.4c-17.1,3.3-32.3,9.5-44.7,18.2c-14.6,10.2-32.7,31.8-44.6,53.1c-1.4,2.5-3.4,6.2-5.9,11.3l-21.3-4.7
	l35.7-137.6h456.3l-362.6,484.8c23.6-2.1,33-2.5,52.1-2.5c14.7,0,37,0.9,66.9,2.7l64.4,3.8c23.3,1.4,42.9,2.1,57.7,2.1
	c33.3,0,54.9-2.6,76.3-9.1c16.7-5.1,32.5-12.8,46.9-22.7c25.4-17.5,50.2-45.8,65-74.1c1.5-2.9,3.8-7.2,6.6-13l19.3,5
	c-6.2,24-9.6,33.2-19.2,54.7c-19.5,43.5-41.5,72.7-71.7,95.1c-31.1,23-65.5,34.3-106.1,34.9l-6.2,0c-30.1,0-53.4-2.5-125.5-13.6
	c-73.4-11.3-110.7-15.1-147.6-15.1c-24.7,0-47.7,1.8-71.4,5.7c-31.5,5.1-43.8,8.8-72.4,21.8c80.1,87.3,195.1,142,322.9,142
	c242,0,438.2-196.2,438.2-438.2C2929.9-662.6,2733.7-858.9,2491.7-858.9L2491.7-858.9z"/>
<path fill="#FFFFFF" d="M1665,321.3h-335.5l-41.2,91c13.7-7.3,19.2-9.9,31.3-14.7c19.5-7.7,39.7-13.4,60.3-17.1
	c17.6-3.1,33.8-4.5,60.1-5.2c11-0.3,22.1-0.5,33.1-0.5h49.7l-261,373h368.9l42.6-97.3c-14.8,8.5-20.1,11.3-31.4,16.4
	c-22,9.9-45.2,17-68.9,21.1c-19,3.3-40.4,5.2-67.1,5.9c-8.9,0.2-20.3,0.3-34.1,0.3h-65.4L1665,321.3L1665,321.3z M2773.8,747.9
	c-6.6-5.8-8.9-8.4-13.2-15c-2.6-4.1-4.9-8.5-6.6-13c-3.6-9.7-5.9-24-5.9-37.5V425.4l0.2-25c0.2-28.6,0.9-36.4,4.6-48
	c1.4-4.6,3.5-9.1,6.1-13.3c4.4-7.3,7.4-10.6,16-17.7h-137c9,7.7,11.8,10.7,15.9,16.9c2.9,4.3,5.1,9,6.6,13.8
	c3.2,10.4,4.2,20.6,4.4,46c0.1,13,0.2,21.6,0.2,25.7v255.4c0,14.9-2.6,30.9-6.8,41.2c-1.8,4.4-4,8.6-6.8,12.5
	c-3.2,4.7-5.5,7.3-13,15H2773.8L2773.8,747.9z M3202.2,325.2c-8.5-2.9-17.2-5.2-26-6.9c-24.5-5.2-48.2-7.6-75-7.6
	c-45.8,0-85.4,7.3-121.6,22.6c-21.1,8.8-40.8,20.5-58.6,34.8c-52.6,42.4-81.1,103.7-81.1,174.3c0,68.6,27.6,127.8,77.9,167.6
	c41.6,32.8,95,49.4,159.4,49.4c40.1,0,77.6-6,119.7-19.1l6.9-2.2v-77.5c-10.2,6.8-13.7,9.1-19.9,12.7c-8.2,4.8-17,9.1-26.2,13
	c-25.7,10.9-49.1,15.9-74.4,15.9c-44.2,0-81.9-15.8-109.9-46c-27.6-29.8-42.6-71.3-42.6-118.2c0-44.7,13.9-86.2,38.5-115.1
	c10.9-12.7,24-23.4,38.7-31.6c24.1-13.5,52.1-20.5,82.5-20.5c26.1,0,51.3,5.1,76.6,15.4c15.8,6.4,21.5,9.6,35.1,19.3L3202.2,325.2
	L3202.2,325.2L3202.2,325.2z M3576.2,554.3v104.1c0,23.1-0.4,31.5-1.9,43.4c-0.8,6.3-2.3,12.5-4.6,18.4c-3.1,8-8.1,15.3-15.4,22.3
	c-1.3,1.3-3.2,3.1-5.9,5.4h136.3c-5.7-5.6-7.8-8-11.5-13.2c-3.2-4.4-5.9-9.1-8-14c-4.1-10-5.2-17.5-5.6-38.5
	c-0.2-12.6-0.3-20-0.3-22.1l0.3-234.6V400c0-18.7,1.5-33.2,4.7-45.1c1.5-5.5,3.8-10.8,6.8-15.7c4.5-7.4,7.7-10.8,16.9-17.9H3549
	c8,6.7,10.8,9.8,15.5,17.4c3.1,4.9,5.5,9.9,7.1,14.9c3.3,10,4.6,22.4,4.6,44.8v103.7H3385v-77.9c0-23.6,0.4-39,1.2-50.5
	c0.4-6.3,1.5-12.6,3.4-18.6c3-9.2,10.7-21.9,17.7-29.2c1.5-1.6,3.1-3.1,4.7-4.6h-136.7c8.2,8.4,10.3,10.9,14,16.4
	c3,4.4,5.4,9.2,7.3,14.5c3.7,10.8,4.4,16.6,4.7,45.1l0.4,27v233.5c0,23.8-0.4,34.1-1.7,44.9c-0.7,5.6-2.1,11.2-4.2,16.9
	c-3.5,9.3-8.5,16.6-16.4,24c-1,1-2.6,2.4-4.7,4.2h135c-5.8-6.1-7.9-8.6-11.3-14c-2.7-4.2-4.9-8.7-6.8-13.3
	c-4.4-11.2-5.8-19.2-6.2-37.3c-0.2-8.5-0.3-17-0.4-25.5V554.3L3576.2,554.3L3576.2,554.3L3576.2,554.3z M1723.1,321.3
	c8.5,6.9,11.4,10.1,15.5,17.2c2.7,4.6,4.8,9.6,6.1,14.9c1.6,6.4,2.5,13,2.7,19.6c0.1,4.7,0.2,13.6,0.3,26.5l0.2,24.7v122
	c0,43.1,0.3,57.9,1.7,75.2c2.4,30.6,12.1,56,29.9,78.4c18,22.6,42.4,39.6,72,50c22.9,8.1,48.7,12.1,77.8,12.1
	c32.1,0,63.4-4.9,86.4-13.4c24.2-9,47.4-24.6,63.5-42.6c19.7-22,30.8-48.7,34.5-82.6c2.2-20.3,2.9-38.5,2.9-76.4V424.2l-0.2-24.2
	l0-3.4c0-21.5,1.8-35.1,3.9-42.3c4.4-15.1,12.1-24,19.1-29.4c2.7-2.1,3.5-2.7,4.9-3.7h-126.3c5.2,7.8,6.9,11.1,9.3,18.6
	c1.6,5,2.8,10.4,3.5,16.1c2,15.1,2.7,34.4,2.7,70.8v132.4c0,36.8-0.9,55.3-3.5,72.3c-1.6,11-5.3,21.5-11,31.1
	c-10.8,17.9-29.6,31-52.5,36.7c-9.9,2.4-20.1,3.5-30.3,3.4c-22,0-41-4.6-57.9-13.9c-10.8-5.9-19.4-13.5-25.3-22.1
	c-11.7-17.1-15.1-34.3-15.5-78.1l-0.5-53.7V426.7c0-36.4,0.8-56.1,2.7-70.8c1.4-10.9,4.9-21.3,10.5-30.8c0.5-0.9,1.3-2.2,2.4-3.9
	L1723.1,321.3L1723.1,321.3L1723.1,321.3z M2324.1,660.2c0,7.8,0.1,14.9,0.2,21.5c0.3,19.7,1.8,30,5.6,39.4c1.8,4.5,4.3,8.9,7.3,13
	c3.8,5.2,5.6,7.3,11.8,13.9h-135.7c7.9-7.2,10.4-9.8,14.2-14.9c3.1-4.1,5.6-8.7,7.4-13.5c3.5-9.4,4.9-21,4.9-41.2V398.4
	c0-22.6-1.2-35.9-4.2-45.4c-1.7-5.5-4.2-10.7-7.4-15.6c-4-6.1-6.8-9.2-14.4-16H2324c13.6,0,26.8,0.2,39.5,0.5
	c34,0.9,53.8,2.9,73,7.4c27.2,6.4,51.7,20,69.3,38.4c19.1,20,28.9,43.8,28.9,70c0,11.1-1.8,22.2-5.3,32.8
	c-6.2,19.2-16.8,34.5-33.6,48.7c-14.9,12.5-31.1,21.9-52.5,30.4c-7.5,3-10.7,4.1-18.9,6.6l66.2,77.9c8,9.5,18.4,21.1,31.1,34.8
	c20,21.6,33.3,35.3,48.3,49.5c6.5,6.1,12.6,11.7,18.4,16.7c5.5,4.8,8.4,7.1,15.6,12.8h-53.5c-7.9,0-15.3-0.1-22.1-0.4
	c-18.5-0.6-30.1-3.3-42.4-10c-14.3-7.7-28.8-19.2-44.1-35c-7.1-7.5-14-15.1-20.8-23c-6-6.8-11.9-13.7-17.7-20.6l-79.1-94.8V660.2
	L2324.1,660.2z M2331.1,528.5c6.1,0,13.6-0.7,22.3-1.9c22.9-3.3,38.5-8.4,53.7-17.4c7.4-4.3,14.2-9.7,19.9-16
	c10.9-12.3,16.6-28.7,16.6-48.1c0-22.3-7.5-40.1-22-52.4c-8.4-7.1-18.3-12.4-28.9-15.4c-16.1-4.6-36.5-7.2-57.5-7.2
	c-3.5,0-5.8,0.1-11.1,0.2v158C2327.5,528.4,2328.9,528.5,2331.1,528.5L2331.1,528.5z"/>
<path fill="#FFFFFF" d="M1895.4,389.7c17.8,0,32.2-15.1,32.2-33.7c0-18.6-14.4-33.7-32.2-33.7c-17.8,0-32.2,15.1-32.2,33.7
	C1863.2,374.6,1877.6,389.7,1895.4,389.7z M1976.6,389.7c17.8,0,32.2-15.1,32.2-33.7c0-18.6-14.4-33.7-32.2-33.7
	c-17.8,0-32.2,15.1-32.2,33.7C1944.4,374.6,1958.8,389.7,1976.6,389.7z"/>
</svg>
